<?xml version="1.0" encoding="utf-8"?>
<!-- Generator: Adobe Illustrator 27.2.0, SVG Export Plug-In . SVG Version: 6.00 Build 0)  -->
<svg version="1.1" id="Layer_1" xmlns="http://www.w3.org/2000/svg" xmlns:xlink="http://www.w3.org/1999/xlink" x="0px" y="0px"
	 viewBox="0 0 326.8 191.6" style="enable-background:new 0 0 326.8 191.6;" xml:space="preserve">
<style type="text/css">
	.st0{clip-path:url(#SVGID_00000093167095185302508410000012715944925500244916_);}
	.st1{fill:#FF914D;}
	.st2{clip-path:url(#SVGID_00000171687741790804041040000004818621321706217126_);}
	.st3{clip-path:url(#SVGID_00000180326420651140844480000012895904121980340657_);}
	.st4{fill:none;}
	.st5{filter:url(#Adobe_OpacityMaskFilter);}
	.st6{fill-rule:evenodd;clip-rule:evenodd;fill:url(#SVGID_00000093175120174843032760000009865853650094057151_);}
	
		.st7{mask:url(#SVGID_00000015317544416246534120000017549243144894825367_);fill-rule:evenodd;clip-rule:evenodd;fill:url(#SVGID_00000157294828922735486950000017135094874266575284_);}
	.st8{filter:url(#Adobe_OpacityMaskFilter_00000003827872126892413630000014418273250695727233_);}
	.st9{fill-rule:evenodd;clip-rule:evenodd;fill:url(#SVGID_00000032615581200831731770000003554062038036253620_);}
	
		.st10{mask:url(#SVGID_00000113344744093857196380000002508238819959109031_);fill-rule:evenodd;clip-rule:evenodd;fill:url(#SVGID_00000036232864601592167350000010543226012819387035_);}
	.st11{clip-path:url(#SVGID_00000164491437729013946850000010688546830690571191_);}
	.st12{fill:#004AAD;}
	.st13{fill:#FF3131;}
</style>
<g>
	<defs>
		<rect id="SVGID_1_" x="127" y="2.5" width="60" height="71.2"/>
	</defs>
	<clipPath id="SVGID_00000058558613259751044480000007518877427603515829_">
		<use xlink:href="#SVGID_1_"  style="overflow:visible;"/>
	</clipPath>
	<g style="clip-path:url(#SVGID_00000058558613259751044480000007518877427603515829_);">
		<path class="st1" d="M127,48.8c0-6.8,1.8-12.3,4.8-16.5c0,8.3,2,11.3,6.4,11.3c2.9,0,6-2.2,6-6c0-3.4-2.3-9.5-2.3-16.1
			S144,7.8,153,2.6c-2,5.3-2.8,9.8-2.8,13.5c0,9.7,5.9,14.1,11.1,14.1c4.2,0,8.6-2.8,8.6-10.7c2.8,3.1,4.1,6.7,4.1,10.3
			c0,5.7-3.1,10.7-3.1,15.3c0,3.8,3,6,6,6c5.2,0,6.8-4.7,6.8-12.4c1.6,2.7,2.9,7.9,2.9,12.4c0,13.4-12.7,23.1-26.8,23.1
			c11.9-4.5,14.1-10.5,14.1-17.2c-2.9,5.2-6,6-7.4,6c-9,0,0.7-17.2-15-29.1c2.6,5.5,3.6,10.3,3.6,14.1c0,8.3-4.5,12.8-8.8,12.8
			c-3.7,0-7.3-2.9-8.8-9.2c0,8.7,2.6,17,14,22.6C133.7,71.2,127,60,127,48.8z"/>
	</g>
</g>
<g>
	<defs>
		<rect id="SVGID_00000168117349704791573060000007892835489761666980_" x="2.5" y="38.3" width="150" height="150"/>
	</defs>
	<clipPath id="SVGID_00000041259057522669543200000013618126217146194321_">
		<use xlink:href="#SVGID_00000168117349704791573060000007892835489761666980_"  style="overflow:visible;"/>
	</clipPath>
	<g style="clip-path:url(#SVGID_00000041259057522669543200000013618126217146194321_);">
		<g>
			<g>
				<defs>
					<path id="SVGID_00000027579682285136320020000004869570686087595425_" d="M77.5,188.3c-1.2,0-2.5,0-3.7-0.1
						c-1.2-0.1-2.5-0.2-3.7-0.3c-1.2-0.1-2.4-0.3-3.7-0.5c-1.2-0.2-2.4-0.4-3.6-0.6c-1.2-0.2-2.4-0.5-3.6-0.8
						c-1.2-0.3-2.4-0.6-3.5-1c-1.2-0.4-2.4-0.7-3.5-1.2c-1.1-0.4-2.3-0.9-3.4-1.3c-1.1-0.5-2.3-1-3.4-1.5c-1.1-0.5-2.2-1.1-3.3-1.7
						c-1.1-0.6-2.1-1.2-3.2-1.8c-1-0.6-2.1-1.3-3.1-2c-1-0.7-2-1.4-3-2.1c-1-0.7-2-1.5-2.9-2.3c-0.9-0.8-1.9-1.6-2.8-2.4
						c-0.9-0.8-1.8-1.7-2.7-2.5c-0.9-0.9-1.7-1.8-2.5-2.7c-0.8-0.9-1.6-1.8-2.4-2.8c-0.8-0.9-1.5-1.9-2.3-2.9c-0.7-1-1.4-2-2.1-3
						c-0.7-1-1.3-2.1-2-3.1s-1.2-2.1-1.8-3.2c-0.6-1.1-1.1-2.2-1.7-3.3c-0.5-1.1-1-2.2-1.5-3.4c-0.5-1.1-0.9-2.3-1.3-3.4
						c-0.4-1.1-0.8-2.3-1.2-3.5c-0.4-1.2-0.7-2.4-1-3.5c-0.3-1.2-0.6-2.4-0.8-3.6c-0.2-1.2-0.5-2.4-0.6-3.6
						c-0.2-1.2-0.3-2.4-0.5-3.7c-0.1-1.2-0.2-2.5-0.3-3.7c-0.1-1.2-0.1-2.5-0.1-3.7s0-2.5,0.1-3.7c0.1-1.2,0.2-2.4,0.3-3.7
						c0.1-1.2,0.3-2.5,0.5-3.7c0.2-1.2,0.4-2.4,0.6-3.6c0.2-1.2,0.5-2.4,0.8-3.6c0.3-1.2,0.6-2.4,1-3.5c0.4-1.2,0.7-2.3,1.2-3.5
						c0.4-1.1,0.9-2.3,1.3-3.4c0.5-1.1,1-2.3,1.5-3.4c0.5-1.1,1.1-2.2,1.7-3.3c0.6-1.1,1.2-2.2,1.8-3.2c0.6-1,1.3-2.1,2-3.1
						c0.7-1,1.4-2,2.1-3c0.7-1,1.5-2,2.3-2.9c0.8-0.9,1.6-1.9,2.4-2.8c0.8-0.9,1.7-1.8,2.5-2.7c0.9-0.9,1.8-1.7,2.7-2.5
						c0.9-0.8,1.8-1.6,2.8-2.4c0.9-0.8,1.9-1.5,2.9-2.3c1-0.7,2-1.4,3-2.1c1-0.7,2.1-1.3,3.1-2c1-0.6,2.1-1.2,3.2-1.8
						c1.1-0.6,2.2-1.1,3.3-1.7c1.1-0.5,2.2-1,3.4-1.5c1.1-0.5,2.3-0.9,3.4-1.3c1.2-0.4,2.3-0.8,3.5-1.2c1.2-0.4,2.4-0.7,3.5-1
						c1.2-0.3,2.4-0.6,3.6-0.8c1.2-0.2,2.4-0.5,3.6-0.6c1.2-0.2,2.4-0.3,3.7-0.5c1.2-0.1,2.5-0.2,3.7-0.3c2.4-0.1,4.9-0.1,7.4,0
						c1.2,0.1,2.4,0.2,3.7,0.3c1.2,0.1,2.4,0.3,3.7,0.5c1.2,0.2,2.4,0.4,3.6,0.6c1.2,0.2,2.4,0.5,3.6,0.8c1.2,0.3,2.4,0.6,3.5,1
						c1.2,0.4,2.3,0.7,3.5,1.2c1.1,0.4,2.3,0.9,3.4,1.3c1.1,0.5,2.3,1,3.4,1.5c1.1,0.5,2.2,1.1,3.3,1.7c1.1,0.6,2.2,1.2,3.2,1.8
						c1,0.6,2.1,1.3,3.1,2c1,0.7,2,1.4,3,2.1c1,0.7,2,1.5,2.9,2.3c0.9,0.8,1.9,1.6,2.8,2.4c0.9,0.8,1.8,1.7,2.7,2.5
						c0.9,0.9,1.7,1.8,2.5,2.7c0.8,0.9,1.6,1.8,2.4,2.8c0.8,0.9,1.5,1.9,2.3,2.9c0.7,1,1.4,2,2.1,3c0.7,1,1.3,2.1,2,3.1
						c0.6,1,1.2,2.1,1.8,3.2c0.6,1.1,1.1,2.2,1.7,3.3c0.5,1.1,1,2.2,1.5,3.4c0.5,1.1,0.9,2.3,1.3,3.4c0.4,1.2,0.8,2.3,1.2,3.5
						c0.4,1.2,0.7,2.4,1,3.5c0.3,1.2,0.6,2.4,0.8,3.6c0.2,1.2,0.5,2.4,0.6,3.6c0.2,1.2,0.3,2.4,0.5,3.7c0.1,1.2,0.2,2.5,0.3,3.7
						c0.1,1.2,0.1,2.5,0.1,3.7s0,2.5-0.1,3.7c-0.1,1.2-0.2,2.5-0.3,3.7c-0.1,1.2-0.3,2.4-0.5,3.7c-0.2,1.2-0.4,2.4-0.6,3.6
						c-0.2,1.2-0.5,2.4-0.8,3.6c-0.3,1.2-0.6,2.4-1,3.5c-0.4,1.2-0.7,2.3-1.2,3.5c-0.4,1.2-0.9,2.3-1.3,3.4c-0.5,1.1-1,2.3-1.5,3.4
						c-0.5,1.1-1.1,2.2-1.7,3.3s-1.2,2.2-1.8,3.2c-0.6,1.1-1.3,2.1-2,3.1c-0.7,1-1.4,2-2.1,3c-0.7,1-1.5,2-2.3,2.9
						c-0.8,1-1.6,1.9-2.4,2.8c-0.8,0.9-1.7,1.8-2.5,2.7c-0.9,0.9-1.8,1.7-2.7,2.5c-0.9,0.8-1.8,1.6-2.8,2.4
						c-0.9,0.8-1.9,1.5-2.9,2.3c-1,0.7-2,1.4-3,2.1c-1,0.7-2.1,1.3-3.1,2c-1.1,0.6-2.1,1.2-3.2,1.8c-1.1,0.6-2.2,1.1-3.3,1.7
						c-1.1,0.5-2.2,1-3.4,1.5c-1.1,0.5-2.3,0.9-3.4,1.3c-1.1,0.4-2.3,0.8-3.5,1.2c-1.2,0.4-2.4,0.7-3.5,1c-1.2,0.3-2.4,0.6-3.6,0.8
						c-1.2,0.2-2.4,0.4-3.6,0.6c-1.2,0.2-2.4,0.3-3.7,0.5c-1.2,0.1-2.4,0.2-3.7,0.3C80,188.3,78.7,188.3,77.5,188.3z M77.5,42.9
						c-1.1,0-2.3,0-3.5,0.1c-1.1,0.1-2.3,0.1-3.4,0.3c-1.1,0.1-2.3,0.3-3.4,0.4c-1.1,0.2-2.3,0.4-3.4,0.6c-1.1,0.2-2.3,0.5-3.4,0.8
						c-1.1,0.3-2.2,0.6-3.3,0.9c-1.1,0.3-2.2,0.7-3.3,1.1c-1.1,0.4-2.2,0.8-3.2,1.2c-1.1,0.4-2.1,0.9-3.2,1.4c-1,0.5-2.1,1-3.1,1.6
						c-1,0.5-2,1.1-3,1.7c-1,0.6-2,1.2-2.9,1.9c-0.9,0.6-1.9,1.3-2.8,2c-0.9,0.7-1.8,1.4-2.7,2.1c-0.9,0.7-1.8,1.5-2.6,2.3
						c-0.8,0.8-1.7,1.6-2.5,2.4c-0.8,0.8-1.6,1.7-2.4,2.5c-0.8,0.9-1.5,1.7-2.3,2.6c-0.7,0.9-1.4,1.8-2.1,2.7
						c-0.7,0.9-1.4,1.9-2,2.8c-0.6,1-1.3,1.9-1.9,2.9c-0.6,1-1.2,2-1.7,3c-0.5,1-1.1,2.1-1.6,3.1c-0.5,1-1,2.1-1.4,3.2
						c-0.4,1.1-0.9,2.1-1.2,3.2c-0.4,1.1-0.8,2.2-1.1,3.3c-0.3,1.1-0.6,2.2-0.9,3.3c-0.3,1.1-0.5,2.2-0.8,3.4
						c-0.2,1.1-0.4,2.3-0.6,3.4c-0.2,1.1-0.3,2.3-0.4,3.4c-0.1,1.1-0.2,2.3-0.3,3.4C7.1,111,7,112.2,7,113.3s0,2.3,0.1,3.5
						c0.1,1.1,0.1,2.3,0.3,3.5c0.1,1.1,0.3,2.3,0.4,3.4c0.2,1.1,0.4,2.3,0.6,3.4c0.2,1.1,0.5,2.3,0.8,3.4c0.3,1.1,0.6,2.2,0.9,3.3
						c0.3,1.1,0.7,2.2,1.1,3.3c0.4,1.1,0.8,2.2,1.2,3.2c0.4,1.1,0.9,2.1,1.4,3.2c0.5,1,1,2.1,1.6,3.1c0.5,1,1.1,2,1.7,3
						c0.6,1,1.2,2,1.8,2.9c0.6,1,1.3,1.9,2,2.8c0.7,0.9,1.4,1.8,2.1,2.7c0.7,0.9,1.5,1.8,2.3,2.6c0.8,0.9,1.6,1.7,2.4,2.5
						c0.8,0.8,1.6,1.6,2.5,2.4c0.9,0.8,1.7,1.5,2.6,2.3c0.9,0.7,1.8,1.4,2.7,2.1c0.9,0.7,1.9,1.4,2.8,2c1,0.6,1.9,1.3,2.9,1.9
						c1,0.6,2,1.2,3,1.7c1,0.5,2.1,1.1,3.1,1.6c1,0.5,2.1,1,3.2,1.4c1.1,0.4,2.2,0.9,3.2,1.2c1.1,0.4,2.2,0.8,3.3,1.1
						c1.1,0.3,2.2,0.6,3.3,0.9c1.1,0.3,2.2,0.5,3.4,0.8c1.1,0.2,2.3,0.4,3.4,0.6c1.1,0.2,2.3,0.3,3.4,0.4c1.1,0.1,2.3,0.2,3.4,0.3
						c2.3,0.1,4.6,0.1,6.9,0c1.2-0.1,2.3-0.1,3.4-0.3c1.1-0.1,2.3-0.3,3.4-0.4c1.1-0.2,2.3-0.4,3.4-0.6c1.1-0.2,2.3-0.5,3.4-0.8
						c1.1-0.3,2.2-0.6,3.3-0.9c1.1-0.3,2.2-0.7,3.3-1.1c1.1-0.4,2.2-0.8,3.2-1.2c1.1-0.4,2.1-0.9,3.2-1.4c1-0.5,2.1-1,3.1-1.6
						c1-0.5,2-1.1,3-1.7c1-0.6,2-1.2,2.9-1.8c0.9-0.6,1.9-1.3,2.8-2c0.9-0.7,1.8-1.4,2.7-2.1c0.9-0.7,1.8-1.5,2.6-2.3
						c0.9-0.8,1.7-1.6,2.5-2.4c0.8-0.8,1.6-1.7,2.4-2.5c0.8-0.8,1.5-1.7,2.3-2.6c0.7-0.9,1.4-1.8,2.1-2.7c0.7-0.9,1.3-1.9,2-2.8
						c0.6-1,1.3-1.9,1.9-2.9c0.6-1,1.2-2,1.7-3c0.5-1,1.1-2,1.6-3.1c0.5-1,1-2.1,1.4-3.2c0.4-1.1,0.9-2.1,1.2-3.2
						c0.4-1.1,0.8-2.2,1.1-3.3c0.3-1.1,0.6-2.2,0.9-3.3c0.3-1.1,0.5-2.3,0.8-3.4c0.2-1.1,0.4-2.3,0.6-3.4c0.2-1.1,0.3-2.3,0.4-3.4
						c0.1-1.1,0.2-2.3,0.3-3.4c0.1-1.1,0.1-2.3,0.1-3.5s0-2.3-0.1-3.5c-0.1-1.1-0.1-2.3-0.3-3.4c-0.1-1.1-0.3-2.3-0.4-3.4
						c-0.2-1.1-0.4-2.3-0.6-3.4c-0.2-1.1-0.5-2.3-0.8-3.4c-0.3-1.1-0.6-2.2-0.9-3.3c-0.3-1.1-0.7-2.2-1.1-3.3
						c-0.4-1.1-0.8-2.2-1.2-3.2c-0.4-1.1-0.9-2.1-1.4-3.2c-0.5-1-1-2.1-1.6-3.1c-0.5-1-1.1-2-1.7-3c-0.6-1-1.2-2-1.9-2.9
						c-0.6-1-1.3-1.9-2-2.8c-0.7-0.9-1.4-1.8-2.1-2.7c-0.7-0.9-1.5-1.8-2.3-2.6c-0.8-0.8-1.6-1.7-2.4-2.5c-0.8-0.8-1.7-1.6-2.5-2.4
						c-0.8-0.8-1.7-1.5-2.6-2.3c-0.9-0.7-1.8-1.4-2.7-2.1c-0.9-0.7-1.9-1.4-2.8-2c-1-0.6-1.9-1.3-2.9-1.9c-1-0.6-2-1.2-3-1.7
						c-1-0.5-2.1-1.1-3.1-1.6c-1-0.5-2.1-1-3.2-1.4c-1.1-0.4-2.1-0.9-3.2-1.2c-1.1-0.4-2.2-0.8-3.3-1.1c-1.1-0.3-2.2-0.6-3.3-0.9
						c-1.1-0.3-2.2-0.5-3.4-0.8c-1.1-0.2-2.3-0.4-3.4-0.6c-1.1-0.2-2.3-0.3-3.4-0.4C83.3,43.1,82.1,43,81,43
						C79.8,42.9,78.6,42.9,77.5,42.9z"/>
				</defs>
				<clipPath id="SVGID_00000021104548683693826360000008295896678115569057_">
					<use xlink:href="#SVGID_00000027579682285136320020000004869570686087595425_"  style="overflow:visible;"/>
				</clipPath>
				<g style="clip-path:url(#SVGID_00000021104548683693826360000008295896678115569057_);">
					<rect x="2" y="37.6" class="st4" width="151" height="151"/>
					<defs>
						<filter id="Adobe_OpacityMaskFilter" filterUnits="userSpaceOnUse" x="2" y="37.6" width="151" height="151">
							<feColorMatrix  type="matrix" values="1 0 0 0 0  0 1 0 0 0  0 0 1 0 0  0 0 0 1 0"/>
						</filter>
					</defs>
					
						<mask maskUnits="userSpaceOnUse" x="2" y="37.6" width="151" height="151" id="SVGID_00000022518862933692287490000017823527135542138020_">
						<g class="st5">
							
								<linearGradient id="SVGID_00000143592296491217212670000002876579466575375029_" gradientUnits="userSpaceOnUse" x1="-35.0002" y1="-378.5582" x2="1283.64" y2="-378.5582" gradientTransform="matrix(0.1138 0 0 -0.1138 6.4815 70.0311)">
								<stop  offset="0" style="stop-color:#FFFFFF"/>
								<stop  offset="0.4" style="stop-color:#FFFFFF"/>
								<stop  offset="0.83" style="stop-color:#000000"/>
								<stop  offset="1" style="stop-color:#000000"/>
							</linearGradient>
							
								<rect x="2" y="37.6" style="fill-rule:evenodd;clip-rule:evenodd;fill:url(#SVGID_00000143592296491217212670000002876579466575375029_);" width="151" height="151"/>
						</g>
					</mask>
					
						<linearGradient id="SVGID_00000043420132013337994260000000880926536561042312_" gradientUnits="userSpaceOnUse" x1="-35.0002" y1="-378.5582" x2="1283.64" y2="-378.5582" gradientTransform="matrix(0.1138 0 0 -0.1138 6.4815 70.0311)">
						<stop  offset="0" style="stop-color:#004AAD"/>
						<stop  offset="0.4" style="stop-color:#004AAD"/>
						<stop  offset="0.83" style="stop-color:#FFFFFF"/>
						<stop  offset="1" style="stop-color:#FFFFFF"/>
					</linearGradient>
					
						<rect x="2" y="37.6" style="mask:url(#SVGID_00000022518862933692287490000017823527135542138020_);fill-rule:evenodd;clip-rule:evenodd;fill:url(#SVGID_00000043420132013337994260000000880926536561042312_);" width="151" height="151"/>
				</g>
				<g style="clip-path:url(#SVGID_00000021104548683693826360000008295896678115569057_);">
					<rect x="2" y="37.6" class="st4" width="151" height="151"/>
					<defs>
						
							<filter id="Adobe_OpacityMaskFilter_00000101797490500707860480000002322510615088026002_" filterUnits="userSpaceOnUse" x="2" y="37.6" width="151" height="151">
							<feColorMatrix  type="matrix" values="1 0 0 0 0  0 1 0 0 0  0 0 1 0 0  0 0 0 1 0"/>
						</filter>
					</defs>
					
						<mask maskUnits="userSpaceOnUse" x="2" y="37.6" width="151" height="151" id="SVGID_00000085241388123463002570000004326721917129316239_">
						<g style="filter:url(#Adobe_OpacityMaskFilter_00000101797490500707860480000002322510615088026002_);">
							
								<linearGradient id="SVGID_00000076580072736006818280000015752064618815170481_" gradientUnits="userSpaceOnUse" x1="-35.0002" y1="-378.5582" x2="1283.64" y2="-378.5582" gradientTransform="matrix(0.1138 0 0 -0.1138 6.4815 70.0311)">
								<stop  offset="0" style="stop-color:#FFFFFF"/>
								<stop  offset="0.4" style="stop-color:#FFFFFF"/>
								<stop  offset="0.83" style="stop-color:#000000"/>
								<stop  offset="1" style="stop-color:#000000"/>
							</linearGradient>
							
								<rect x="2" y="37.6" style="fill-rule:evenodd;clip-rule:evenodd;fill:url(#SVGID_00000076580072736006818280000015752064618815170481_);" width="151" height="151"/>
						</g>
					</mask>
					
						<linearGradient id="SVGID_00000075147029368466185240000015992052963154976954_" gradientUnits="userSpaceOnUse" x1="-35.0002" y1="-378.5582" x2="1283.64" y2="-378.5582" gradientTransform="matrix(0.1138 0 0 -0.1138 6.4815 70.0311)">
						<stop  offset="0" style="stop-color:#004AAD"/>
						<stop  offset="0.4" style="stop-color:#004AAD"/>
						<stop  offset="0.83" style="stop-color:#FFFFFF"/>
						<stop  offset="1" style="stop-color:#FFFFFF"/>
					</linearGradient>
					
						<rect x="2" y="37.6" style="mask:url(#SVGID_00000085241388123463002570000004326721917129316239_);fill-rule:evenodd;clip-rule:evenodd;fill:url(#SVGID_00000075147029368466185240000015992052963154976954_);" width="151" height="151"/>
				</g>
			</g>
		</g>
	</g>
</g>
<g>
	<defs>
		<rect id="SVGID_00000086684226121456686300000013486236514765453235_" x="-35" y="-104.4" width="375" height="375"/>
	</defs>
	<clipPath id="SVGID_00000014604254527820279090000006235679055368310954_">
		<use xlink:href="#SVGID_00000086684226121456686300000013486236514765453235_"  style="overflow:visible;"/>
	</clipPath>
	<g style="clip-path:url(#SVGID_00000014604254527820279090000006235679055368310954_);">
		<path class="st12" d="M35.1,96.8h-5.6v8.3h-8.2V81.5h8.2v7.9h5.6v-7.9h8.2v23.7h-8.2V96.8z"/>
	</g>
	<g style="clip-path:url(#SVGID_00000014604254527820279090000006235679055368310954_);">
		<path class="st12" d="M57.4,81.5h8.2v23.7h-8.2V81.5z"/>
	</g>
	<g style="clip-path:url(#SVGID_00000014604254527820279090000006235679055368310954_);">
		<path class="st12" d="M80,81.5h6.6l7.4,10l7.4-10h6.6v23.7h-8v-5.5l0.1-4.9H100l-3.7,5.1h-4.5L88,94.8l-0.1,0l0.1,4.9v5.5h-8V81.5
			z"/>
	</g>
	<g style="clip-path:url(#SVGID_00000014604254527820279090000006235679055368310954_);">
		<path class="st12" d="M128.8,81.5h8.5l8.8,23.7h-8.6l-1-2.9h-6.9l-1,2.9H120L128.8,81.5z M135.3,96.8l-2.1-6.5H133l-2.1,6.5H135.3
			z"/>
	</g>
	<g style="clip-path:url(#SVGID_00000014604254527820279090000006235679055368310954_);">
		<path class="st12" d="M159,81.5h8.2v16.2h9v7.5H159V81.5z"/>
	</g>
	<g style="clip-path:url(#SVGID_00000014604254527820279090000006235679055368310954_);">
		<path class="st12" d="M195.9,81.5h8.5l8.8,23.7h-8.6l-1-2.9h-6.9l-1,2.9h-8.5L195.9,81.5z M202.3,96.8l-2.1-6.5h-0.1l-2.1,6.5
			H202.3z"/>
	</g>
	<g style="clip-path:url(#SVGID_00000014604254527820279090000006235679055368310954_);">
		<path class="st12" d="M232.4,97.3L224,81.5h9.1l1.9,4.4l1.5,3.6h0.1l1.4-3.6l1.9-4.4h9.1l-8.4,15.7v8h-8.2V97.3z"/>
	</g>
	<g style="clip-path:url(#SVGID_00000014604254527820279090000006235679055368310954_);">
		<path class="st12" d="M268.5,81.5h8.5l8.8,23.7h-8.6l-1-2.9h-6.9l-1,2.9h-8.5L268.5,81.5z M275,96.8l-2.1-6.5h-0.1l-2.1,6.5H275z"
			/>
	</g>
	<g style="clip-path:url(#SVGID_00000014604254527820279090000006235679055368310954_);">
		<path class="st12" d="M298.7,81.5h6.6l7.6,10.2h0.1l-0.1-3v-7.2h8v23.7h-6.6l-7.6-10.3h-0.1l0.1,3.1v7.2h-8V81.5z"/>
	</g>
	<g style="clip-path:url(#SVGID_00000014604254527820279090000006235679055368310954_);">
		<path class="st13" d="M41.2,117.5h16.3v7h-8.2v3.7h7.3v6.7h-7.3v6.3h-8.1V117.5z"/>
	</g>
	<g style="clip-path:url(#SVGID_00000014604254527820279090000006235679055368310954_);">
		<path class="st13" d="M70.6,117.5h8.2v16.2h9v7.5H70.6V117.5z"/>
	</g>
	<g style="clip-path:url(#SVGID_00000014604254527820279090000006235679055368310954_);">
		<path class="st13" d="M107.5,117.5h8.5l8.8,23.7h-8.6l-1-2.9h-6.9l-1,2.9h-8.5L107.5,117.5z M113.9,132.8l-2.1-6.5h-0.1l-2.1,6.5
			H113.9z"/>
	</g>
	<g style="clip-path:url(#SVGID_00000014604254527820279090000006235679055368310954_);">
		<path class="st13" d="M135.6,117.5h8.7l2.3,7.3l1.7,5.7h0.1l1.7-5.7l2.3-7.3h8.7l-8.5,23.7h-8.5L135.6,117.5z"/>
	</g>
	<g style="clip-path:url(#SVGID_00000014604254527820279090000006235679055368310954_);">
		<path class="st13" d="M179,140.1c-2-1-3.5-2.5-4.6-4.4s-1.7-4-1.7-6.4c0-2.4,0.6-4.5,1.7-6.4c1.1-1.9,2.7-3.3,4.6-4.4
			s4.3-1.6,6.8-1.6c2.6,0,4.9,0.5,6.8,1.6c2,1,3.5,2.5,4.6,4.4c1.1,1.9,1.7,4,1.7,6.4c0,2.4-0.6,4.5-1.7,6.4
			c-1.1,1.9-2.7,3.3-4.6,4.4c-2,1-4.3,1.6-6.8,1.6C183.2,141.7,181,141.2,179,140.1z M182.3,132.9c0.9,0.9,2.1,1.4,3.5,1.4
			c1.4,0,2.6-0.5,3.5-1.4s1.4-2.1,1.4-3.5c0-1.4-0.5-2.6-1.4-3.5c-0.9-0.9-2.1-1.4-3.5-1.4c-1.4,0-2.6,0.5-3.5,1.4
			c-0.9,0.9-1.4,2.1-1.4,3.5C180.9,130.8,181.4,132,182.3,132.9z"/>
	</g>
	<g style="clip-path:url(#SVGID_00000014604254527820279090000006235679055368310954_);">
		<path class="st13" d="M216.4,140.5c-1.6-0.8-2.9-2-3.8-3.6s-1.3-3.4-1.3-5.6v-13.9h8.2v13.4c0,2.2,0.9,3.3,2.7,3.3
			c1.8,0,2.7-1.1,2.7-3.3v-13.4h8.2v13.9c0,2.1-0.4,4-1.3,5.6s-2.1,2.7-3.8,3.6c-1.6,0.8-3.6,1.2-5.8,1.2
			C220,141.7,218.1,141.3,216.4,140.5z"/>
	</g>
	<g style="clip-path:url(#SVGID_00000014604254527820279090000006235679055368310954_);">
		<path class="st13" d="M247.2,117.5h11.7c2,0,3.7,0.4,5.2,1c1.5,0.7,2.6,1.7,3.4,3c0.8,1.3,1.2,2.9,1.2,4.6c0,1.6-0.3,2.9-0.9,4.1
			c-0.6,1.2-1.5,2.2-2.6,2.9l4,7.9h-9l-2.8-6.3h-1.9v6.3h-8.1V117.5z M257.6,128.9c0.9,0,1.6-0.2,2.1-0.7c0.5-0.4,0.7-1.1,0.7-1.9
			c0-0.8-0.2-1.5-0.7-1.9s-1.2-0.6-2.1-0.6h-2.4v5.1H257.6z"/>
	</g>
	<g style="clip-path:url(#SVGID_00000014604254527820279090000006235679055368310954_);">
		<path class="st13" d="M284.1,139.5c-1.8-1.5-2.7-3.5-2.7-6.1h7.8c0,0.8,0.2,1.4,0.6,1.8c0.4,0.4,1,0.6,1.8,0.6
			c0.7,0,1.2-0.1,1.5-0.4s0.5-0.6,0.5-1.1c0-0.6-0.3-1.1-0.9-1.4c-0.6-0.4-1.6-0.7-3-0.9c-2.8-0.5-4.9-1.3-6.2-2.5
			c-1.3-1.2-2-2.9-2-4.9c0-2.3,0.9-4.2,2.6-5.5c1.7-1.3,4-2,7-2c2,0,3.8,0.3,5.3,1c1.5,0.7,2.7,1.6,3.5,2.8c0.8,1.2,1.2,2.7,1.3,4.3
			h-7.7c0-0.7-0.2-1.3-0.6-1.7c-0.4-0.4-1-0.6-1.7-0.6c-0.6,0-1.1,0.1-1.5,0.4c-0.4,0.3-0.5,0.6-0.5,1.1c0,0.5,0.3,1,0.9,1.3
			c0.6,0.3,1.6,0.6,3,0.9c3,0.6,5.1,1.4,6.5,2.6c1.4,1.2,2,2.8,2,4.8c0,2.4-0.9,4.3-2.6,5.7c-1.8,1.4-4.2,2-7.4,2
			C288.4,141.7,285.9,141,284.1,139.5z"/>
	</g>
	<g style="clip-path:url(#SVGID_00000014604254527820279090000006235679055368310954_);">
		<path d="M57.4,166.6l-2.7-4.7h-1.1v4.7h-2.4v-12.1h4.5c0.9,0,1.7,0.2,2.4,0.5c0.7,0.3,1.2,0.8,1.5,1.3c0.3,0.6,0.5,1.2,0.5,1.9
			c0,0.8-0.2,1.5-0.7,2.2c-0.5,0.6-1.2,1.1-2.1,1.3l2.9,4.9H57.4z M53.6,160.1h2c0.7,0,1.2-0.2,1.5-0.5c0.3-0.3,0.5-0.8,0.5-1.3
			c0-0.6-0.2-1-0.5-1.3s-0.8-0.5-1.5-0.5h-2V160.1z"/>
	</g>
	<g style="clip-path:url(#SVGID_00000014604254527820279090000006235679055368310954_);">
		<path d="M79.1,156.5v3h4.1v1.9h-4.1v3.2h4.6v2h-7v-12.1h7v2H79.1z"/>
	</g>
	<g style="clip-path:url(#SVGID_00000014604254527820279090000006235679055368310954_);">
		<path d="M103.1,166.3c-0.7-0.3-1.2-0.7-1.6-1.2s-0.6-1.2-0.6-1.9h2.6c0,0.5,0.2,0.9,0.5,1.2c0.3,0.3,0.8,0.4,1.3,0.4
			c0.6,0,1-0.1,1.3-0.4c0.3-0.3,0.5-0.6,0.5-1.1c0-0.4-0.1-0.7-0.3-0.9s-0.5-0.4-0.8-0.5c-0.3-0.1-0.8-0.3-1.4-0.4
			c-0.8-0.2-1.4-0.5-1.9-0.7c-0.5-0.2-0.9-0.6-1.3-1c-0.4-0.5-0.5-1.1-0.5-1.8c0-0.7,0.2-1.3,0.5-1.9c0.4-0.5,0.9-0.9,1.5-1.2
			c0.6-0.3,1.4-0.4,2.2-0.4c1.2,0,2.3,0.3,3,0.9s1.2,1.5,1.3,2.5h-2.7c0-0.4-0.2-0.8-0.5-1c-0.3-0.3-0.8-0.4-1.3-0.4
			c-0.5,0-0.9,0.1-1.1,0.4s-0.4,0.6-0.4,1.1c0,0.3,0.1,0.6,0.3,0.8c0.2,0.2,0.5,0.4,0.8,0.5s0.8,0.3,1.3,0.5
			c0.8,0.2,1.4,0.5,1.9,0.7c0.5,0.2,0.9,0.6,1.3,1s0.5,1.1,0.5,1.8c0,0.6-0.2,1.2-0.5,1.8c-0.3,0.6-0.8,1-1.5,1.3
			c-0.6,0.3-1.4,0.5-2.3,0.5C104.5,166.7,103.8,166.6,103.1,166.3z"/>
	</g>
	<g style="clip-path:url(#SVGID_00000014604254527820279090000006235679055368310954_);">
		<path d="M134,154.5v2h-3.2v10.2h-2.4v-10.2h-3.2v-2H134z"/>
	</g>
	<g style="clip-path:url(#SVGID_00000014604254527820279090000006235679055368310954_);">
		<path d="M157.3,164.3h-4.8l-0.8,2.3h-2.6l4.4-12.1h2.8l4.4,12.1h-2.6L157.3,164.3z M156.7,162.4l-1.8-5.1l-1.8,5.1H156.7z"/>
	</g>
	<g style="clip-path:url(#SVGID_00000014604254527820279090000006235679055368310954_);">
		<path d="M178.3,154.5v7.5c0,0.8,0.2,1.4,0.6,1.9c0.4,0.4,1,0.7,1.8,0.7c0.8,0,1.4-0.2,1.8-0.7c0.4-0.4,0.6-1.1,0.6-1.9v-7.5h2.4
			v7.5c0,1-0.2,1.9-0.7,2.6c-0.4,0.7-1,1.2-1.8,1.6c-0.7,0.4-1.6,0.5-2.5,0.5c-0.9,0-1.7-0.2-2.5-0.5c-0.7-0.4-1.3-0.9-1.7-1.6
			c-0.4-0.7-0.6-1.6-0.6-2.6v-7.5H178.3z"/>
	</g>
	<g style="clip-path:url(#SVGID_00000014604254527820279090000006235679055368310954_);">
		<path d="M209.2,166.6l-2.7-4.7h-1.1v4.7h-2.4v-12.1h4.5c0.9,0,1.7,0.2,2.4,0.5c0.7,0.3,1.2,0.8,1.5,1.3c0.3,0.6,0.5,1.2,0.5,1.9
			c0,0.8-0.2,1.5-0.7,2.2c-0.5,0.6-1.2,1.1-2.1,1.3l2.9,4.9H209.2z M205.3,160.1h2c0.7,0,1.2-0.2,1.5-0.5c0.3-0.3,0.5-0.8,0.5-1.3
			c0-0.6-0.2-1-0.5-1.3s-0.8-0.5-1.5-0.5h-2V160.1z"/>
	</g>
	<g style="clip-path:url(#SVGID_00000014604254527820279090000006235679055368310954_);">
		<path d="M235.8,164.3H231l-0.8,2.3h-2.6l4.4-12.1h2.8l4.4,12.1h-2.6L235.8,164.3z M235.2,162.4l-1.8-5.1l-1.8,5.1H235.2z"/>
	</g>
	<g style="clip-path:url(#SVGID_00000014604254527820279090000006235679055368310954_);">
		<path d="M264.7,166.6h-2.4l-5.5-8.3v8.3h-2.4v-12.1h2.4l5.5,8.3v-8.3h2.4V166.6z"/>
	</g>
	<g style="clip-path:url(#SVGID_00000014604254527820279090000006235679055368310954_);">
		<path d="M290.1,154.5v2h-3.2v10.2h-2.4v-10.2h-3.2v-2H290.1z"/>
	</g>
</g>
</svg>
