<svg version="1.2" xmlns="http://www.w3.org/2000/svg" viewBox="0 0 2475 1650" width="1080" height="720">
	<title>20944629</title>
	<defs>
		<linearGradient id="g1" x2="1" gradientUnits="userSpaceOnUse" gradientTransform="matrix(-2201.883,0,0,-1195.425,2392.162,255.06)">
			<stop offset="0" stop-color="#fff7ed"/>
			<stop offset="1" stop-color="#fff"/>
		</linearGradient>
		<linearGradient id="g2" x2="1" gradientUnits="userSpaceOnUse" gradientTransform="matrix(25.888,-282.653,77.275,7.078,1202.767,746.532)">
			<stop offset="0" stop-color="#f97316"/>
			<stop offset="1" stop-color="#f76011"/>
		</linearGradient>
		<linearGradient id="g3" x2="1" gradientUnits="userSpaceOnUse" gradientTransform="matrix(719.998,-18.59,52.563,2035.826,2832.262,945.492)">
			<stop offset="0" stop-color="#f97316"/>
			<stop offset="1" stop-color="#f76011"/>
		</linearGradient>
		<linearGradient id="g4" x2="1" gradientUnits="userSpaceOnUse" gradientTransform="matrix(-177.109,542.878,-544.258,-177.56,1257.878,590.835)">
			<stop offset="0" stop-color="#f97316"/>
			<stop offset="1" stop-color="#f76011"/>
		</linearGradient>
		<linearGradient id="g5" x2="1" gradientUnits="userSpaceOnUse" gradientTransform="matrix(74.556,0,0,74.556,801.789,649.459)">
			<stop offset="0" stop-color="#f97316"/>
			<stop offset="1" stop-color="#f76011"/>
		</linearGradient>
		<linearGradient id="g6" x2="1" gradientUnits="userSpaceOnUse" gradientTransform="matrix(329.018,0,0,88.404,1031.162,608.659)">
			<stop offset="0" stop-color="#fff7ed"/>
			<stop offset="1" stop-color="#fff"/>
		</linearGradient>
		<linearGradient id="g7" x2="1" gradientUnits="userSpaceOnUse" gradientTransform="matrix(503.766,0,0,122.661,938.03,712.462)">
			<stop offset="0" stop-color="#fff7ed"/>
			<stop offset="1" stop-color="#fff"/>
		</linearGradient>
		<linearGradient id="g8" x2="1" gradientUnits="userSpaceOnUse" gradientTransform="matrix(-4.17,312.743,-2193.291,-29.244,1206.779,-132.215)">
			<stop offset="0" stop-color="#f76011"/>
			<stop offset="1" stop-color="#000"/>
		</linearGradient>
		<linearGradient id="g9" x2="1" gradientUnits="userSpaceOnUse" gradientTransform="matrix(-4.03,302.238,-178.5,-2.38,1332.747,-104.409)">
			<stop offset="0" stop-color="#f76011"/>
			<stop offset="1" stop-color="#000"/>
		</linearGradient>
		<linearGradient id="g10" x2="1" gradientUnits="userSpaceOnUse" gradientTransform="matrix(225.024,-910.322,468.519,115.814,715.123,1528.756)">
			<stop offset="0" stop-color="#e1473d"/>
			<stop offset="1" stop-color="#e9605a"/>
		</linearGradient>
		<linearGradient id="g11" x2="1" gradientUnits="userSpaceOnUse" gradientTransform="matrix(20.952,636.939,-887.497,29.195,1296.975,820.759)">
			<stop offset="0" stop-color="#fe7062"/>
			<stop offset="1" stop-color="#ff928e"/>
		</linearGradient>
		<linearGradient id="g12" x2="1" gradientUnits="userSpaceOnUse" gradientTransform="matrix(111.093,271.066,-278.81,114.266,1611.934,648.871)">
			<stop offset="0" stop-color="#fe7062"/>
			<stop offset="1" stop-color="#ff928e"/>
		</linearGradient>
		<linearGradient id="g13" x2="1" gradientUnits="userSpaceOnUse" gradientTransform="matrix(-238.242,271.103,-259.211,-227.791,1358.971,637.979)">
			<stop offset="0" stop-color="#fe7062"/>
			<stop offset="1" stop-color="#ff928e"/>
		</linearGradient>
		<linearGradient id="g14" x2="1" gradientUnits="userSpaceOnUse" gradientTransform="matrix(0,527.895,-458.639,0,886.138,391.049)">
			<stop offset="0" stop-color="#f76011"/>
			<stop offset="1" stop-color="#000"/>
		</linearGradient>
		<linearGradient id="g15" x2="1" gradientUnits="userSpaceOnUse" gradientTransform="matrix(0,527.894,-491.484,0,983.969,391.048)">
			<stop offset="0" stop-color="#f76011"/>
			<stop offset="1" stop-color="#000"/>
		</linearGradient>
		<linearGradient id="g16" x2="1" gradientUnits="userSpaceOnUse" gradientTransform="matrix(0,527.895,-437.036,0,1091.479,391.048)">
			<stop offset="0" stop-color="#f76011"/>
			<stop offset="1" stop-color="#000"/>
		</linearGradient>
		<linearGradient id="g17" x2="1" gradientUnits="userSpaceOnUse" gradientTransform="matrix(0,527.895,-481.686,0,1183.725,391.048)">
			<stop offset="0" stop-color="#f76011"/>
			<stop offset="1" stop-color="#000"/>
		</linearGradient>
		<linearGradient id="g18" x2="1" gradientUnits="userSpaceOnUse" gradientTransform="matrix(0,527.895,-405.707,0,1270.12,391.048)">
			<stop offset="0" stop-color="#f76011"/>
			<stop offset="1" stop-color="#000"/>
		</linearGradient>
		<linearGradient id="g19" x2="1" gradientUnits="userSpaceOnUse" gradientTransform="matrix(0,527.895,-336.789,0,1364.262,391.048)">
			<stop offset="0" stop-color="#f76011"/>
			<stop offset="1" stop-color="#000"/>
		</linearGradient>
		<linearGradient id="g20" x2="1" gradientUnits="userSpaceOnUse" gradientTransform="matrix(60.801,0,0,62.671,492.624,1093.22)">
			<stop offset="0" stop-color="#ff928e"/>
			<stop offset="1" stop-color="#feb3b1"/>
		</linearGradient>
		<linearGradient id="g21" x2="1" gradientUnits="userSpaceOnUse" gradientTransform="matrix(-7.889,181.447,-232.928,-10.128,605.155,1118.297)">
			<stop offset="0" stop-color="#f76011"/>
			<stop offset="1" stop-color="#000"/>
		</linearGradient>
		<linearGradient id="g22" x2="1" gradientUnits="userSpaceOnUse" gradientTransform="matrix(0,5.409,-44.848,0,577.251,1453.595)">
			<stop offset="0" stop-color="#f97316"/>
			<stop offset="1" stop-color="#f76011"/>
		</linearGradient>
		<linearGradient id="g23" x2="1" gradientUnits="userSpaceOnUse" gradientTransform="matrix(-9.181,80.124,-64.344,-7.373,584.021,1386.064)">
			<stop offset="0" stop-color="#ff928e"/>
			<stop offset="1" stop-color="#feb3b1"/>
		</linearGradient>
		<linearGradient id="g24" x2="1" gradientUnits="userSpaceOnUse" gradientTransform="matrix(0,5.647,-65.913,0,656.377,1451.517)">
			<stop offset="0" stop-color="#f97316"/>
			<stop offset="1" stop-color="#f76011"/>
		</linearGradient>
		<linearGradient id="g25" x2="1" gradientUnits="userSpaceOnUse" gradientTransform="matrix(-8.312,191.167,-402.326,-17.493,678.911,1104.208)">
			<stop offset="0" stop-color="#f76011"/>
			<stop offset="1" stop-color="#000"/>
		</linearGradient>
		<linearGradient id="g26" x2="1" gradientUnits="userSpaceOnUse" gradientTransform="matrix(-8.967,78.259,-52.668,-6.035,661.07,1396.14)">
			<stop offset="0" stop-color="#ff928e"/>
			<stop offset="1" stop-color="#feb3b1"/>
		</linearGradient>
		<linearGradient id="g27" x2="1" gradientUnits="userSpaceOnUse" gradientTransform="matrix(-309.648,480.488,-417.46,-269.029,807.783,1602.942)">
			<stop offset="0" stop-color="#f97316"/>
			<stop offset="1" stop-color="#f76011"/>
		</linearGradient>
		<linearGradient id="g28" x2="1" gradientUnits="userSpaceOnUse" gradientTransform="matrix(-48.424,474.151,-426.265,-43.534,691.968,967.849)">
			<stop offset="0" stop-color="#f97316"/>
			<stop offset="1" stop-color="#f76011"/>
		</linearGradient>
		<linearGradient id="g29" x2="1" gradientUnits="userSpaceOnUse" gradientTransform="matrix(0,114,-102.807,0,601.764,877.333)">
			<stop offset="0" stop-color="#ff928e"/>
			<stop offset="1" stop-color="#feb3b1"/>
		</linearGradient>
		<linearGradient id="g30" x2="1" gradientUnits="userSpaceOnUse" gradientTransform="matrix(-56.314,95.222,-111.513,-65.948,686.54,806.206)">
			<stop offset="0" stop-color="#ff928e"/>
			<stop offset="1" stop-color="#feb3b1"/>
		</linearGradient>
		<linearGradient id="g31" x2="1" gradientUnits="userSpaceOnUse" gradientTransform="matrix(48.296,-51.304,66.768,62.852,529.549,885.996)">
			<stop offset="0" stop-color="#f76011"/>
			<stop offset="1" stop-color="#000"/>
		</linearGradient>
		<linearGradient id="g32" x2="1" gradientUnits="userSpaceOnUse" gradientTransform="matrix(-3.95,-91.768,93.811,-4.038,548.974,1001.729)">
			<stop offset="0" stop-color="#ff928e"/>
			<stop offset="1" stop-color="#feb3b1"/>
		</linearGradient>
		<linearGradient id="g33" x2="1" gradientUnits="userSpaceOnUse" gradientTransform="matrix(-26.337,48.16,-34.295,-18.755,696.834,998.938)">
			<stop offset="0" stop-color="#f76011"/>
			<stop offset="1" stop-color="#000"/>
		</linearGradient>
		<linearGradient id="g34" x2="1" gradientUnits="userSpaceOnUse" gradientTransform="matrix(-57.924,221.62,-373.971,-97.743,675.547,833.051)">
			<stop offset="0" stop-color="#f76011"/>
			<stop offset="1" stop-color="#000"/>
		</linearGradient>
		<linearGradient id="g35" x2="1" gradientUnits="userSpaceOnUse" gradientTransform="matrix(-61.516,602.342,-1151.23,-117.573,705.297,964.961)">
			<stop offset="0" stop-color="#f97316"/>
			<stop offset="1" stop-color="#f76011"/>
		</linearGradient>
		<linearGradient id="g36" x2="1" gradientUnits="userSpaceOnUse" gradientTransform="matrix(-36.551,255.856,-247.381,-35.34,884.976,392.149)">
			<stop offset="0" stop-color="#ff928e"/>
			<stop offset="1" stop-color="#feb3b1"/>
		</linearGradient>
		<linearGradient id="g37" x2="1" gradientUnits="userSpaceOnUse" gradientTransform="matrix(-43.557,304.896,-472.595,-67.514,931.44,284.849)">
			<stop offset="0" stop-color="#ff928e"/>
			<stop offset="1" stop-color="#feb3b1"/>
		</linearGradient>
		<linearGradient id="g38" x2="1" gradientUnits="userSpaceOnUse" gradientTransform="matrix(71.986,0,0,78.943,405.852,1102.341)">
			<stop offset="0" stop-color="#ff928e"/>
			<stop offset="1" stop-color="#feb3b1"/>
		</linearGradient>
		<linearGradient id="g39" x2="1" gradientUnits="userSpaceOnUse" gradientTransform="matrix(1.544,169.825,-351.785,3.198,427.018,1320.521)">
			<stop offset="0" stop-color="#f76011"/>
			<stop offset="1" stop-color="#000"/>
		</linearGradient>
		<linearGradient id="g40" x2="1" gradientUnits="userSpaceOnUse" gradientTransform="matrix(19.171,0,0,19.44,382.913,1421.256)">
			<stop offset="0" stop-color="#ff928e"/>
			<stop offset="1" stop-color="#feb3b1"/>
		</linearGradient>
		<linearGradient id="g41" x2="1" gradientUnits="userSpaceOnUse" gradientTransform="matrix(13.187,-353.856,89.074,3.32,-310.243,1481.145)">
			<stop offset="0" stop-color="#f76011"/>
			<stop offset="1" stop-color="#000"/>
		</linearGradient>
		<linearGradient id="g42" x2="1" gradientUnits="userSpaceOnUse" gradientTransform="matrix(1.545,169.918,-168.37,1.531,339.639,1321.2)">
			<stop offset="0" stop-color="#f76011"/>
			<stop offset="1" stop-color="#000"/>
		</linearGradient>
		<linearGradient id="g43" x2="1" gradientUnits="userSpaceOnUse" gradientTransform="matrix(16.553,0,0,25.44,313.82,1417.273)">
			<stop offset="0" stop-color="#ff928e"/>
			<stop offset="1" stop-color="#feb3b1"/>
		</linearGradient>
		<linearGradient id="g44" x2="1" gradientUnits="userSpaceOnUse" gradientTransform="matrix(13.127,-352.232,102.303,3.813,-159.2,1485.725)">
			<stop offset="0" stop-color="#f76011"/>
			<stop offset="1" stop-color="#000"/>
		</linearGradient>
		<linearGradient id="g45" x2="1" gradientUnits="userSpaceOnUse" gradientTransform="matrix(-105.548,277.674,-172.941,-65.738,225.377,922.353)">
			<stop offset="0" stop-color="#fe7062"/>
			<stop offset="1" stop-color="#ff928e"/>
		</linearGradient>
		<linearGradient id="g46" x2="1" gradientUnits="userSpaceOnUse" gradientTransform="matrix(-119.133,313.412,-222.28,-84.492,251.753,930.328)">
			<stop offset="0" stop-color="#fe7062"/>
			<stop offset="1" stop-color="#ff928e"/>
		</linearGradient>
		<linearGradient id="g47" x2="1" gradientUnits="userSpaceOnUse" gradientTransform="matrix(-82.24,87.255,-114.81,-108.212,381.314,1045.729)">
			<stop offset="0" stop-color="#ff928e"/>
			<stop offset="1" stop-color="#feb3b1"/>
		</linearGradient>
		<linearGradient id="g48" x2="1" gradientUnits="userSpaceOnUse" gradientTransform="matrix(-24.412,80.357,-54.167,-16.456,551.768,857.703)">
			<stop offset="0" stop-color="#f76011"/>
			<stop offset="1" stop-color="#000"/>
		</linearGradient>
		<linearGradient id="g49" x2="1" gradientUnits="userSpaceOnUse" gradientTransform="matrix(-15.028,65.994,-89.674,-20.421,460.116,935.884)">
			<stop offset="0" stop-color="#f97316"/>
			<stop offset="1" stop-color="#f76011"/>
		</linearGradient>
		<linearGradient id="g50" x2="1" gradientUnits="userSpaceOnUse" gradientTransform="matrix(-45.756,88.046,-103.22,-53.642,465.962,964.522)">
			<stop offset="0" stop-color="#f97316"/>
			<stop offset="1" stop-color="#f76011"/>
		</linearGradient>
		<linearGradient id="g51" x2="1" gradientUnits="userSpaceOnUse" gradientTransform="matrix(-39.56,62.831,-49.943,-31.445,488.599,935.147)">
			<stop offset="0" stop-color="#ff928e"/>
			<stop offset="1" stop-color="#feb3b1"/>
		</linearGradient>
		<linearGradient id="g52" x2="1" gradientUnits="userSpaceOnUse" gradientTransform="matrix(-32.714,-20.512,18.429,-29.393,497.605,1021.264)">
			<stop offset="0" stop-color="#ff928e"/>
			<stop offset="1" stop-color="#feb3b1"/>
		</linearGradient>
		<linearGradient id="g53" x2="1" gradientUnits="userSpaceOnUse" gradientTransform="matrix(-36.286,157.765,-109.451,-25.174,425.479,864.519)">
			<stop offset="0" stop-color="#ff928e"/>
			<stop offset="1" stop-color="#feb3b1"/>
		</linearGradient>
		<linearGradient id="g54" x2="1" gradientUnits="userSpaceOnUse" gradientTransform="matrix(-83.185,-14.939,13.617,-75.821,422.383,958.989)">
			<stop offset="0" stop-color="#ff928e"/>
			<stop offset="1" stop-color="#feb3b1"/>
		</linearGradient>
		<linearGradient id="g55" x2="1" gradientUnits="userSpaceOnUse" gradientTransform="matrix(89.915,71.018,-102.308,129.531,332.964,813.694)">
			<stop offset="0" stop-color="#f76011"/>
			<stop offset="1" stop-color="#000"/>
		</linearGradient>
		<linearGradient id="g56" x2="1" gradientUnits="userSpaceOnUse" gradientTransform="matrix(-21.046,-3.78,2.099,-11.686,377.096,925.618)">
			<stop offset="0" stop-color="#ff928e"/>
			<stop offset="1" stop-color="#feb3b1"/>
		</linearGradient>
		<linearGradient id="g57" x2="1" gradientUnits="userSpaceOnUse" gradientTransform="matrix(104.822,-121.668,121.668,104.822,1779.557,841.172)">
			<stop offset="0" stop-color="#fe7062"/>
			<stop offset="1" stop-color="#ff928e"/>
		</linearGradient>
		<linearGradient id="g58" x2="1" gradientUnits="userSpaceOnUse" gradientTransform="matrix(-304.553,460.092,-460.092,-304.553,2063.727,724.256)">
			<stop offset="0" stop-color="#fe7062"/>
			<stop offset="1" stop-color="#ff928e"/>
		</linearGradient>
		<linearGradient id="g59" x2="1" gradientUnits="userSpaceOnUse" gradientTransform="matrix(-151.967,255.127,-206.366,-122.922,2047.849,734.559)">
			<stop offset="0" stop-color="#fe7062"/>
			<stop offset="1" stop-color="#ff928e"/>
		</linearGradient>
		<linearGradient id="g60" x2="1" gradientUnits="userSpaceOnUse" gradientTransform="matrix(151.182,-175.479,175.479,151.182,1568.538,957.854)">
			<stop offset="0" stop-color="#e1473d"/>
			<stop offset="1" stop-color="#e9605a"/>
		</linearGradient>
		<linearGradient id="g61" x2="1" gradientUnits="userSpaceOnUse" gradientTransform="matrix(-439.247,663.578,-663.577,-439.247,1978.389,789.23)">
			<stop offset="0" stop-color="#fe7062"/>
			<stop offset="1" stop-color="#ff928e"/>
		</linearGradient>
		<linearGradient id="g62" x2="1" gradientUnits="userSpaceOnUse" gradientTransform="matrix(-219.178,367.963,-297.636,-177.288,1955.489,804.088)">
			<stop offset="0" stop-color="#fe7062"/>
			<stop offset="1" stop-color="#ff928e"/>
		</linearGradient>
		<linearGradient id="g63" x2="1" gradientUnits="userSpaceOnUse" gradientTransform="matrix(137.575,-159.685,159.685,137.575,1738.504,1057.442)">
			<stop offset="0" stop-color="#e1473d"/>
			<stop offset="1" stop-color="#e9605a"/>
		</linearGradient>
		<linearGradient id="g64" x2="1" gradientUnits="userSpaceOnUse" gradientTransform="matrix(-399.714,603.854,-603.854,-399.714,2111.466,903.995)">
			<stop offset="0" stop-color="#fe7062"/>
			<stop offset="1" stop-color="#ff928e"/>
		</linearGradient>
		<linearGradient id="g65" x2="1" gradientUnits="userSpaceOnUse" gradientTransform="matrix(-199.451,334.846,-270.848,-161.331,2090.628,917.516)">
			<stop offset="0" stop-color="#fe7062"/>
			<stop offset="1" stop-color="#ff928e"/>
		</linearGradient>
		<linearGradient id="g66" x2="1" gradientUnits="userSpaceOnUse" gradientTransform="matrix(351.031,0,0,317.279,1748.537,1117.924)">
			<stop offset="0" stop-color="#f97316"/>
			<stop offset="1" stop-color="#f76011"/>
		</linearGradient>
		<linearGradient id="g67" x2="1" gradientUnits="userSpaceOnUse" gradientTransform="matrix(32.113,-129.913,399.72,98.807,1902.099,1189.1)">
			<stop offset="0" stop-color="#f97316"/>
			<stop offset="1" stop-color="#f76011"/>
		</linearGradient>
		<linearGradient id="g68" x2="1" gradientUnits="userSpaceOnUse" gradientTransform="matrix(6.103,159.685,-899.126,34.362,1922.409,932.315)">
			<stop offset="0" stop-color="#f76011"/>
			<stop offset="1" stop-color="#000"/>
		</linearGradient>
		<linearGradient id="g69" x2="1" gradientUnits="userSpaceOnUse" gradientTransform="matrix(263.274,0,0,130.512,1790.817,1206.659)">
			<stop offset="0" stop-color="#fff7ed"/>
			<stop offset="1" stop-color="#fff"/>
		</linearGradient>
		<linearGradient id="g70" x2="1" gradientUnits="userSpaceOnUse" gradientTransform="matrix(151.105,-491.093,570.596,175.568,1694.092,1882.033)">
			<stop offset="0" stop-color="#e1473d"/>
			<stop offset="1" stop-color="#e9605a"/>
		</linearGradient>
		<linearGradient id="g71" x2="1" gradientUnits="userSpaceOnUse" gradientTransform="matrix(209.513,-243.184,243.184,209.513,1793.138,868.26)">
			<stop offset="0" stop-color="#e1473d"/>
			<stop offset="1" stop-color="#e9605a"/>
		</linearGradient>
		<linearGradient id="g72" x2="1" gradientUnits="userSpaceOnUse" gradientTransform="matrix(-608.722,919.605,-919.605,-608.722,2361.121,634.575)">
			<stop offset="0" stop-color="#fe7062"/>
			<stop offset="1" stop-color="#ff928e"/>
		</linearGradient>
		<linearGradient id="g73" x2="1" gradientUnits="userSpaceOnUse" gradientTransform="matrix(-303.743,509.934,-412.473,-245.69,2329.385,655.167)">
			<stop offset="0" stop-color="#fe7062"/>
			<stop offset="1" stop-color="#ff928e"/>
		</linearGradient>
		<linearGradient id="g74" x2="1" gradientUnits="userSpaceOnUse" gradientTransform="matrix(-55.415,169.859,-78.089,-25.476,2526.472,876.831)">
			<stop offset="0" stop-color="#ff928e"/>
			<stop offset="1" stop-color="#feb3b1"/>
		</linearGradient>
		<linearGradient id="g75" x2="1" gradientUnits="userSpaceOnUse" gradientTransform="matrix(97.792,0,0,224.184,2216.851,1197.631)">
			<stop offset="0" stop-color="#ff928e"/>
			<stop offset="1" stop-color="#feb3b1"/>
		</linearGradient>
		<linearGradient id="g76" x2="1" gradientUnits="userSpaceOnUse" gradientTransform="matrix(-49.856,324.065,-196.101,-30.169,2387.695,1086.666)">
			<stop offset="0" stop-color="#f97316"/>
			<stop offset="1" stop-color="#f76011"/>
		</linearGradient>
		<linearGradient id="g77" x2="1" gradientUnits="userSpaceOnUse" gradientTransform="matrix(-50.999,331.489,-624.327,-96.051,2256.625,1057.177)">
			<stop offset="0" stop-color="#f97316"/>
			<stop offset="1" stop-color="#f76011"/>
		</linearGradient>
		<linearGradient id="g78" x2="1" gradientUnits="userSpaceOnUse" gradientTransform="matrix(56.63,0,0,209.641,2157.511,1212.174)">
			<stop offset="0" stop-color="#ff928e"/>
			<stop offset="1" stop-color="#feb3b1"/>
		</linearGradient>
		<linearGradient id="g79" x2="1" gradientUnits="userSpaceOnUse" gradientTransform="matrix(2.005,88.229,-42.763,.972,2306.013,698.988)">
			<stop offset="0" stop-color="#ff928e"/>
			<stop offset="1" stop-color="#feb3b1"/>
		</linearGradient>
		<linearGradient id="g80" x2="1" gradientUnits="userSpaceOnUse" gradientTransform="matrix(226.717,449.032,-327.095,165.151,2230.884,907.478)">
			<stop offset="0" stop-color="#fe7062"/>
			<stop offset="1" stop-color="#ff928e"/>
		</linearGradient>
		<linearGradient id="g81" x2="1" gradientUnits="userSpaceOnUse" gradientTransform="matrix(203.585,229.598,-193.919,171.948,2227.785,943.161)">
			<stop offset="0" stop-color="#f97316"/>
			<stop offset="1" stop-color="#f76011"/>
		</linearGradient>
		<linearGradient id="g82" x2="1" gradientUnits="userSpaceOnUse" gradientTransform="matrix(34.652,0,0,42.352,2174.681,925.374)">
			<stop offset="0" stop-color="#ff928e"/>
			<stop offset="1" stop-color="#feb3b1"/>
		</linearGradient>
		<linearGradient id="g83" x2="1" gradientUnits="userSpaceOnUse" gradientTransform="matrix(80.703,125.51,-168.045,108.053,2206.01,842.499)">
			<stop offset="0" stop-color="#ff928e"/>
			<stop offset="1" stop-color="#feb3b1"/>
		</linearGradient>
		<linearGradient id="g84" x2="1" gradientUnits="userSpaceOnUse" gradientTransform="matrix(-205.974,214.296,-200.412,-192.629,2412.875,805.909)">
			<stop offset="0" stop-color="#f76011"/>
			<stop offset="1" stop-color="#000"/>
		</linearGradient>
		<linearGradient id="g85" x2="1" gradientUnits="userSpaceOnUse" gradientTransform="matrix(-201.991,-110.939,114.364,-208.226,2408.115,957.965)">
			<stop offset="0" stop-color="#f76011"/>
			<stop offset="1" stop-color="#000"/>
		</linearGradient>
		<linearGradient id="g86" x2="1" gradientUnits="userSpaceOnUse" gradientTransform="matrix(107.982,167.934,-265.24,170.549,2163.712,825.657)">
			<stop offset="0" stop-color="#ff928e"/>
			<stop offset="1" stop-color="#feb3b1"/>
		</linearGradient>
		<linearGradient id="g87" x2="1" gradientUnits="userSpaceOnUse" gradientTransform="matrix(109.874,0,0,83.066,357.872,675.569)">
			<stop offset="0" stop-color="#fe7062"/>
			<stop offset="1" stop-color="#ff928e"/>
		</linearGradient>
	</defs>
	<style>
		.s0 { fill: url(#g1) } 
		.s1 { fill: #ffedd5 } 
		.s2 { fill: #fed7aa } 
		.s3 { fill: #ffffff } 
		.s4 { fill: #fed7aa } 
		.s5 { fill: url(#g2) } 
		.s6 { opacity: .6;fill: #ffffff } 
		.s7 { fill: url(#g3) } 
		.s8 { fill: url(#g4) } 
		.s9 { fill: url(#g5) } 
		.s10 { fill: url(#g6) } 
		.s11 { fill: url(#g7) } 
		.s12 { fill: url(#g8) } 
		.s13 { fill: url(#g9) } 
		.s14 { fill: url(#g10) } 
		.s15 { fill: url(#g11) } 
		.s16 { fill: url(#g12) } 
		.s17 { fill: url(#g13) } 
		.s18 { opacity: .4;fill: #ffffff } 
		.s19 { fill: url(#g14) } 
		.s20 { fill: url(#g15) } 
		.s21 { fill: url(#g16) } 
		.s22 { fill: url(#g17) } 
		.s23 { fill: url(#g18) } 
		.s24 { fill: url(#g19) } 
		.s25 { fill: url(#g20) } 
		.s26 { fill: url(#g21) } 
		.s27 { fill: url(#g22) } 
		.s28 { fill: url(#g23) } 
		.s29 { fill: url(#g24) } 
		.s30 { fill: url(#g25) } 
		.s31 { fill: url(#g26) } 
		.s32 { fill: url(#g27) } 
		.s33 { fill: url(#g28) } 
		.s34 { fill: url(#g29) } 
		.s35 { fill: url(#g30) } 
		.s36 { fill: url(#g31) } 
		.s37 { fill: url(#g32) } 
		.s38 { fill: url(#g33) } 
		.s39 { fill: url(#g34) } 
		.s40 { fill: url(#g35) } 
		.s41 { fill: url(#g36) } 
		.s42 { fill: url(#g37) } 
		.s43 { fill: url(#g38) } 
		.s44 { fill: url(#g39) } 
		.s45 { fill: url(#g40) } 
		.s46 { fill: url(#g41) } 
		.s47 { fill: url(#g42) } 
		.s48 { fill: url(#g43) } 
		.s49 { fill: url(#g44) } 
		.s50 { fill: url(#g45) } 
		.s51 { fill: url(#g46) } 
		.s52 { fill: url(#g47) } 
		.s53 { fill: url(#g48) } 
		.s54 { fill: url(#g49) } 
		.s55 { fill: url(#g50) } 
		.s56 { fill: url(#g51) } 
		.s57 { fill: url(#g52) } 
		.s58 { fill: url(#g53) } 
		.s59 { fill: url(#g54) } 
		.s60 { fill: url(#g55) } 
		.s61 { fill: url(#g56) } 
		.s62 { fill: url(#g57) } 
		.s63 { fill: url(#g58) } 
		.s64 { opacity: .7;fill: #ffffff } 
		.s65 { fill: url(#g59) } 
		.s66 { fill: url(#g60) } 
		.s67 { fill: url(#g61) } 
		.s68 { fill: url(#g62) } 
		.s69 { fill: url(#g63) } 
		.s70 { fill: url(#g64) } 
		.s71 { fill: url(#g65) } 
		.s72 { fill: url(#g66) } 
		.s73 { fill: url(#g67) } 
		.s74 { fill: url(#g68) } 
		.s75 { fill: url(#g69) } 
		.s76 { fill: url(#g70) } 
		.s77 { fill: url(#g71) } 
		.s78 { fill: url(#g72) } 
		.s79 { fill: url(#g73) } 
		.s80 { fill: url(#g74) } 
		.s81 { fill: url(#g75) } 
		.s82 { fill: url(#g76) } 
		.s83 { fill: url(#g77) } 
		.s84 { fill: url(#g78) } 
		.s85 { fill: url(#g79) } 
		.s86 { fill: url(#g80) } 
		.s87 { fill: url(#g81) } 
		.s88 { fill: url(#g82) } 
		.s89 { fill: url(#g83) } 
		.s90 { fill: url(#g84) } 
		.s91 { fill: url(#g85) } 
		.s92 { fill: url(#g86) } 
		.s93 { fill: url(#g87) } 
	</style>
	<g id="Illustration">
		<g id="&lt;Group&gt;">
			<path id="&lt;Path&gt;" class="s0" d="m1312.6 1444.5c0 0 746 7.4 953.9-159.1 207.8-166.4 129.6-332.4-29.6-379.4-159.1-47-186.2-95.9-100.6-161.9 85.6-65.9 194.4-201.3 13.8-337.3-180.6-136.1-386.6 59.3-548 33.4-161.3-26-97.4-113.4-309.6-53-212.3 60.3-165.5-115.4-336.1-131.3-170.6-15.9-153.1 182.8-328.6 107.8-175.5-75.1-319-64.7-394.5 54.4-75.4 119.1-58.9 357.4 106.7 453 165.5 95.6 163.9 11.3 102.1 105.2-61.9 94-117.4 402.9 164.2 447.1 281.6 44.1 706.3 21.1 706.3 21.1z"/>
			<g id="&lt;Group&gt;">
				<path id="&lt;Path&gt;" class="s1" d="m576.9 482.9l-47.3 101.8c-12.6 26.9-12.1 58.1 1.3 84.7l80.3 159.3c9.1 18.1 12.4 38.6 9.3 58.6l-13.4 87.1c-5.1 32.7 6.8 65.7 31.6 87.6 39.3 34.8 99.1 32 135.1-6.2l57-60.7c26.7-28.4 33.8-70 18.1-105.7l-52-117.7c-6.6-15-9.3-31.5-7.9-47.8l15.1-168.8c3.5-38.9-16.7-76.1-51.1-94.4l-42.5-22.5c-49.1-26.1-110.1-5.7-133.6 44.7z"/>
				<g id="&lt;Group&gt;">
					<path id="&lt;Compound Path&gt;" fill-rule="evenodd" class="s2" d="m712.9 1108.2q-0.4 0.1-0.8 0c-2.7-0.2-4.7-2.7-4.5-5.4 25.2-253.2-46.7-521.9-53.1-535.5-1.3-1.6-1.4-4-0.2-5.8 1.6-2.2 4.7-2.8 7-1.2 1.4 1 2.3 1.6 6.5 16.1 2 6.7 5.2 18.4 9.4 36 6.3 26.5 15.7 69.8 24.5 125 14.6 92.4 29.3 231 15.8 366.4-0.2 2.4-2.2 4.3-4.6 4.4zm-57.3-539.8q0 0 0 0 0 0 0 0zm0 0q0 0 0 0z"/>
				</g>
			</g>
			<g id="&lt;Group&gt;">
				<path id="&lt;Path&gt;" class="s2" d="m2001 1157.1c25.9-40.7 35.9-86 31-125.5-4.4-35.4 4.8-71.2 26.3-99.6q3.4-4.5 6.5-9.4c31.2-49 26.4-107.8-10.6-131.4-37.1-23.6-92.4-2.9-123.6 46.1-6.4 10-11.2 20.5-14.6 30.9-10.9 33.4-33.5 61.9-64.3 78.7-27.6 15.1-53.1 38.6-72.5 69.2-29 45.6-38.1 96.8-28.7 139.3 3.6 16.1 4.2 32.8 1.7 49.1-4 27.1 5 52.9 25.8 66.1 22.4 14.3 52.3 9.9 76.1-8.5 13.5-10.4 28.8-18.1 45-23.2 38.4-12.1 75.7-40.5 101.9-81.8z"/>
				<path id="&lt;Path&gt;" class="s1" d="m2034 851.6c-15.8 35.5-32.7 70.4-50 105.2-4.3 8.7-8.7 17.3-13.1 26l-6.7 12.9-6.7 12.9c-4.6 8.6-9 17.2-13.6 25.8l-13.9 25.6c-9.4 16.9-18.8 34-28.5 50.7-4.9 8.4-9.6 16.9-14.7 25.2l-15 24.9c-20.4 33.1-41.6 65.6-64.5 97.1l-1.3-1 16.2-24.2 4-6 3.9-6.1 7.8-12.3 7.8-12.3c2.6-4 5.1-8.2 7.6-12.3 5.1-8.3 10.2-16.6 15.1-24.9 19.7-33.4 39-67 57.5-101.1 9.2-17.1 18.5-34.1 27.5-51.2l6.8-12.9 6.7-12.9c4.5-8.6 9-17.2 13.3-25.8q13.4-25.9 26.4-51.9c8.7-17.3 17.3-34.7 25.8-52.1z"/>
			</g>
			<g id="&lt;Group&gt;">
				<path id="&lt;Path&gt;" class="s1" d="m752.8 1034c-30.3-44.4-72.2-74.4-114.7-86.8-38.1-11-70.6-36.1-90.2-70.5q-3.1-5.4-6.7-10.7c-36.4-53.4-98.7-74.3-139-46.8-40.3 27.5-43.5 93.1-7.1 146.4 7.5 10.9 16 20.5 25.2 28.6 29.3 25.7 48.5 61.3 52.2 100.1 3.3 34.8 16.2 71.2 38.9 104.4 33.9 49.6 82.2 81.4 129.8 90.4 18 3.5 35.3 10.1 50.9 19.8 25.9 16 56.2 18.1 78.8 2.7 24.5-16.7 33.1-49.2 24.7-81.5-4.8-18.4-5.8-37.4-4-56.2 4.5-44.5-8.2-95-38.8-139.9z"/>
				<path id="&lt;Path&gt;" class="s2" d="m455.1 866.3c29.3 31.7 57.6 64.3 85.6 97.1 7 8.3 13.8 16.6 20.7 24.9l10.3 12.5 10.2 12.5c6.8 8.4 13.7 16.7 20.4 25.2l20.1 25.4c13.1 17.1 26.4 34.1 39.3 51.4 6.4 8.7 13 17.2 19.3 26l18.9 26.3c24.8 35.3 48.7 71.3 70.8 108.4l-1.6 0.9-17.5-27.1-4.4-6.8-4.6-6.7-9.1-13.3-9.1-13.3c-3-4.5-6.2-8.8-9.3-13.3-6.3-8.7-12.4-17.5-18.7-26.3-25.5-34.7-51.5-69.2-78.1-103-13.5-16.9-26.8-33.8-40.3-50.6l-10.2-12.6-10.2-12.5c-6.8-8.3-13.7-16.6-20.6-24.9q-20.5-25-41.4-49.7c-13.8-16.5-27.9-32.9-41.9-49.2z"/>
			</g>
			<g id="&lt;Group&gt;">
				<path id="&lt;Path&gt;" class="s1" d="m1573.2 1223.3c-90.8-51.3-136.6-184.9-98.7-235 32.9-43.5 117.3-8.9 137.8-49.3 24.6-48.6-84.5-123.4-61.4-180.2 22.2-54.5 138.6-25 162-78.8 25-57.6-94.4-122.1-78.2-204.1 13.5-68.3 116.8-126.1 211-108 76.6 14.7 153.9 81 149.4 140.8-6.1 81.7-160.5 94.9-164.6 174.5-3.8 73.5 125.3 109.4 116.7 174.6-9.4 70.3-165.9 81.6-166.6 138.1-0.6 49.6 119.9 62.8 123.4 112.6 4.6 65.8-196 191-330.8 114.8z"/>
				<path id="&lt;Path&gt;" class="s2" d="m1811.1 468.2c-8.2 60-18.1 119.8-28.8 179.4-5.2 29.8-11 59.5-16.6 89.2-2.9 14.9-5.9 29.7-8.9 44.5-3 14.9-5.9 29.7-9.1 44.5l-9.6 44.4c-3.2 14.7-6.5 29.5-9.9 44.3l-2.5 11-2.6 11.1-5.2 22.1-5.3 22-5.6 22c-14.9 58.7-30.8 117.2-51.6 174l-1.2-0.4c16.3-58.2 29.7-117.1 42.8-176.1l5-22.1 4.8-22.1 4.8-22.2 2.4-11 2.3-11.1c3.1-14.8 6.3-29.6 9.5-44.3l9.2-44.4 37-177.6c12.3-59.2 24.8-118.3 37.9-177.4z"/>
			</g>
			<g id="&lt;Group&gt;">
				<g id="&lt;Group&gt;">
					<path id="&lt;Path&gt;" class="s3" d="m1523.2 1013l-5.4-1.5c-0.7-0.2-1-0.9-0.9-1.5 0.2-0.6 0.9-1 1.5-0.8q0 0 0 0h0.1l5.3 1.6h0.1c0.6 0.2 0.9 0.8 0.7 1.4-0.2 0.6-0.8 1-1.4 0.8z"/>
					<path id="&lt;Path&gt;" class="s3" d="m1507 1007.6l-10.3-4.9c-0.7-0.3-1.1-1.2-0.7-1.9 0.3-0.7 1.2-1 1.9-0.7q0 0 0 0l0.2 0.1 9.9 5 0.2 0.1c0.6 0.3 0.9 1.1 0.6 1.7-0.4 0.7-1.1 0.9-1.8 0.6z"/>
					<path id="&lt;Path&gt;" class="s3" d="m1486.9 996.9l-9.3-6.7c-0.7-0.6-0.9-1.6-0.4-2.3 0.6-0.8 1.6-1 2.4-0.4q0 0 0 0l0.1 0.1 8.9 6.7 0.1 0.1c0.7 0.5 0.9 1.5 0.3 2.2-0.5 0.7-1.5 0.8-2.1 0.3z"/>
					<path id="&lt;Path&gt;" class="s3" d="m1469 982.7l-8-8.2c-0.8-0.7-0.7-1.9 0-2.6 0.7-0.7 1.9-0.7 2.6 0q0 0 0.1 0l0.1 0.1 7.6 8.1 0.1 0.1c0.7 0.8 0.6 1.9-0.1 2.5-0.7 0.7-1.8 0.7-2.4 0z"/>
					<path id="&lt;Path&gt;" class="s3" d="m1453.6 965.7l-6.6-9.3c-0.7-0.9-0.5-2.2 0.5-2.9 0.9-0.6 2.2-0.4 2.8 0.5q0.1 0 0.1 0l0.1 0.2 6.3 9.2 0.1 0.1c0.6 0.9 0.3 2.1-0.6 2.7-0.8 0.6-2 0.4-2.7-0.5z"/>
					<path id="&lt;Path&gt;" class="s3" d="m1441 946.6l-5.2-10.1c-0.6-1.1-0.1-2.5 1-3.1 1.1-0.5 2.4-0.1 3 1q0 0 0 0l0.1 0.2 4.9 10 0.1 0.1c0.5 1.1 0.1 2.4-1 2.9-1 0.5-2.3 0.1-2.9-1z"/>
					<path id="&lt;Path&gt;" class="s3" d="m1431.3 925.9l-3.8-10.8c-0.5-1.3 0.2-2.7 1.5-3.1 1.3-0.5 2.7 0.2 3.1 1.5q0 0 0 0l0.1 0.2 3.5 10.6v0.1c0.4 1.2-0.2 2.6-1.5 3-1.2 0.4-2.5-0.3-2.9-1.5z"/>
					<path id="&lt;Path&gt;" class="s3" d="m1424.5 904l-2.2-11.2c-0.3-1.4 0.6-2.8 2-3 1.4-0.3 2.8 0.6 3 2l0.1 0.2 2 10.9v0.2c0.3 1.4-0.6 2.7-2 2.9-1.3 0.3-2.6-0.6-2.9-2z"/>
					<path id="&lt;Path&gt;" class="s3" d="m1420.9 881.4l-0.6-11.5c0-1.5 1.1-2.8 2.6-2.8 1.5-0.1 2.7 1 2.8 2.5v0.1 0.2l0.4 11.1 0.1 0.2c0 1.4-1.1 2.6-2.6 2.7-1.4 0-2.6-1.1-2.7-2.5z"/>
					<path id="&lt;Path&gt;" class="s3" d="m1420.6 858.4l1.1-11.4c0.1-1.5 1.5-2.7 3-2.6 1.6 0.2 2.7 1.6 2.6 3.1l-0.1 0.2-1.1 11.1v0.2c-0.1 1.5-1.5 2.6-3 2.4-1.5-0.1-2.6-1.5-2.5-3z"/>
					<path id="&lt;Path&gt;" class="s3" d="m1423.4 835.7l2.4-11.2c0.4-1.6 2-2.6 3.5-2.3 1.6 0.4 2.6 1.9 2.3 3.5l-0.1 0.2-2.4 10.8-0.1 0.2c-0.3 1.6-1.9 2.5-3.4 2.2-1.6-0.4-2.5-1.9-2.2-3.4z"/>
					<path id="&lt;Path&gt;" class="s3" d="m1428.9 813.4l3.7-10.8c0.6-1.6 2.3-2.5 3.9-1.9 1.6 0.5 2.5 2.2 1.9 3.8v0.1l-0.1 0.1-3.7 10.5v0.2c-0.6 1.5-2.3 2.4-3.8 1.8-1.6-0.5-2.4-2.2-1.9-3.8z"/>
					<path id="&lt;Path&gt;" class="s3" d="m1436.9 791.9l4.8-10.3c0.8-1.6 2.6-2.3 4.2-1.6 1.6 0.7 2.3 2.6 1.6 4.2v0.1l-0.1 0.1-4.8 10.1-0.1 0.1c-0.7 1.5-2.6 2.2-4.1 1.5-1.6-0.8-2.2-2.6-1.5-4.2z"/>
					<path id="&lt;Path&gt;" class="s3" d="m1447 771.4l5.8-9.9c0.9-1.5 3-2.1 4.5-1.1 1.6 0.9 2.1 2.9 1.2 4.5l-0.1 0.1-5.7 9.6-0.1 0.1c-0.9 1.6-2.9 2-4.4 1.1-1.6-0.9-2.1-2.9-1.2-4.4z"/>
					<path id="&lt;Path&gt;" class="s3" d="m1459.1 751.9l6.6-9.3c1.1-1.5 3.2-1.9 4.8-0.8 1.5 1.1 1.8 3.3 0.8 4.8h-0.1v0.1l-6.6 9.1-0.1 0.1c-1.1 1.5-3.2 1.8-4.7 0.7-1.5-1.1-1.8-3.2-0.7-4.7z"/>
					<path id="&lt;Path&gt;" class="s3" d="m1472.8 733.6l7.4-8.7c1.2-1.4 3.4-1.6 4.8-0.3 1.5 1.2 1.7 3.4 0.4 4.8l-0.1 0.1-7.2 8.5-0.1 0.1c-1.3 1.4-3.4 1.6-4.9 0.4-1.4-1.3-1.6-3.4-0.3-4.9z"/>
					<path id="&lt;Path&gt;" class="s3" d="m1487.9 716.5l8.1-8c1.4-1.4 3.6-1.4 5 0 1.3 1.3 1.3 3.5 0 4.9l-0.1 0.1-8 7.9-0.1 0.1c-1.3 1.3-3.5 1.3-4.9-0.1-1.3-1.3-1.3-3.5 0-4.9z"/>
					<path id="&lt;Path&gt;" class="s3" d="m1504.4 700.7c2.9-2.5 5.8-5 8.7-7.4 1.5-1.3 3.7-1.1 5 0.4 1.2 1.5 1 3.7-0.4 4.9l-0.1 0.1c-2.9 2.4-5.7 4.8-8.5 7.2-1.5 1.3-3.7 1.2-5-0.3-1.3-1.4-1.1-3.6 0.3-4.9z"/>
					<path id="&lt;Path&gt;" class="s3" d="m1522.1 686.1l9.1-6.7c1.6-1.2 3.9-0.9 5 0.7 1.2 1.6 0.9 3.8-0.7 5l-0.1 0.1-9 6.6-0.1 0.1c-1.6 1.1-3.8 0.8-5-0.8-1.2-1.6-0.8-3.8 0.8-5z"/>
					<path id="&lt;Path&gt;" class="s3" d="m1540.7 672.9l9.6-6.1c1.7-1.1 3.9-0.5 5 1.1 1.1 1.7 0.5 3.9-1.1 5l-0.2 0.1-9.4 5.9-0.1 0.1c-1.7 1-3.9 0.5-5-1.1-1-1.7-0.5-3.9 1.2-5z"/>
					<path id="&lt;Path&gt;" class="s3" d="m1560.2 661.1l10-5.5c1.8-0.9 4-0.3 4.9 1.5 1 1.8 0.3 4-1.4 5h-0.1-0.1l-9.8 5.3h-0.1c-1.8 1-4 0.3-4.9-1.4-1-1.8-0.3-4 1.5-4.9z"/>
					<path id="&lt;Path&gt;" class="s3" d="m1580.4 650.6l10.4-4.7c1.9-0.9 4.1-0.1 4.9 1.8 0.8 1.8 0 4-1.8 4.9h-0.1-0.1l-10.1 4.6-0.2 0.1c-1.8 0.8-4 0-4.8-1.9-0.8-1.8 0-4 1.8-4.8z"/>
					<path id="&lt;Path&gt;" class="s3" d="m1601.4 641.5l10.6-4c2-0.8 4.1 0.2 4.8 2.1 0.8 2-0.2 4.1-2.1 4.8l-0.2 0.1-10.4 3.9h-0.1c-2 0.7-4.1-0.2-4.8-2.2-0.7-1.9 0.2-4 2.2-4.7z"/>
					<path id="&lt;Path&gt;" class="s3" d="m1622.9 633.8l10.9-3.3c2-0.6 4.1 0.5 4.7 2.5 0.6 2-0.5 4.1-2.5 4.7l-0.2 0.1-10.7 3.1-0.1 0.1c-2 0.6-4.1-0.6-4.6-2.5-0.6-2 0.5-4.1 2.5-4.7z"/>
					<path id="&lt;Path&gt;" class="s3" d="m1644.8 627.6l11.2-2.6c2-0.5 4.1 0.8 4.5 2.8 0.5 2.1-0.8 4.1-2.8 4.6h-0.1l-10.9 2.5h-0.2c-2 0.5-4-0.8-4.5-2.8-0.5-2 0.8-4.1 2.8-4.5z"/>
					<path id="&lt;Path&gt;" class="s3" d="m1667.2 622.8l11.2-1.9c2.1-0.3 4.1 1.1 4.4 3.2 0.4 2.1-1 4.1-3.1 4.4h-0.2l-11 1.8h-0.1c-2.1 0.4-4-1.1-4.4-3.1-0.3-2.1 1.1-4.1 3.2-4.4z"/>
					<path id="&lt;Path&gt;" class="s3" d="m1689.8 619.5l11.3-1.1c2.1-0.2 4 1.4 4.2 3.4 0.2 2.1-1.4 4-3.4 4.2h-0.2l-11.1 1.1h-0.1c-2.1 0.2-4-1.3-4.2-3.4-0.2-2.1 1.4-4 3.5-4.2z"/>
					<path id="&lt;Path&gt;" class="s3" d="m1712.5 617.7l11.5-0.3c2.1-0.1 3.8 1.6 3.9 3.6 0 2.1-1.6 3.9-3.7 3.9h-0.1l-11.2 0.4h-0.1c-2.1 0-3.9-1.6-3.9-3.7-0.1-2.1 1.6-3.8 3.6-3.9z"/>
					<path id="&lt;Path&gt;" class="s3" d="m1735.4 617.4l11.4 0.5c2.1 0 3.7 1.8 3.6 3.9-0.1 2-1.8 3.6-3.9 3.6h-0.1l-11.2-0.4h-0.1c-2.1-0.1-3.7-1.9-3.6-3.9 0.1-2.1 1.8-3.7 3.9-3.7z"/>
					<path id="&lt;Path&gt;" class="s3" d="m1758.2 618.7l11.4 1.2c2 0.2 3.5 2 3.3 4.1-0.2 2-2.1 3.5-4.1 3.3h-0.1l-11.1-1.2h-0.2c-2-0.2-3.5-2-3.3-4.1 0.2-2 2-3.5 4.1-3.3z"/>
					<path id="&lt;Path&gt;" class="s3" d="m1780.9 621.5l11.2 1.9c2 0.4 3.4 2.3 3 4.3-0.3 2-2.3 3.4-4.3 3h-0.1l-11-1.9h-0.1c-2-0.4-3.4-2.3-3-4.3 0.3-2 2.2-3.4 4.3-3z"/>
					<path id="&lt;Path&gt;" class="s3" d="m1803.3 625.8l11.1 2.8c1.9 0.5 3.1 2.5 2.6 4.4-0.5 2-2.5 3.2-4.4 2.7h-0.1l-10.9-2.7h-0.1c-2-0.5-3.2-2.5-2.7-4.5 0.5-2 2.5-3.2 4.5-2.7z"/>
					<path id="&lt;Path&gt;" class="s3" d="m1825.3 631.7l10.9 3.6c1.9 0.6 3 2.7 2.3 4.6-0.6 1.9-2.7 3-4.6 2.3h-0.1l-10.6-3.4-0.1-0.1c-2-0.6-3-2.7-2.4-4.6 0.6-1.9 2.7-3 4.6-2.4z"/>
					<path id="&lt;Path&gt;" class="s3" d="m1846.9 639.2l10.6 4.3c1.8 0.8 2.7 2.9 2 4.7-0.8 1.9-2.9 2.8-4.8 2l-10.4-4.2h-0.1c-1.9-0.7-2.8-2.9-2-4.7 0.7-1.9 2.8-2.8 4.7-2.1z"/>
					<path id="&lt;Path&gt;" class="s3" d="m1867.9 648l10.4 4.6c1.8 0.8 2.6 3 1.8 4.8-0.8 1.8-3 2.6-4.8 1.8l-10.3-4.6c-1.9-0.8-2.7-2.9-1.9-4.8 0.8-1.8 3-2.6 4.8-1.8z"/>
					<path id="&lt;Path&gt;" class="s3" d="m1888.5 657.3l10.3 4.6c1.8 0.9 2.6 3 1.8 4.8-0.8 1.8-2.9 2.6-4.7 1.8l-10.3-4.7c-1.8-0.8-2.6-2.9-1.8-4.7 0.8-1.8 2.9-2.6 4.7-1.8z"/>
					<path id="&lt;Path&gt;" class="s3" d="m1909.1 666.5l10.3 4.4h0.1c1.8 0.8 2.7 2.9 1.9 4.7-0.8 1.8-2.9 2.6-4.7 1.9l-10.4-4.4c-1.9-0.8-2.7-2.9-1.9-4.7 0.7-1.9 2.8-2.7 4.6-1.9z"/>
					<path id="&lt;Path&gt;" class="s3" d="m1929.8 675l10.5 3.8 0.2 0.1c1.8 0.6 2.8 2.6 2.1 4.5-0.7 1.8-2.7 2.8-4.5 2.1l-10.8-3.8c-1.8-0.7-2.8-2.7-2.1-4.6 0.6-1.8 2.7-2.8 4.5-2.1z"/>
					<path id="&lt;Path&gt;" class="s3" d="m1951 682.2l10.7 2.8h0.2c1.9 0.5 3 2.4 2.5 4.3-0.5 1.9-2.4 3-4.3 2.5l-11.1-2.9c-1.9-0.4-3-2.4-2.5-4.3 0.5-1.8 2.4-3 4.3-2.5z"/>
					<path id="&lt;Path&gt;" class="s3" d="m1972.6 687.1l10.9 1.4 0.3 0.1c1.9 0.2 3.2 2 3 3.9-0.3 1.9-2 3.3-3.9 3l-11.5-1.4c-1.9-0.3-3.3-2-3-4 0.2-1.9 2-3.2 3.9-3z"/>
					<path id="&lt;Path&gt;" class="s3" d="m1994.5 689.1l11-0.4h0.3c1.9-0.1 3.5 1.4 3.6 3.3 0 2-1.4 3.6-3.4 3.6l-11.6 0.5c-1.9 0-3.5-1.5-3.6-3.4 0-1.9 1.5-3.5 3.4-3.6z"/>
					<path id="&lt;Path&gt;" class="s3" d="m2016.3 687.3l10.7-2.5h0.3c1.9-0.5 3.8 0.7 4.2 2.5 0.4 1.9-0.7 3.7-2.6 4.2l-11.3 2.6c-1.9 0.5-3.7-0.7-4.2-2.5-0.4-1.9 0.7-3.8 2.6-4.2z"/>
					<path id="&lt;Path&gt;" class="s3" d="m2037.4 681.3l10-4.5 0.3-0.1c1.7-0.8 3.7 0 4.5 1.7 0.8 1.7 0 3.7-1.7 4.5l-10.6 4.8c-1.7 0.8-3.7 0-4.5-1.7-0.8-1.7 0-3.8 1.7-4.6z"/>
					<path id="&lt;Path&gt;" class="s3" d="m2056.9 671.4l9.1-6.2 0.3-0.2c1.5-1.1 3.6-0.7 4.7 0.9 1 1.5 0.6 3.6-0.9 4.7l-9.5 6.6c-1.6 1-3.7 0.7-4.8-0.9-1-1.5-0.7-3.7 0.9-4.7z"/>
					<path id="&lt;Path&gt;" class="s3" d="m2074.5 658.2l8-7.7 0.2-0.2c1.3-1.2 3.4-1.2 4.6 0.1 1.3 1.3 1.3 3.4 0 4.7l-8.3 8.1c-1.3 1.3-3.4 1.3-4.7-0.1-1.3-1.3-1.3-3.4 0-4.7z"/>
					<path id="&lt;Path&gt;" class="s3" d="m2089.7 642.2l6.6-8.8 0.2-0.2c1.1-1.5 3.1-1.7 4.5-0.7 1.5 1.1 1.8 3.1 0.7 4.6l-6.8 9.3c-1.1 1.4-3.2 1.7-4.6 0.7-1.5-1.1-1.8-3.2-0.7-4.6z"/>
					<path id="&lt;Path&gt;" class="s3" d="m2102.2 624l5.1-9.7 0.1-0.3c0.8-1.5 2.7-2.1 4.3-1.3 1.6 0.8 2.2 2.7 1.4 4.2l-5.3 10.3c-0.8 1.6-2.8 2.2-4.3 1.4-1.6-0.8-2.2-2.7-1.4-4.3z"/>
					<path id="&lt;Path&gt;" class="s3" d="m2111.6 604.1l3.4-10.5 0.1-0.3c0.5-1.6 2.2-2.5 3.9-2 1.6 0.6 2.5 2.3 2 3.9l-3.5 11.1c-0.5 1.6-2.3 2.5-4 2-1.6-0.5-2.5-2.3-2-3.9v-0.1z"/>
					<path id="&lt;Path&gt;" class="s3" d="m2117.4 582.9l0.8-5.5c0.2-1.8 0.6-3.6 0.7-5.5 0.2-1.6 1.6-2.9 3.3-2.8 1.7 0.2 2.9 1.6 2.8 3.3v0.1c-0.1 1.9-0.5 3.8-0.7 5.7l-0.8 5.7c-0.2 1.7-1.8 2.9-3.5 2.7-1.6-0.3-2.8-1.8-2.6-3.5z"/>
					<path id="&lt;Path&gt;" class="s3" d="m2119.5 560.9l-0.4-11v-0.3c-0.1-1.6 1.2-3 2.8-3 1.7-0.1 3 1.2 3.1 2.8l0.5 11.5c0 1.7-1.2 3.1-2.9 3.2-1.7 0-3.1-1.3-3.1-2.9z"/>
					<path id="&lt;Path&gt;" class="s3" d="m2117.8 538.9l-2.1-10.9-0.1-0.2c-0.3-1.5 0.7-3.1 2.3-3.4 1.6-0.3 3.1 0.7 3.4 2.3l2.3 11.3c0.3 1.6-0.7 3.1-2.3 3.4-1.6 0.4-3.1-0.7-3.4-2.3z"/>
					<path id="&lt;Path&gt;" class="s3" d="m2112.7 517.4l-3.8-10.4-0.1-0.2c-0.5-1.5 0.2-3.1 1.7-3.7 1.5-0.5 3.1 0.3 3.6 1.7l4 10.8c0.6 1.5-0.2 3.1-1.6 3.7-1.5 0.5-3.2-0.2-3.7-1.7z"/>
					<path id="&lt;Path&gt;" class="s3" d="m2104.3 496.9l-5.4-9.7-0.1-0.2c-0.7-1.3-0.2-3 1.1-3.7 1.3-0.8 3-0.3 3.7 1l5.7 10.1c0.7 1.3 0.3 3-1.1 3.8-1.3 0.7-3 0.2-3.8-1.1z"/>
					<path id="&lt;Path&gt;" class="s3" d="m2092.8 477.9l-6.8-8.7-0.1-0.2c-0.9-1.1-0.7-2.8 0.5-3.7 1.1-0.9 2.8-0.7 3.7 0.4l7.1 9.1c1 1.1 0.8 2.8-0.4 3.8-1.2 0.9-2.9 0.7-3.8-0.5z"/>
					<path id="&lt;Path&gt;" class="s3" d="m2078.5 461.1l-4-3.8c-1.4-1.2-2.7-2.5-4.1-3.7-1.2-0.9-1.3-2.6-0.4-3.7 0.9-1.1 2.6-1.3 3.7-0.4v0.1c1.5 1.2 2.9 2.5 4.3 3.8l4.3 3.9c1 1 1.1 2.7 0.1 3.8-1 1-2.7 1.1-3.7 0.1z"/>
					<path id="&lt;Path&gt;" class="s3" d="m2061.6 446.8l-9.3-6-0.2-0.1c-1.1-0.8-1.5-2.4-0.7-3.5 0.7-1.2 2.3-1.5 3.5-0.8l9.7 6.2c1.2 0.8 1.5 2.4 0.8 3.6-0.8 1.2-2.4 1.5-3.6 0.7z"/>
					<path id="&lt;Path&gt;" class="s3" d="m2042.5 435.5l-10.1-4.4-0.2-0.1c-1.2-0.6-1.8-2-1.3-3.3 0.6-1.2 2-1.8 3.3-1.2l10.5 4.5c1.3 0.6 1.9 2 1.3 3.3-0.5 1.3-2 1.9-3.3 1.3z"/>
					<path id="&lt;Path&gt;" class="s3" d="m2021.9 427.4l-10.7-2.9-0.2-0.1c-1.3-0.3-2-1.6-1.7-2.8 0.4-1.3 1.6-2 2.9-1.7l11.1 2.9c1.3 0.3 2.1 1.6 1.7 2.9-0.3 1.3-1.6 2.1-2.9 1.7q0 0 0 0z"/>
					<path id="&lt;Path&gt;" class="s3" d="m2000.2 422.5l-11-1.2-0.2-0.1c-1.2-0.1-2.1-1.2-2-2.4 0.2-1.2 1.2-2.1 2.5-2l11.4 1.1c1.2 0.1 2.2 1.3 2 2.5-0.1 1.3-1.2 2.2-2.5 2.1q0 0 0 0z"/>
					<path id="&lt;Path&gt;" class="s3" d="m1978.1 420.9l-11.1 0.6h-0.2c-1.2 0.1-2.1-0.8-2.2-2-0.1-1.1 0.8-2.1 2-2.2l11.4-0.7c1.2 0 2.2 0.9 2.3 2 0.1 1.2-0.8 2.3-2 2.3q0 0-0.1 0z"/>
					<path id="&lt;Path&gt;" class="s3" d="m1955.9 423l-5.4 1.1-2.7 0.6c-0.9 0.2-1.8 0.5-2.7 0.7h-0.1c-1.1 0.2-2.1-0.4-2.4-1.5-0.2-1 0.4-2.1 1.4-2.3 1-0.3 1.9-0.6 2.8-0.7l2.8-0.7 5.6-1.2c1.1-0.3 2.2 0.4 2.4 1.5 0.3 1.1-0.4 2.2-1.5 2.5z"/>
					<path id="&lt;Path&gt;" class="s3" d="m1934.3 428.5l-10.6 3.6v0.1c-1 0.3-2.1-0.2-2.4-1.2-0.3-1 0.2-2 1.2-2.3l10.6-3.8c1-0.3 2.1 0.2 2.5 1.2 0.3 1-0.2 2.1-1.2 2.4q0 0 0 0z"/>
					<path id="&lt;Path&gt;" class="s3" d="m1913 435.8l-10.9 3.4c-0.9 0.3-1.9-0.3-2.1-1.2-0.3-0.9 0.2-1.8 1.1-2.1h0.1l10.6-3.5h0.1c0.9-0.3 1.9 0.2 2.2 1.2 0.3 0.9-0.2 1.9-1.1 2.2q0 0 0 0z"/>
					<path id="&lt;Path&gt;" class="s3" d="m1891 441.8c-3.8 0.8-7.6 1.3-11.4 1.6-0.9 0-1.6-0.6-1.7-1.5-0.1-0.9 0.6-1.6 1.5-1.7 3.6-0.3 7.3-0.9 10.9-1.6 0.9-0.2 1.8 0.4 2 1.3 0.2 0.9-0.4 1.8-1.3 1.9q0 0 0 0z"/>
					<path id="&lt;Path&gt;" class="s3" d="m1868 443.3c-3.8-0.4-7.6-1.3-11.3-2.6-0.7-0.3-1.1-1.1-0.9-1.9 0.3-0.8 1.1-1.2 1.9-0.9 3.5 1.2 7 2 10.7 2.4 0.8 0 1.4 0.8 1.3 1.6-0.1 0.9-0.8 1.5-1.6 1.4q-0.1 0-0.1 0z"/>
					<path id="&lt;Path&gt;" class="s3" d="m1846.3 435.7c-3.3-2-6.4-4.4-9.2-7-0.6-0.5-0.6-1.4-0.1-1.9 0.5-0.6 1.4-0.6 1.9-0.1 2.7 2.5 5.7 4.7 8.8 6.6 0.7 0.4 0.9 1.2 0.5 1.9-0.4 0.7-1.2 0.9-1.9 0.5q0 0 0 0z"/>
					<path id="&lt;Path&gt;" class="s3" d="m1829.7 419.7c-2.1-3.3-3.7-6.9-4.5-10.7-0.2-0.7 0.2-1.3 0.9-1.5 0.6-0.1 1.3 0.3 1.4 0.9 0.9 3.5 2.4 6.9 4.4 9.9 0.3 0.6 0.2 1.4-0.4 1.8-0.6 0.4-1.4 0.2-1.8-0.4q0 0 0 0z"/>
					<path id="&lt;Path&gt;" class="s3" d="m1825 397.2q0.6-2.9 1.8-5.6c0.2-0.6 0.9-0.8 1.5-0.6 0.5 0.3 0.8 0.9 0.6 1.5q-1.1 2.5-1.6 5.1c-0.1 0.7-0.7 1.1-1.4 1-0.6-0.2-1-0.8-0.9-1.4q0 0 0 0z"/>
				</g>
				<g id="&lt;Group&gt;">
					<path id="&lt;Path&gt;" class="s4" d="m1842.5 324.5l-21.8 40.4-18-32.1z"/>
					<path id="&lt;Path&gt;" class="s2" d="m1673.4 203.6l57.5 154.3c1.1 3 3.4 5.3 6.3 6.6 2.9 1.3 6.2 1.3 9.1 0.1l152.8-63.6c1.7-0.7 2.8-2.5 2.8-4.4 0-1.8-1.2-3.5-2.9-4.2z"/>
					<path id="&lt;Path&gt;" class="s4" d="m1842.5 324.5l-169.1-120.9 144.4 131.2-5.5 11.5z"/>
					<path id="&lt;Path&gt;" class="s4" d="m1803.2 340.9l17.5 24-2.9-30.1z"/>
				</g>
			</g>
			<g id="&lt;Group&gt;">
				<g id="&lt;Group&gt;">
					<g id="&lt;Group&gt;">
						<g id="&lt;Group&gt;">
							<path id="&lt;Path&gt;" class="s2" d="m1259.2 438l-55.6 528.1 105.7 11.1 55.6-528.1c-1.2 11.4-106.9 0.2-105.7-11.1z"/>
							<path id="&lt;Path&gt;" class="s5" d="m1230.1 968.9l48.4 5.1c17 1.8 31.9-7.2 33.3-20.1l52.9-502.5c1.1-10.1 10.1-17.5 20.3-16.4 3 0.3 5.3 3.1 4.9 6.1l-57.8 549.3c-1.3 12.6-23.2 30.5-47.7 27.9l-67.5-7.1c-23-2.4-39.7-23.8-38.4-35.7l57.6-547.6c0.5-4.7 4.7-8.1 9.4-7.6 8.5 0.9 14.7 8.5 13.8 17.1l-53.6 508.7c-1.1 11.1 9.8 21.3 24.4 22.8z"/>
						</g>
						<path id="&lt;Path&gt;" class="s6" d="m1289.2 962.6q-0.1 0-0.3-0.1c-1.2-0.1-2.1-1.2-2-2.4l52.2-495.2c0.1-1.2 1.2-2.1 2.5-2 1.2 0.1 2.1 1.3 2 2.5l-52.2 495.1c-0.1 1.2-1.1 2.1-2.2 2.1z"/>
						<path id="&lt;Path&gt;" class="s6" d="m1273.5 960.9q-0.1 0-0.2 0c-1.3-0.1-2.2-1.2-2-2.5l52.1-495.1c0.1-1.3 1.2-2.2 2.5-2 1.2 0.1 2.1 1.2 2 2.4l-52.2 495.2c-0.1 1.1-1.1 2-2.2 2z"/>
						<path id="&lt;Path&gt;" class="s6" d="m1257.8 959.2q-0.1 0-0.2 0c-1.3-0.1-2.2-1.2-2-2.4l52.1-495.2c0.1-1.2 1.2-2.1 2.5-2 1.2 0.1 2.1 1.2 2 2.5l-52.2 495.1c-0.1 1.2-1.1 2-2.2 2z"/>
						<path id="&lt;Path&gt;" class="s6" d="m1242.1 957.6q-0.1 0-0.2 0c-1.3-0.1-2.2-1.3-2-2.5l52.1-495.1c0.1-1.3 1.3-2.2 2.5-2 1.2 0.1 2.1 1.2 2 2.4l-52.1 495.2c-0.2 1.1-1.1 2-2.3 2z"/>
						<path id="&lt;Path&gt;" class="s6" d="m1226.4 955.9q-0.1 0-0.2 0c-1.2-0.1-2.1-1.2-2-2.4l52.1-495.2c0.2-1.2 1.3-2.1 2.5-2 1.2 0.1 2.1 1.2 2 2.5l-52.1 495.1c-0.2 1.2-1.1 2-2.3 2z"/>
					</g>
					<g id="&lt;Group&gt;">
						<path id="&lt;Path&gt;" class="s7" d="m1534.7 1363.1l86.7-823.7c2.7-25.4-15.7-48.1-41.1-50.8l-129.1-13.6c-25.4-2.7-48.2 15.7-50.8 41.1l-86.8 823.8c-2.6 25.4 15.8 48.1 41.2 50.8l129 13.6c25.4 2.6 48.2-15.8 50.9-41.2z"/>
						<path id="&lt;Path&gt;" class="s4" d="m1579.3 694.9l9.9-93.7c0.4-3.9-2.4-7.3-6.2-7.7l-156.4-16.5c-3.8-0.4-7.2 2.4-7.6 6.2l-9.9 93.8c-0.4 3.8 2.4 7.2 6.2 7.6l156.4 16.5c3.8 0.4 7.2-2.4 7.6-6.2z"/>
						<path id="&lt;Path&gt;" class="s4" d="m1573.3 752.4l3-29.1c0.4-3.1-1.9-5.9-5-6.3l-159-16.7c-3.1-0.3-5.8 1.9-6.2 5l-3 29.1c-0.4 3.2 1.9 5.9 5 6.3l159 16.7c3.1 0.3 5.9-1.9 6.2-5z"/>
					</g>
				</g>
				<g id="&lt;Group&gt;">
					<path id="&lt;Path&gt;" class="s8" d="m1124.3 773.7c0 17-1.8 33.4-5.4 49.3v0.1c-4.6 20.5-11.9 40-21.6 58-0.1 0-0.1 0.1-0.1 0.1-20.8 38.7-52.7 70.7-91.4 91.6-0.2 0.1-0.5 0.3-0.8 0.5-11.2 6-23 11.1-35.2 15.2-0.1 0-0.1 0.1-0.2 0.1-22.5 7.5-46.7 11.6-71.7 11.6-66.6 0-126.4-28.7-167.8-74.5-36.4-40.1-58.7-93.4-58.7-152 0-10.1 0.7-20.1 2-29.9 10.4-79.4 62.1-145.8 132.6-177 0.8-0.4 1.4-0.7 2.2-1 27.4-11.9 57.8-18.5 89.7-18.5 2 0 3.9 0 5.8 0 0.7 0 1.5 0 2.1 0.1 51.9 3.2 93.5 23.8 108.1 31.9 2.4 1.4 4.1 2.4 4.9 3q0.3 0.2 0.6 0.4h0.1c63 40.2 104.8 110.7 104.8 191z"/>
					<path id="&lt;Path&gt;" class="s2" d="m1019.4 582.7c-98.2 7.8-147.3 86.8-147.3 86.8 0 0-2.3 6.4-6.8 11.6-0.1 0-0.1 0.1-0.2 0.1-2.1 2.6-5 4.8-8.3 5.9 0 0.1-0.1 0.1-0.1 0.1-2.8 0.9-6 1-9.6-0.4-10.5-6.5-18.2-19.1-24-33.7-14.7-36.6-17.1-86.3-17.1-86.3 0.8-0.4 1.4-0.7 2.2-1 33-15.7 65.9-20.1 95.5-18.5 0.7 0 1.5 0 2.1 0.1 51.9 3.2 93.5 23.8 108.1 31.9 2.4 1.4 4.1 2.4 4.9 3q0.3 0.2 0.6 0.4z"/>
					<path id="&lt;Path&gt;" class="s2" d="m815 677.6v36.5q-0.5 0.1-1 0.2c-67.3 12.8-82.2 188.6-83.9 211.4-36.4-40.1-58.7-93.4-58.7-152 0-10.1 0.7-20.1 2-29.9 18.3-72.3 99.4-71 129.9-67.8 7.3 0.8 11.7 1.6 11.7 1.6z"/>
					<path id="&lt;Path&gt;" class="s2" d="m1118.9 823c0.1 0.1 0 0.1 0 0.1-4.6 20.5-11.9 40-21.6 58-0.1 0-0.1 0.1-0.1 0.1-23 31.2-57.4 69.9-91.4 91.6-0.2 0.1-0.5 0.3-0.8 0.5-11.9 7.6-23.9 13-35.2 15.2-0.1 0-0.1 0.1-0.2 0.1-0.1 0-0.3 0-0.5 0-46.6-7.6-104.4-197.5-123.5-265.2-4.2-14.8-6.6-23.7-6.6-23.7 0 0 0 0 17.7-12.5q3.7-2.6 8.4-6c0.1 0 0.1-0.1 0.2-0.1 3.6 0.6 7.3 1.1 10.8 1.6 172.2 26.5 226.7 110.3 242.8 140.3z"/>
					<path id="&lt;Path&gt;" class="s9" d="m876.3 686.7c0 20.6-16.6 37.3-37.2 37.3-20.6 0-37.3-16.7-37.3-37.3 0-20.6 16.7-37.2 37.3-37.2 20.6 0 37.2 16.6 37.2 37.2z"/>
				</g>
				<g id="&lt;Group&gt;">
					<g id="&lt;Group&gt;">
						<path id="&lt;Path&gt;" class="s4" d="m1319.8 608.7c-71.7 55.6-171.3 58-245.6 5.9l-8.5-5.9c-4.2 5-85.7 89.8-131.7 194.3-2.5 5.8-2 12.4 1.3 17.8 8.1 13 24.9 36.6 45.6 46.2 7.7 3.5 16.7 1.5 22.3-4.8 15.4-17.3 49.3-56.1 65.1-79.8 0 0-27.6 152.5-35.1 215-2.2 18.7 10.8 35.8 29.4 38.7 90.8 14.4 178.4 16.5 261.4 1.1 18.1-3.4 30.5-20.3 28.4-38.6-7.2-62.3-35.2-216.2-35.2-216.2 15.8 23.7 49.7 62.5 65.1 79.8 5.6 6.3 14.6 8.3 22.2 4.8 20.8-9.6 37.6-33.2 45.7-46.2 3.3-5.4 3.8-12 1.3-17.8-46.1-104.5-127.5-189.3-131.7-194.3z"/>
						<g id="&lt;Group&gt;">
							<path id="&lt;Path&gt;" class="s10" d="m1360.2 656c-22-27.7-38.6-45.1-40.4-47.3-71.7 55.6-171.3 58-245.6 5.9l-8.5-5.9c-1.7 2-15.6 16.6-34.5 40 38.9 28.6 151.2 88.9 329 7.3z"/>
							<path id="&lt;Path&gt;" class="s4" d="m1349.3 974.7c-3.6-25.2-8.6-56.6-13.7-86.8-117.9 18.6-213.3 15.2-286.3 3.7-5 30.2-10 61.4-13.5 85.8 77.1 14 181.5 19.4 313.5-2.7z"/>
							<path id="&lt;Path&gt;" class="s11" d="m1323.2 815.8c-3.6-20.2-6-33.4-6-33.4 5.7 8.5 13.7 19 22.3 29.7 32.4-7.6 66.4-17.4 102.3-29.8-12.4-25-26.5-48.6-40.5-69.8-223.1 87.9-365.9 36.8-421.7 7.1-14.7 22.7-29.2 47.9-41.6 74.5 21.3 9.6 54 21.7 97.9 30.2 12.3-14.7 24.6-30.1 32.4-41.9 0 0-3.4 18.9-8.2 46.1 66.4 9.9 154.3 11 263.1-12.7z"/>
						</g>
					</g>
					<g id="&lt;Group&gt;">
						<path id="&lt;Path&gt;" class="s12" d="m1063.6 626.4c-4.8 0-9.2-3.1-10.6-8-1.6-5.8 1.8-11.9 7.6-13.5 4.5-1.3 111.2-30.6 265.5-8.6 6 0.9 10.2 6.5 9.3 12.5-0.8 6-6.4 10.1-12.4 9.3-149.8-21.4-255.4 7.6-256.4 7.9q-1.5 0.5-3 0.4z"/>
						<path id="&lt;Path&gt;" class="s13" d="m1178.4 610.2c-5.9 0-10.8-4.6-11-10.6 0-0.2-0.8-21.2-0.8-40.5 0-10.7 8.8-20.4 19.9-32.7 22.7-25 30-37.5 16.6-49.8-7.7-7.2-15.1-10.2-22.6-9.4-14.7 1.6-25.8 17.4-25.9 17.6-3.4 5-10.3 6.2-15.2 2.8-5-3.4-6.3-10.2-2.9-15.2 0.6-1 16.7-24.2 41.4-27 14.1-1.6 27.5 3.4 40.1 15 31.6 29.2 2.3 61.5-15.2 80.8-5.4 5.9-13.4 14.8-14.2 18.2 0 18.7 0.8 39.2 0.8 39.4 0.2 6.1-4.5 11.2-10.6 11.4q-0.2 0-0.4 0z"/>
					</g>
				</g>
				<g id="&lt;Group&gt;">
					<g id="&lt;Group&gt;">
						<g id="&lt;Group&gt;">
							<path id="&lt;Path&gt;" class="s14" d="m1503.3 828.6l-35.8 614.6 225.7-24.8c10.4-1.1 18.4-9.4 18.8-19.8l20.8-570z"/>
							<path id="&lt;Path&gt;" class="s15" d="m648.7 868.4l25.7 530.6c0.9 18.6 16.2 33.3 34.8 33.6l758.3 10.1c9.4 0.1 18.3-3.5 25-10.2 6.7-6.6 10.3-15.6 10.3-25v-579.9z"/>
							<path id="&lt;Path&gt;" class="s16" d="m1790.9 928.1l-44.6-99.5h-243.9l90.5 139.2c4.3 6.8 12.2 10.2 20.2 9.3l161.1-19.9c6.7-0.8 12.5-4.5 15.8-10.3 3.3-5.8 3.6-12.7 0.9-18.8z"/>
							<path id="&lt;Path&gt;" class="s17" d="m631.5 828.6l-66 119c-3.6 6.4-3.5 14.1 0.2 20.5 3.7 6.4 10.5 10.2 17.9 10.4l815 14.5c7.8 0.1 15-3.6 18.8-10.5l85-153.9z"/>
						</g>
						<path id="&lt;Path&gt;" class="s18" d="m1147.1 1233.8c-3.6-16.1-17.9-27.1-34.4-27.1h-109.7c-19.5 0-35.8 14.8-35.8 34.2v196l225.3 2.4z"/>
						<path id="&lt;Path&gt;" class="s3" d="m1065.9 1279.1c-0.4-5.6-5-9.4-10.7-9.4h-5.8c-2.9 0-5.7 0.7-7.7 2.8-2 2.1-3.1 4.7-2.9 7.6l7.7 156.7 29.6 0.4z"/>
					</g>
					<g id="&lt;Group&gt;">
						<path id="&lt;Compound Path&gt;" fill-rule="evenodd" class="s19" d="m785 1079.1c8.1-1.3 18.8-2 30.1-2 18.6 0 30.8 3.4 40.3 10.5 10.2 7.6 16.6 19.7 16.6 37.1 0 18.8-6.9 31.8-16.4 39.9-10.3 8.6-26.1 12.7-45.4 12.7-11.5 0-19.7-0.8-25.2-1.5zm22.3 80.3c1.9 0.5 5 0.5 7.8 0.5 20.1 0.1 33.2-11 33.2-34.5 0.2-20.4-11.8-31.2-30.9-31.2-5 0-8.2 0.4-10.1 0.8z"/>
						<path id="&lt;Compound Path&gt;" fill-rule="evenodd" class="s20" d="m976.7 1126c0 32.3-19.6 51.9-48.3 51.9-29.2 0-46.3-22.1-46.3-50.1 0-29.5 18.8-51.6 47.9-51.6 30.2 0 46.7 22.7 46.7 49.8zm-71.1 1.3c0 19.3 9 32.9 23.9 32.9 15.1 0 23.7-14.3 23.7-33.5 0-17.6-8.5-32.8-23.8-32.8-15.1 0-23.8 14.3-23.8 33.4z"/>
						<path id="&lt;Compound Path&gt;" class="s21" d="m991.3 1176.3v-98.5h26l20.4 36.1c5.9 10.4 11.7 22.6 16.1 33.7h0.4c-1.4-13-1.9-26.3-1.9-41v-28.8h20.5v98.5h-23.4l-21-38c-5.9-10.5-12.3-23.2-17.1-34.8l-0.4 0.2c0.5 13 0.8 26.8 0.8 42.9v29.7z"/>
						<path id="&lt;Compound Path&gt;" fill-rule="evenodd" class="s22" d="m1115 1151l-7 25.3h-23.1l30.1-98.5h29.2l30.5 98.5h-24l-7.5-25.3zm24.9-16.7l-6.1-20.8c-1.8-5.9-3.5-13.2-5-19h-0.3c-1.4 5.8-2.9 13.3-4.5 19l-5.8 20.8z"/>
						<path id="&lt;Compound Path&gt;" class="s23" d="m1194.7 1096.5h-26.4v-18.7h75.6v18.7h-26.9v79.8h-22.3z"/>
						<path id="&lt;Compound Path&gt;" class="s24" d="m1314.3 1134.6h-36.2v23.4h40.4v18.3h-62.8v-98.5h60.8v18.3h-38.4v20.4h36.2z"/>
					</g>
				</g>
			</g>
			<g id="&lt;Group&gt;">
				<path id="&lt;Path&gt;" class="s25" d="m514.5 1093.2c-6.2 6.7-15.4 12.4-21.9 16 9.7 11.9 22.7 23.9 40 35.6l5 11.1 15.8-19c0 0-28.4-14.2-38.9-43.7z"/>
				<path id="&lt;Path&gt;" class="s26" d="m599.3 1453.6q0.1-0.5-0.1-1c-5.1-20.4-30.6-33.1-30.6-33.1l-10.1 0.8c-5.8 18-5 29-4.1 33.9q0 0.2 0.1 0.4c8.3 0.7 25.5 1.2 44.8-1z"/>
				<path id="&lt;Path&gt;" class="s27" d="m554.5 1454.6c0.5 1.6 1.7 2.9 3.2 3.2 11.9 2.5 30.7 0.5 38.6-0.5 1.7-0.3 3-1.9 3-3.7-19.3 2.2-36.5 1.7-44.8 1z"/>
				<path id="&lt;Path&gt;" class="s28" d="m554.5 1405.3l4.2 20.6c0.4 1.5 1.5 2.6 2.9 2.7 1.7 0.2 4.2 0.3 6.6-0.1 2.3-0.3 3.8-2.5 3.4-4.9l-3-18.3z"/>
				<path id="&lt;Path&gt;" class="s29" d="m643.1 1454.4c-11.2-0.4-16.9-1.7-19.9-2.9q0 1.7 0 3.4c0.1 1.3 1 2.3 2.1 2.3l61.3-0.4c1.9 0 3.1-2.3 2.2-4.1-8 0.7-28.5 2.1-45.7 1.7z"/>
				<path id="&lt;Path&gt;" class="s30" d="m688.8 1452.7q-0.1-0.2-0.2-0.5c-5.4-7.5-19.2-22.6-46.4-29.1l-13.1-0.4c0 0-5.8 10.1-5.9 28.8 3 1.2 8.7 2.5 19.9 2.9 17.2 0.4 37.7-1 45.7-1.7z"/>
				<path id="&lt;Path&gt;" class="s31" d="m626.7 1402.9c0.1 1 1.9 15.8 2.6 21.5 0.2 1.4 1.2 2.4 2.4 2.6 2.2 0.2 5.8 0.5 9-0.2 1.7-0.3 2.9-1.9 2.9-3.8v-23.3z"/>
				<path id="&lt;Path&gt;" class="s32" d="m616.2 1132.9c0 0 31.5 119.7 30.9 270.3 0 2.8-1.9 5.2-4.6 5.7-4 0.9-9.8 1.9-14.6 1.7-2.6-0.1-4.7-2-5.1-4.5-4.5-25.9-29.8-171.8-44.2-195.5 0 0-9.5 130-6.5 197.4 0.1 1.7-1.2 3.1-2.8 3.3-2.6 0.3-6.6 0.5-11.7 0-2-0.2-3.6-1.7-3.9-3.7-3.1-21.9-21.2-152.3-20.4-246.3 0-5.3 14-28.4 14-28.4z"/>
				<path id="&lt;Path&gt;" class="s33" d="m660 988.1c-5.1-6.4-9.6-13.3-13.3-20.4-5.3-9.9-0.4 6.4-1.9-4.7-39.2-28.3-98.1-14-121-11.1-7.4 0.9-14.3 4.6-19.2 10.3-19.6 22.6-62.5 84.6-12 147 6.5-3.6 15.7-9.3 21.9-16-5.6-15.7-6-35.9 5.7-60.5q0.6 2.9 1.5 5.8c16.1 51.1 17 93.6 16.9 103.4 0 1.4 0.8 2.6 2.1 3.1 21.2 8.5 62.1 3.4 75.8 1.4 2.5-0.4 4.2-2.7 3.9-5.3-6.8-48.8 27.8-129.1 36.9-149.2 0.7-1.4 1.6-2.7 2.7-3.8z"/>
				<path id="&lt;Path&gt;" class="s34" d="m560.6 910.8l-4.1 41.8c0 0 23.5 7.1 40.6-5l-12-38z"/>
				<g id="&lt;Group&gt;">
					<path id="&lt;Path&gt;" class="s35" d="m587.9 863.1c0.5 0.5 23.9 46.4 23.9 46.4l-26.5 12.7-28.6-40.1c0 0 21.7-27.9 31.2-19z"/>
					<path id="&lt;Path&gt;" class="s36" d="m568.4 883.2c-0.4 1.2-0.3 2.6 0.4 3.7l13.1 22q0.3 0.5 0.8 0.9c1.5 1.5 6.9 5.7 11.1-0.1 3.5-4.9 6.8-9.4 10.4-11.3 2.1-1 4.6-0.2 5.7 1.9 2.1 4.3 6.4 13.1 9 21.4 0.7 2.1-0.4 4.4-2.4 5.2-5.4 2.2-16 6.1-25.4 7.4-1.5 0.2-3-0.5-4-1.7-4-5.6-15.4-21-19.3-24.9-3.6-3.6-10.3-2.2-13.3-1.4-1.1 0.4-2.3 0.2-3.3-0.4-3.1-1.9-8.4-6.4-3.5-14.2 1.2-1.9 0.6-4.4-1.3-5.7-3.4-2.2-7.1-6.4-3.6-13.2 3.6-6.9 9.9-7.5 14.2-7 2 0.2 3.9-0.8 4.6-2.6 0.4-0.8 1-1.4 2.2-1.7 2.3-0.4 3.8-2.5 3.3-4.8-0.7-3.9-0.2-8.9 6.1-12.4 11.4-6.2 21.4 4 23.9 12.6 2.6 8.6-10.2 14.7-18.2 15.8-5.9 0.7-9.2 7.1-10.5 10.5z"/>
					<path id="&lt;Path&gt;" class="s37" d="m572.8 915.8c0 0-5.1-14.9-11.6-14.3-6.5 0.5-11.6 7-3.5 14.3 10 9 15.1 0 15.1 0z"/>
				</g>
				<path id="&lt;Path&gt;" class="s38" d="m518 1028.8c-8.5-23.4-5.4-51.7-5.4-52l2.4 0.3c-0.1 0.3-3.1 28 5.3 50.9z"/>
				<path id="&lt;Path&gt;" class="s39" d="m577.4 1207.6c-0.5 0-1-0.4-1.2-0.9-2.6-10.1-22.1-21.2-22.3-21.3-0.6-0.3-0.8-1-0.5-1.6 0.3-0.6 1.1-0.8 1.6-0.4 0.9 0.4 20.7 11.6 23.5 22.7 0.2 0.6-0.2 1.3-0.8 1.4q-0.2 0.1-0.3 0.1z"/>
				<g id="&lt;Group&gt;">
					<path id="&lt;Path&gt;" class="s40" d="m739.5 1001.2c-44.3 6.7-73.2-21.3-94.7-38.2-28.4-22.4-50.5-11.5-50.5-11.5l30.3 57.8c45.3 42.7 91.6 33.2 120.9 19.4 0.4-11.2-2.5-20.6-6-27.5z"/>
					<path id="&lt;Path&gt;" class="s41" d="m801.8 974.8l-14.7 7.9c-17.6 10.7-33.4 16.4-47.6 18.5 3.5 6.9 6.4 16.3 6 27.5 18.6-8.8 30.3-19.4 30.3-19.4 33.3-19.9 26-34.5 26-34.5z"/>
				</g>
				<path id="&lt;Path&gt;" class="s42" d="m845.1 995.5c-1-3.2-3.3-5.7-6.3-6.9l-29.9-12c0 0-0.4-3.8 6.3-6.4 6.8-2.6 5.2-10.2 5.2-10.2 0 0-9.2 4.2-22.7 10.9-7.7 3.8-12.1 10.5-14.4 15.6l7.7 10.1c18.4 5.5 37 6.6 55.7 4.4z"/>
			</g>
			<g id="&lt;Group&gt;">
				<path id="&lt;Path&gt;" class="s43" d="m477.8 1048.1c0 0-26.7 61.7-43.2 53.5-16.4-8.2-28.7-76.1-28.7-76.1 0 0 51.4-12.3 71.9 22.6z"/>
				<path id="&lt;Path&gt;" class="s44" d="m384.7 1431c0 0-2.2 12.7-3.3 25.2-0.4 4.9 3.4 9.2 8.3 9.4 16.6 0.7 52.3 2 65.1 1.4 2-0.1 3.2-2 2.5-3.8-0.6-1.5-1.7-2.7-3.2-3.4l-58.9-27.1z"/>
				<path id="&lt;Path&gt;" class="s45" d="m382.9 1423.6l1.8 15.1c0 0 10.3 4.8 17.4-0.6l-4.3-16.8z"/>
				<path id="&lt;Path&gt;" class="s46" d="m384.3 1139c-0.8 4-4.2 197.3 16.5 283.9 0.3 1.4-0.4 2.9-1.8 3.4-3.1 1.3-9.3 3.2-16.8 3.4-2.3 0.1-4.4-1.4-5-3.6-5.9-20.1-34.2-120.8-37.9-217-4.1-107.5 0-3.6 0-3.6l2.4-66.5z"/>
				<path id="&lt;Path&gt;" class="s47" d="m316.9 1437.6c0 0-3.5 6.4-7 23.4-0.6 3.1 1.6 6 4.7 6.3 5.5 0.5 14 1.2 20.8 1.2 3.1 0 5.5-2.8 5.2-5.9-0.8-6.2-3.1-16.3-10.4-24.3z"/>
				<path id="&lt;Path&gt;" class="s48" d="m313.8 1418.2l4.2 22.9c0 0 4.2 3 12.4 0.8l-2-24.6z"/>
				<path id="&lt;Path&gt;" class="s49" d="m302.5 1145c-16.9 102 3.6 252 10.6 281.4 0.4 1.8 1.9 3.2 3.7 3.5 3.1 0.5 8.2 0.9 13.2-0.5 1.7-0.6 2.9-2.1 3-3.9 0.9-23.8-0.7-169.6 15-227.2 0.8-2.9 2.6-5.4 5.1-7.2l30.5-21.7 2.4-35.1z"/>
				<g id="&lt;Group&gt;">
					<path id="&lt;Path&gt;" class="s50" d="m412 955.6c-61.7-6.2-108.4 9.4-108.4 9.4-15.1 88.1-2.6 189.7-2.6 189.7 39.2 10.3 83.4-6.3 83.4-6.3 6.6-36.8 37-140.4 37-140.4 24.7-3.1 6.2-50.9-9.4-52.4z"/>
				</g>
				<path id="&lt;Path&gt;" class="s51" d="m323.1 1014.1l-19.5-49.1c0 0-47.3 32.2-55 72.9 8.9 0.7 25.2 3 41.1 11 3.5-19.2 33.4-34.8 33.4-34.8z"/>
				<path id="&lt;Path&gt;" class="s52" d="m368.5 1060.2c0 0-53.1 30-71 4.4-3.7-5.3-8.3-12.4-7.4-17.4-15.9-8.1-32.1-11.2-41-11.8-2.3 12.3 2.5 27.9 9.7 41.1 31.4 57.4 116.7-3.2 116.7-3.2z"/>
				<g id="&lt;Group&gt;">
					<path id="&lt;Path&gt;" class="s53" d="m362.1 1098.2l29-101.2c0.3-1.2 1.3-2 2.5-2.2 5.3-0.6 20.5-2.3 38.1-3.8 21.1-1.8 45.7-3.2 60.4-2 2.1 0.2 3.3 2.4 2.4 4.3-8.4 16.9-42.7 85.6-59.9 108.1-0.6 0.7-1.5 1.2-2.4 1.2l-67.2-0.6c-2-0.1-3.4-1.9-2.9-3.8z"/>
					<path id="&lt;Path&gt;" class="s54" d="m434.7 982.2l21-3.5c1.1-0.2 2 0.9 1.7 2l-2.1 6.3c-0.2 0.5-0.7 0.9-1.3 1l-20.2 2.7c-1 0.2-1.9-0.8-1.6-1.8l1.2-5.5c0.2-0.6 0.7-1.1 1.3-1.2z"/>
					<path id="&lt;Path&gt;" class="s55" d="m418.9 1000l1.8-9c0.1-0.9 0.9-1.6 1.8-1.7l42.4-4.3c1.5-0.1 2.6 1.2 2.3 2.6l-2.7 11.2c-0.2 0.9-1 1.6-1.9 1.6l-41.5 2.1c-1.4 0.1-2.4-1.1-2.2-2.5z"/>
					<path id="&lt;Path&gt;" class="s56" d="m369.1 1073.7c0 0-4-16.6-2.4-22.5 1.7-5.9 4.8-13.4 15.3-11.8 10.5 1.7 23 6.2 23 6.2 0 0-0.7 7.6-8.7 5.2l5 3.8c0 0-0.7 6.1-7.5 2.9l4.6 5c0 0-2.9 5.1-7.8 1.8-5-3.2-7.4 11.4-21.5 9.4z"/>
					<path id="&lt;Path&gt;" class="s57" d="m476.9 1049c0 0 12.2-11.9 14-17.8 1.7-5.8 3.1-13.9-6.7-18.1-9.8-4.1-22.7-7-22.7-7 0 0-3.5 6.9 4.6 9l-6.3 0.6c0 0-2.6 5.6 4.8 6.4l-6.6 1.9c0 0-0.2 5.8 5.7 5.7 5.9-0.1 0.2 13.5 13.2 19.3z"/>
				</g>
				<path id="&lt;Path&gt;" class="s58" d="m365 914.4l-16.1 46.6c-0.2 0.8 0.1 1.7 0.8 2.1 4.4 2.4 20.2 9.4 39.3-2.7 2-1.2 3.3-3.3 3.6-5.6l5.2-40.4z"/>
				<g id="&lt;Group&gt;">
					<path id="&lt;Path&gt;" class="s59" d="m400.1 871.3c0 0 17.7 33.3 15.4 46.8-2.2 13.4-24.2 12.4-43.3 1.5l-13.4-35.9z"/>
					<path id="&lt;Path&gt;" class="s60" d="m373 902c0.8-0.4 1.1-1.3 0.6-2.1-1.4-2.1-4.1-6.5-4.9-10.4 0 0-3.2-2 8.1-4.7 11.3-2.7 28.1-6.9 31.6-16.5 3.5-9.4-5.6-32.9-20-14.2-0.6 0.7-1.7 0.8-2.2 0-2.4-3-8.6-9.4-17.2-5.6-8.1 3.7-9 9.6-8.9 12.6 0 0.9-0.8 1.6-1.7 1.4-4-0.8-13.9-1.5-18.4 8.6-3.8 8.3-1.4 13 0.9 15.3 0.7 0.7 0.4 2-0.6 2.3-2.7 0.8-6.2 3.1-5.8 9.4 0.5 8.7 10.2 7.9 13 7.5 0.4-0.1 0.9 0.1 1.2 0.4 2.4 2.7 13.1 13.8 24.7 15.2 1 0.1 1.7-0.9 1.4-1.9l-5-14.5c-0.2-0.7 0.1-1.5 0.7-1.7z"/>
					<path id="&lt;Path&gt;" class="s61" d="m375 904c0 0-12.6-8.6-13.5-1.3-0.9 7.2 11.4 10.5 17.4 7.8z"/>
				</g>
			</g>
			<g id="&lt;Group&gt;">
				<g id="&lt;Group&gt;">
					<g id="&lt;Group&gt;">
						<path id="&lt;Path&gt;" class="s62" d="m2001.1 768.1c0 30.6-24.8 55.4-55.4 55.4-30.6 0-55.4-24.8-55.4-55.4 0-30.6 24.8-55.5 55.4-55.5 30.6 0 55.4 24.9 55.4 55.5z"/>
						<path id="&lt;Path&gt;" class="s63" d="m1999.3 768.1c0 29.5-24 53.5-53.6 53.5-29.6 0-53.6-24-53.6-53.5 0-29.6 24-53.6 53.6-53.6 29.6 0 53.6 24 53.6 53.6z"/>
						<path id="&lt;Path&gt;" class="s64" d="m1901.5 748.1q-0.5 0-1-0.3c-1.1-0.5-1.5-1.9-1-3 8.9-17.6 26.6-28.4 46.2-28.4 3.1 0 6.3 0.2 9.3 0.8 1.3 0.2 2.1 1.4 1.8 2.6-0.2 1.2-1.4 2-2.6 1.8-2.8-0.5-5.6-0.7-8.5-0.7-17.9 0-34.1 9.9-42.2 25.9-0.4 0.8-1.2 1.3-2 1.3z"/>
						<path id="&lt;Path&gt;" class="s64" d="m1992.2 769.2c0 25.1-20.3 45.4-45.3 45.4-25.1 0-45.4-20.3-45.4-45.4 0-25 20.3-45.3 45.4-45.3 25 0 45.3 20.3 45.3 45.3z"/>
						<g id="&lt;Group&gt;">
							<path id="&lt;Compound Path&gt;" class="s65" d="m1942.4 802.9v-4.9c-5.1-0.2-10.2-1.4-13.8-3-1.3-0.6-2-2-1.6-3.4l1.3-4.6c0.4-1.7 2.2-2.5 3.9-1.9 3.5 1.6 8 2.7 12.7 2.7 5 0 8.7-1.6 8.7-5.1 0-3.1-2.9-4.9-9.8-6.8-9.8-2.7-16.8-6.9-16.8-15.6 0-7.8 5.7-13.8 15.6-15.4v-4.9c0-1.6 1.3-2.9 2.9-2.9h2.9c1.5 0 2.8 1.3 2.8 2.9v4.4c4.8 0.2 8.3 1 11 2 1.4 0.5 2.2 2 1.8 3.5l-1.2 4.2c-0.4 1.6-2.2 2.5-3.7 1.9-2.6-0.9-6.2-1.9-10.8-1.9-5.9 0-7.6 2.4-7.6 4.6 0 2.7 3.6 4.5 11.2 6.9 10.9 3.3 15.5 7.8 15.5 15.9 0 7.5-5.6 14.2-16.3 15.9v5.5c0 1.6-1.3 2.9-2.9 2.9h-2.9c-1.6 0-2.9-1.3-2.9-2.9z"/>
						</g>
					</g>
					<g id="&lt;Group&gt;">
						<path id="&lt;Path&gt;" class="s66" d="m1888.1 852.4c0 44.1-35.8 79.9-79.9 79.9-44.2 0-80-35.8-80-79.9 0-44.1 35.8-79.9 80-79.9 44.1 0 79.9 35.8 79.9 79.9z"/>
						<path id="&lt;Path&gt;" class="s67" d="m1885.4 852.4c0 42.7-34.6 77.3-77.2 77.3-42.7 0-77.3-34.6-77.3-77.3 0-42.7 34.6-77.3 77.3-77.3 42.6 0 77.2 34.6 77.2 77.3z"/>
						<path id="&lt;Path&gt;" class="s64" d="m1744.5 822.6q-0.6 0-1.1-0.3c-1.1-0.5-1.5-1.9-1-3 12.6-25 37.8-40.5 65.8-40.5 4.4 0 8.9 0.4 13.2 1.2 1.3 0.2 2.1 1.4 1.8 2.6-0.2 1.3-1.3 2.1-2.6 1.8-4.1-0.7-8.2-1.1-12.4-1.1-26.3 0-49.9 14.6-61.7 38-0.4 0.8-1.2 1.3-2 1.3z"/>
						<path id="&lt;Path&gt;" class="s64" d="m1875.2 854.1c0 36.1-29.2 65.4-65.3 65.4-36.2 0-65.4-29.3-65.4-65.4 0-36.1 29.2-65.4 65.4-65.4 36.1 0 65.3 29.3 65.3 65.4z"/>
						<g id="&lt;Group&gt;">
							<path id="&lt;Compound Path&gt;" class="s68" d="m1803.4 902.7v-7.1c-7.4-0.3-14.7-2.1-19.9-4.3-1.9-0.9-2.8-2.9-2.3-4.9l1.8-6.6c0.7-2.5 3.3-3.7 5.6-2.7 5.2 2.1 11.6 3.8 18.5 3.8 7.1 0 12.4-2.4 12.4-7.4 0-4.4-4.1-7.1-14-9.8-14.2-3.8-24.3-10-24.3-22.5 0-11.2 8.2-19.8 22.5-22.1v-7.2c0-2.2 1.8-4.1 4.1-4.1h4.2c2.3 0 4.1 1.9 4.1 4.1v6.4c6.9 0.3 11.9 1.5 15.9 2.9 2 0.7 3.1 2.9 2.5 5l-1.6 6.1c-0.7 2.3-3.2 3.6-5.5 2.8-3.6-1.4-8.8-2.8-15.5-2.8-8.5 0-10.9 3.5-10.9 6.6 0 3.9 5.1 6.6 16.1 9.9 15.8 4.8 22.3 11.3 22.3 23.1 0 10.7-8 20.4-23.5 22.8v8c0 2.3-1.9 4.1-4.1 4.1h-4.2c-2.3 0-4.2-1.8-4.2-4.1z"/>
						</g>
					</g>
					<g id="&lt;Group&gt;">
						<path id="&lt;Path&gt;" class="s69" d="m2029.3 961.5c0 40.1-32.6 72.7-72.7 72.7-40.2 0-72.8-32.6-72.8-72.7 0-40.2 32.6-72.7 72.8-72.7 40.1 0 72.7 32.5 72.7 72.7z"/>
						<path id="&lt;Path&gt;" class="s70" d="m2026.9 961.5c0 38.8-31.5 70.3-70.3 70.3-38.9 0-70.3-31.5-70.3-70.3 0-38.9 31.4-70.3 70.3-70.3 38.8 0 70.3 31.4 70.3 70.3z"/>
						<path id="&lt;Path&gt;" class="s64" d="m1898.6 934.5q-0.5 0-1-0.2c-1.1-0.6-1.6-1.9-1-3 11.5-22.8 34.5-37 60-37 4 0 8.1 0.4 12.1 1.1 1.2 0.2 2 1.4 1.8 2.6-0.2 1.3-1.4 2.1-2.6 1.8-3.7-0.6-7.5-1-11.3-1-23.8 0-45.3 13.2-56 34.5-0.4 0.8-1.2 1.2-2 1.2z"/>
						<path id="&lt;Path&gt;" class="s64" d="m2017.6 963c0 32.9-26.6 59.5-59.5 59.5-32.9 0-59.5-26.6-59.5-59.5 0-32.9 26.6-59.5 59.5-59.5 32.9 0 59.5 26.6 59.5 59.5z"/>
						<g id="&lt;Group&gt;">
							<path id="&lt;Compound Path&gt;" class="s71" d="m1952.3 1007.3v-6.5c-6.8-0.3-13.5-1.9-18.2-4-1.7-0.7-2.6-2.6-2.1-4.4l1.7-6c0.6-2.2 3-3.4 5.1-2.5 4.7 2 10.5 3.5 16.8 3.5 6.5 0 11.3-2.2 11.3-6.7 0-4.1-3.7-6.5-12.8-8.9-12.9-3.5-22.1-9.1-22.1-20.5 0-10.2 7.5-18.1 20.5-20.2v-6.4c0-2.1 1.7-3.8 3.8-3.8h3.8c2 0 3.7 1.7 3.7 3.8v5.8c6.3 0.2 10.8 1.3 14.4 2.6 1.9 0.6 2.9 2.6 2.4 4.5l-1.5 5.6c-0.6 2.1-2.9 3.3-5 2.5-3.3-1.2-8-2.5-14.1-2.5-7.7 0-9.9 3.1-9.9 6 0 3.5 4.6 6 14.6 9 14.3 4.3 20.3 10.3 20.3 21 0 9.8-7.3 18.6-21.4 20.8v7.3c0 2-1.7 3.7-3.8 3.7h-3.8c-2.1 0-3.7-1.7-3.7-3.7z"/>
						</g>
					</g>
				</g>
				<g id="&lt;Group&gt;">
					<g id="&lt;Group&gt;">
						<g id="&lt;Group&gt;">
							<path id="&lt;Path&gt;" class="s72" d="m2061.3 1117.9h-274.5c-21.1 0-38.3 17.2-38.3 38.3v240.7c0 21.2 17.2 38.3 38.3 38.3h274.5c21.1 0 38.3-17.1 38.3-38.3v-240.7c0-21.1-17.2-38.3-38.3-38.3z"/>
							<path id="&lt;Path&gt;" class="s73" d="m2072.6 1120.2h-292.6v-24.8h292.6z"/>
						</g>
						<path id="&lt;Path&gt;" class="s74" d="m2068.8 1059.4h-289.5c-7 0-12.8 5.7-12.8 12.8v19.4c0 7.1 5.8 12.8 12.8 12.8h289.5c7 0 12.8-5.7 12.8-12.8v-19.4c0-7.1-5.8-12.8-12.8-12.8z"/>
						<path id="&lt;Path&gt;" class="s1" d="m1781.8 1099.8c0 0.6-0.5 1.1-1.1 1.1-0.6 0-1.1-0.5-1.1-1.1v-33.8c0-0.6 0.5-1.1 1.1-1.1 0.6 0 1.1 0.5 1.1 1.1z"/>
						<path id="&lt;Path&gt;" class="s1" d="m1790.8 1099.8c0 0.6-0.5 1.1-1.1 1.1-0.6 0-1.1-0.5-1.1-1.1v-33.8c0-0.6 0.5-1.1 1.1-1.1 0.6 0 1.1 0.5 1.1 1.1z"/>
						<path id="&lt;Path&gt;" class="s1" d="m1799.8 1099.8c0 0.6-0.5 1.1-1.1 1.1-0.6 0-1.1-0.5-1.1-1.1v-33.8c0-0.6 0.5-1.1 1.1-1.1 0.6 0 1.1 0.5 1.1 1.1z"/>
						<path id="&lt;Path&gt;" class="s1" d="m1808.8 1099.8c0 0.6-0.5 1.1-1.1 1.1-0.6 0-1.1-0.5-1.1-1.1v-33.8c0-0.6 0.5-1.1 1.1-1.1 0.6 0 1.1 0.5 1.1 1.1z"/>
					</g>
					<path id="&lt;Path&gt;" class="s75" d="m2054.1 1219.5c0-7.1-5.7-12.8-12.8-12.8h-237.7c-7.1 0-12.8 5.7-12.8 12.8v104.9c0 7 5.7 12.8 12.8 12.8h237.7c7.1 0 12.8-5.8 12.8-12.8z"/>
					<g id="&lt;Group&gt;">
						<path id="&lt;Path&gt;" class="s1" d="m1809.3 1415.9h-22.9c-13.4 0-24.8-11.9-24.8-25.3v-74.7c0-0.6 0.5-1.1 1.1-1.1 0.6 0 1.1 0.5 1.1 1.1v74.7c0 12.2 10.4 23.1 22.6 23.1h22.9c0.6 0 1.1 0.5 1.1 1.1 0 0.6-0.5 1.1-1.1 1.1z"/>
					</g>
					<path id="&lt;Path&gt;" class="s76" d="m1924.4 1259.3c0 0 2.6-35 37.6-29.2 33.1 5.4 22.5 50.8-24.2 79.6-5 3.2-11.3 3.6-16.8 1.3-20.5-8.7-68.2-33.7-41.9-68.3 17-22.4 45.3 16.6 45.3 16.6z"/>
				</g>
				<g id="&lt;Group&gt;">
					<g id="&lt;Group&gt;">
						<path id="&lt;Path&gt;" class="s77" d="m2236 722.1c0 61.2-49.6 110.8-110.8 110.8-61.1 0-110.7-49.6-110.7-110.8 0-61.2 49.6-110.7 110.7-110.7 61.2 0 110.8 49.5 110.8 110.7z"/>
						<path id="&lt;Path&gt;" class="s78" d="m2232.3 722.1c0 59.2-47.9 107.1-107.1 107.1-59.1 0-107.1-47.9-107.1-107.1 0-59.1 48-107.1 107.1-107.1 59.2 0 107.1 48 107.1 107.1z"/>
						<path id="&lt;Path&gt;" class="s64" d="m2036.9 679.9q-0.5 0-1-0.3c-1.1-0.5-1.5-1.9-1-3 17.3-34.3 51.9-55.6 90.3-55.6 6.1 0 12.3 0.6 18.3 1.7 1.2 0.2 2 1.4 1.8 2.6-0.3 1.2-1.4 2-2.6 1.8-5.8-1-11.6-1.6-17.5-1.6-36.7 0-69.7 20.4-86.3 53.2-0.4 0.7-1.1 1.2-2 1.2z"/>
						<path id="&lt;Path&gt;" class="s64" d="m2218.2 724.5c0 50-40.6 90.6-90.6 90.6-50.1 0-90.7-40.6-90.7-90.6 0-50.1 40.6-90.7 90.7-90.7 50 0 90.6 40.6 90.6 90.7z"/>
						<g id="&lt;Group&gt;">
							<path id="&lt;Compound Path&gt;" class="s79" d="m2118.7 791.8v-9.8c-10.3-0.4-20.5-2.9-27.7-6-2.6-1.2-3.9-4.1-3.2-6.8l2.5-9.2c1-3.3 4.6-5.1 7.9-3.7 7.1 3 16 5.4 25.5 5.4 9.9 0 17.3-3.4 17.3-10.3 0-6.2-5.7-9.9-19.5-13.6-19.6-5.3-33.7-13.9-33.7-31.2 0-15.6 11.4-27.5 31.2-30.7v-9.8c0-3.2 2.6-5.8 5.7-5.8h5.8c3.2 0 5.8 2.6 5.8 5.8v8.8c9.5 0.4 16.4 2 21.9 3.9 2.8 1 4.4 4.1 3.6 6.9l-2.3 8.5c-0.9 3.3-4.4 5.1-7.6 3.9-5-1.9-12.2-3.9-21.5-3.9-11.7 0-15.1 4.9-15.1 9.2 0 5.4 7.1 9.1 22.3 13.8 21.8 6.5 30.9 15.6 30.9 31.9 0 14.9-11.1 28.3-32.6 31.7v11c0 3.2-2.5 5.8-5.7 5.8h-5.8c-3.2 0-5.7-2.6-5.7-5.8z"/>
						</g>
					</g>
					<g id="&lt;Group&gt;">
						<path id="&lt;Path&gt;" class="s80" d="m2188.7 825l16-8.7c6.7-3.8 11.6-10.2 13.4-17.7l4-17.1c0.1-0.5-0.1-1-0.6-1.3-0.4-0.3-1-0.2-1.4 0.1l-38.6 34.4c0 0-64.6 82.7 9.1 166.8l27.7-2.6c0 0-53.3-85.6-29.6-153.9z"/>
						<path id="&lt;Path&gt;" class="s81" d="m2216.9 1219.4c0 0 52.3 114.1 79.7 161.3 0 0 5.5 29.7 0 39l-4.6 2.1 21.6-0.6c0 0 2-40 0.5-42.2-1.5-2.3-4.5-2.1-4.5-2.1 0 0-9.3-73.7-36.3-89.4l-26.1-89.9z"/>
						<path id="&lt;Path&gt;" class="s82" d="m2282.7 1427.4c0 0.5 16.9 0.3 26.2 0.1 3.4 0 6.3-2.4 7-5.8l6.9-36.5c0.7-3.5-1.5-6.9-5-7.6l-3.8-0.9c0 0-5.6 7.6-3.8 14.7 1.7 7.2 3.3 25.7-1.1 27.9-4.5 2.1-17.1 2.5-17.1 2.5 0 0-9 0.9-9.3 5.6z"/>
						<path id="&lt;Path&gt;" class="s83" d="m2167.3 1428.1c-1.7 1-1 3.6 0.9 3.6 15.5-0.2 50-0.7 53.1-2 3.9-1.6-1.5-15.9-7.2-20.7l-31.4 10.3z"/>
						<path id="&lt;Path&gt;" class="s84" d="m2157.5 1212.2c0 0 33.8 163.5 43.4 195.4l-22.6 14.2c0 0 11.3-1.9 19.7-2.5 8.4-0.6 16.1-10.3 16.1-10.3l-2.7-4.3c0 0-8.4-162.7-6.4-181.1z"/>
						<path id="&lt;Path&gt;" class="s85" d="m2073.6 830.7c0 0-4.7 85.1 72.8 128.6l-18.7 42.5c0 0-70.1-42.4-67.5-158.1 0.1-3.3-1.1-6.6-3.3-9.1l-14.9-17.3c-5.7-6.5-7.8-15.5-5.7-23.9l2-7.9c0.6-2.6 3.6-3.8 6-2.5l1.5 0.9c5 2.9 8.9 7.3 11.3 12.5l7.3 16.4c2.7 6.1 9 9.8 15.7 9.2l4.5-0.4z"/>
						<path id="&lt;Path&gt;" class="s86" d="m2221.6 973.4c-2.9-3.9-7.3-6.4-12.1-6.9-25.5-2.9-55.3-10.8-65.6-13.6-2.1-0.6-4.3 0.6-4.9 2.6l-13.4 40.9c-1 3.2 0.2 6.7 2.9 8.5l2.8 1.9c-2 5.9-4.6 12-1.1 17.2 12.2 17.9 27.6 53.7 27.6 53.7l54.9 0.3-1.4-15.5 13.4-75.6c0.9-4.8-0.3-9.6-3.1-13.5z"/>
						<path id="&lt;Path&gt;" class="s87" d="m2153.2 1069.6l1.1 9.4c0 0-15.5 46.5 7.7 154.9 0 0 50.4 14.3 91.8-19.9 0 0-11.7-102.3-14.9-107.1-15.9-23.7-26.4-28.9-26.4-28.9l-0.5-10.3c0 0-44.3 8-58.8 1.9z"/>
						<path id="&lt;Path&gt;" class="s88" d="m2174.7 960.5c-0.2-0.2 11.4-35.1 11.4-35.1l16.7 1.5 6.5 39.6c0 0-26.1 5.3-34.6-6z"/>
						<path id="&lt;Path&gt;" class="s89" d="m2207 881.2c0 0-17-0.1-35.8 16.6-18.7 16.7-15.5 29.5-6.8 34.7 8.7 5.3 22.5 11 42.9 3.7 20.3-7.3 21.6-54.3-0.3-55z"/>
						<path id="&lt;Path&gt;" class="s90" d="m2215.3 868.2c-19.8 1.1-24.4 16.6-24.4 16.6l8.3-1.8c23 10.2 8.9 30.6 4.3 36.3-0.7 0.9-0.7 2.2 0 3.1 0 0 8.6-3.8 9 2.6 0.3 6.3-10.2 13.5-10.2 13.5 0 0-0.3 13.9 15.7 8.3 16.1-5.6 26.2-18 28.6-43 2.4-24.9-11.5-36.8-31.3-35.6z"/>
						<g id="&lt;Group&gt;">
							<path id="&lt;Path&gt;" class="s91" d="m2248.6 934.2c-8.7 28.1 12.2 30.5 18.1 48.4 9.6 29 47.9 25.6 65.7 57.8 12.8 23.3 4.8 60.3-18.8 80.9-32.6 28.4-85.3 18.5-102.5-5.1-16.5-22.5 3.8-51.8-19.4-80.2-9.9-12-17.9-12.1-21.4-23.8-6-20.5 13.8-53.1 20.6-62.2 14.8-19.8 16.7-11.5 18.4-22.8 3.4-22-24.5-34.7-20-49.1 4.1-13.1 39-23 58.3-7.8 29.9 23.5 4.9 51.4 1 63.9z"/>
							<path id="&lt;Path&gt;" class="s2" d="m2307.1 1109.8c0.4 0.2 0.9 0.2 1.2-0.2 13.9-15.1 19.8-30.5 17.8-45.7-3.4-25.2-28.2-41.1-28.5-41.3-0.3-0.3-1-0.1-1.3 0.3-0.3 0.5-0.2 1.1 0.3 1.4 0.2 0.1 24.2 15.6 27.5 39.9 2 14.5-3.8 29.4-17.2 44.1-0.4 0.4-0.4 1 0 1.4q0.1 0.1 0.2 0.1z"/>
							<path id="&lt;Path&gt;" class="s2" d="m2214 1079.5q0.1 0 0.1 0.1c0.3 0 0.5-0.1 0.6-0.4 4.6-18 3.4-32.9-3.5-44.2-5.1-8.3-11.7-12.5-17.6-16.2-5.7-3.5-10.5-6.6-12.6-12.4-4.3-12.1 6-29.8 30.8-52.6 0.2-0.2 0.2-0.5 0-0.7-0.2-0.2-0.5-0.3-0.7-0.1-25.1 23.1-35.5 41.2-31.1 53.7 2.2 6.2 7.3 9.3 13.1 13 5.8 3.6 12.3 7.7 17.2 15.8 6.8 11.1 7.9 25.7 3.5 43.5-0.1 0.2 0 0.4 0.2 0.5z"/>
							<path id="&lt;Path&gt;" class="s2" d="m2230.2 926q0.1 0 0.2 0.1c0.2 0.1 0.5 0 0.6-0.2 6-10.1-2.3-17.1-11.1-24.5-5.5-4.7-11.3-9.6-14-15.6-2-4.4-2.2-8-0.6-10.5 2.8-4.2 10.1-4.1 10.2-4.1 0.2 0 0.5-0.2 0.5-0.5 0-0.3-0.2-0.5-0.5-0.5-0.3 0-7.9-0.1-11 4.6-1.8 2.8-1.6 6.6 0.5 11.4 2.8 6.2 8.7 11.2 14.3 15.9 8.8 7.5 16.4 14 10.9 23.3-0.1 0.2-0.1 0.4 0 0.6z"/>
						</g>
						<path id="&lt;Path&gt;" class="s92" d="m2202.5 923.2c0 0 13.5-11.1 18.2-1.6 4.7 9.4-12.2 11.9-18.5 12.4z"/>
					</g>
				</g>
			</g>
			<g id="&lt;Group&gt;">
				<path id="&lt;Path&gt;" class="s3" d="m379 621.8c-52.4 18.8-103.2 65.7-96.2 125.7 6.1 51 64.6 66.1 100.1 71.5 9.9 1.5 18.9 6.5 25.3 14.2 15.4 18.4 48.3 49 84.5 28.6 2.6-1.4 1.5-5.5-1.6-5.4-9.6 0.4-23.2-1-32.5-10-12.6-12.3-8.1-33.6 8.3-40.3 30.9-12.6 89.2-46.8 81.7-124.4-10.2-105-169.6-59.9-169.6-59.9z"/>
				<path id="&lt;Path&gt;" class="s93" d="m410.9 705.5c0 0 2.6-35.1 37.6-29.3 33.1 5.5 22.5 50.9-24.2 79.7-5 3.1-11.3 3.6-16.8 1.3-20.5-8.7-68.2-33.7-41.9-68.4 17-22.4 45.3 16.7 45.3 16.7z"/>
			</g>
		</g>
	</g>
</svg>