<svg version="1.2" xmlns="http://www.w3.org/2000/svg" viewBox="0 0 1000 798" width="1000" height="798">
	<title>4168732</title>
	<style>
		.s0 { fill: #f2e8d9 } 
		<!-- .s1 { fill: #b3db4f }  -->
		.s1 { fill: #16a34a } 
		.s2 { fill: #ea580c } 
		.s3 { fill: #ffffff } 
		.s4 { fill: #ffc369 } 
		.s5 { fill: #f76011 } 
		.s6 { fill: #ff983d } 
		.s7 { fill: #ffd596 } 
		.s8 { fill: #ffb199 } 
		.s9 { fill: #402147 } 
		.s10 { fill: #f58282 } 
		.s11 { fill: #27142f } 
		.s12 { fill: #593361 } 
		.s13 { fill: #d46565 } 
	</style>
	<g id="OBJECTS">
		<g id="&lt;Group&gt;">
			<path id="&lt;Path&gt;" class="s0" d="m430.9 192.8c149.6 0 270.9 121.3 270.9 270.9 0 149.6-121.3 270.9-270.9 270.9-121 0-223.5-79.3-258.2-188.8-16.5-35-25.7-74-25.7-115.2 0-149.6 121.3-270.8 270.9-270.8 90.3 0 170.2 44.1 219.4 111.9-49.7-58.7-123.9-96-206.9-96-149.6 0-270.8 121.3-270.8 270.9q0 8 0.4 15.9c0.7-149 121.7-269.7 270.9-269.7z"/>
			<g id="&lt;Group&gt;">
				<path id="&lt;Path&gt;" class="s1" d="m433.3 755.7c0 0-21.7-62-129.6-73 0 0 18.9 44.6 55.8 53.5 36.8 9 73.8 19.5 73.8 19.5z"/>
				<path id="&lt;Path&gt;" class="s1" d="m426.6 714.8c0 0-17.5-29.6 5.4-78 22.9-48.4 34.4-62.7 34.4-62.7 0 0 21.1 49.8-2.8 88-23.9 38.3-37 52.7-37 52.7z"/>
				<path id="&lt;Path&gt;" class="s1" d="m412.2 656c0 0-14.4-28.5-63.5-36.4-49.2-7.9-83.8-1.2-83.8-1.2 0 0 35.3 39.4 84.2 36.3 48.8-3.2 63.1 1.3 63.1 1.3z"/>
				<path id="&lt;Path&gt;" class="s1" d="m404 631.5c0 0-22.2-21.4-15.4-69 6.7-47.6 22.8-77.6 22.8-77.6 0 0 26.2 43.8 9.4 88-16.8 44.1-16.8 58.6-16.8 58.6z"/>
				<path id="&lt;Path&gt;" class="s1" d="m380.7 584c0 0-14.2-28-62.7-35.8-48.4-7.8-82.6-1.1-82.6-1.1 0 0 34.9 38.8 83 35.7 48.2-3.1 62.3 1.2 62.3 1.2z"/>
				<path id="&lt;Path&gt;" class="s1" d="m363.1 551.4c0 0-24.1-20.3-20.6-69.2 3.5-49 17.9-80.7 17.9-80.7 0 0 29.7 42.8 15.7 89-14 46.2-13 60.9-13 60.9z"/>
				<path id="&lt;Path&gt;" class="s1" d="m341.8 521.3c0 0-15-27.7-63.6-34.1-48.7-6.4-82.7 1.3-82.7 1.3 0 0 36 37.8 84.1 33.3 48-4.5 62.2-0.5 62.2-0.5z"/>
				<path id="&lt;Path&gt;" class="s1" d="m316.6 484.8c0 0-26.4-12.7-34.5-57.8-8.1-45-2.5-77-2.5-77 0 0 36.8 31.8 34.7 76.8-2 45 2.3 58 2.3 58z"/>
				<path id="&lt;Path&gt;" class="s1" d="m278.8 452.3c0 0-13.6-26-58.9-32.6-45.3-6.5-77.1 0.2-77.1 0.2 0 0 33.1 35.7 78 32.1 44.9-3.6 58 0.3 58 0.3z"/>
				<path id="&lt;Path&gt;" class="s1" d="m260 428.7c0 0-27.7-9.7-40.6-53.7-13-43.9-10.8-76.3-10.8-76.3 0 0 40 27.7 42.8 72.6 2.9 44.9 8.6 57.4 8.6 57.4z"/>
				<path id="&lt;Path&gt;" class="s1" d="m227.9 411.9c0 0-5.5-28.9-46.9-48.3-41.5-19.4-73.8-22.2-73.8-22.2 0 0 21.3 43.7 65.3 53.3 43.9 9.6 55.4 17.2 55.4 17.2z"/>
				<path id="&lt;Path&gt;" class="s1" d="m217.4 406.9c0.7 0.4 199.8 110.7 211.9 373.8h8.1c-12.1-267.8-215.3-380.5-216-380.8z"/>
			</g>
			<g id="&lt;Group&gt;">
				<path id="&lt;Path&gt;" class="s1" d="m605.8 656.1c0 0 22.4-64 133.9-75.4 0 0-19.5 46.1-57.6 55.3-38.1 9.2-76.3 20.1-76.3 20.1z"/>
				<path id="&lt;Path&gt;" class="s1" d="m612.8 613.9c0 0 18-30.6-5.6-80.6-23.7-50.1-35.5-64.8-35.5-64.8 0 0-21.9 51.5 2.8 91 24.7 39.5 38.3 54.4 38.3 54.4z"/>
				<path id="&lt;Path&gt;" class="s1" d="m627.7 553.1c0 0 14.8-29.4 65.6-37.6 50.8-8.2 86.5-1.2 86.5-1.2 0 0-36.5 40.7-86.9 37.5-50.5-3.3-65.2 1.3-65.2 1.3z"/>
				<path id="&lt;Path&gt;" class="s1" d="m636.1 527.8c0 0 22.9-22.1 16-71.3-7-49.1-23.7-80.2-23.7-80.2 0 0-27 45.3-9.7 91 17.4 45.6 17.4 60.5 17.4 60.5z"/>
				<path id="&lt;Path&gt;" class="s1" d="m660.2 478.8c0 0 14.7-29 64.7-37.1 50.1-8 85.4-1.1 85.4-1.1 0 0-36 40.1-85.8 36.9-49.7-3.2-64.3 1.3-64.3 1.3z"/>
				<path id="&lt;Path&gt;" class="s1" d="m678.4 445c0 0 24.9-20.9 21.2-71.4-3.6-50.6-18.4-83.4-18.4-83.4 0 0-30.8 44.2-16.3 91.9 14.5 47.7 13.5 62.9 13.5 62.9z"/>
				<path id="&lt;Path&gt;" class="s1" d="m700.4 413.9c0 0 15.5-28.6 65.7-35.1 50.3-6.6 85.4 1.3 85.4 1.3 0 0-37.2 39-86.8 34.4-49.7-4.7-64.3-0.6-64.3-0.6z"/>
				<path id="&lt;Path&gt;" class="s1" d="m726.4 376.3c0 0 27.3-13.2 35.7-59.7 8.4-46.6 2.5-79.6 2.5-79.6 0 0-38 32.9-35.8 79.3 2.1 46.5-2.4 60-2.4 60z"/>
				<path id="&lt;Path&gt;" class="s1" d="m765.4 342.7c0 0 14.1-26.9 60.9-33.6 46.8-6.8 79.6 0.1 79.6 0.1 0 0-34.1 36.9-80.5 33.2-46.4-3.7-60 0.3-60 0.3z"/>
				<path id="&lt;Path&gt;" class="s1" d="m784.9 318.3c0 0 28.6-10.1 42-55.4 13.3-45.4 11.1-78.9 11.1-78.9 0 0-41.3 28.6-44.3 75-2.9 46.4-8.8 59.3-8.8 59.3z"/>
				<path id="&lt;Path&gt;" class="s1" d="m818 300.9c0 0 5.7-29.8 48.5-49.9 42.8-20 76.3-22.9 76.3-22.9 0 0-22 45.2-67.5 55.1-45.4 9.9-57.3 17.7-57.3 17.7z"/>
				<path id="&lt;Path&gt;" class="s1" d="m828.9 295.8c-0.7 0.4-246.2 136.3-217.2 465.3h-8.4c-29-333.8 220.7-472.2 221.5-472.6z"/>
			</g>
			<g id="&lt;Group&gt;">
				<path id="&lt;Path&gt;" class="s1" d="m314.6 305.5c5.5 0 10.1-4.5 10.1-10 0-5.6-4.6-10.1-10.1-10.1-5.6 0-10.1 4.5-10.1 10.1 0 5.5 4.5 10 10.1 10z"/>
				<path id="&lt;Path&gt;" class="s1" d="m238 237.5c4.5 0 8.1-3.6 8.1-8.1 0-4.4-3.6-8.1-8.1-8.1-4.4 0-8 3.7-8 8.1 0 4.5 3.6 8.1 8 8.1z"/>
				<path id="&lt;Path&gt;" class="s1" d="m782 177.8c4.5 0 8.1-3.7 8.1-8.1 0-4.5-3.6-8.1-8.1-8.1-4.4 0-8.1 3.6-8.1 8.1 0 4.4 3.7 8.1 8.1 8.1z"/>
				<path id="&lt;Path&gt;" class="s1" d="m838 518.4c7.7 0 14-6.2 14-13.9 0-7.7-6.3-14-14-14-7.7 0-13.9 6.3-13.9 14 0 7.7 6.2 13.9 13.9 13.9z"/>
			</g>
		</g>
		<g id="&lt;Group&gt;">
			<g id="&lt;Group&gt;">
				<path id="&lt;Path&gt;" class="s2" d="m383.5 435.8l-16.6-12.7c0 0-45.5 72.5-63.6 152.6l65.4 17.6z"/>
				<g id="&lt;Group&gt;">
					<path id="&lt;Path&gt;" class="s3" d="m550.7 366.3l129.3 58.4c0 0-72.6 160.8-49.9 353.2h-266.2c0 0-44.6-207.3 3-352.4l88.7-50.9z"/>
					<path id="&lt;Path&gt;" class="s0" d="m425.4 777.9h-61.5c0 0-44.6-207.3 3-352.4l81.7-46.8c-1.8 10.7-32.2 196.1-23.2 399.2z"/>
					<path id="&lt;Path&gt;" class="s4" d="m563.9 372.1c-2.8 43.9-28.9 60.8-62.5 62.6-29.4 1.6-55-20.8-59.6-52.8l13.8-7.6 95.1-8z"/>
				</g>
				<g id="&lt;Group&gt;">
					<path id="&lt;Path&gt;" class="s5" d="m530.1 780.3c-6.3-118.7-18.8-326.6 33.8-408.2l116.1 52.6c0 0-66.9 189.4-49.9 353.2z"/>
					<path id="&lt;Path&gt;" class="s2" d="m530.1 780.3c-2.1-39.5-4.9-88.7-5.7-140 46.3-4.2 95.4-39 110.6-120.5l16.8 5.9c-15.9 69.4-30.8 164.4-21.7 252.2z"/>
				</g>
				<path id="&lt;Path&gt;" class="s5" d="m448.7 378.1c0 0-62.6 210.3-27.3 402.2h-55.4c0 0-59.2-193.1 0.9-357.2z"/>
			</g>
			<g id="&lt;Group&gt;">
				<g id="&lt;Group&gt;">
				</g>
			</g>
			<g id="&lt;Group&gt;">
				<g id="&lt;Group&gt;">
					<g id="&lt;Group&gt;">
						<path id="&lt;Path&gt;" class="s6" d="m242 538.6h294.1v235.6c0 3.4-2.7 6.1-6 6.1h-282.1c-3.3 0-6-2.7-6-6.1z"/>
						<path id="&lt;Path&gt;" class="s4" d="m242 538.6h76.9l17.3 241.7h-94.2z"/>
						<path id="&lt;Path&gt;" class="s6" d="m294.8 780.3h-52.8v-70.9c7.6 9.6 21 18.9 43.7 17.5 0 0-10 37.7 9.1 53.4z"/>
						<path id="&lt;Path&gt;" class="s4" d="m536.1 538.6l30.8 55c1 1.9 1 4.1-0.1 6-1.1 1.9-3 3-5.2 3l-215.2 0.4c-2.6 0-4.8-1.6-5.7-4l-21.8-60.4z"/>
						<path id="&lt;Path&gt;" class="s7" d="m242 538.6h76.9l-23.9 60.5c-0.9 2.4-3.1 3.8-5.6 3.8h-62.4c-2 0-3.8-0.9-4.9-2.6-1.2-1.6-1.5-3.6-0.8-5.5z"/>
						<path id="&lt;Path&gt;" class="s4" d="m398 695.7l-5.1-43.1c8.5-12.6 20.1 12.4 21.5 21.6l33.2-46.1c2.6-3.6 12.6-0.9 9.3 7l-18.6 33.8 31.9-31.3c1.7-1.6 9.6 0.7 6.1 7.5l-24.9 33.1 28.3-21.7c3.1-2.4 9.7 1.3 5.4 7l-24.8 23.3 24.1-5.1c3.3-0.7 6.3 4.9 1.5 6.7l-22.1 9.3c0 0-20.4 27-37.2 25.3-16.8-1.8-28.3-20.3-28.6-27.3z"/>
					</g>
					<g id="&lt;Group&gt;">
						<path id="&lt;Path&gt;" class="s5" d="m477.2 504.5l1.8 18.5c0.3 2.3 2.4 4.1 4.8 3.8l18.4-1.8c3.4-0.1 6.6-1.7 8.8-4.4 4.3-5.2 3.6-13-1.6-17.2-2.4-2-5.2-2.9-8-2.8-0.5-2.8-2-5.4-4.3-7.3-5.2-4.3-12.9-3.5-17.2 1.7-2.2 2.7-3.2 6.1-2.7 9.5z"/>
						<path id="&lt;Path&gt;" class="s5" d="m458.3 484.3l-11.8 8.9c-1.5 1.1-3.7 0.8-4.8-0.7l-8.8-11.9c-1.8-2.1-2.6-4.8-2.2-7.6 0.8-5.3 5.8-9 11.1-8.2 2.4 0.3 4.4 1.5 5.9 3.2 1.9-1.2 4.2-1.7 6.6-1.4 5.3 0.8 9 5.7 8.2 11-0.4 2.8-1.9 5.2-4.2 6.7z"/>
						<path id="&lt;Path&gt;" class="s5" d="m316.6 506.3l-7.5 17.2c-1 2.2-3.6 3.3-5.8 2.3l-17.2-7.5c-3.3-1.2-5.9-3.8-7.2-7.1-2.5-6.3 0.6-13.6 7-16.1 2.8-1.1 5.9-1.1 8.6-0.2 1.3-2.5 3.5-4.6 6.4-5.7 6.3-2.5 13.6 0.6 16.1 7 1.3 3.3 1.1 6.9-0.4 10.1z"/>
						<path id="&lt;Path&gt;" class="s5" d="m322.3 451.4l-5.8 11.1c-0.8 1.4-2.5 1.9-3.9 1.2l-11.1-5.8c-2.1-1-3.7-2.8-4.4-5-1.3-4.4 1.1-9 5.4-10.3 2-0.6 4-0.5 5.7 0.3 1-1.6 2.6-2.9 4.5-3.5 4.4-1.4 9 1.1 10.3 5.4 0.7 2.2 0.5 4.6-0.7 6.6z"/>
						<path id="&lt;Path&gt;" class="s5" d="m477.5 449l-5.9 4c-0.7 0.6-1.8 0.4-2.3-0.4l-4-5.9c-0.9-1.1-1.2-2.4-0.9-3.7 0.5-2.6 2.9-4.3 5.5-3.8 1.1 0.2 2.1 0.8 2.8 1.7 0.9-0.6 2.1-0.8 3.2-0.6 2.6 0.5 4.3 3 3.8 5.5-0.2 1.4-1 2.5-2.2 3.2z"/>
					</g>
				</g>
				<g id="&lt;Group&gt;">
					<path id="&lt;Path&gt;" class="s8" d="m234.5 721.1l49.9 8.7c0 0-1 14.4-10.9 16.5 0 0-9.4 36.4-14.8 39.8l-14.9 2.6c0 0-18.6-28.5-14-64.1q0.3-1.7 1.7-2.7 1.3-1.1 3-0.8z"/>
					<g id="&lt;Group&gt;">
						<g id="&lt;Group&gt;">
							<path id="&lt;Path&gt;" class="s9" d="m663.3 641.2c5.2 20.2 127.7 22.2 96-32.5-27.4-17.7-90.4-1.9-96 32.5z"/>
							<path id="&lt;Path&gt;" class="s10" d="m749.7 596.2l17.2 49.7-76.4 25.2-16.9-54.1 35.9-13.3z"/>
							<path id="&lt;Path&gt;" class="s5" d="m623.2 488.4l56.8-63.7c0 0 56.6 94 79.3 184-27.4-17.7-89.3 4.8-96 32.5z"/>
						</g>
						<g id="&lt;Group&gt;">
							<path id="&lt;Path&gt;" class="s8" d="m525.2 734.4c17.4-7.2 86.6-61.5 182.4-107.2 11.2-5 51.2-7 58.3 13.3 7.1 20.4-17 45.8-43.4 63.1-26.5 17.3-181.4 57.5-181.4 57.5z"/>
							<path id="&lt;Path&gt;" class="s10" d="m480.7 747.2l-5.7-1.5-43.3 23.3c0 0 5.2 12.4 19.2 10.1 0 0 22.8 18.6 30.4 19.2 7.5 0.5 29.8-7.4 29.8-7.4z"/>
							<path id="&lt;Path&gt;" class="s8" d="m526.9 733.6l-51.9 12.1 36.1 45.2 31.3-30.1z"/>
						</g>
					</g>
				</g>
			</g>
			<g id="&lt;Group&gt;">
				<g id="&lt;Group&gt;">
					<path id="&lt;Path&gt;" class="s9" d="m380 179.5c18.3-119.3 205.3-125.9 230.3-33.1 67.7-29.1 52.7 152.3 30.2 229.3l-246.7-3.5c0.2-19.8 3.2-38.7-1.1-76.2 0 0-4 41.4-9.2 68.6l-22.3-0.3z"/>
					<path id="&lt;Path&gt;" class="s11" d="m659.1 217.9c2.4 51.8-7.1 118.5-18.6 157.8l-246.7-3.5c0.2-19.8 3.2-38.7-1.1-76.2 0 0-4 41.4-9.2 68.6l-12.5-0.1c13.3-44.1 24.7-114.2 30.1-150.7 1.6-7.9 2.8-15.9 3.4-23.9v-0.1q0.1-0.4 0.1-0.9c0 0 19 43.2 183.8 37.7l16.2-15.8c0 0 35.2-12.4 54.5 7.1z"/>
					<path id="&lt;Compound Path&gt;" class="s12" d="m456.3 96.8c17.5-4.7 31.7-3.2 31.7 3.4 0 6.7-14.2 15.9-31.7 20.7-17.5 4.7-31.7 3.2-31.7-3.4 0-6.7 14.2-15.9 31.7-20.7zm47.6 2c5.9-1 10.7 0.4 10.9 3.1 0.2 2.7-4.4 5.7-10.2 6.8-5.9 1-10.8-0.4-10.9-3.1-0.2-2.7 4.4-5.7 10.2-6.8z"/>
				</g>
				<path id="&lt;Path&gt;" class="s10" d="m501.5 420.3c25.2 0 45.8-20.6 45.8-45.8v-77.9h-91.7v77.9c0 25.2 20.6 45.8 45.9 45.8z"/>
				<g id="&lt;Group&gt;">
					<path id="&lt;Path&gt;" class="s8" d="m404.6 176.3h194.8v34.5c17.4-0.9 31.6 12.4 31.6 29.9 0 17.4-14.2 32.3-31.6 33.3-0.2 53.4-43.9 97.1-97.4 97.1-53.6 0-97.4-43.8-97.4-97.4z"/>
					<g id="&lt;Group&gt;">
						<path id="&lt;Path&gt;" class="s10" d="m423.3 210.8c-17.4-0.9-31.5 12.4-31.5 29.9 0 17.4 14.1 32.3 31.5 33.3 17.5 0.9 31.6-12.5 31.6-29.9 0-17.5-14.1-32.4-31.6-33.3z"/>
						<path id="&lt;Path&gt;" class="s10" d="m599.4 226.5v47.2c0 20.5-6.5 39.6-17.4 55.4 16.8-67.6-4.7-148.3-4.7-148.3l13.9 8.2c3.7 12.9 6.3 25.5 8.2 37.5z"/>
						<path id="&lt;Path&gt;" class="s10" d="m404.6 176.3h6.8 77.4 110.6v35.5c-51.3 9.6-44.5-29.7-44.5-29.7-17.2 23.3-48.5 28.2-67.9 28.9-1.4 14.6-3.9 28.8-8.1 36.7-26-19.9-33.1 24.5-1.9 28.6l0.5 91.7c-41.8-11-72.9-49.2-72.9-94.3z"/>
						<path id="&lt;Path&gt;" class="s10" d="m473 267.8c-0.7 2 5.3 7 7.6 4.6 5.4-5.5-6.9-6.6-7.6-4.6z"/>
						<path id="&lt;Path&gt;" class="s10" d="m604.5 233.6c8.4-0.4 14.5 6 13.7 14.3-0.9 8.3-8.3 15.5-16.7 15.9q-1.6 0.1-3.1-0.2c2-2.5 3.4-5.6 3.7-8.9 0.8-7.3-3.8-13.1-10.5-14.1 3.1-4 7.8-6.7 12.9-7z"/>
						<path id="&lt;Compound Path&gt;" class="s10" d="m558.5 256.9c1.9 0 3.4 1.5 3.4 3.4 0 1.9-1.5 3.4-3.4 3.4-1.9 0-3.4-1.5-3.4-3.4 0-1.9 1.5-3.4 3.4-3.4zm-15.7 16.2c1.1 0 1.9 0.9 1.9 1.9 0 1.1-0.8 1.9-1.9 1.9-1 0-1.9-0.8-1.9-1.9 0-1 0.9-1.9 1.9-1.9zm-18.2-11c1 0 1.9 0.9 1.9 1.9 0 1-0.9 1.9-1.9 1.9-1.1 0-1.9-0.9-1.9-1.9 0-1 0.8-1.9 1.9-1.9z"/>
					</g>
					<g id="&lt;Group&gt;">
						<g id="&lt;Group&gt;">
							<path id="&lt;Path&gt;" class="s13" d="m511.8 302.6c-2.9 13.2-14.6 23.1-28.7 23.1-14 0-25.8-9.9-28.6-23.1-0.4-1.6 0-3.1 1-4.3 1-1.3 2.4-2 4-2h47.3c1.6 0 2.9 0.7 4 2 1 1.2 1.3 2.7 1 4.3z"/>
							<path id="&lt;Path&gt;" class="s3" d="m504 296.3q0.1 0.5 0.1 1c0 6.5-10.2 11.7-22.8 11.7-12.6 0-22.8-5.2-22.8-11.7q0-0.5 0.1-0.9 0.4-0.1 0.9-0.1z"/>
						</g>
						<g id="&lt;Group&gt;">
							<path id="&lt;Path&gt;" class="s9" d="m507.8 237.4c0 0 6.3-14 20.8-13.9 14.4 0.1 18.7 11.7 18.7 11.7l6-2.2-3.7 7.3c0 0-7.9-13.1-21.6-12.2-13.6 0.9-20.2 9.3-20.2 9.3z"/>
							<path id="&lt;Path&gt;" class="s9" d="m465.3 237.4c0 0-6.3-14-20.8-13.9-14.5 0.1-18.7 11.7-18.7 11.7l-6-2.2 3.6 7.3c0 0 8-13.1 21.6-12.2 13.7 0.9 20.3 9.3 20.3 9.3z"/>
						</g>
					</g>
				</g>
				<g id="&lt;Group&gt;">
					<path id="&lt;Path&gt;" class="s9" d="m558 178.9c0 0 6.1 37.4 46.6 31.9v-40.4c-23.1 0-195.4-2.8-202.2-0.4l2.2 46c0 0 12.7-3.4 14.4-18.6 36.2 17.8 121 3.6 139-18.5z"/>
					<path id="&lt;Path&gt;" class="s9" d="m577.3 180.8c0 0 34.3 111.3-0.3 181.9l16.7 4.5c0 0 31-76.4-2.2-178.2z"/>
				</g>
			</g>
		</g>
	</g>
</svg>