<svg version="1.2" xmlns="http://www.w3.org/2000/svg" viewBox="0 0 1000 836" width="1000" height="836">
	<title>5016896</title>
	<style>
		.s0 { fill: #e9e9e9 } 
		.s1 { fill: #f5f5f5 } 
		.s2 { fill: #ffffff } 
		.s3 { fill: #e0e0e0 } 
		.s4 { fill: #f0f0f0 } 
		.s5 { fill: #ebebeb } 
		.s6 { fill: #e6e6e6 } 
		.s7 { fill: #407bff } 
		.s8 { opacity: .5;fill: #ffffff } 
		.s9 { opacity: .2;fill: #000000 } 
		.s10 { opacity: .4;fill: #ffffff } 
		.s11 { opacity: .7;fill: #ffffff } 
		.s12 { opacity: .6;fill: #ffffff } 
		.s13 { opacity: .1;fill: #000000 } 
		.s14 { opacity: .2;fill: #ffffff } 
		.s15 { fill: #263238 } 
		.s16 { opacity: .1;fill: #ffffff } 
		.s17 { fill: #000000 } 
		.s18 { fill: #b97964 } 
		.s19 { opacity: .3;fill: #ffffff } 
		.s20 { fill: #a24e3f } 
		.s21 { fill: #de5753 } 
		.s22 { fill: #eec1bb } 
		.s23 { fill: #2e353a } 
		.s24 { fill: #d4827d } 
		.s25 { fill: #e4897b } 
		.s26 { fill: #ebb376 } 
		.s27 { opacity: .3;fill: #000000 } 
		.s28 { fill: #d58745 } 
	</style>
	<g id="Background Complete">
		<g id="&lt;Group&gt;">
			<g id="&lt;Group&gt;">
				<path id="&lt;Path&gt;" class="s0" d="m805.9 491.7h-229.2v-253.7h229.2z"/>
				<path id="&lt;Path&gt;" class="s1" d="m796.5 248.1v234h-209.7v-234z"/>
				<path id="&lt;Path&gt;" class="s2" d="m646.1 248.1l-59.3 221.9v-120.2l27.1-101.7z"/>
				<path id="&lt;Path&gt;" class="s2" d="m672.5 248.1l-62.5 234h-11.7l62.5-234z"/>
				<path id="&lt;Path&gt;" class="s2" d="m796.5 311.9v120.2l-13.3 50h-32.2z"/>
				<path id="&lt;Path&gt;" class="s0" d="m695.4 491.7h-8.1v-253.7h8.1z"/>
				<path id="&lt;Path&gt;" class="s0" d="m801.5 289.5h-220.8v8.1h220.8z"/>
			</g>
			<g id="&lt;Group&gt;">
				<path id="&lt;Path&gt;" class="s0" d="m415.3 491.7h-229.2v-253.7h229.2z"/>
				<path id="&lt;Path&gt;" class="s1" d="m405.8 248.1v234h-209.6v-234z"/>
				<path id="&lt;Path&gt;" class="s2" d="m255.4 248.1l-59.2 221.9v-120.2l27.1-101.7z"/>
				<path id="&lt;Path&gt;" class="s2" d="m281.9 248.1l-62.5 234h-11.8l62.5-234z"/>
				<path id="&lt;Path&gt;" class="s2" d="m405.8 311.9v120.2l-13.2 50h-32.2z"/>
				<path id="&lt;Path&gt;" class="s0" d="m304.8 491.7h-8.2v-253.7h8.2z"/>
				<path id="&lt;Path&gt;" class="s0" d="m410.9 289.5h-220.8v8.1h220.8z"/>
			</g>
			<path id="&lt;Path&gt;" class="s3" d="m554.5 194.2c0 0 45.4 62.5 134.1 62.5 88.6 0 144.4-78.3 144.4-78.3l8.4 7.4c0 0-9.8 127.4 3.4 148.4 13.3 20.9-18.8 36.8-5.5 65.5 13.2 28.6-0.7 33.4 1.4 65.2 2.1 31.7-9.8 69.7-7.7 101.2 2.1 31.5 7.7 33.8 7.7 33.8l-9.8 10c0 0-20.9-30.8-8.4-78.7 12.6-47.8-9-47.9 2.1-71.2 11.2-23.3 17.5-35.3 6.3-60.3-11.1-25.1 13.2-32.1 6.3-57.8-7-25.8-13.3-107.6-3.5-147.7 0 0-45.6 72.8-145.1 72.8-99.5 0-138.5-62.3-138.5-62.3 0 0 9 82.2 0 98.2-9.1 16 0.7 22.5-4.9 43.3-5.6 20.8 22 66.4 9.3 84-12.8 17.6-18.9 28.3-10.1 54 8.9 25.7-14.7 39.9-4.1 67.2 10.6 27.3-6.3 53.4-6.3 53.4l-11.8-4.9c0 0 16.4-22.4 4.4-56.6-12.1-34.2 18.1-36.3 8.2-65.2-9.8-28.9 20.7-43.1 10-68.8-10.8-25.6-16.1-43.5-10-72.2 6.2-28.7-1.1-30.7 5.3-47.5 6.5-16.7 6.9-60.5 2.1-78.3 0 0 3.4-16.3 12.3-17.1z"/>
			<path id="&lt;Path&gt;" class="s4" d="m551.3 184.6c0 0 44.1 56.6 134.7 56.6 90.6 0 144.4-70.6 144.4-70.6l8.7 6.5c0 0-4.5 116.9 10.3 137 14.9 20.2-18.1 35.8-2.8 64.2 15.6 28.8 0.9 33.7 4.7 66.4 3.9 33.3-7.2 74-3.3 108.4 4 35.2 10.4 37.8 10.4 37.8l-10.5 11.2c0 0-25.1-34.6-13.2-87.1 11.5-51-12.1-51-1-75.4 11-23.9 17.1-36.1 4-61.3-12.9-24.8 12.5-31.8 4-56.8-8.4-24.7-18.2-100.8-10-136.9 0 0-43.7 66-145.7 66-101.9 0-139.5-56.6-139.5-56.6 0 0 6.1 75.2-3.9 90.2-10 15.2-0.1 21.5-6.8 41.5-6.8 20.2 20.7 65.6 6.3 83.4-14.5 18-21.6 29-13.2 55.8 8.5 27.2-18.2 42.4-7.8 72 10.6 30.2-9.8 59.4-9.8 59.4l-13-5.4c0 0 19.7-25.2 8-62.8-11.5-36.8 21.8-39.1 12.4-69.6-9.2-30 24.3-44.6 13.9-70.5-10.2-25.6-15-43.3-7.2-71.1 7.6-27.4 0.2-29.4 7.5-45.1 7.4-15.7 9.5-55.9 5.4-72 0 0 4-14.5 13-15.2z"/>
			<path id="&lt;Path&gt;" class="s3" d="m437.6 194.2c0 0-45.5 62.5-134.1 62.5-88.7 0-144.5-78.3-144.5-78.3l-8.3 7.4c0 0 9.7 127.4-3.5 148.4-13.3 20.9 18.8 36.8 5.6 65.5-13.3 28.6 0.7 33.4-1.4 65.2-2.1 31.7 9.7 69.7 7.6 101.2-2.1 31.5-7.6 33.8-7.6 33.8l9.7 10c0 0 20.9-30.8 8.4-78.7-12.6-47.8 9-47.9-2.1-71.2-11.2-23.3-17.4-35.3-6.3-60.3 11.2-25.1-13.2-32.1-6.2-57.8 6.9-25.8 13.2-107.6 3.4-147.7 0 0 45.7 72.8 145.2 72.8 99.4 0 138.5-62.3 138.5-62.3 0 0-9.1 82.2 0 98.2 9 16-0.7 22.5 4.9 43.3 5.5 20.8-22.1 66.4-9.3 84 12.7 17.6 18.8 28.3 10 54-8.8 25.7 14.8 39.9 4.2 67.2-10.7 27.3 6.2 53.4 6.2 53.4l11.8-4.9c0 0-16.4-22.4-4.3-56.6 12-34.2-18.2-36.3-8.3-65.2 9.9-28.9-20.7-43.1-9.9-68.8 10.7-25.6 16.1-43.5 9.9-72.2-6.2-28.7 1.1-30.7-5.3-47.5-6.4-16.7-6.8-60.5-2.1-78.3 0 0-3.4-16.3-12.2-17.1z"/>
			<path id="&lt;Path&gt;" class="s4" d="m440.8 184.6c0 0-44.2 56.6-134.8 56.6-90.6 0-144.3-70.6-144.3-70.6l-8.7 6.5c0 0 4.4 116.9-10.3 137-14.9 20.2 18.1 35.8 2.7 64.2-15.6 28.8-0.9 33.7-4.7 66.4-3.9 33.3 7.2 74 3.3 108.4-3.9 35.2-10.4 37.8-10.4 37.8l10.6 11.2c0 0 25-34.6 13.2-87.1-11.5-51 12-51 0.9-75.4-10.9-23.9-17.1-36.1-4-61.3 12.9-24.8-12.5-31.8-4-56.8 8.4-24.7 18.3-100.8 10-136.9 0 0 43.7 66 145.7 66 102 0 139.6-56.6 139.6-56.6 0 0-6.2 75.2 3.8 90.2 10 15.2 0.2 21.5 6.8 41.5 6.8 20.2-20.6 65.6-6.3 83.4 14.5 18 21.6 29 13.2 55.8-8.5 27.2 18.2 42.4 7.8 72-10.5 30.2 9.8 59.4 9.8 59.4l13.1-5.4c0 0-19.7-25.2-8-62.8 11.4-36.8-21.9-39.1-12.5-69.6 9.3-30-24.3-44.6-13.9-70.5 10.3-25.6 15.1-43.3 7.3-71.1-7.7-27.4-0.2-29.4-7.6-45.1-7.3-15.7-9.5-55.9-5.4-72 0 0-4-14.5-12.9-15.2z"/>
			<g id="&lt;Group&gt;">
				<path id="&lt;Path&gt;" class="s3" d="m496.6 722.1l-1-0.1c0.1-0.3 2.7-29.3 2.7-53.1 0-4.3-0.1-19-0.2-41.1-0.7-99.8-2.1-333.6 0.2-362.2 2.7-34.4 3-85.7 3-86.2h1c0 0.5-0.3 51.8-3 86.3-2.3 28.5-0.9 262.3-0.2 362.1 0.1 22.1 0.2 36.7 0.2 41.1 0 23.8-2.7 52.9-2.7 53.2z"/>
				<path id="&lt;Path&gt;" class="s3" d="m503.6 720.6l-1-0.1c1.2-7.1-0.5-74.1-2.5-151.7-2.6-103.3-5.9-231.8-3-258.3 5-45.4 28.4-157.4 28.6-158.6l1 0.2c-0.2 1.2-23.6 113.1-28.6 158.5-2.9 26.4 0.4 154.9 3 258.2 2 77.6 3.7 144.7 2.5 151.8z"/>
				<path id="&lt;Path&gt;" class="s3" d="m513.5 709.4c-7.8-6.4-21.7-364.8-15.2-391.3 6.5-26.5 14.3-49.2 22.1-64.1 7.9-15 18.1-63.3 18.2-63.8l1 0.3c-0.1 0.4-10.4 48.8-18.3 64-7.8 14.8-15.6 37.4-22 63.8-3.3 13.2-1.1 114.3 2.3 202.5 4 106.2 9.3 185.2 12.5 187.9z"/>
				<path id="&lt;Path&gt;" class="s3" d="m489.7 704.1l-0.9-0.4c8.1-19.3 7.5-362.9 7.3-378.8-0.2-9-1.6-25.7-3-43.4-1.8-21.6-3.8-46-4-60.8-0.3-28.1-2.3-73.4-5.1-81.9l0.9-0.3c2.9 8.6 4.9 54 5.2 82.2 0.2 14.8 2.2 39.2 4 60.7 1.4 17.7 2.8 34.5 3 43.5 0.2 15.9 0.7 359.8-7.4 379.2z"/>
				<path id="&lt;Path&gt;" class="s3" d="m482.8 716.4c-0.6-7.3 2.4-16.1 5.9-26.2 3.4-10 7.2-21.2 8.4-33.2 0.5-4.9 0.8-8.4 1.1-11.1 0.8-7.9 0.8-7.9 0.7-12-0.1-2.7-0.2-7.2-0.2-16.7 0.1-36.7-0.2-73.6-0.8-109.9-0.4-21-1-41.5-1.6-60.9-0.1-2.7-0.1-5.4-0.1-7.9 0-6 0-11.7-1.1-17.6-1.6-9.1-3.2-19.9-2.3-30.7 0.3-3.1 0.7-6.2 1.2-9.2 0.6-3.6 1.1-7.4 1.3-11.1 0.4-6.9-0.4-13.8-1.3-20.6l-7.8-63c-1.6-13.4-3.3-27.2-5.8-40.7-1-5.7-3.3-11.1-5.6-16.2-1.4-3.4-2.9-6.8-4.1-10.4-2.6-7.8-4.9-16.2-7.6-27.4-2.8-11.5-5.2-22.9-7.2-34l1-0.1c2 11 4.4 22.4 7.2 33.9 2.7 11.1 5 19.5 7.6 27.3 1.1 3.5 2.6 7 4 10.3 2.3 5.2 4.7 10.6 5.7 16.5 2.5 13.5 4.2 27.3 5.8 40.6l7.8 63.1c0.9 6.8 1.7 13.8 1.3 20.7-0.2 3.8-0.7 7.6-1.3 11.3-0.5 3-0.9 6-1.2 9.1-0.9 10.7 0.7 21.3 2.3 30.4 1.1 6 1.1 11.7 1.1 17.8 0 2.5 0 5.2 0.1 7.8 0.6 19.5 1.2 40 1.6 61 0.6 36.3 0.9 73.2 0.8 109.9 0 9.5 0.1 14 0.2 16.6 0.1 4.2 0.1 4.2-0.7 12.2-0.3 2.7-0.7 6.2-1.1 11.1-1.2 12.1-5.1 23.4-8.5 33.4-3.4 10.1-6.4 18.8-5.9 25.8z"/>
				<path id="&lt;Path&gt;" class="s3" d="m491.5 720.6c-1.5-8.3 0.4-109 2.2-206.4 1.7-86.9 3.3-169.1 2.3-180.6-1-10.7-2.9-20.7-4.8-30.4-2.5-12.7-4.8-24.7-4.8-37.5 0-22.3-26.4-74.6-26.7-75.1l0.9-0.5c0.2 0.6 26.8 53 26.8 75.6 0 12.7 2.3 24.7 4.8 37.3 1.9 9.7 3.8 19.8 4.8 30.5 1 11.6-0.6 93.7-2.3 180.7-1.8 97.4-3.7 198-2.2 206.3z"/>
				<path id="&lt;Path&gt;" class="s5" d="m456.2 139c-32.2 5.5-15.9 54.9 7.8 53.3q0.3 0 0.7 0c-0.2 1.2-0.2 2.6-0.2 2.6 0 0 2.1 0 4.1-1.3 0 0-0.7-1-1.5-1.8 20.6-6.2 20.2-58.1-10.9-52.8z"/>
				<path id="&lt;Path&gt;" class="s1" d="m528.2 123.2c-32.5-3.6-30.3 48.3-7.1 53.4q0.3 0 0.7 0.1c-0.5 1.1-0.9 2.5-0.9 2.5 0 0 2 0.6 4.2-0.1 0 0-0.3-1.2-0.8-2.2 21.4-0.3 35.3-50.3 3.9-53.7z"/>
				<path id="&lt;Path&gt;" class="s3" d="m482.1 114.2c-32.4 4.2-18 54.1 5.7 53.5q0.4 0 0.7 0c-0.2 1.2-0.2 2.6-0.2 2.6 0 0 2.1 0.1 4.1-1.1 0 0-0.7-1-1.4-1.9 20.8-5.3 22.4-57.3-8.9-53.1z"/>
				<path id="&lt;Path&gt;" class="s6" d="m504.4 147.1c-32.5-2.7-29.1 49.1-5.8 53.6q0.4 0.1 0.7 0.1c-0.5 1.1-0.8 2.5-0.8 2.5 0 0 2 0.5 4.2-0.2 0 0-0.4-1.1-0.9-2.2 21.5-0.7 34.1-51.1 2.6-53.8z"/>
				<path id="&lt;Path&gt;" class="s5" d="m545.8 177.5c-23.2-8.5-31.2 30-15 38q0.2 0.1 0.4 0.2c-0.5 0.8-1 1.7-1 1.7 0 0 1.3 0.8 3.1 0.7 0 0-0.1-0.9-0.3-1.8 15.9 3.8 35.3-30.5 12.8-38.8z"/>
				<path id="&lt;Path&gt;" class="s3" d="m452.7 180.2c-22.5 10.3-1 43.3 16.1 37.6q0.2-0.1 0.5-0.2c0.1 0.9 0.4 1.9 0.4 1.9 0 0 1.5-0.4 2.7-1.7 0 0-0.7-0.6-1.4-1.1 13.9-8.5 3.4-46.5-18.3-36.5z"/>
			</g>
			<g id="&lt;Group&gt;">
				<path id="&lt;Path&gt;" class="s3" d="m816 722.1c0-0.3-2.7-29.4-2.7-53.2 0-4.4 0.1-19 0.3-41.1 0.6-99.8 2-333.6-0.3-362.1-2.7-34.5-3-85.8-3-86.3h1c0 0.5 0.3 51.8 3 86.2 2.3 28.6 0.9 262.4 0.3 362.2-0.2 22.1-0.3 36.8-0.3 41.1 0 23.8 2.7 52.8 2.7 53.1z"/>
				<path id="&lt;Path&gt;" class="s3" d="m809.1 720.6c-1.3-7.1 0.4-74.2 2.4-151.8 2.6-103.3 5.9-231.8 3-258.2-5-45.4-28.4-157.3-28.6-158.5l1-0.2c0.2 1.2 23.6 113.2 28.6 158.6 2.9 26.5-0.4 155-3 258.3-2 77.6-3.7 144.6-2.5 151.7z"/>
				<path id="&lt;Path&gt;" class="s3" d="m799.1 709.4l-0.6-0.7c3.2-2.7 8.5-81.7 12.5-187.9 3.4-88.2 5.6-189.3 2.4-202.5-6.5-26.4-14.3-49-22-63.8-8-15.2-18.3-63.6-18.4-64l1-0.3c0.1 0.5 10.4 48.8 18.2 63.8 7.8 14.9 15.7 37.6 22.1 64.1 6.5 26.5-7.4 384.9-15.2 391.3z"/>
				<path id="&lt;Path&gt;" class="s3" d="m822.9 704.1c-8.1-19.4-7.6-363.3-7.3-379.2 0.1-9 1.5-25.7 2.9-43.5 1.8-21.5 3.8-45.9 4-60.7 0.3-28.2 2.3-73.6 5.2-82.2l0.9 0.3c-2.8 8.5-4.8 53.8-5.1 81.9-0.2 14.8-2.2 39.2-4 60.8-1.4 17.7-2.8 34.4-2.9 43.4-0.3 15.9-0.8 359.5 7.2 378.8z"/>
				<path id="&lt;Path&gt;" class="s3" d="m829.9 716.4l-1-0.1c0.5-7-2.5-15.7-5.9-25.8-3.4-10-7.3-21.3-8.5-33.4-0.4-4.9-0.8-8.4-1-11.1-0.9-8-0.9-8-0.7-12.2 0-2.6 0.1-7.1 0.1-16.6-0.1-36.6 0.2-73.6 0.9-109.9 0.4-21 0.9-41.5 1.5-61 0.1-2.6 0.1-5.3 0.1-7.8 0-6.1 0-11.8 1.1-17.8 1.7-9.1 3.2-19.7 2.3-30.4-0.3-3.1-0.7-6.1-1.2-9.1-0.5-3.7-1.1-7.5-1.3-11.3-0.4-6.9 0.5-13.9 1.3-20.7l7.8-63.1c1.6-13.3 3.3-27.1 5.8-40.6 1.1-5.9 3.4-11.3 5.7-16.5 1.4-3.3 2.9-6.8 4.1-10.3 2.5-7.8 4.9-16.2 7.5-27.3 2.8-11.5 5.2-22.9 7.2-33.9l1 0.1c-2 11.1-4.4 22.5-7.2 34-2.7 11.2-5 19.6-7.6 27.4-1.2 3.6-2.7 7-4.1 10.4-2.3 5.1-4.6 10.5-5.6 16.2-2.5 13.5-4.2 27.3-5.8 40.7l-7.8 63c-0.8 6.8-1.7 13.7-1.3 20.6 0.2 3.7 0.7 7.5 1.3 11.1 0.5 3 0.9 6.1 1.2 9.2 0.9 10.8-0.6 21.6-2.3 30.7-1.1 5.9-1.1 11.6-1.1 17.6 0 2.5 0 5.2-0.1 7.9-0.6 19.4-1.1 39.9-1.5 60.9-0.7 36.3-1 73.3-0.9 109.9 0 9.5-0.1 14-0.1 16.7-0.2 4.1-0.2 4.1 0.6 12 0.3 2.7 0.7 6.2 1.1 11.1 1.2 12 5 23.2 8.4 33.2 3.5 10.1 6.5 18.9 6 26.2z"/>
				<path id="&lt;Path&gt;" class="s3" d="m821.1 720.6l-1-0.1c1.6-8.3-0.4-108.9-2.2-206.2-1.7-87-3.2-169.2-2.2-180.8 0.9-10.7 2.9-20.7 4.7-30.5 2.5-12.6 4.8-24.6 4.8-37.3 0.1-22.6 26.6-75 26.8-75.6l0.9 0.5c-0.2 0.5-26.6 52.8-26.7 75.1 0 12.8-2.3 24.8-4.8 37.5-1.9 9.7-3.8 19.7-4.7 30.4-1 11.5 0.5 93.7 2.2 180.6 1.8 97.4 3.8 198.1 2.2 206.4z"/>
				<path id="&lt;Path&gt;" class="s5" d="m856.5 139c32.1 5.5 15.8 54.9-7.9 53.3q-0.3 0-0.6 0c0.1 1.2 0.1 2.6 0.1 2.6 0 0-2.1 0-4-1.3 0 0 0.6-1 1.4-1.8-20.6-6.2-20.2-58.1 11-52.8z"/>
				<path id="&lt;Path&gt;" class="s1" d="m784.4 123.2c32.5-3.6 30.3 48.3 7.1 53.4q-0.3 0-0.6 0.1c0.4 1.1 0.8 2.5 0.8 2.5 0 0-2 0.6-4.2-0.1 0 0 0.3-1.2 0.8-2.2-21.4-0.3-35.3-50.3-3.9-53.7z"/>
				<path id="&lt;Path&gt;" class="s3" d="m830.5 114.2c32.4 4.2 18 54.1-5.7 53.5q-0.4 0-0.7 0c0.2 1.2 0.2 2.6 0.2 2.6 0 0-2.1 0.1-4.1-1.1 0 0 0.7-1 1.4-1.9-20.8-5.3-22.4-57.3 8.9-53.1z"/>
				<path id="&lt;Path&gt;" class="s6" d="m808.2 147.1c32.5-2.7 29.1 49.1 5.8 53.6q-0.3 0.1-0.7 0.1c0.5 1.1 0.8 2.5 0.8 2.5 0 0-2 0.5-4.2-0.2 0 0 0.4-1.1 0.9-2.2-21.4-0.7-34.1-51.1-2.6-53.8z"/>
				<path id="&lt;Path&gt;" class="s5" d="m766.8 177.5c23.2-8.5 31.2 30 15.1 38q-0.3 0.1-0.5 0.2c0.6 0.8 1.1 1.7 1.1 1.7 0 0-1.4 0.8-3.2 0.7 0 0 0.1-0.9 0.3-1.8-15.9 3.8-35.3-30.5-12.8-38.8z"/>
				<path id="&lt;Path&gt;" class="s3" d="m860 180.2c22.5 10.3 0.9 43.3-16.2 37.6q-0.2-0.1-0.4-0.2c-0.2 0.9-0.5 1.9-0.5 1.9 0 0-1.5-0.4-2.7-1.7 0 0 0.7-0.6 1.4-1.1-13.8-8.5-3.4-46.5 18.4-36.5z"/>
			</g>
			<g id="&lt;Group&gt;">
				<path id="&lt;Path&gt;" class="s3" d="m184 722.1l-1-0.1c0-0.3 2.7-29.3 2.7-53.1 0-4.3-0.1-19-0.3-41.1-0.6-99.8-2-333.6 0.3-362.2 2.7-34.4 3-85.7 3-86.2h1c0 0.5-0.3 51.8-3 86.3-2.3 28.5-0.9 262.3-0.3 362.1 0.2 22.1 0.3 36.7 0.3 41.1 0 23.8-2.7 52.9-2.7 53.2z"/>
				<path id="&lt;Path&gt;" class="s3" d="m190.9 720.6l-0.9-0.1c1.2-7.1-0.5-74.1-2.5-151.7-2.6-103.3-5.9-231.8-3-258.3 5-45.4 28.4-157.4 28.6-158.6l1 0.2c-0.2 1.2-23.6 113.1-28.6 158.5-2.9 26.4 0.4 154.9 3 258.2 2 77.6 3.7 144.7 2.4 151.8z"/>
				<path id="&lt;Path&gt;" class="s3" d="m200.9 709.4c-7.8-6.4-21.7-364.8-15.2-391.3 6.4-26.5 14.3-49.2 22.1-64.1 7.8-15 18.1-63.3 18.2-63.8l1 0.3c-0.1 0.4-10.4 48.8-18.4 64-7.7 14.8-15.5 37.4-22 63.8-3.2 13.2-1 114.3 2.4 202.5 4 106.2 9.3 185.2 12.5 187.9z"/>
				<path id="&lt;Path&gt;" class="s3" d="m177.1 704.1l-0.9-0.4c8-19.3 7.5-362.9 7.2-378.8-0.1-9-1.5-25.7-2.9-43.4-1.8-21.6-3.8-46-4-60.8-0.3-28.1-2.3-73.4-5.1-81.9l0.9-0.3c2.9 8.6 4.9 54 5.2 82.2 0.2 14.8 2.2 39.2 4 60.7 1.4 17.8 2.8 34.5 2.9 43.5 0.3 15.9 0.8 359.8-7.3 379.2z"/>
				<path id="&lt;Path&gt;" class="s3" d="m170.1 716.4c-0.5-7.3 2.5-16.1 6-26.2 3.4-10 7.2-21.2 8.4-33.2 0.4-4.9 0.8-8.4 1.1-11.1 0.8-7.9 0.8-7.9 0.6-12 0-2.7-0.1-7.2-0.1-16.7 0.1-36.6-0.2-73.6-0.9-109.9-0.4-21-0.9-41.5-1.5-60.9-0.1-2.7-0.1-5.4-0.1-7.9 0-6 0-11.7-1.1-17.6-1.7-9.1-3.2-19.9-2.3-30.7 0.3-3.1 0.7-6.2 1.2-9.2 0.6-3.6 1.1-7.4 1.3-11.1 0.4-6.9-0.5-13.8-1.3-20.6l-7.8-63c-1.6-13.4-3.3-27.2-5.8-40.7-1-5.7-3.3-11.1-5.6-16.2-1.4-3.4-2.9-6.8-4.1-10.4-2.6-7.8-4.9-16.2-7.6-27.4-2.8-11.5-5.2-22.9-7.2-34l1-0.1c2 11 4.4 22.4 7.2 33.9 2.6 11.1 5 19.5 7.5 27.3 1.2 3.5 2.7 7 4.1 10.3 2.3 5.2 4.6 10.6 5.7 16.5 2.5 13.5 4.2 27.3 5.8 40.6l7.8 63.1c0.8 6.8 1.7 13.8 1.3 20.7-0.2 3.8-0.8 7.6-1.3 11.3-0.5 3-0.9 6-1.2 9.1-0.9 10.7 0.6 21.3 2.3 30.4 1.1 6 1.1 11.7 1.1 17.8 0 2.5 0 5.2 0.1 7.8 0.6 19.5 1.1 40 1.5 61 0.7 36.3 1 73.3 0.9 109.9 0 9.5 0.1 14 0.1 16.6 0.2 4.2 0.2 4.2-0.7 12.2-0.2 2.7-0.6 6.2-1 11.1-1.2 12.1-5.1 23.4-8.5 33.4-3.4 10.1-6.4 18.8-5.9 25.8z"/>
				<path id="&lt;Path&gt;" class="s3" d="m178.9 720.6c-1.6-8.3 0.4-109 2.2-206.4 1.7-86.9 3.2-169.1 2.2-180.6-0.9-10.7-2.8-20.7-4.7-30.4-2.5-12.7-4.8-24.7-4.9-37.5 0-22.3-26.4-74.6-26.6-75.1l0.9-0.5c0.2 0.6 26.7 53 26.7 75.6 0.1 12.7 2.4 24.7 4.9 37.3 1.8 9.8 3.8 19.8 4.7 30.5 1 11.6-0.5 93.8-2.2 180.8-1.8 97.3-3.8 197.9-2.2 206.2z"/>
				<path id="&lt;Path&gt;" class="s5" d="m143.5 139c-32.1 5.5-15.8 54.9 7.9 53.3q0.3 0 0.6 0c-0.1 1.2-0.1 2.6-0.1 2.6 0 0 2.1 0 4-1.3 0 0-0.6-1-1.4-1.8 20.6-6.2 20.2-58.1-11-52.8z"/>
				<path id="&lt;Path&gt;" class="s1" d="m215.6 123.2c-32.5-3.6-30.3 48.3-7.1 53.4q0.3 0 0.6 0.1c-0.4 1.1-0.8 2.5-0.8 2.5 0 0 2 0.6 4.2-0.1 0 0-0.3-1.2-0.8-2.2 21.4-0.3 35.3-50.3 3.9-53.7z"/>
				<path id="&lt;Path&gt;" class="s3" d="m169.5 114.2c-32.4 4.2-18 54.1 5.7 53.5q0.4 0 0.7 0c-0.2 1.2-0.2 2.6-0.2 2.6 0 0 2.1 0.1 4.1-1.1 0 0-0.7-1-1.4-1.9 20.8-5.3 22.4-57.3-8.9-53.1z"/>
				<path id="&lt;Path&gt;" class="s6" d="m191.8 147.1c-32.5-2.7-29.1 49.1-5.8 53.6q0.3 0.1 0.7 0.1c-0.5 1.1-0.8 2.5-0.8 2.5 0 0 2 0.5 4.2-0.2 0 0-0.4-1.1-0.9-2.2 21.4-0.7 34.1-51.1 2.6-53.8z"/>
				<path id="&lt;Path&gt;" class="s5" d="m233.2 177.5c-23.2-8.5-31.2 30-15.1 38q0.3 0.1 0.5 0.2c-0.6 0.8-1.1 1.7-1.1 1.7 0 0 1.4 0.8 3.2 0.7 0 0-0.1-0.9-0.3-1.8 15.9 3.8 35.3-30.5 12.8-38.8z"/>
				<path id="&lt;Path&gt;" class="s3" d="m140 180.2c-22.5 10.3-0.9 43.3 16.2 37.6q0.2-0.1 0.4-0.2c0.2 0.9 0.5 1.9 0.5 1.9 0 0 1.5-0.4 2.7-1.7 0 0-0.7-0.6-1.4-1.1 13.8-8.5 3.4-46.5-18.4-36.5z"/>
			</g>
		</g>
	</g>
	<g id="Shadow">
		<path id="&lt;Path&gt; 359 " class="s1" d="m917.5 802.1c0 16.1-192.4 29.2-429.7 29.2-237.3 0-429.7-13.1-429.7-29.2 0-16.2 192.4-29.3 429.7-29.3 237.3 0 429.7 13.1 429.7 29.3z"/>
	</g>
	<g id="Confetti">
		<g id="&lt;Group&gt;">
			<path id="&lt;Path&gt;" class="s7" d="m446.1 245l-8 10.3 15.9 7.1z"/>
			<path id="&lt;Path&gt;" class="s7" d="m497.5 460.1l10.2-8.1-13.6-10.8z"/>
			<path id="&lt;Path&gt;" class="s7" d="m369.3 232.5l-0.8-13-16.7 5z"/>
			<path id="&lt;Path&gt;" class="s7" d="m417.5 445.7l-7.9 10.3 15.8 7.1z"/>
			<path id="&lt;Path&gt;" class="s7" d="m137.4 374.3l-7.9 10.3 15.9 7.2z"/>
			<path id="&lt;Path&gt;" class="s7" d="m406.4 306.8l12.7 0.8-1.6 14.3-15.1-3.9z"/>
			<path id="&lt;Path&gt;" class="s7" d="m448 392.1l-6 11.2-12.3-7.4 9.9-12z"/>
			<path id="&lt;Path&gt;" class="s7" d="m814.8 439.8l-6 11.3-12.4-7.4 9.9-12.1z"/>
			<path id="&lt;Path&gt;" class="s7" d="m369.1 477.1l12.7 0.8-1.6 14.2-15-3.9z"/>
			<path id="&lt;Path&gt;" class="s7" d="m475.4 327.5l8 1.6c0 0-11.9 7.9-6.4 14.2 5.6 6.4-4 11.9-4 11.9l-7.1-4.7c0 0 6.4-4.8 3.2-11.1-3.2-6.4 6.3-11.9 6.3-11.9z"/>
			<path id="&lt;Path&gt;" class="s7" d="m651.6 317.7l7.9 1.6c0 0-11.9 7.9-6.3 14.2 5.6 6.4-4 11.9-4 11.9l-7.1-4.7c0 0 6.3-4.8 3.2-11.1-3.2-6.4 6.3-11.9 6.3-11.9z"/>
			<path id="&lt;Path&gt;" class="s7" d="m491.6 224l-7.2 10.7 16.2 6.2z"/>
			<path id="&lt;Path&gt;" class="s7" d="m610 189.7l-7.3 10.8 16.3 6.2z"/>
			<path id="&lt;Path&gt;" class="s7" d="m789.5 179.4l-7.3 10.7 16.3 6.2z"/>
			<path id="&lt;Path&gt;" class="s7" d="m550.1 195.5l4.4-12.3-17.3-1.9z"/>
			<path id="&lt;Path&gt;" class="s7" d="m546.8 244.2l2.3-12.5 14 3.3-5.8 14.5z"/>
			<path id="&lt;Path&gt;" class="s7" d="m740.4 238.1l2.3-12.5 14 3.3-5.8 14.5z"/>
			<path id="&lt;Path&gt;" class="s7" d="m803.7 360.9l2.4-12.5 13.9 3.3-5.7 14.5z"/>
			<path id="&lt;Path&gt;" class="s7" d="m575.3 296.5l2.3-12.5 14 3.3-5.8 14.5z"/>
			<path id="&lt;Path&gt;" class="s7" d="m684 259.6l-8.1 0.9c0 0 8.9-11.2 1.7-15.5-7.2-4.4 0.2-12.6 0.2-12.6l8.2 2.4c0 0-4.6 6.5 0.4 11.5 4.9 5.1-2.4 13.3-2.4 13.3z"/>
			<path id="&lt;Path&gt;" class="s7" d="m367.3 523.4l8 1.5c0 0-11.9 8-6.4 14.3 5.6 6.4-3.9 11.9-3.9 11.9l-7.2-4.7c0 0 6.4-4.8 3.2-11.1-3.2-6.4 6.3-11.9 6.3-11.9z"/>
			<path id="&lt;Path&gt;" class="s7" d="m595.3 432.6l-8 10.3 15.9 7.2z"/>
			<path id="&lt;Path&gt;" class="s7" d="m861.9 538.6l-7.9 10.4 15.9 7.1z"/>
			<path id="&lt;Path&gt;" class="s7" d="m635.6 383.6l12.7 0.8-1.6 14.2-15.1-3.9z"/>
			<path id="&lt;Path&gt;" class="s7" d="m683 504l12.7 0.8-1.6 14.3-15-3.9z"/>
			<path id="&lt;Path&gt;" class="s7" d="m620.4 516.9l7.9 1.5c0 0-11.9 8-6.3 14.3 5.5 6.4-4 11.9-4 11.9l-7.1-4.7c0 0 6.3-4.8 3.2-11.1-3.2-6.4 6.3-11.9 6.3-11.9z"/>
			<path id="&lt;Path&gt;" class="s7" d="m428.7 209.2l-5 1.1c0 0 2.1-10.5-4.1-14.2-6.2-3.7-4.1-11.4-4.1-11.4l6.2 1.8c0 0-0.8 6 4.1 10.5 5 4.4 2.9 12.2 2.9 12.2z"/>
			<path id="&lt;Path&gt;" class="s7" d="m358.4 180.9l-5 1.2c0 0 2.1-10.6-4.1-14.3-6.2-3.6-4.1-11.4-4.1-11.4l6.2 1.8c0 0-0.8 6.1 4.1 10.5 5 4.4 2.9 12.2 2.9 12.2z"/>
			<path id="&lt;Path&gt;" class="s7" d="m693.9 175l-5 1.1c0 0 2.2-10.5-4-14.2-6.2-3.7-4.1-11.4-4.1-11.4l6.2 1.8c0 0-0.9 6 4.1 10.5 4.9 4.4 2.8 12.2 2.8 12.2z"/>
			<path id="&lt;Path&gt;" class="s7" d="m859.4 419.7l-5 1.2c0 0 2.1-10.6-4.1-14.3-6.2-3.6-4.1-11.4-4.1-11.4l6.2 1.8c0 0-0.8 6.1 4.1 10.5 5 4.4 2.9 12.2 2.9 12.2z"/>
			<path id="&lt;Path&gt;" class="s7" d="m374.6 401.8l-7.5 3c0 0 5.6-13.2-2.5-15.4-8.2-2.3-3.3-12.1-3.3-12.1h8.6c0 0-2.7 7.5 3.5 11 6.1 3.6 1.2 13.5 1.2 13.5z"/>
			<path id="&lt;Path&gt;" class="s7" d="m342.1 324.7c0 3.3-2.6 5.9-5.9 5.9-3.3 0-6-2.6-6-5.9 0-3.3 2.7-6 6-6 3.3 0 5.9 2.7 5.9 6z"/>
			<path id="&lt;Path&gt;" class="s7" d="m494.3 179.2c0 3.3-2.7 5.9-5.9 5.9-3.3 0-6-2.6-6-5.9 0-3.3 2.7-6 6-6 3.2 0 5.9 2.7 5.9 6z"/>
			<path id="&lt;Path&gt;" class="s7" d="m587 368c0 3.3-2.6 6-5.9 6-3.3 0-6-2.7-6-6 0-3.2 2.7-5.9 6-5.9 3.3 0 5.9 2.7 5.9 5.9z"/>
			<path id="&lt;Path&gt;" class="s7" d="m823.8 290.3c0 3.3-2.7 5.9-6 5.9-3.3 0-5.9-2.6-5.9-5.9 0-3.3 2.6-6 5.9-6 3.3 0 6 2.7 6 6z"/>
			<path id="&lt;Path&gt;" class="s7" d="m721.5 362.8c0 3.3-2.7 5.9-6 5.9-3.3 0-5.9-2.6-5.9-5.9 0-3.3 2.6-6 5.9-6 3.3 0 6 2.7 6 6z"/>
			<path id="&lt;Path&gt;" class="s7" d="m852.9 231.7c0 3.3-2.6 5.9-5.9 5.9-3.3 0-6-2.6-6-5.9 0-3.3 2.7-6 6-6 3.3 0 5.9 2.7 5.9 6z"/>
			<path id="&lt;Path&gt;" class="s7" d="m162.1 222.9c0 3.3-2.7 6-6 6-3.3 0-5.9-2.7-5.9-6 0-3.3 2.6-5.9 5.9-5.9 3.3 0 6 2.6 6 5.9z"/>
			<path id="&lt;Path&gt;" class="s7" d="m306.2 228.8l-9.4 8.9 14.5 9.6z"/>
			<path id="&lt;Path&gt;" class="s7" d="m277.4 447.2l6.3-11.3-16.7-4.7z"/>
			<path id="&lt;Path&gt;" class="s7" d="m198.1 464.8l-3.4 12.6 17.4 0.5z"/>
			<path id="&lt;Path&gt;" class="s7" d="m153.1 434l-1.2 12.6-14.2-2.1 4.4-14.9z"/>
			<path id="&lt;Path&gt;" class="s7" d="m264.9 336.6l7.9-1.6c0 0-7.9 11.9-0.3 15.6 7.6 3.7 0.9 12.5 0.9 12.5l-8.4-1.6c0 0 4-6.8-1.4-11.5-5.3-4.6 1.3-13.4 1.3-13.4z"/>
			<path id="&lt;Path&gt;" class="s7" d="m201.8 328.7l7-10.9-16.4-5.7z"/>
			<path id="&lt;Path&gt;" class="s7" d="m248 281.1l-12.7 0.3 0.3-14.4 15.4 2.7z"/>
			<path id="&lt;Path&gt;" class="s7" d="m236.3 197.1l-8-0.9c0 0 11.1-8.9 5.1-14.8-6.1-5.8 2.9-12.2 2.9-12.2l7.5 4.2c0 0-5.9 5.3-2.2 11.3 3.7 6-5.3 12.4-5.3 12.4z"/>
			<path id="&lt;Path&gt;" class="s7" d="m302.8 492.9c-0.3-3.3 2.1-6.2 5.4-6.5 3.2-0.3 6.1 2.2 6.4 5.4 0.3 3.3-2.1 6.2-5.4 6.5-3.3 0.3-6.2-2.1-6.4-5.4z"/>
			<g id="&lt;Group&gt;" style="opacity: .7">
				<path id="&lt;Path&gt;" class="s2" d="m446.1 245l-8 10.3 15.9 7.1z"/>
				<path id="&lt;Path&gt;" class="s2" d="m497.5 460.1l10.2-8.1-13.6-10.8z"/>
				<path id="&lt;Path&gt;" class="s2" d="m417.5 445.7l-7.9 10.3 15.8 7.1z"/>
				<path id="&lt;Path&gt;" class="s8" d="m406.4 306.8l12.7 0.8-1.6 14.3-15.1-3.9z"/>
				<path id="&lt;Path&gt;" class="s2" d="m814.8 439.8l-6 11.3-12.4-7.4 9.9-12.1z"/>
				<path id="&lt;Path&gt;" class="s2" d="m475.4 327.5l8 1.6c0 0-11.9 7.9-6.4 14.2 5.6 6.4-4 11.9-4 11.9l-7.1-4.7c0 0 6.4-4.8 3.2-11.1-3.2-6.4 6.3-11.9 6.3-11.9z"/>
				<path id="&lt;Path&gt;" class="s2" d="m789.5 179.4l-7.3 10.7 16.3 6.2z"/>
				<path id="&lt;Path&gt;" class="s8" d="m550.1 195.5l4.4-12.3-17.3-1.9z"/>
				<path id="&lt;Path&gt;" class="s2" d="m546.8 244.2l2.3-12.5 14 3.3-5.8 14.5z"/>
				<path id="&lt;Path&gt;" class="s8" d="m740.4 238.1l2.3-12.5 14 3.3-5.8 14.5z"/>
				<path id="&lt;Path&gt;" class="s8" d="m803.7 360.9l2.4-12.5 13.9 3.3-5.7 14.5z"/>
				<path id="&lt;Path&gt;" class="s2" d="m684 259.6l-8.1 0.9c0 0 8.9-11.2 1.7-15.5-7.2-4.4 0.2-12.6 0.2-12.6l8.2 2.4c0 0-4.6 6.5 0.4 11.5 4.9 5.1-2.4 13.3-2.4 13.3z"/>
				<path id="&lt;Path&gt;" class="s8" d="m367.3 523.4l8 1.5c0 0-11.9 8-6.4 14.3 5.6 6.4-3.9 11.9-3.9 11.9l-7.2-4.7c0 0 6.4-4.8 3.2-11.1-3.2-6.4 6.3-11.9 6.3-11.9z"/>
				<path id="&lt;Path&gt;" class="s2" d="m595.3 432.6l-8 10.3 15.9 7.2z"/>
				<path id="&lt;Path&gt;" class="s2" d="m861.9 538.6l-7.9 10.4 15.9 7.1z"/>
				<path id="&lt;Path&gt;" class="s2" d="m635.6 383.6l12.7 0.8-1.6 14.2-15.1-3.9z"/>
				<path id="&lt;Path&gt;" class="s8" d="m620.4 516.9l7.9 1.5c0 0-11.9 8-6.3 14.3 5.5 6.4-4 11.9-4 11.9l-7.1-4.7c0 0 6.3-4.8 3.2-11.1-3.2-6.4 6.3-11.9 6.3-11.9z"/>
				<path id="&lt;Path&gt;" class="s2" d="m428.7 209.2l-5 1.1c0 0 2.1-10.5-4.1-14.2-6.2-3.7-4.1-11.4-4.1-11.4l6.2 1.8c0 0-0.8 6 4.1 10.5 5 4.4 2.9 12.2 2.9 12.2z"/>
				<path id="&lt;Path&gt;" class="s8" d="m358.4 180.9l-5 1.2c0 0 2.1-10.6-4.1-14.3-6.2-3.6-4.1-11.4-4.1-11.4l6.2 1.8c0 0-0.8 6.1 4.1 10.5 5 4.4 2.9 12.2 2.9 12.2z"/>
				<path id="&lt;Path&gt;" class="s2" d="m374.6 401.8l-7.5 3c0 0 5.6-13.2-2.5-15.4-8.2-2.3-3.3-12.1-3.3-12.1h8.6c0 0-2.7 7.5 3.5 11 6.1 3.6 1.2 13.5 1.2 13.5z"/>
				<path id="&lt;Path&gt;" class="s2" d="m494.3 179.2c0 3.3-2.7 5.9-5.9 5.9-3.3 0-6-2.6-6-5.9 0-3.3 2.7-6 6-6 3.2 0 5.9 2.7 5.9 6z"/>
				<path id="&lt;Path&gt;" class="s8" d="m587 368c0 3.3-2.6 6-5.9 6-3.3 0-6-2.7-6-6 0-3.2 2.7-5.9 6-5.9 3.3 0 5.9 2.7 5.9 5.9z"/>
				<path id="&lt;Path&gt;" class="s2" d="m823.8 290.3c0 3.3-2.7 5.9-6 5.9-3.3 0-5.9-2.6-5.9-5.9 0-3.3 2.6-6 5.9-6 3.3 0 6 2.7 6 6z"/>
				<path id="&lt;Path&gt;" class="s8" d="m721.5 362.8c0 3.3-2.7 5.9-6 5.9-3.3 0-5.9-2.6-5.9-5.9 0-3.3 2.6-6 5.9-6 3.3 0 6 2.7 6 6z"/>
				<path id="&lt;Path&gt;" class="s2" d="m162.1 222.9c0 3.3-2.7 6-6 6-3.3 0-5.9-2.7-5.9-6 0-3.3 2.6-5.9 5.9-5.9 3.3 0 6 2.6 6 5.9z"/>
				<path id="&lt;Path&gt;" class="s2" d="m306.2 228.8l-9.4 8.9 14.5 9.6z"/>
				<path id="&lt;Path&gt;" class="s8" d="m198.1 464.8l-3.4 12.6 17.4 0.5z"/>
				<path id="&lt;Path&gt;" class="s2" d="m153.1 434l-1.2 12.6-14.2-2.1 4.4-14.9z"/>
				<path id="&lt;Path&gt;" class="s2" d="m264.9 336.6l7.9-1.6c0 0-7.9 11.9-0.3 15.6 7.6 3.7 0.9 12.5 0.9 12.5l-8.4-1.6c0 0 4-6.8-1.4-11.5-5.3-4.6 1.3-13.4 1.3-13.4z"/>
				<path id="&lt;Path&gt;" class="s2" d="m201.8 328.7l7-10.9-16.4-5.7z"/>
				<path id="&lt;Path&gt;" class="s8" d="m248 281.1l-12.7 0.3 0.3-14.4 15.4 2.7z"/>
				<path id="&lt;Path&gt;" class="s2" d="m302.8 492.9c-0.3-3.3 2.1-6.2 5.4-6.5 3.2-0.3 6.1 2.2 6.4 5.4 0.3 3.3-2.1 6.2-5.4 6.5-3.3 0.3-6.2-2.1-6.4-5.4z"/>
			</g>
		</g>
	</g>
	<g id="Table">
		<g id="&lt;Group&gt;">
			<g id="&lt;Group&gt;">
				<path id="&lt;Path&gt;" class="s7" d="m740.3 595.7h176.1c0 8.9-5.1 16.1-11.6 16.5-18.9 1.2-48 5.2-57.2 19.5-17.2 26.7-15.6 120.2 5 141.9 6.5 6.8 25.3 20.3 25.3 20.3h-99.1c0 0 17.6-13.8 23.7-20.3 20.5-21.9 21.1-115.4 3.8-141.9-8.9-13.6-36.2-18-54.5-19.3-6.4-0.5-11.5-7.8-11.5-16.7z"/>
				<path id="&lt;Path&gt;" class="s9" d="m894.6 613.1c-17.9 1.9-39.3 6.7-47 18.6-2.3 3.5-4.2 8.3-5.8 13.8h-29.6c-1.7-5.5-3.6-10.3-5.9-13.8-7.7-11.8-29.3-16.7-46.9-18.6z"/>
				<path id="&lt;Path&gt;" class="s10" d="m740.3 595.7h176.1c0 8.9-5.1 16.1-11.6 16.5-18.9 1.2-48 5.2-57.2 19.5-17.2 26.7-15.6 120.2 5 141.9 6.5 6.8 25.3 20.3 25.3 20.3h-99.1c0 0 17.6-13.8 23.7-20.3 20.5-21.9 21.1-115.4 3.8-141.9-8.9-13.6-36.2-18-54.5-19.3-6.4-0.5-11.5-7.8-11.5-16.7z"/>
			</g>
			<g id="&lt;Group&gt;">
				<path id="&lt;Path&gt;" class="s7" d="m899.8 557.3c0 3.4-2.8 6.2-6.2 6.2-3.5 0-6.3-2.8-6.3-6.2 0-3.4 2.8-6.2 6.3-6.2 3.4 0 6.2 2.8 6.2 6.2z"/>
				<path id="&lt;Path&gt;" class="s10" d="m899.8 557.3c0 3.4-2.8 6.2-6.2 6.2-3.5 0-6.3-2.8-6.3-6.2 0-3.4 2.8-6.2 6.3-6.2 3.4 0 6.2 2.8 6.2 6.2z"/>
				<path id="&lt;Path&gt;" class="s7" d="m877.5 592.8l-5.5 2.9h14.2l-5.5-2.9v-15l12.9-20.5h-29l12.9 20.5z"/>
				<path id="&lt;Path&gt;" class="s11" d="m877.5 592.8l-5.5 2.9h14.2l-5.5-2.9v-15l12.9-20.5h-29l12.9 20.5z"/>
				<path id="&lt;Path&gt;" class="s7" d="m870.9 565.2h16.4l-6.7 10c-0.7 1.1-2.3 1.1-3 0z"/>
			</g>
			<g id="&lt;Group&gt;">
				<path id="&lt;Path&gt;" class="s7" d="m818.6 557.3c0 3.4 2.8 6.2 6.3 6.2 3.4 0 6.2-2.8 6.2-6.2 0-3.4-2.8-6.2-6.2-6.2-3.5 0-6.3 2.8-6.3 6.2z"/>
				<path id="&lt;Path&gt;" class="s10" d="m818.6 557.3c0 3.4 2.8 6.2 6.3 6.2 3.4 0 6.2-2.8 6.2-6.2 0-3.4-2.8-6.2-6.2-6.2-3.5 0-6.3 2.8-6.3 6.2z"/>
				<path id="&lt;Path&gt;" class="s7" d="m840.9 592.8l5.5 2.9h-14.2l5.5-2.9v-15l-12.8-20.5h28.9l-12.9 20.5z"/>
				<path id="&lt;Path&gt;" class="s11" d="m840.9 592.8l5.5 2.9h-14.2l5.5-2.9v-15l-12.8-20.5h28.9l-12.9 20.5z"/>
				<path id="&lt;Path&gt;" class="s7" d="m847.5 565.2h-16.4l6.7 10c0.7 1.1 2.3 1.1 3.1 0z"/>
			</g>
			<g id="&lt;Group&gt;">
				<path id="&lt;Path&gt;" class="s7" d="m803.8 557.3c0 3.4-2.8 6.2-6.2 6.2-3.5 0-6.3-2.8-6.3-6.2 0-3.4 2.8-6.2 6.3-6.2 3.4 0 6.2 2.8 6.2 6.2z"/>
				<path id="&lt;Path&gt;" class="s10" d="m803.8 557.3c0 3.4-2.8 6.2-6.2 6.2-3.5 0-6.3-2.8-6.3-6.2 0-3.4 2.8-6.2 6.3-6.2 3.4 0 6.2 2.8 6.2 6.2z"/>
				<path id="&lt;Path&gt;" class="s7" d="m781.5 592.8l-5.5 2.9h14.2l-5.5-2.9v-15l12.9-20.5h-29l12.9 20.5z"/>
				<path id="&lt;Path&gt;" class="s11" d="m781.5 592.8l-5.5 2.9h14.2l-5.5-2.9v-15l12.9-20.5h-29l12.9 20.5z"/>
				<path id="&lt;Path&gt;" class="s7" d="m774.9 565.2h16.4l-6.7 10c-0.7 1.1-2.3 1.1-3 0z"/>
			</g>
		</g>
	</g>
	<g id="Gifts 2">
		<g id="&lt;Group&gt;">
			<g id="&lt;Group&gt;">
				<path id="&lt;Compound Path&gt;" fill-rule="evenodd" class="s7" d="m716.1 732.6l-1.9-4.8c-24.3 1.2-27-8-27.2-10.9-0.5-5.4 4.4-10.3 10.9-11 8.9-0.9 14.8 7.1 17.8 12.3 4.6-5.5 13.5-10.1 20.2-10.1q0 0 0 0c5.1 0 8.7 2.5 10 7.3 0.9 3.9-0.5 6.4-1.8 7.9-5.6 6.4-21.9 5.1-26.8 4.6zm2.8-9.7c7.4 0.6 18.2 0.2 21.2-3.2 0.4-0.6 0.9-1.2 0.5-2.9-0.6-2.5-2.1-3.3-4.7-3.3q0 0 0 0c-5.9 0-14.3 5-17 9.4zm-19.7-11.6q-0.4 0-0.8 0c-3.7 0.4-6.2 3-6 5.1 0.2 2.4 4.6 6.5 19.7 6.1-1.9-3.7-6.4-11.2-12.9-11.2z"/>
			</g>
			<path id="&lt;Path&gt;" class="s7" d="m768.3 797.5h-105.5v-72.5h105.5z"/>
			<path id="&lt;Path&gt;" class="s12" d="m768.3 797.5h-105.5v-72.5h105.5z"/>
			<path id="&lt;Path&gt;" class="s13" d="m768.3 797.5h-105.5v-47.5h105.5z"/>
			<path id="&lt;Path&gt;" class="s14" d="m704.7 797.5h-41.9v-72.5h41.9z"/>
			<path id="&lt;Path&gt;" class="s7" d="m741.7 725h-8.6v72.5h8.6z"/>
			<path id="&lt;Path&gt;" class="s7" d="m683.9 797.5h-6.3v-72.5h6.3z"/>
		</g>
		<g id="&lt;Group&gt;">
			<g id="&lt;Group&gt;">
				<path id="&lt;Compound Path&gt;" fill-rule="evenodd" class="s7" d="m777.3 751.6l-1.4-3.5c-18.2 0.8-20.2-6.1-20.4-8.3-0.3-4 3.3-7.7 8.2-8.2 6.6-0.7 11.1 5.3 13.4 9.3 3.4-4.2 10.1-7.6 15.1-7.6q0 0 0 0c3.8 0 6.5 1.8 7.5 5.5 0.7 2.9-0.3 4.7-1.3 5.8-4.3 4.8-16.5 3.9-20.2 3.5zm2.2-7.3c5.5 0.5 13.6 0.2 15.8-2.4 0.4-0.4 0.8-0.8 0.4-2.1-0.4-1.9-1.5-2.5-3.5-2.5q0 0 0 0c-4.5 0-10.7 3.8-12.7 7zm-14.8-8.7q-0.3 0-0.6 0c-2.8 0.3-4.7 2.3-4.6 3.9 0.2 1.8 3.6 4.8 14.8 4.5-1.4-2.8-4.8-8.4-9.6-8.4z"/>
			</g>
			<path id="&lt;Path&gt;" class="s15" d="m816.5 800.3h-79.1v-54.4h79.1z"/>
			<path id="&lt;Path&gt;" class="s9" d="m816.5 800.3h-79.1v-35.6h79.1z"/>
			<path id="&lt;Path&gt;" class="s16" d="m768.8 800.3h-31.4v-54.4h31.4z"/>
			<path id="&lt;Path&gt;" class="s7" d="m796.5 745.9h-6.4v54.4h6.4z"/>
			<path id="&lt;Path&gt;" class="s7" d="m753.2 800.3h-4.7v-54.4h4.7z"/>
		</g>
	</g>
	<g id="Gifts 1">
		<g id="&lt;Group&gt;">
			<g id="&lt;Group&gt;">
				<path id="&lt;Compound Path&gt;" fill-rule="evenodd" class="s2" d="m161.5 700.6c-4.4 0.5-19 1.6-24.1-4.1-1.2-1.4-2.4-3.6-1.5-7.1 1.1-4.3 4.3-6.5 8.9-6.5q0 0 0 0c6 0 13.9 4.1 18 9 2.7-4.7 8.1-11.8 16-11 5.8 0.6 10.2 5 9.8 9.8-0.2 2.6-2.7 10.8-24.4 9.8l-1.7 4.3zm-16.6-12.8q0 0 0 0c-2.4 0-3.7 0.7-4.3 2.9-0.3 1.6 0.1 2.1 0.5 2.6 2.7 3 12.3 3.4 18.9 2.8-2.4-3.8-9.8-8.3-15.1-8.3zm21.3 8c13.4 0.3 17.4-3.3 17.6-5.5 0.2-1.9-2.1-4.2-5.4-4.6q-0.4 0-0.7 0c-5.8 0-9.9 6.7-11.5 10.1z"/>
			</g>
			<g id="&lt;Group&gt;" style="opacity: .2">
				<path id="&lt;Compound Path&gt;" fill-rule="evenodd" class="s17" d="m161.5 700.6c-4.4 0.5-19 1.6-24.1-4.1-1.2-1.4-2.4-3.6-1.5-7.1 1.1-4.3 4.3-6.5 8.9-6.5q0 0 0 0c6 0 13.9 4.1 18 9 2.7-4.7 8.1-11.8 16-11 5.8 0.6 10.2 5 9.8 9.8-0.2 2.6-2.7 10.8-24.4 9.8l-1.7 4.3zm-16.6-12.8q0 0 0 0c-2.4 0-3.7 0.7-4.3 2.9-0.3 1.6 0.1 2.1 0.5 2.6 2.7 3 12.3 3.4 18.9 2.8-2.4-3.8-9.8-8.3-15.1-8.3zm21.3 8c13.4 0.3 17.4-3.3 17.6-5.5 0.2-1.9-2.1-4.2-5.4-4.6q-0.4 0-0.7 0c-5.8 0-9.9 6.7-11.5 10.1z"/>
			</g>
			<path id="&lt;Path&gt;" class="s7" d="m115.8 796.8h94.4v-98.8h-94.4z"/>
			<path id="&lt;Path&gt;" class="s10" d="m115.8 796.8h94.4v-98.8h-94.4z"/>
			<path id="&lt;Path&gt;" class="s9" d="m115.8 796.8h94.4v-76.4h-94.4z"/>
			<path id="&lt;Path&gt;" class="s2" d="m139.6 698h7.7v98.8h-7.7z"/>
			<path id="&lt;Path&gt;" class="s2" d="m191.3 796.8h5.7v-98.8h-5.7z"/>
			<path id="&lt;Path&gt;" class="s9" d="m172.7 796.8h37.5v-98.8h-37.5z"/>
			<path id="&lt;Path&gt;" class="s13" d="m139.6 698h7.7v98.8h-7.7z"/>
		</g>
		<g id="&lt;Group&gt;">
			<g id="&lt;Group&gt;">
				<path id="&lt;Compound Path&gt;" fill-rule="evenodd" class="s15" d="m238.7 719.8c-5.4 0.5-23.5 1.9-29.8-5.2-1.4-1.6-3-4.3-1.9-8.7 1.4-5.4 5.4-8 11.1-8q0 0 0 0c7.4 0 17.2 5 22.3 11.1 3.4-5.8 9.9-14.6 19.8-13.6 7.2 0.7 12.6 6.1 12.1 12.1-0.3 3.3-3.3 13.4-30.2 12.2l-2.1 5.3zm-20.6-15.9q0 0 0 0c-2.9 0-4.6 0.9-5.2 3.6-0.5 1.9 0 2.6 0.6 3.2 3.3 3.7 15.2 4.3 23.4 3.5-3-4.7-12.2-10.3-18.8-10.3zm26.4 9.9c16.7 0.4 21.6-4.1 21.8-6.8 0.2-2.3-2.6-5.2-6.6-5.7q-0.5 0-1 0c-7.1 0-12.2 8.3-14.2 12.5z"/>
			</g>
			<path id="&lt;Path&gt;" class="s7" d="m182.2 796.8h116.9v-80.3h-116.9z"/>
			<path id="&lt;Path&gt;" class="s9" d="m182.2 796.8h116.9v-52.5h-116.9z"/>
			<path id="&lt;Path&gt;" class="s15" d="m211.7 716.5h9.5v80.3h-9.5z"/>
			<path id="&lt;Path&gt;" class="s15" d="m275.7 796.8h7v-80.3h-7z"/>
			<path id="&lt;Path&gt;" class="s9" d="m252.6 796.8h46.5v-80.3h-46.5z"/>
		</g>
		<g id="&lt;Group&gt;">
			<g id="&lt;Group&gt;">
				<path id="&lt;Compound Path&gt;" fill-rule="evenodd" class="s7" d="m234.5 667.8l-1.4-3.6c-18.2 0.8-20.3-6-20.5-8.2-0.3-4.1 3.4-7.8 8.2-8.2 6.7-0.7 11.1 5.3 13.4 9.2 3.5-4.1 10.1-7.6 15.1-7.6q0 0 0 0c3.9 0 6.6 1.8 7.5 5.5 0.7 2.9-0.3 4.8-1.3 5.9-4.2 4.8-16.5 3.8-20.1 3.5zm2.1-7.3c5.6 0.4 13.6 0.1 15.9-2.4 0.3-0.5 0.7-0.9 0.4-2.2-0.5-1.8-1.6-2.5-3.6-2.5q0 0 0 0c-4.4 0-10.7 3.8-12.7 7.1zm-14.8-8.8q-0.3 0-0.6 0.1c-2.7 0.3-4.6 2.2-4.5 3.8 0.1 1.8 3.5 4.9 14.8 4.6-1.4-2.8-4.8-8.5-9.7-8.5z"/>
			</g>
			<path id="&lt;Path&gt;" class="s15" d="m273.6 716.4h-79.1v-54.3h79.1z"/>
			<path id="&lt;Path&gt;" class="s9" d="m273.6 716.4h-79.1v-35.6h79.1z"/>
			<path id="&lt;Path&gt;" class="s16" d="m225.9 716.4h-31.4v-54.3h31.4z"/>
			<path id="&lt;Path&gt;" class="s7" d="m253.7 662.1h-6.5v54.3h6.5z"/>
			<path id="&lt;Path&gt;" class="s7" d="m210.3 716.4h-4.7v-54.3h4.7z"/>
		</g>
		<g id="&lt;Group&gt;">
			<g id="&lt;Group&gt;">
				<path id="&lt;Compound Path&gt;" fill-rule="evenodd" class="s7" d="m126.7 748.2l-1.3-3.6c-18.2 0.9-20.3-6-20.5-8.2-0.3-4 3.3-7.7 8.2-8.2 6.7-0.7 11.1 5.3 13.4 9.2 3.4-4.1 10.1-7.5 15.1-7.5q0 0 0 0c3.8 0 6.6 1.8 7.5 5.4 0.7 3-0.3 4.8-1.3 5.9-4.3 4.8-16.5 3.9-20.2 3.5zm2.2-7.3c5.5 0.5 13.6 0.1 15.8-2.4 0.4-0.4 0.8-0.9 0.5-2.2-0.5-1.8-1.6-2.5-3.6-2.5q0 0 0 0c-4.4 0-10.7 3.8-12.7 7.1zm-14.8-8.7q-0.3 0-0.6 0c-2.8 0.3-4.7 2.3-4.5 3.9 0.1 1.7 3.5 4.8 14.7 4.5-1.3-2.8-4.7-8.4-9.6-8.4z"/>
			</g>
			<path id="&lt;Path&gt;" class="s7" d="m165.9 796.8h-79.1v-54.3h79.1z"/>
			<path id="&lt;Path&gt;" class="s12" d="m165.9 796.8h-79.1v-54.3h79.1z"/>
			<path id="&lt;Path&gt;" class="s13" d="m165.9 796.8h-79.1v-35.5h79.1z"/>
			<path id="&lt;Path&gt;" class="s14" d="m118.2 796.8h-31.4v-54.3h31.4z"/>
			<path id="&lt;Path&gt;" class="s7" d="m145.9 742.5h-6.4v54.3h6.4z"/>
			<path id="&lt;Path&gt;" class="s7" d="m102.6 796.8h-4.7v-54.3h4.7z"/>
		</g>
	</g>
	<g id="Character 4">
		<g id="&lt;Group&gt; 83 ">
			<path id="&lt;Path&gt;" class="s18" d="m712.1 358.3l3.4-9.5c0 0-0.4-4.7-1.7-7.9-1.3-3.2 8-12.2 8-12.2l9.7 12.6c0 0-6.1 8.5-7.3 9.5-1.2 1-2.4 0.7-2.4 0.7l-2.4 9.6z"/>
			<path id="&lt;Path&gt;" class="s15" d="m752.4 358.6c-3.9 0.4-23.4 24.6-29.9 24.1-6.4-0.5 0-27.2 0-27.2l-9.6-4c0 0-9.2 33.9 0 44.4 9.3 10.6 39.5-6.3 39.5-6.3z"/>
			<path id="&lt;Path&gt;" class="s10" d="m752.4 358.6v31c0 0-7.2 4-15.7 6.9-8.8 3-19 4.8-23.8-0.6-9.2-10.5 0-44.4 0-44.4l9.6 4.1c0 0-6.4 26.6 0 27.1 6.5 0.5 26-23.7 29.9-24.1z"/>
			<path id="&lt;Path&gt;" class="s9" d="m752.4 382v7.6c0 0-7.2 4-15.7 6.9 2.5-10.4 13.8-15 13.8-15q1 0.3 1.9 0.5z"/>
			<path id="&lt;Path&gt;" class="s15" d="m811.4 789.9h17.4c0.6 0 1.1 0.4 1.2 0.9l2.8 12.8c0.3 1.1-0.4 2.3-1.6 2.5q-0.2 0-0.4 0c-5.7-0.1-9.8-0.4-16.8-0.4-4.4 0-17.5 0.5-23.5 0.5-6 0-6.8-6-4.3-6.5 11-2.4 19.3-5.8 22.8-8.9 0.7-0.6 1.5-1 2.4-0.9z"/>
			<path id="&lt;Path&gt;" class="s15" d="m737.7 789.4h17.4c0.6 0 1.1 0.4 1.2 1l2.8 12.7c0.3 1.2-0.5 2.3-1.6 2.5q-0.2 0.1-0.5 0.1c-5.6-0.1-9.7-0.5-16.7-0.5-4.4 0-17.5 0.5-23.5 0.5-6 0-6.8-5.9-4.4-6.5 11.1-2.4 19.4-5.7 22.9-8.9 0.7-0.6 1.5-0.9 2.4-0.9z"/>
			<path id="&lt;Path&gt;" class="s19" d="m811.4 789.9h17.4c0.6 0 1.1 0.4 1.2 0.9l2.8 12.8c0.3 1.1-0.4 2.3-1.6 2.5q-0.2 0-0.4 0c-5.7-0.1-9.8-0.4-16.8-0.4-4.4 0-17.5 0.5-23.5 0.5-6 0-6.8-6-4.3-6.5 11-2.4 19.3-5.8 22.8-8.9 0.7-0.6 1.5-1 2.4-0.9z"/>
			<path id="&lt;Path&gt;" class="s19" d="m737.7 789.4h17.4c0.6 0 1.1 0.4 1.2 1l2.8 12.7c0.3 1.2-0.5 2.3-1.6 2.5q-0.2 0.1-0.5 0.1c-5.6-0.1-9.7-0.5-16.7-0.5-4.4 0-17.5 0.5-23.5 0.5-6 0-6.8-5.9-4.4-6.5 11.1-2.4 19.4-5.7 22.9-8.9 0.7-0.6 1.5-0.9 2.4-0.9z"/>
			<path id="&lt;Path&gt;" class="s7" d="m820.6 467.7h-75.9c-7.2 39.4-29.8 199.5-13.6 323.8h25.7c0 0-2.4-188.8 20.3-249.8 2.6 32.6 29.2 249.7 29.2 249.7h26.1c0 0-3.9-81.7-7.8-158.8-2.4-48.5-3.9-155-4-164.9z"/>
			<path id="&lt;Path&gt;" class="s9" d="m777.1 541.7c-3.3 9-6.1 20.2-8.5 32.8-2.1-29 6.4-59.8 6.4-59.8z"/>
			<path id="&lt;Path&gt;" class="s17" d="m744.1 468.6h76.4v9.1l-77.4-1z"/>
			<path id="&lt;Path&gt;" class="s7" d="m795.9 480.6h-2.7v-16.1h2.7z"/>
			<path id="&lt;Path&gt;" class="s7" d="m757.3 480.6h-2.8v-16.1h2.8z"/>
			<path id="&lt;Path&gt;" class="s2" d="m778.9 477.2h-14.1v-10.2h14.1z"/>
			<path id="&lt;Path&gt;" class="s15" d="m744.1 470h76.6c1.8-37.3 11.4-87.8 14.1-101.5 0.4-2-0.8-3.9-2.8-4.3-3.8-0.9-7.8-1.6-11.8-2.2-20.2-3.1-41.4-3.7-54.6-3.7-8.1 0-13.2 0.3-13.2 0.3-9.3 33.2-9.1 86.8-8.3 111.4z"/>
			<path id="&lt;Path&gt;" class="s8" d="m744.1 470h76.6c1-20.9 4.5-46.1 7.8-66.5 2.6-15.9 5.2-29 6.3-35q0.1-0.5 0.1-1c-0.1-1.6-1.2-3-2.9-3.3q-5.8-1.3-11.8-2.2c-20.2-3.1-41.4-3.7-54.6-3.7-8.1 0-13.2 0.3-13.2 0.3-9.3 33.2-9.1 86.8-8.3 111.4z"/>
			<path id="&lt;Path&gt;" class="s15" d="m777.5 394.2l43-32-0.3-0.2c-20.2-3.1-41.4-3.7-54.6-3.7z"/>
			<path id="&lt;Path&gt;" class="s18" d="m807.4 360.2c-6.6 5.9-22.7 3.7-22.7 3.7 0 0-10-2.7-7.9-5.9 5.9-0.9 8.8-3.7 10-7.2 0.7-2.1 0.8-4.4 0.6-6.8-0.1-1.2-0.3-2.5-0.5-3.8l19.9-14.7c-2.6 9.7-5.8 27.6 0.6 34.7z"/>
			<path id="&lt;Path&gt;" class="s9" d="m802.2 334.9c-0.8 11.9-10.6 15.2-15.4 15.9 0.7-2.1 0.8-4.4 0.6-6.8z"/>
			<path id="&lt;Path&gt;" class="s9" d="m809.3 406.4c6 3.3 13.8 0.2 19.2-2.9 2.6-15.9 5.2-29 6.3-35q0.1-0.5 0.1-1c-12.5 12.7-32.7 34.9-25.6 38.9z"/>
			<g id="&lt;Group&gt;">
				<path id="&lt;Path&gt;" class="s15" d="m779.1 293.1c0 0-7.6 17.3 0.1 26.8 7.7 9.4 16.7-24.1 16.7-24.1z"/>
				<path id="&lt;Path&gt;" class="s18" d="m806.1 338.6q-1.3 1.5-3 3c-6.4 5.4-14.4 5.1-20.4 1.3-3.9-2.5-6.9-6.4-8.1-11.2q-0.3-1-0.4-2c-0.3-1.5-0.4-3.2-0.4-4.9-0.3-12 3.9-27.5 15.8-31.1 9.6-3 19.9 2.4 22.9 12.1 0.9 2.7 1 5.6 0.6 8.5-1.7 11.2-2.4 18.5-7 24.3z"/>
				<path id="&lt;Path&gt;" class="s15" d="m792.5 316.1c0 1.1-0.8 1.9-1.5 1.9-0.7-0.1-1.2-1-1.1-2.1 0.1-1.1 0.8-1.9 1.5-1.9 0.7 0.1 1.2 1 1.1 2.1z"/>
				<path id="&lt;Path&gt;" class="s15" d="m780.2 315c0 1.1-0.7 1.9-1.4 1.8-0.7 0-1.2-1-1.2-2 0.1-1.1 0.8-2 1.5-1.9 0.7 0.1 1.2 1.1 1.1 2.1z"/>
				<path id="&lt;Path&gt;" class="s20" d="m784.1 315.9c-1.6 3.2-3.7 6.2-6.1 8.8 1.4 1.2 3.3 1.8 5.2 1.5z"/>
				<path id="&lt;Path&gt;" class="s15" d="m796.7 312.5c-0.3 0-0.5-0.1-0.6-0.3-0.9-1.4-2.3-2.3-3.9-2.5-0.4 0-0.6-0.3-0.6-0.7 0-0.3 0.3-0.6 0.6-0.6 2.1 0.2 3.9 1.4 4.9 3.1 0.2 0.3 0.2 0.7-0.1 0.9q0 0 0 0-0.2 0.1-0.3 0.1z"/>
				<path id="&lt;Path&gt;" class="s15" d="m775.3 310.3q-0.2 0-0.3 0c-0.3-0.2-0.4-0.6-0.3-0.9q0 0 0 0c1.1-1.8 2.9-3 5-3.2 0.3 0 0.6 0.3 0.6 0.7 0 0.3-0.3 0.6-0.6 0.6-1.6 0.2-3 1.2-3.9 2.6q-0.2 0.2-0.5 0.2z"/>
				<path id="&lt;Path&gt;" class="s15" d="m804.8 296.7l-1.5 5.8c1.8 1.3 2.6 3.6 1.4 5.8-2.6 4.6-0.9 12.6 2.5 16.2 0 0 0.4-2.1 2.1-1.3 1.7 0.7-0.3 11.7-4.6 16.5 0 0 6-4 10.6-15.2 4.3-10.4 5.9-19.3 4.3-23.8z"/>
				<path id="&lt;Path&gt;" class="s18" d="m819.1 326c-1.8 2.9-4.6 5-7.9 5.8-4.3 1-6.3-2.9-5-6.9 1.2-3.6 5-8.5 9.3-7.7 4.3 0.8 5.7 5.3 3.6 8.8z"/>
				<path id="&lt;Path&gt;" class="s15" d="m783 330.2c0.7 2.1 1.2 6.1 1.2 6.1q0.5 0 1.1 0c4.9 0.2 7.2-1.4 8.3-3.2 0.6-0.9 0.9-2 0.9-2.8 0.1-1-0.1-1.8-0.1-1.8-2.6 1.5-7.3 1.7-9.7 1.7-1.1 0-1.7 0-1.7 0z"/>
				<path id="&lt;Path&gt;" class="s2" d="m783.9 330.4l0.4 1.8c4.2 0.2 8.3-0.5 9.8-1.9 0.1-1-0.3-1.6-0.3-1.6-2.6 1.4-7.8 1.8-9.9 1.7z"/>
				<path id="&lt;Path&gt;" class="s21" d="m785.3 336.3c4.9 0.2 7.2-1.4 8.3-3.2-1.6 0.1-3.7 0.3-5.5 1-1.4 0.5-2.2 1.3-2.8 2.2z"/>
				<path id="&lt;Path&gt;" class="s15" d="m822.2 303.1c3.9-10.2-7.1-19.2-18.4-22.1-11.3-2.9-18.7 1.5-18.7 1.5 0 0-4.4-4.3-8.7-3.3-4.8 1.1-8.7 13.3 4.7 20.3 10 5.3 22.2 3 22.2 3 0 0 15.7 8.8 18.9 0.6z"/>
			</g>
			<g id="&lt;Group&gt;">
				<path id="&lt;Path&gt;" class="s7" d="m744.9 363.4q-1.2 0-2.3-0.3c-3-0.8-5.4-3-6.8-6.6-1.9-4.7-9.4-10.8-9.4-10.8l1.2-1.6c0.3 0.3 8 6.5 10.1 11.7 1.2 2.9 3 4.8 5.4 5.4 3.1 0.8 7.1-0.6 10.8-3.7 3.8-3.1 8.4-4.2 12.3-2.9 3.4 1.2 5.8 4 6.7 8l-2 0.5c-0.7-3.3-2.6-5.7-5.4-6.6-3.2-1.1-7.1-0.1-10.3 2.6-3.4 2.8-7 4.3-10.3 4.3z"/>
				<path id="&lt;Path&gt;" class="s7" d="m695.8 291l2.1 4.1 1.5 2.8 3.8 7.2 1.4 2.8 3.8 7.2 1.4 2.8 3.2 6.3-5.9 5.5-1.9-1.2-2.1-1.3-5.5-3.3-2-1.3-5.5-3.4-2.1-1.3-5.5-3.3-2-1.3-5.2-3.2z"/>
				<path id="&lt;Path&gt;" class="s15" d="m733.9 346.6l-5.9 5.5-20.9-22.4 5.9-5.5z"/>
				<path id="&lt;Path&gt;" class="s11" d="m690.8 295.7l-8.3 18.9-2-1.3 5.8-13.5z"/>
				<path id="&lt;Path&gt;" class="s11" d="m697.9 295.1l1.5 2.8-9.3 21.3-2.1-1.3z"/>
				<path id="&lt;Path&gt;" class="s11" d="m703.2 305.1l1.4 2.8-7 16-2-1.3z"/>
				<path id="&lt;Path&gt;" class="s11" d="m708.4 315.1l1.4 2.8-4.6 10.6-2.1-1.3z"/>
				<path id="&lt;Path&gt;" class="s10" d="m733.9 346.6l-5.9 5.5-20.9-22.4 5.9-5.5z"/>
			</g>
			<path id="&lt;Path&gt;" class="s18" d="m765 379l-5.9-10.8c0 0 0-6 0-5.8 0 0.3-10.2-7.2-13.4-8.8-3.2-1.5-6.1 10.6-5.8 12.7 0.3 2.2 10.7 6.5 10.7 6.5h2.1l5.7 8.7z"/>
			<path id="&lt;Path&gt;" class="s15" d="m834.8 367.6c2.8 16.7-20.4 52.6-42.8 50.3-22.5-2.3-37.5-39.1-37.5-39.1l10.3-7.5c0 0 12.6 36.9 28.2 30.7 15.7-6.2 25.2-31.4 31.9-36 6.7-4.5 9.9 1.6 9.9 1.6z"/>
			<path id="&lt;Path&gt;" class="s10" d="m834.8 367.6c2.8 16.7-20.4 52.6-42.8 50.3-22.5-2.3-37.5-39.1-37.5-39.1l10.3-7.5c0 0 12.6 36.9 28.2 30.7 15.7-6.2 25.2-31.4 31.9-36 6.7-4.5 9.9 1.6 9.9 1.6z"/>
		</g>
	</g>
	<g id="Character 3">
		<g id="&lt;Group&gt;">
			<path id="&lt;Path&gt;" class="s22" d="m579.7 549l-1.8 11.2c0 0-11.7 4.5-12.6 5.4-1 0.8-1 5.9 0.3 8 1.4 2.1 16.2-3.5 17.1-4.8 1-1.3-0.4-4.6-0.4-4.6l2.5-12.4z"/>
			<g id="&lt;Group&gt;">
				<path id="&lt;Path&gt;" class="s7" d="m560.9 457.8c-5.9 5.8 16.3 50.6 17.5 57.9 1.3 7.4-0.6 39.4-0.6 39.4l7.4 4.1c0 0 5.1-38.7 4.9-44.9-0.3-6.3-7.3-33.1-7.3-33.1 0 0 0.5-7.6-7-15.7-7.5-8-14.9-7.7-14.9-7.7z"/>
				<path id="&lt;Path&gt;" class="s12" d="m585.2 559.2l-7.4-4.1c0 0 1.9-32 0.6-39.3-1.2-7.4-23.4-52.2-17.5-58 0 0 2.1-0.1 5.3 1.1 2.7 1 6.1 2.9 9.6 6.6 7.5 8 7 15.7 7 15.7 0 0 3.1 11.9 5.3 21.7 1 4.9 1.9 9.3 2 11.4 0.2 6.2-4.9 44.9-4.9 44.9z"/>
				<path id="&lt;Path&gt;" class="s9" d="m588.1 502.9c-18.6-11-21.5-34.5-21.9-44 2.7 1 6.1 2.9 9.6 6.6 7.5 8 7 15.7 7 15.7 0 0 3.1 11.9 5.3 21.7z"/>
			</g>
			<path id="&lt;Path&gt;" class="s22" d="m604.8 521.5c0 0-17.3 99.8-21.7 140.8-5.8 53.5-31.3 131.9-31.3 131.9l10.7 2.6c0 0 36.6-66.9 43.1-126.7 29-61.4 30.4-136.5 30.4-136.5z"/>
			<path id="&lt;Path&gt;" class="s23" d="m532.3 818.6c1.7-0.8 3.5-1.3 5.4-1.5 0 0 6.5-3.9 12.8-19l7.3-0.1c2.5 0 4.8 1.5 5.7 3.9q0.2 0.5 0.2 1-0.1 2.7-0.5 5.3c-0.6 5.5-4 17.2-4 17.2l-1.3-0.3 2.1-10.9c0.7-3.7-3.1-0.1-4.9 3.7-1.7 3.7-4.4 7.5-12.5 5.8-9.4-2.1-13.2-3.4-10.3-5.1z"/>
			<path id="&lt;Path&gt;" class="s22" d="m624.2 519.6c0 0 3.8 101.3 7.9 142.3 5.4 53.5-3.4 135.5-3.4 135.5l11 0.3c0 0 22.1-72.9 16-132.8 15.7-66.1 1.5-139.9 1.5-139.9z"/>
			<path id="&lt;Path&gt;" class="s23" d="m611.9 820.8c1.7-1 3.4-1.7 5.3-2 0 0 6-4.6 10.7-20.3l7.2-0.9c2.5-0.3 4.9 1 6.1 3.3q0.2 0.4 0.3 1 0.2 2.6 0.1 5.2c0 5.5-2.2 17.6-2.2 17.6l-1.2-0.2 0.9-11c0.3-3.8-3.2 0.2-4.5 4.1-1.3 4-3.6 8-11.9 7.2-9.5-1-13.5-1.9-10.8-4z"/>
			<path id="&lt;Path&gt;" class="s22" d="m551.8 794.2c0 0-8.9 19.2-14.1 22.9 0 0 7.1 4.1 14.3-5.3 9.3-12.2 11.7-8.9 11.7-8.9 0 0-0.5-4.1-1.2-6.1-1.5-3.9-10.7-2.6-10.7-2.6z"/>
			<path id="&lt;Path&gt;" class="s22" d="m629.8 792.9c0 0-2.5 7.1-5.8 14.9-3.4 7.9-6.8 11-6.8 11 0 0 6 1.8 9.2-2 3.2-3.8 8.5-17.4 14.8-15.9 0 0-0.5-1.6-1.5-3.2-0.9-1.5-9.9-4.8-9.9-4.8z"/>
			<path id="&lt;Path&gt;" class="s23" d="m579.8 373.5c0 0-25.5-11.6-38.3 5-12.8 16.6 12.5 64.8 12.5 64.8l51.1-11.8c0 0-4-6.1-5.2-22.9-1.1-16.8-1.9-39.9-20.1-35.1z"/>
			<g id="&lt;Group&gt;">
				<path id="&lt;Path&gt;" class="s7" d="m600.7 525.7l-39.8-67.9 58.3-36.1 37 79.5z"/>
				<path id="&lt;Path&gt;" class="s11" d="m656.2 501.2l-55.5 24.5-39.8-67.9 58.3-36.1 12.9 27.7 10.8 23.3z"/>
			</g>
			<path id="&lt;Path&gt;" class="s22" d="m588.9 452c10.7-9.3 10.9-16.6 10.9-16.6-12.1-2.1-14-18.3-14-18.3l-12.3 12c1.9 2 3.4 3.9 4.5 5.5 5.8 8.5 2 11.1 2 11.1 0.6 6.3 8.9 6.3 8.9 6.3z"/>
			<path id="&lt;Path&gt;" class="s9" d="m573.5 429.1c1.9 2 3.4 3.9 4.5 5.5 9.5-6.3 7.8-17.5 7.8-17.5z"/>
			<g id="&lt;Group&gt;">
				<path id="&lt;Path&gt;" class="s22" d="m559.8 383.8c-13.9 4.7-15.8 13.7-11.9 28.4 4.8 18.3 13.1 29.7 29.2 19.9 21.9-13.2 5.8-56.2-17.3-48.3z"/>
				<path id="&lt;Path&gt;" class="s24" d="m556.6 408.3c0 0-0.7 4.3-2.1 7.2 0 0 1.9 1.5 4.2 0.3z"/>
				<g id="&lt;Group&gt;">
					<path id="&lt;Path&gt;" class="s23" d="m564.7 404.3c0.4 1.1 1.3 1.9 2.1 1.6 0.7-0.2 1.1-1.3 0.7-2.5-0.4-1.1-1.3-1.9-2-1.6-0.8 0.2-1.1 1.3-0.8 2.5z"/>
					<path id="&lt;Path&gt;" class="s23" d="m565.8 401.7l-2.8-0.2c0 0 1.9 1.7 2.8 0.2z"/>
				</g>
				<g id="&lt;Group&gt;">
					<path id="&lt;Path&gt;" class="s23" d="m550.3 408.6c0.4 1.1 1.3 1.9 2.1 1.6 0.7-0.2 1.1-1.3 0.7-2.5-0.4-1.1-1.3-1.9-2-1.6-0.8 0.2-1.1 1.3-0.8 2.5z"/>
					<path id="&lt;Path&gt;" class="s23" d="m551.4 406l-2.8-0.2c0 0 1.9 1.7 2.8 0.2z"/>
				</g>
				<path id="&lt;Path&gt;" class="s23" d="m568.3 395.6q-0.2 0-0.4-0.1c-2.5-1.8-6-0.4-6-0.4-0.4 0.1-0.8 0-1-0.4-0.1-0.4 0-0.8 0.4-1 0.2 0 4.3-1.7 7.4 0.6 0.4 0.3 0.4 0.7 0.2 1-0.1 0.2-0.4 0.3-0.6 0.3z"/>
				<path id="&lt;Path&gt;" class="s23" d="m546.3 401.6q-0.1 0-0.3-0.1c-0.4-0.2-0.5-0.7-0.3-1 2.2-3.7 5.2-4 5.3-4 0.4-0.1 0.8 0.2 0.8 0.6 0 0.4-0.2 0.8-0.6 0.8-0.2 0-2.5 0.3-4.2 3.3-0.2 0.2-0.4 0.4-0.7 0.4z"/>
				<path id="&lt;Path&gt;" class="s23" d="m583 402c0 0-10.4-9.2-12.4-18.3 0 0-31.4-1.9-23.2 26.6 0 0-11.2-24 12.5-32.7 23.7-8.7 35.6 26.3 26.8 41 0 0 2.8-10.8-3.7-16.6z"/>
				<path id="&lt;Path&gt;" class="s22" d="m581.8 405.7c-0.7-2.2 0.3-6.8 4.6-7.8 4.5-1 9.6 7.2-0.4 13-1.4 0.8-2.8-0.4-4.2-5.2z"/>
				<path id="&lt;Path&gt;" class="s23" d="m558.6 422.8c0.5 1.2 0.3 2.4-0.5 2.8-0.8 0.4-1.9-0.2-2.5-1.4-0.5-1.1-0.3-2.3 0.6-2.7 0.8-0.4 1.9 0.2 2.4 1.3z"/>
				<path id="&lt;Path&gt;" class="s15" d="m609.9 415.9c-13.9 0-20.8-12.7-26.4-22.8-3.3-6-6.1-11.1-9.4-11.6-0.3 0-0.5-0.3-0.4-0.5 0-0.3 0.3-0.5 0.5-0.5 3.8 0.5 6.6 5.6 10.2 12.1 5.4 9.9 12.2 22.3 25.5 22.3 0.3 0 0.5 0.2 0.5 0.5 0 0.2-0.2 0.5-0.5 0.5z"/>
				<path id="&lt;Path&gt;" class="s15" d="m540.3 420.9c-0.2 0-0.4-0.2-0.5-0.4-9.7-33.7 2.2-41 2.7-41.3 0.2-0.1 0.5-0.1 0.7 0.2 0.1 0.2 0 0.5-0.2 0.7-0.1 0-11.7 7.3-2.2 40.1 0.1 0.3-0.1 0.6-0.3 0.7q-0.1 0-0.2 0z"/>
			</g>
			<path id="&lt;Path&gt;" class="s7" d="m575 441.5l19.5-16c4.3 5.4 10.5 5 10.5 5 0 0-2.6 21-13.2 24.5-10.6 3.4-17.6-5.4-17.6-5.4 0 0 3.1-5.6 0.8-8.1z"/>
			<path id="&lt;Path&gt;" class="s12" d="m575 441.5l19.5-16c4.3 5.4 10.5 5 10.5 5 0 0-2.6 21-13.2 24.5-10.6 3.4-17.6-5.4-17.6-5.4 0 0 3.1-5.6 0.8-8.1z"/>
			<path id="&lt;Path&gt;" class="s7" d="m596.2 519.6l-17.3 127.1c0 0 36.1 12.2 99.1 1.1 0 0 8.7-76.6-18-135.2l-3.8-7.7z"/>
			<g id="&lt;Group&gt;">
				<path id="&lt;Path&gt;" class="s23" d="m593.9 513.8l1.3 11.3 64.8-12.5-4-11.4z"/>
				<path id="&lt;Compound Path&gt;" fill-rule="evenodd" class="s2" d="m625.8 519.9c-1.4 0.3-16.9 4.2-17.8 3.4-0.9-0.9-2.2-12.1-2.2-12.1 1-1.7 17.4-4.6 18.2-4.1 0.9 0.6 3.3 12.5 1.8 12.8zm-3.2-11.3c-0.7-0.5-14.1 2-14.9 3.3 0 0 1 9.3 1.7 9.9 0.8 0.7 13.5-2.5 14.7-2.7 1.2-0.3-0.8-10.1-1.5-10.5z"/>
				<path id="&lt;Path&gt;" class="s2" d="m621.9 512l-3.3 0.6c-0.6 0.2-1 0.7-0.9 1.3v0.1c0.1 0.7 0.7 1.2 1.4 1.1l3.2-0.7c0.7-0.2 1.1-0.8 1-1.5-0.2-0.6-0.8-1-1.4-0.9z"/>
			</g>
			<g id="&lt;Group&gt;">
				<path id="&lt;Path&gt;" class="s15" d="m527.6 431c-1 0-1.9-0.2-2.5-0.6-1.6-0.9-1.8-2.1-1.8-2.7 0.1-1.1 0.9-2.2 2-2.7 1-0.5 2.1-0.5 2.9 0.1q1.3 1 1.2 2c0 1.2-1.1 1.9-1.2 1.9-0.2 0.2-0.5 0.1-0.7-0.1-0.1-0.3-0.1-0.6 0.2-0.7 0.2-0.1 0.7-0.6 0.7-1.1q0.1-0.6-0.8-1.2c-0.7-0.5-1.5-0.2-1.9 0-0.8 0.3-1.3 1.1-1.4 1.8 0 0.7 0.4 1.4 1.3 1.9 2.9 1.7 12.7-2.5 16.2-4.2 0.3-0.1 0.6 0 0.7 0.2 0.1 0.3 0 0.6-0.2 0.7-0.5 0.2-9.5 4.7-14.7 4.7z"/>
				<path id="&lt;Path&gt;" class="s15" d="m533.1 440.2c-0.5 0-1.1-0.1-1.6-0.3-1.2-0.6-1.8-1.7-1.7-3 0.4-3.7 12-8.1 13.4-8.6 0.2-0.1 0.5 0.1 0.6 0.3 0.1 0.3 0 0.6-0.3 0.7-4.8 1.7-12.4 5.4-12.7 7.7-0.1 1.2 0.7 1.8 1.1 2 0.9 0.4 1.8 0.3 2.2-0.1 0.1 0 0.3-0.3 0-0.8-0.1-0.3 0-0.6 0.3-0.7 0.2-0.1 0.5 0 0.6 0.3 0.4 0.7 0.3 1.5-0.2 2-0.4 0.3-1 0.5-1.7 0.5z"/>
				<path id="&lt;Path&gt;" class="s15" d="m522.1 436.7c-0.7 0-1.4-0.2-2-0.5-1.3-0.8-1.3-1.6-1.2-2.1 0.3-1.1 1.8-1.9 2.9-1.9 0.8 0 1.2 0.3 1.4 0.9 0.1 0.2-0.1 0.5-0.3 0.6-0.3 0.1-0.6-0.1-0.7-0.4 0-0.1-0.2-0.1-0.4-0.1-0.7 0-1.7 0.6-1.9 1.2q-0.1 0.4 0.7 0.9c2.7 1.5 7.9-2.3 8-2.3 0.2-0.2 0.5-0.1 0.7 0.1 0.1 0.2 0.1 0.5-0.1 0.7-0.2 0.1-3.9 2.9-7.1 2.9z"/>
			</g>
			<path id="&lt;Path&gt;" class="s15" d="m606.9 423.1q-0.2 0-0.3-0.1c-4.6-3.1-6-11.8-7.5-21-1.1-7-2.3-14.2-4.9-19.7-0.1-0.3 0-0.6 0.2-0.7 0.3-0.1 0.6 0 0.7 0.2 2.7 5.7 3.9 13 5 20.1 1.4 8.9 2.8 17.4 7 20.3 0.3 0.1 0.3 0.4 0.2 0.7q-0.2 0.2-0.4 0.2z"/>
			<path id="&lt;Path&gt;" class="s9" d="m642.9 472.7c-16.1-9.1-19.6-29.4-19.6-29.4 0 0 3.7 2.5 8.8 6.1z"/>
			<path id="&lt;Path&gt;" class="s22" d="m691.6 482.2l10.6 3.8c0 0 9.6-8 10.8-8.4 1.2-0.4 5.7 2 6.9 4.2 1.2 2.2-10.9 12.4-12.5 12.6-1.6 0.2-3.8-2.5-3.8-2.5l-12-3.9z"/>
			<g id="&lt;Group&gt;">
				<path id="&lt;Path&gt;" class="s7" d="m619.2 421.7c7.9-2.3 38.1 38.6 43.9 43.2 5.8 4.6 34.7 18.5 34.7 18.5v8.5c0 0-36.3-14.3-41.6-17.5-5.4-3.2-25.4-22.5-25.4-22.5 0 0-6.9-3.2-10.3-13.7-3.4-10.4-1.3-16.5-1.3-16.5z"/>
				<path id="&lt;Path&gt;" class="s12" d="m619.2 421.7c7.9-2.3 38.1 38.6 43.9 43.2 5.8 4.6 34.7 18.5 34.7 18.5v8.5c0 0-36.3-14.3-41.6-17.5-5.4-3.2-25.4-22.5-25.4-22.5 0 0-6.9-3.2-10.3-13.7-3.4-10.4-1.3-16.5-1.3-16.5z"/>
			</g>
		</g>
	</g>
	<g id="Character 2">
		<g id="&lt;Group&gt; 1 ">
			<path id="&lt;Path&gt;" class="s25" d="m442.7 477.2l12.3 11.7c0 0 3.6-0.8 5.5-0.9 1.9 0 10.2 17.8 10.5 18.7 0.2 1-12.1 2-13.9 1.2-1.7-0.8-7.3-8.8-7.8-9.4-0.4-0.6 0.3-4.4 0-5.2-0.3-0.8-10.4-6.9-10.4-6.9z"/>
			<g id="&lt;Group&gt;">
				<path id="&lt;Path&gt;" class="s7" d="m433.5 449.2l3.5 4.3-5.7 4.6-2.8-5.4z"/>
				<path id="&lt;Path&gt;" class="s19" d="m433.5 449.2l3.5 4.3-5.7 4.6-2.8-5.4z"/>
				<path id="&lt;Path&gt;" class="s7" d="m430.2 406.7c0 0-0.8 31.1 3.5 38.2 4.2 7-4 9-5.9 8.6-1.9-0.5-9.1-17.6-7.8-29.9 1.4-12.3 10.2-16.9 10.2-16.9z"/>
				<path id="&lt;Path&gt;" class="s12" d="m430.2 406.7c0 0-0.8 31.1 3.5 38.2 4.2 7-4 9-5.9 8.6-1.9-0.5-9.1-17.6-7.8-29.9 1.4-12.3 10.2-16.9 10.2-16.9z"/>
			</g>
			<g id="&lt;Group&gt;">
				<path id="&lt;Path&gt;" class="s7" d="m418 426c-0.1 7.5 0 13.7 0.7 16.6 2.6 9.7 33.3 38.7 33.3 38.7l-7.8 10.2c0 0-32.6-22.7-39.4-35.6-4.9-9.5-9.3-28.2-11.4-37.7z"/>
				<path id="&lt;Path&gt;" class="s9" d="m418 426c-0.1 7.5 0 13.7 0.7 16.6 2.6 9.7 33.3 38.7 33.3 38.7l-7.8 10.2c0 0-32.6-22.7-39.4-35.6-4.9-9.5-9.3-28.2-11.4-37.7z"/>
			</g>
			<g id="&lt;Group&gt;">
				<g id="&lt;Group&gt;">
					<g id="&lt;Group&gt;">
						<path id="&lt;Path&gt;" class="s15" d="m466.8 443.7h-0.5v-4.7h0.5z"/>
						<path id="&lt;Path&gt;" class="s7" d="m463.9 432.5c0 0 8 7.7 2.7 7.7-5.3 0-2.7-7.7-2.7-7.7z"/>
						<path id="&lt;Path&gt;" class="s11" d="m465.2 435.9c0 0 3.8 3.5 1.1 3.5-2.7 0-1.1-3.5-1.1-3.5z"/>
						<path id="&lt;Path&gt;" class="s7" d="m468.8 442.5v17.9h-4.3v-17.9z"/>
						<g id="&lt;Group&gt;">
							<path id="&lt;Path&gt;" class="s11" d="m468.8 456.3v1.4l-4.1 2.7h-0.2v-1.3z"/>
							<path id="&lt;Path&gt;" class="s11" d="m468.8 452.4v1.4l-4.3 2.8v-1.4z"/>
							<path id="&lt;Path&gt;" class="s11" d="m468.8 448.5v1.5l-4.3 2.7v-1.4z"/>
							<path id="&lt;Path&gt;" class="s11" d="m468.8 444.6v1.5l-4.3 2.7v-1.4z"/>
							<path id="&lt;Path&gt;" class="s11" d="m468.3 442.5l-3.8 2.4v-1.4l1.6-1z"/>
						</g>
					</g>
					<g id="&lt;Group&gt;">
						<path id="&lt;Path&gt;" class="s15" d="m517.2 443.7h-0.5v-4.7h0.5z"/>
						<path id="&lt;Path&gt;" class="s7" d="m514.2 432.5c0 0 8.1 7.7 2.7 7.7-5.3 0-2.7-7.7-2.7-7.7z"/>
						<path id="&lt;Path&gt;" class="s11" d="m515.6 435.9c0 0 3.8 3.5 1 3.5-2.7 0-1-3.5-1-3.5z"/>
						<path id="&lt;Path&gt;" class="s7" d="m519.2 442.5v17.9h-4.3v-17.9z"/>
						<g id="&lt;Group&gt;">
							<path id="&lt;Path&gt;" class="s11" d="m519.2 456.3v1.4l-4.1 2.7h-0.2v-1.3z"/>
							<path id="&lt;Path&gt;" class="s11" d="m519.2 452.4v1.4l-4.3 2.8v-1.4z"/>
							<path id="&lt;Path&gt;" class="s11" d="m519.2 448.5v1.5l-4.3 2.7v-1.4z"/>
							<path id="&lt;Path&gt;" class="s11" d="m519.2 444.6v1.5l-4.3 2.7v-1.4z"/>
							<path id="&lt;Path&gt;" class="s11" d="m518.7 442.5l-3.8 2.4v-1.4l1.6-1z"/>
						</g>
					</g>
					<g id="&lt;Group&gt;">
						<path id="&lt;Path&gt;" class="s15" d="m492 443.7h-0.5v-4.7h0.5z"/>
						<path id="&lt;Path&gt;" class="s7" d="m489.1 432.5c0 0 8 7.7 2.7 7.7-5.4 0-2.7-7.7-2.7-7.7z"/>
						<path id="&lt;Path&gt;" class="s11" d="m490.4 435.9c0 0 3.8 3.5 1.1 3.5-2.8 0-1.1-3.5-1.1-3.5z"/>
						<path id="&lt;Path&gt;" class="s7" d="m494 442.5v17.9h-4.3v-17.9z"/>
						<g id="&lt;Group&gt;">
							<path id="&lt;Path&gt;" class="s11" d="m494 456.3v1.4l-4.1 2.7h-0.2v-1.3z"/>
							<path id="&lt;Path&gt;" class="s11" d="m494 452.4v1.4l-4.3 2.8v-1.4z"/>
							<path id="&lt;Path&gt;" class="s11" d="m494 448.5v1.5l-4.3 2.7v-1.4z"/>
							<path id="&lt;Path&gt;" class="s11" d="m494 444.6v1.5l-4.3 2.7v-1.4z"/>
							<path id="&lt;Path&gt;" class="s11" d="m493.5 442.5l-3.8 2.4v-1.4l1.6-1z"/>
						</g>
					</g>
					<g id="&lt;Group&gt;">
						<path id="&lt;Path&gt;" class="s7" d="m496.6 456.9c-1.4 0-2.5 0.9-3.1 2-0.5-1.1-1.7-2-3.1-2-1.3 0-2.5 0.9-3.1 2-0.5-1.1-1.7-2-3-2-1.4 0-2.6 0.9-3.1 2-0.6-1.1-1.7-2-3.1-2-1.4 0-2.6 0.9-3.1 2-0.6-1.1-1.7-2-3.1-2-1.4 0-2.6 0.9-3.1 2-0.5-1.1-1.7-2-3.1-2-1.4 0-2.5 0.9-3.1 2-0.5-1.1-1.7-2-3.1-2-1.9 0-3.4 1.6-3.4 3.5 0 1.9 1.5 3.4 3.4 3.4 1.4 0 2.6-0.8 3.1-2 0.6 1.2 1.7 2 3.1 2 1.4 0 2.6-0.8 3.1-2 0.5 1.2 1.7 2 3.1 2 1.4 0 2.5-0.8 3.1-2 0.5 1.2 1.7 2 3.1 2 1.4 0 2.5-0.8 3.1-2 0.5 1.2 1.7 2 3.1 2 1.3 0 2.5-0.8 3-2 0.6 1.2 1.8 2 3.1 2 1.4 0 2.6-0.8 3.1-2 0.6 1.2 1.7 2 3.1 2 1.9 0 3.4-1.5 3.4-3.4 0-1.9-1.5-3.5-3.4-3.5z"/>
						<path id="&lt;Path&gt;" class="s11" d="m496.6 456.9c-1.4 0-2.5 0.9-3.1 2-0.5-1.1-1.7-2-3.1-2-1.3 0-2.5 0.9-3.1 2-0.5-1.1-1.7-2-3-2-1.4 0-2.6 0.9-3.1 2-0.6-1.1-1.7-2-3.1-2-1.4 0-2.6 0.9-3.1 2-0.6-1.1-1.7-2-3.1-2-1.4 0-2.6 0.9-3.1 2-0.5-1.1-1.7-2-3.1-2-1.4 0-2.5 0.9-3.1 2-0.5-1.1-1.7-2-3.1-2-1.9 0-3.4 1.6-3.4 3.5 0 1.9 1.5 3.4 3.4 3.4 1.4 0 2.6-0.8 3.1-2 0.6 1.2 1.7 2 3.1 2 1.4 0 2.6-0.8 3.1-2 0.5 1.2 1.7 2 3.1 2 1.4 0 2.5-0.8 3.1-2 0.5 1.2 1.7 2 3.1 2 1.4 0 2.5-0.8 3.1-2 0.5 1.2 1.7 2 3.1 2 1.3 0 2.5-0.8 3-2 0.6 1.2 1.8 2 3.1 2 1.4 0 2.6-0.8 3.1-2 0.6 1.2 1.7 2 3.1 2 1.9 0 3.4-1.5 3.4-3.4 0-1.9-1.5-3.5-3.4-3.5z"/>
					</g>
					<g id="&lt;Group&gt;">
						<path id="&lt;Path&gt;" class="s7" d="m524.6 456.9c-1.4 0-2.5 0.9-3.1 2-0.5-1.1-1.7-2-3.1-2-1.4 0-2.5 0.9-3.1 2-0.5-1.1-1.7-2-3.1-2-1.3 0-2.5 0.9-3.1 2-0.5-1.1-1.7-2-3-2-1.4 0-2.6 0.9-3.1 2-0.6-1.1-1.8-2-3.1-2-1.4 0-2.6 0.9-3.1 2-0.6-1.1-1.7-2-3.1-2-1.4 0-2.6 0.9-3.1 2-0.5-1.1-1.7-2-3.1-2-1.9 0-3.4 1.6-3.4 3.5 0 1.9 1.5 3.4 3.4 3.4 1.4 0 2.6-0.8 3.1-2 0.5 1.2 1.7 2 3.1 2 1.4 0 2.5-0.8 3.1-2 0.5 1.2 1.7 2 3.1 2 1.3 0 2.5-0.8 3.1-2 0.5 1.2 1.7 2 3.1 2 1.3 0 2.5-0.8 3-2 0.6 1.2 1.8 2 3.1 2 1.4 0 2.6-0.8 3.1-2 0.6 1.2 1.7 2 3.1 2 1.4 0 2.6-0.8 3.1-2 0.6 1.2 1.7 2 3.1 2 1.9 0 3.4-1.5 3.4-3.4 0-1.9-1.5-3.5-3.4-3.5z"/>
						<path id="&lt;Path&gt;" class="s11" d="m524.6 456.9c-1.4 0-2.5 0.9-3.1 2-0.5-1.1-1.7-2-3.1-2-1.4 0-2.5 0.9-3.1 2-0.5-1.1-1.7-2-3.1-2-1.3 0-2.5 0.9-3.1 2-0.5-1.1-1.7-2-3-2-1.4 0-2.6 0.9-3.1 2-0.6-1.1-1.8-2-3.1-2-1.4 0-2.6 0.9-3.1 2-0.6-1.1-1.7-2-3.1-2-1.4 0-2.6 0.9-3.1 2-0.5-1.1-1.7-2-3.1-2-1.9 0-3.4 1.6-3.4 3.5 0 1.9 1.5 3.4 3.4 3.4 1.4 0 2.6-0.8 3.1-2 0.5 1.2 1.7 2 3.1 2 1.4 0 2.5-0.8 3.1-2 0.5 1.2 1.7 2 3.1 2 1.3 0 2.5-0.8 3.1-2 0.5 1.2 1.7 2 3.1 2 1.3 0 2.5-0.8 3-2 0.6 1.2 1.8 2 3.1 2 1.4 0 2.6-0.8 3.1-2 0.6 1.2 1.7 2 3.1 2 1.4 0 2.6-0.8 3.1-2 0.6 1.2 1.7 2 3.1 2 1.9 0 3.4-1.5 3.4-3.4 0-1.9-1.5-3.5-3.4-3.5z"/>
					</g>
					<g id="&lt;Group&gt;">
						<path id="&lt;Path&gt;" class="s7" d="m536.4 501.7h-89.3v-37h89.3z"/>
						<path id="&lt;Path&gt;" class="s11" d="m536.4 501.7h-89.3v-37h89.3z"/>
					</g>
					<g id="&lt;Group&gt;">
						<path id="&lt;Path&gt;" class="s7" d="m453.2 476.2c1.9-1.9 5-1.9 7 0 1.9 1.9 5.1 1.9 7 0 1.9-1.9 5.1-1.9 7 0 2 1.9 5.1 1.9 7 0 2-1.9 5.1-1.9 7.1 0 1.9 1.9 5 1.9 7 0 1.9-1.9 5-1.9 7 0 1.9 1.9 5.1 1.9 7 0 1.9-1.9 5.1-1.9 7 0 2 1.9 5.1 1.9 7 0 2-1.9 5.1-1.9 7.1 0 1.9 1.9 5 1.9 7 0l0.6-0.6c0.9-1 1.4-2.2 1.4-3.5v-7.6c0-1.3-1-2.4-2.4-2.4h-90.5c-1.3 0-2.4 1.1-2.4 2.4v7.6c0 1.3 0.5 2.5 1.4 3.5l0.7 0.6c1.9 1.9 5 1.9 7 0z"/>
						<path id="&lt;Path&gt;" class="s10" d="m453.2 476.2c1.9-1.9 5-1.9 7 0 1.9 1.9 5.1 1.9 7 0 1.9-1.9 5.1-1.9 7 0 2 1.9 5.1 1.9 7 0 2-1.9 5.1-1.9 7.1 0 1.9 1.9 5 1.9 7 0 1.9-1.9 5-1.9 7 0 1.9 1.9 5.1 1.9 7 0 1.9-1.9 5.1-1.9 7 0 2 1.9 5.1 1.9 7 0 2-1.9 5.1-1.9 7.1 0 1.9 1.9 5 1.9 7 0l0.6-0.6c0.9-1 1.4-2.2 1.4-3.5v-7.6c0-1.3-1-2.4-2.4-2.4h-90.5c-1.3 0-2.4 1.1-2.4 2.4v7.6c0 1.3 0.5 2.5 1.4 3.5l0.7 0.6c1.9 1.9 5 1.9 7 0z"/>
					</g>
					<g id="&lt;Group&gt;">
						<path id="&lt;Path&gt;" class="s7" d="m535.3 494.5c-1.3 0-2.5 0.8-3.1 1.9-0.6-1.1-1.7-1.9-3.1-1.9-1.3 0-2.5 0.8-3.1 1.9-0.6-1.1-1.7-1.9-3.1-1.9-1.4 0-2.5 0.8-3.1 1.9-0.6-1.1-1.8-1.9-3.1-1.9-1.4 0-2.5 0.8-3.1 1.9-0.7-1.1-1.8-1.9-3.2-1.9-1.3 0-2.5 0.8-3.1 1.9-0.6-1.1-1.7-1.9-3.1-1.9-1.3 0-2.5 0.8-3.1 1.9-0.6-1.1-1.8-1.9-3.1-1.9-1.4 0-2.5 0.8-3.1 1.9-0.6-1.1-1.8-1.9-3.1-1.9-1.4 0-2.5 0.8-3.1 1.9-0.7-1.1-1.8-1.9-3.2-1.9-1.3 0-2.5 0.8-3.1 1.9-0.6-1.1-1.7-1.9-3.1-1.9-1.3 0-2.5 0.8-3.1 1.9-0.6-1.1-1.8-1.9-3.1-1.9-1.4 0-2.5 0.8-3.1 1.9-0.6-1.1-1.8-1.9-3.1-1.9-1.4 0-2.5 0.8-3.2 1.9-0.6-1.1-1.7-1.9-3.1-1.9-1.3 0-2.5 0.8-3.1 1.9-0.6-1.1-1.7-1.9-3.1-1.9-1.3 0-2.5 0.8-3.1 1.9-0.6-1.1-1.8-1.9-3.1-1.9-2 0-3.6 1.6-3.6 3.6 0 2 1.6 3.6 3.6 3.6 1.3 0 2.5-0.8 3.1-1.9 0.6 1.1 1.8 1.9 3.1 1.9 1.4 0 2.5-0.8 3.1-1.9 0.6 1.1 1.8 1.9 3.1 1.9 1.4 0 2.5-0.8 3.1-1.9 0.7 1.1 1.8 1.9 3.2 1.9 1.3 0 2.5-0.8 3.1-1.9 0.6 1.1 1.7 1.9 3.1 1.9 1.3 0 2.5-0.8 3.1-1.9 0.6 1.1 1.8 1.9 3.1 1.9 1.4 0 2.5-0.8 3.1-1.9 0.6 1.1 1.8 1.9 3.1 1.9 1.4 0 2.5-0.8 3.2-1.9 0.6 1.1 1.7 1.9 3.1 1.9 1.3 0 2.5-0.8 3.1-1.9 0.6 1.1 1.7 1.9 3.1 1.9 1.3 0 2.5-0.8 3.1-1.9 0.6 1.1 1.8 1.9 3.1 1.9 1.4 0 2.5-0.8 3.1-1.9 0.6 1.1 1.8 1.9 3.1 1.9 1.4 0 2.5-0.8 3.2-1.9 0.6 1.1 1.7 1.9 3.1 1.9 1.3 0 2.5-0.8 3.1-1.9 0.6 1.1 1.7 1.9 3.1 1.9 1.4 0 2.5-0.8 3.1-1.9 0.6 1.1 1.8 1.9 3.1 1.9 1.4 0 2.5-0.8 3.1-1.9 0.6 1.1 1.8 1.9 3.1 1.9 2 0 3.6-1.6 3.6-3.6 0-2-1.6-3.6-3.6-3.6z"/>
						<path id="&lt;Path&gt;" class="s10" d="m535.3 494.5c-1.3 0-2.5 0.8-3.1 1.9-0.6-1.1-1.7-1.9-3.1-1.9-1.3 0-2.5 0.8-3.1 1.9-0.6-1.1-1.7-1.9-3.1-1.9-1.4 0-2.5 0.8-3.1 1.9-0.6-1.1-1.8-1.9-3.1-1.9-1.4 0-2.5 0.8-3.1 1.9-0.7-1.1-1.8-1.9-3.2-1.9-1.3 0-2.5 0.8-3.1 1.9-0.6-1.1-1.7-1.9-3.1-1.9-1.3 0-2.5 0.8-3.1 1.9-0.6-1.1-1.8-1.9-3.1-1.9-1.4 0-2.5 0.8-3.1 1.9-0.6-1.1-1.8-1.9-3.1-1.9-1.4 0-2.5 0.8-3.1 1.9-0.7-1.1-1.8-1.9-3.2-1.9-1.3 0-2.5 0.8-3.1 1.9-0.6-1.1-1.7-1.9-3.1-1.9-1.3 0-2.5 0.8-3.1 1.9-0.6-1.1-1.8-1.9-3.1-1.9-1.4 0-2.5 0.8-3.1 1.9-0.6-1.1-1.8-1.9-3.1-1.9-1.4 0-2.5 0.8-3.2 1.9-0.6-1.1-1.7-1.9-3.1-1.9-1.3 0-2.5 0.8-3.1 1.9-0.6-1.1-1.7-1.9-3.1-1.9-1.3 0-2.5 0.8-3.1 1.9-0.6-1.1-1.8-1.9-3.1-1.9-2 0-3.6 1.6-3.6 3.6 0 2 1.6 3.6 3.6 3.6 1.3 0 2.5-0.8 3.1-1.9 0.6 1.1 1.8 1.9 3.1 1.9 1.4 0 2.5-0.8 3.1-1.9 0.6 1.1 1.8 1.9 3.1 1.9 1.4 0 2.5-0.8 3.1-1.9 0.7 1.1 1.8 1.9 3.2 1.9 1.3 0 2.5-0.8 3.1-1.9 0.6 1.1 1.7 1.9 3.1 1.9 1.3 0 2.5-0.8 3.1-1.9 0.6 1.1 1.8 1.9 3.1 1.9 1.4 0 2.5-0.8 3.1-1.9 0.6 1.1 1.8 1.9 3.1 1.9 1.4 0 2.5-0.8 3.2-1.9 0.6 1.1 1.7 1.9 3.1 1.9 1.3 0 2.5-0.8 3.1-1.9 0.6 1.1 1.7 1.9 3.1 1.9 1.3 0 2.5-0.8 3.1-1.9 0.6 1.1 1.8 1.9 3.1 1.9 1.4 0 2.5-0.8 3.1-1.9 0.6 1.1 1.8 1.9 3.1 1.9 1.4 0 2.5-0.8 3.2-1.9 0.6 1.1 1.7 1.9 3.1 1.9 1.3 0 2.5-0.8 3.1-1.9 0.6 1.1 1.7 1.9 3.1 1.9 1.4 0 2.5-0.8 3.1-1.9 0.6 1.1 1.8 1.9 3.1 1.9 1.4 0 2.5-0.8 3.1-1.9 0.6 1.1 1.8 1.9 3.1 1.9 2 0 3.6-1.6 3.6-3.6 0-2-1.6-3.6-3.6-3.6z"/>
					</g>
					<g id="&lt;Group&gt;">
						<g id="&lt;Group&gt;">
							<g id="&lt;Group&gt;">
								<path id="&lt;Path&gt;" class="s7" d="m454.8 488.7c-0.2 0-0.4-0.1-0.6-0.4l-2.2-3.8c-0.2-0.4-0.1-0.8 0.3-1 0.3-0.2 0.7-0.1 0.9 0.3l2.2 3.8c0.2 0.4 0.1 0.8-0.2 1q-0.2 0.1-0.4 0.1z"/>
							</g>
							<g id="&lt;Group&gt;">
								<path id="&lt;Path&gt;" class="s7" d="m457.8 484q-0.2 0-0.4-0.2c-0.3-0.2-0.4-0.6-0.1-0.9l1.9-2.6c0.2-0.3 0.6-0.4 0.9-0.2 0.4 0.3 0.4 0.7 0.2 1l-1.9 2.6c-0.2 0.2-0.4 0.3-0.6 0.3z"/>
							</g>
							<g id="&lt;Group&gt;">
								<path id="&lt;Path&gt;" class="s7" d="m463 486.8c-0.3 0-0.5-0.2-0.6-0.4l-1.2-1.9c-0.2-0.3-0.1-0.8 0.2-1 0.3-0.2 0.7-0.1 0.9 0.2l1.2 2c0.3 0.3 0.1 0.7-0.2 0.9q-0.2 0.2-0.3 0.2z"/>
							</g>
							<g id="&lt;Group&gt;">
								<path id="&lt;Path&gt;" class="s7" d="m452.6 479.7q0 0-0.1-0.1l-2.9-0.5c-0.3-0.1-0.6-0.5-0.5-0.8 0.1-0.4 0.4-0.7 0.8-0.6l2.9 0.6c0.3 0 0.6 0.4 0.5 0.8-0.1 0.3-0.3 0.6-0.7 0.6z"/>
							</g>
							<g id="&lt;Group&gt;">
								<path id="&lt;Path&gt;" class="s7" d="m449.8 486.8c-0.3 0-0.6-0.2-0.7-0.5l-1.1-3.2c-0.1-0.4 0.1-0.8 0.4-0.9 0.4-0.2 0.8 0 0.9 0.4l1.1 3.2c0.2 0.4 0 0.8-0.4 0.9q-0.1 0.1-0.2 0.1z"/>
							</g>
							<g id="&lt;Group&gt;">
								<path id="&lt;Path&gt;" class="s7" d="m447.1 490.6c-0.2 0-0.5-0.1-0.6-0.4-0.2-0.3 0-0.7 0.3-0.9l2.7-1.2c0.3-0.2 0.7 0 0.9 0.3 0.2 0.4 0 0.8-0.3 1l-2.7 1.2q-0.1 0-0.3 0z"/>
							</g>
							<g id="&lt;Group&gt;">
								<path id="&lt;Path&gt;" class="s7" d="m454.8 491.6q0 0-0.1 0l-2.2-0.3c-0.4-0.1-0.6-0.5-0.6-0.8 0.1-0.4 0.5-0.7 0.8-0.6l2.3 0.4c0.3 0 0.6 0.4 0.5 0.8 0 0.3-0.3 0.5-0.7 0.5z"/>
							</g>
							<g id="&lt;Group&gt;">
								<path id="&lt;Path&gt;" class="s7" d="m458.8 490.6q-0.1 0-0.2 0c-0.3-0.1-0.6-0.4-0.5-0.8l0.5-2.7c0-0.4 0.4-0.6 0.8-0.5 0.4 0 0.6 0.4 0.6 0.8l-0.5 2.7c-0.1 0.3-0.4 0.5-0.7 0.5z"/>
							</g>
							<g id="&lt;Group&gt;">
								<path id="&lt;Path&gt;" class="s7" d="m473.1 480.9q-0.1 0-0.2 0l-3.6-0.8c-0.4-0.1-0.7-0.5-0.6-0.8 0.1-0.4 0.5-0.7 0.9-0.6l3.7 0.9c0.3 0 0.6 0.4 0.5 0.8-0.1 0.3-0.4 0.5-0.7 0.5z"/>
							</g>
							<g id="&lt;Group&gt;">
								<path id="&lt;Path&gt;" class="s7" d="m464.7 480.9q-0.1 0-0.2 0c-0.4-0.1-0.6-0.5-0.5-0.9l0.7-1.8c0.1-0.4 0.5-0.6 0.9-0.5 0.3 0.2 0.5 0.6 0.4 0.9l-0.6 1.9c-0.1 0.3-0.4 0.4-0.7 0.4z"/>
							</g>
							<g id="&lt;Group&gt;">
								<path id="&lt;Path&gt;" class="s7" d="m472.7 488q-0.2 0-0.4-0.2l-3.7-3.2c-0.3-0.2-0.3-0.6-0.1-0.9 0.3-0.3 0.7-0.4 1-0.1l3.7 3.1c0.3 0.3 0.3 0.7 0.1 1q-0.3 0.3-0.6 0.3z"/>
							</g>
							<g id="&lt;Group&gt;">
								<path id="&lt;Path&gt;" class="s7" d="m483.8 480.8q-0.3 0-0.5-0.2l-3.7-3.1c-0.3-0.3-0.3-0.7 0-1 0.2-0.3 0.7-0.4 1-0.1l3.6 3.1c0.3 0.3 0.4 0.7 0.1 1q-0.2 0.3-0.5 0.3z"/>
							</g>
							<g id="&lt;Group&gt;">
								<path id="&lt;Path&gt;" class="s7" d="m463.9 489.3c-0.3 0-0.6-0.2-0.7-0.5-0.1-0.4 0.1-0.8 0.5-0.9l4-1.3c0.4-0.1 0.8 0.1 0.9 0.4 0.1 0.4-0.1 0.8-0.4 0.9l-4.1 1.4q-0.1 0-0.2 0z"/>
							</g>
							<g id="&lt;Group&gt;">
								<path id="&lt;Path&gt;" class="s7" d="m470.2 492.4q-0.1 0-0.3-0.1l-2.1-1.1c-0.4-0.2-0.5-0.6-0.3-0.9 0.1-0.4 0.6-0.5 0.9-0.3l2.2 1.1c0.3 0.1 0.4 0.6 0.3 0.9-0.2 0.2-0.4 0.4-0.7 0.4z"/>
							</g>
							<g id="&lt;Group&gt;">
								<path id="&lt;Path&gt;" class="s7" d="m486.5 488.7c-0.3 0-0.5-0.1-0.6-0.3l-2.2-3.9c-0.2-0.3-0.1-0.8 0.2-0.9 0.4-0.2 0.8-0.1 1 0.2l2.2 3.9c0.2 0.3 0.1 0.8-0.3 0.9q-0.1 0.1-0.3 0.1z"/>
							</g>
							<g id="&lt;Group&gt;">
								<path id="&lt;Path&gt;" class="s7" d="m489.5 484q-0.3 0-0.5-0.1c-0.3-0.2-0.3-0.7-0.1-1l1.9-2.6c0.2-0.3 0.7-0.3 1-0.1 0.3 0.2 0.4 0.7 0.1 1l-1.9 2.5c-0.1 0.2-0.3 0.3-0.5 0.3z"/>
							</g>
							<g id="&lt;Group&gt;">
								<path id="&lt;Path&gt;" class="s7" d="m494.6 486.8c-0.2 0-0.5-0.1-0.6-0.3l-1.2-2c-0.2-0.3-0.1-0.7 0.2-0.9 0.4-0.2 0.8-0.1 1 0.2l1.2 1.9c0.2 0.4 0.1 0.8-0.2 1q-0.2 0.1-0.4 0.1z"/>
							</g>
							<g id="&lt;Group&gt;">
								<path id="&lt;Path&gt;" class="s7" d="m481.4 486.8c-0.3 0-0.5-0.2-0.6-0.5l-1.2-3.2c-0.1-0.4 0.1-0.8 0.5-0.9 0.3-0.1 0.7 0.1 0.9 0.4l1.1 3.3c0.1 0.3-0.1 0.7-0.5 0.9q-0.1 0-0.2 0z"/>
							</g>
							<g id="&lt;Group&gt;">
								<path id="&lt;Path&gt;" class="s7" d="m478.8 490.7c-0.3 0-0.5-0.2-0.7-0.4-0.1-0.4 0-0.8 0.4-1l2.6-1.2c0.4-0.1 0.8 0 1 0.4 0.1 0.3 0 0.8-0.4 0.9l-2.6 1.2q-0.2 0.1-0.3 0.1z"/>
							</g>
							<g id="&lt;Group&gt;">
								<path id="&lt;Path&gt;" class="s7" d="m486.5 491.7q-0.1 0-0.1 0l-2.2-0.4c-0.4-0.1-0.7-0.4-0.6-0.8 0-0.4 0.4-0.6 0.8-0.6l2.2 0.4c0.4 0.1 0.6 0.4 0.6 0.8-0.1 0.3-0.4 0.6-0.7 0.6z"/>
							</g>
							<g id="&lt;Group&gt;">
								<path id="&lt;Path&gt;" class="s7" d="m490.4 490.7q0 0-0.1 0c-0.4-0.1-0.6-0.5-0.6-0.9l0.5-2.6c0.1-0.4 0.5-0.7 0.8-0.6 0.4 0.1 0.7 0.4 0.6 0.8l-0.5 2.7c-0.1 0.3-0.3 0.6-0.7 0.6z"/>
							</g>
							<g id="&lt;Group&gt;">
								<path id="&lt;Path&gt;" class="s7" d="m475.4 486.5q-0.1 0-0.2 0c-0.3-0.1-0.6-0.4-0.5-0.8l0.5-2.7c0-0.4 0.4-0.6 0.8-0.5 0.4 0 0.6 0.4 0.6 0.8l-0.5 2.6c-0.1 0.4-0.4 0.6-0.7 0.6z"/>
							</g>
							<g id="&lt;Group&gt;">
								<path id="&lt;Path&gt;" class="s7" d="m504.8 481q-0.1 0-0.2 0l-3.7-0.9c-0.4 0-0.6-0.4-0.5-0.8 0.1-0.4 0.4-0.6 0.8-0.5l3.7 0.8c0.4 0.1 0.6 0.5 0.5 0.8 0 0.4-0.3 0.6-0.6 0.6z"/>
							</g>
							<g id="&lt;Group&gt;">
								<path id="&lt;Path&gt;" class="s7" d="m496.4 481q-0.2 0-0.3-0.1c-0.3-0.1-0.5-0.5-0.4-0.8l0.6-1.9c0.2-0.4 0.6-0.5 0.9-0.4 0.4 0.1 0.6 0.5 0.5 0.9l-0.7 1.8c-0.1 0.3-0.4 0.5-0.6 0.5z"/>
							</g>
							<g id="&lt;Group&gt;">
								<path id="&lt;Path&gt;" class="s7" d="m504.4 488q-0.3 0-0.5-0.2l-3.7-3.1c-0.3-0.3-0.3-0.7 0-1 0.2-0.3 0.7-0.3 0.9-0.1l3.7 3.2c0.3 0.2 0.4 0.7 0.1 1q-0.2 0.2-0.5 0.2z"/>
							</g>
							<g id="&lt;Group&gt;">
								<path id="&lt;Path&gt;" class="s7" d="m495.5 489.3c-0.3 0-0.5-0.2-0.6-0.4-0.2-0.4 0-0.8 0.4-0.9l4.1-1.4c0.3-0.1 0.7 0.1 0.8 0.5 0.2 0.3 0 0.7-0.4 0.9l-4.1 1.3q-0.1 0-0.2 0z"/>
							</g>
							<g id="&lt;Group&gt;">
								<path id="&lt;Path&gt;" class="s7" d="m501.9 492.4q-0.2 0-0.3-0.1l-2.2-1.1c-0.3-0.1-0.5-0.6-0.3-0.9 0.2-0.3 0.6-0.5 1-0.3l2.1 1.1c0.4 0.2 0.5 0.6 0.3 0.9-0.1 0.3-0.4 0.4-0.6 0.4z"/>
							</g>
							<g id="&lt;Group&gt;">
								<path id="&lt;Path&gt;" class="s7" d="m517.4 480.8q-0.2 0-0.3-0.1l-2.2-1.1c-0.3-0.2-0.4-0.6-0.3-1 0.2-0.3 0.6-0.4 1-0.3l2.1 1.1c0.4 0.2 0.5 0.6 0.3 1-0.1 0.2-0.3 0.4-0.6 0.4z"/>
							</g>
							<g id="&lt;Group&gt;">
								<path id="&lt;Path&gt;" class="s7" d="m518.1 488.8c-0.2 0-0.4-0.1-0.6-0.4l-2.2-3.8c-0.2-0.4-0.1-0.8 0.3-1 0.3-0.2 0.7-0.1 0.9 0.3l2.2 3.8c0.2 0.4 0.1 0.8-0.2 1q-0.2 0.1-0.4 0.1z"/>
							</g>
							<g id="&lt;Group&gt;">
								<path id="&lt;Path&gt;" class="s7" d="m521.1 484.1q-0.2 0-0.4-0.2c-0.3-0.2-0.4-0.6-0.1-0.9l1.9-2.6c0.2-0.3 0.6-0.4 0.9-0.2 0.4 0.3 0.4 0.7 0.2 1l-1.9 2.6c-0.2 0.2-0.4 0.3-0.6 0.3z"/>
							</g>
							<g id="&lt;Group&gt;">
								<path id="&lt;Path&gt;" class="s7" d="m526.3 486.8c-0.3 0-0.5-0.1-0.6-0.3l-1.2-1.9c-0.2-0.4-0.1-0.8 0.2-1 0.3-0.2 0.7-0.1 1 0.2l1.2 2c0.2 0.3 0.1 0.7-0.3 0.9q-0.2 0.1-0.3 0.1z"/>
							</g>
							<g id="&lt;Group&gt;">
								<path id="&lt;Path&gt;" class="s7" d="m513.1 486.8c-0.3 0-0.6-0.1-0.7-0.4l-1.1-3.3c-0.1-0.3 0.1-0.7 0.4-0.8 0.4-0.2 0.8 0 0.9 0.4l1.1 3.2c0.2 0.4 0 0.8-0.4 0.9q-0.1 0-0.2 0z"/>
							</g>
							<g id="&lt;Group&gt;">
								<path id="&lt;Path&gt;" class="s7" d="m510.4 490.7c-0.2 0-0.5-0.1-0.6-0.4-0.2-0.3 0-0.8 0.3-0.9l2.7-1.2c0.3-0.2 0.7 0 0.9 0.3 0.2 0.4 0 0.8-0.3 1l-2.7 1.2q-0.1 0-0.3 0z"/>
							</g>
							<g id="&lt;Group&gt;">
								<path id="&lt;Path&gt;" class="s7" d="m518.1 491.7q0 0-0.1 0l-2.2-0.3c-0.4-0.1-0.6-0.5-0.6-0.9 0.1-0.3 0.5-0.6 0.8-0.5l2.3 0.3c0.3 0.1 0.6 0.5 0.5 0.8 0 0.4-0.3 0.6-0.7 0.6z"/>
							</g>
							<g id="&lt;Group&gt;">
								<path id="&lt;Path&gt;" class="s7" d="m522.1 490.7q-0.1 0-0.2 0c-0.3-0.1-0.6-0.4-0.5-0.8l0.5-2.7c0-0.4 0.4-0.6 0.8-0.5 0.4 0 0.6 0.4 0.6 0.8l-0.5 2.6c-0.1 0.4-0.4 0.6-0.7 0.6z"/>
							</g>
							<g id="&lt;Group&gt;">
								<path id="&lt;Path&gt;" class="s7" d="m507.5 487.9q-0.1 0-0.2-0.1c-0.3 0-0.6-0.4-0.5-0.8l0.5-2.6c0-0.4 0.4-0.7 0.8-0.6 0.4 0.1 0.6 0.4 0.5 0.8l-0.4 2.7c-0.1 0.3-0.4 0.6-0.7 0.6z"/>
							</g>
							<g id="&lt;Group&gt;">
								<path id="&lt;Path&gt;" class="s7" d="m536.4 481q-0.1 0-0.2 0l-3.6-0.8c-0.4-0.1-0.7-0.5-0.6-0.8 0.1-0.4 0.5-0.7 0.9-0.6l3.7 0.9c0.3 0 0.6 0.4 0.5 0.8-0.1 0.3-0.4 0.5-0.7 0.5z"/>
							</g>
							<g id="&lt;Group&gt;">
								<path id="&lt;Path&gt;" class="s7" d="m528 481q-0.1 0-0.2 0c-0.4-0.1-0.6-0.5-0.5-0.9l0.7-1.8c0.1-0.4 0.5-0.6 0.9-0.5 0.4 0.2 0.5 0.6 0.4 0.9l-0.6 1.9c-0.1 0.3-0.4 0.4-0.7 0.4z"/>
							</g>
							<g id="&lt;Group&gt;">
								<path id="&lt;Path&gt;" class="s7" d="m504.8 493.8q-0.2 0-0.3-0.1c-0.3-0.1-0.5-0.5-0.4-0.9l0.6-1.8c0.2-0.4 0.6-0.6 0.9-0.4 0.4 0.1 0.6 0.5 0.5 0.8l-0.7 1.9c-0.1 0.3-0.4 0.5-0.6 0.5z"/>
							</g>
							<g id="&lt;Group&gt;">
								<path id="&lt;Path&gt;" class="s7" d="m508.8 481.1q-0.1 0-0.2 0c-0.4-0.1-0.6-0.5-0.5-0.9l0.7-1.8c0.1-0.4 0.5-0.6 0.9-0.5 0.3 0.1 0.5 0.5 0.4 0.9l-0.6 1.9c-0.1 0.2-0.4 0.4-0.7 0.4z"/>
							</g>
							<g id="&lt;Group&gt;">
								<path id="&lt;Path&gt;" class="s7" d="m536 488q-0.2 0-0.4-0.1l-3.7-3.2c-0.3-0.2-0.3-0.6-0.1-0.9 0.3-0.3 0.7-0.4 1-0.1l3.7 3.1c0.3 0.3 0.3 0.7 0.1 1q-0.3 0.2-0.6 0.2z"/>
							</g>
							<g id="&lt;Group&gt;">
								<path id="&lt;Path&gt;" class="s7" d="m527.2 489.4c-0.3 0-0.6-0.2-0.7-0.5-0.1-0.4 0.1-0.8 0.5-0.9l4-1.3c0.4-0.1 0.8 0.1 0.9 0.4 0.1 0.4-0.1 0.8-0.4 0.9l-4.1 1.3q-0.1 0.1-0.2 0.1z"/>
							</g>
							<g id="&lt;Group&gt;">
								<path id="&lt;Path&gt;" class="s7" d="m533.5 492.5q-0.1 0-0.3-0.1l-2.1-1.1c-0.4-0.2-0.5-0.6-0.3-1 0.2-0.3 0.6-0.4 0.9-0.3l2.2 1.1c0.3 0.2 0.4 0.6 0.3 1-0.2 0.2-0.4 0.4-0.7 0.4z"/>
							</g>
						</g>
						<g id="&lt;Group&gt;" style="opacity: .4">
							<g id="&lt;Group&gt;">
								<path id="&lt;Path&gt;" class="s2" d="m454.8 488.7c-0.2 0-0.4-0.1-0.6-0.4l-2.2-3.8c-0.2-0.4-0.1-0.8 0.3-1 0.3-0.2 0.7-0.1 0.9 0.3l2.2 3.8c0.2 0.4 0.1 0.8-0.2 1q-0.2 0.1-0.4 0.1z"/>
							</g>
							<g id="&lt;Group&gt;">
								<path id="&lt;Path&gt;" class="s2" d="m457.8 484q-0.2 0-0.4-0.2c-0.3-0.2-0.4-0.6-0.1-0.9l1.9-2.6c0.2-0.3 0.6-0.4 0.9-0.2 0.4 0.3 0.4 0.7 0.2 1l-1.9 2.6c-0.2 0.2-0.4 0.3-0.6 0.3z"/>
							</g>
							<g id="&lt;Group&gt;">
								<path id="&lt;Path&gt;" class="s2" d="m463 486.8c-0.3 0-0.5-0.2-0.6-0.4l-1.2-1.9c-0.2-0.3-0.1-0.8 0.2-1 0.3-0.2 0.7-0.1 0.9 0.2l1.2 2c0.3 0.3 0.1 0.7-0.2 0.9q-0.2 0.2-0.3 0.2z"/>
							</g>
							<g id="&lt;Group&gt;">
								<path id="&lt;Path&gt;" class="s2" d="m452.6 479.7q0 0-0.1-0.1l-2.9-0.5c-0.3-0.1-0.6-0.5-0.5-0.8 0.1-0.4 0.4-0.7 0.8-0.6l2.9 0.6c0.3 0 0.6 0.4 0.5 0.8-0.1 0.3-0.3 0.6-0.7 0.6z"/>
							</g>
							<g id="&lt;Group&gt;">
								<path id="&lt;Path&gt;" class="s2" d="m449.8 486.8c-0.3 0-0.6-0.2-0.7-0.5l-1.1-3.2c-0.1-0.4 0.1-0.8 0.4-0.9 0.4-0.2 0.8 0 0.9 0.4l1.1 3.2c0.2 0.4 0 0.8-0.4 0.9q-0.1 0.1-0.2 0.1z"/>
							</g>
							<g id="&lt;Group&gt;">
								<path id="&lt;Path&gt;" class="s2" d="m447.1 490.6c-0.2 0-0.5-0.1-0.6-0.4-0.2-0.3 0-0.7 0.3-0.9l2.7-1.2c0.3-0.2 0.7 0 0.9 0.3 0.2 0.4 0 0.8-0.3 1l-2.7 1.2q-0.1 0-0.3 0z"/>
							</g>
							<g id="&lt;Group&gt;">
								<path id="&lt;Path&gt;" class="s2" d="m454.8 491.6q0 0-0.1 0l-2.2-0.3c-0.4-0.1-0.6-0.5-0.6-0.8 0.1-0.4 0.5-0.7 0.8-0.6l2.3 0.4c0.3 0 0.6 0.4 0.5 0.8 0 0.3-0.3 0.5-0.7 0.5z"/>
							</g>
							<g id="&lt;Group&gt;">
								<path id="&lt;Path&gt;" class="s2" d="m458.8 490.6q-0.1 0-0.2 0c-0.3-0.1-0.6-0.4-0.5-0.8l0.5-2.7c0-0.4 0.4-0.6 0.8-0.5 0.4 0 0.6 0.4 0.6 0.8l-0.5 2.7c-0.1 0.3-0.4 0.5-0.7 0.5z"/>
							</g>
							<g id="&lt;Group&gt;">
								<path id="&lt;Path&gt;" class="s2" d="m473.1 480.9q-0.1 0-0.2 0l-3.6-0.8c-0.4-0.1-0.7-0.5-0.6-0.8 0.1-0.4 0.5-0.7 0.9-0.6l3.7 0.9c0.3 0 0.6 0.4 0.5 0.8-0.1 0.3-0.4 0.5-0.7 0.5z"/>
							</g>
							<g id="&lt;Group&gt;">
								<path id="&lt;Path&gt;" class="s2" d="m464.7 480.9q-0.1 0-0.2 0c-0.4-0.1-0.6-0.5-0.5-0.9l0.7-1.8c0.1-0.4 0.5-0.6 0.9-0.5 0.3 0.2 0.5 0.6 0.4 0.9l-0.6 1.9c-0.1 0.3-0.4 0.4-0.7 0.4z"/>
							</g>
							<g id="&lt;Group&gt;">
								<path id="&lt;Path&gt;" class="s2" d="m472.7 488q-0.2 0-0.4-0.2l-3.7-3.2c-0.3-0.2-0.3-0.6-0.1-0.9 0.3-0.3 0.7-0.4 1-0.1l3.7 3.1c0.3 0.3 0.3 0.7 0.1 1q-0.3 0.3-0.6 0.3z"/>
							</g>
							<g id="&lt;Group&gt;">
								<path id="&lt;Path&gt;" class="s2" d="m483.8 480.8q-0.3 0-0.5-0.2l-3.7-3.1c-0.3-0.3-0.3-0.7 0-1 0.2-0.3 0.7-0.4 1-0.1l3.6 3.1c0.3 0.3 0.4 0.7 0.1 1q-0.2 0.3-0.5 0.3z"/>
							</g>
							<g id="&lt;Group&gt;">
								<path id="&lt;Path&gt;" class="s2" d="m463.9 489.3c-0.3 0-0.6-0.2-0.7-0.5-0.1-0.4 0.1-0.8 0.5-0.9l4-1.3c0.4-0.1 0.8 0.1 0.9 0.4 0.1 0.4-0.1 0.8-0.4 0.9l-4.1 1.4q-0.1 0-0.2 0z"/>
							</g>
							<g id="&lt;Group&gt;">
								<path id="&lt;Path&gt;" class="s2" d="m470.2 492.4q-0.1 0-0.3-0.1l-2.1-1.1c-0.4-0.2-0.5-0.6-0.3-0.9 0.1-0.4 0.6-0.5 0.9-0.3l2.2 1.1c0.3 0.1 0.4 0.6 0.3 0.9-0.2 0.2-0.4 0.4-0.7 0.4z"/>
							</g>
							<g id="&lt;Group&gt;">
								<path id="&lt;Path&gt;" class="s2" d="m486.5 488.7c-0.3 0-0.5-0.1-0.6-0.3l-2.2-3.9c-0.2-0.3-0.1-0.8 0.2-0.9 0.4-0.2 0.8-0.1 1 0.2l2.2 3.9c0.2 0.3 0.1 0.8-0.3 0.9q-0.1 0.1-0.3 0.1z"/>
							</g>
							<g id="&lt;Group&gt;">
								<path id="&lt;Path&gt;" class="s2" d="m489.5 484q-0.3 0-0.5-0.1c-0.3-0.2-0.3-0.7-0.1-1l1.9-2.6c0.2-0.3 0.7-0.3 1-0.1 0.3 0.2 0.4 0.7 0.1 1l-1.9 2.5c-0.1 0.2-0.3 0.3-0.5 0.3z"/>
							</g>
							<g id="&lt;Group&gt;">
								<path id="&lt;Path&gt;" class="s2" d="m494.6 486.8c-0.2 0-0.5-0.1-0.6-0.3l-1.2-2c-0.2-0.3-0.1-0.7 0.2-0.9 0.4-0.2 0.8-0.1 1 0.2l1.2 1.9c0.2 0.4 0.1 0.8-0.2 1q-0.2 0.1-0.4 0.1z"/>
							</g>
							<g id="&lt;Group&gt;">
								<path id="&lt;Path&gt;" class="s2" d="m481.4 486.8c-0.3 0-0.5-0.2-0.6-0.5l-1.2-3.2c-0.1-0.4 0.1-0.8 0.5-0.9 0.3-0.1 0.7 0.1 0.9 0.4l1.1 3.3c0.1 0.3-0.1 0.7-0.5 0.9q-0.1 0-0.2 0z"/>
							</g>
							<g id="&lt;Group&gt;">
								<path id="&lt;Path&gt;" class="s2" d="m478.8 490.7c-0.3 0-0.5-0.2-0.7-0.4-0.1-0.4 0-0.8 0.4-1l2.6-1.2c0.4-0.1 0.8 0 1 0.4 0.1 0.3 0 0.8-0.4 0.9l-2.6 1.2q-0.2 0.1-0.3 0.1z"/>
							</g>
							<g id="&lt;Group&gt;">
								<path id="&lt;Path&gt;" class="s2" d="m486.5 491.7q-0.1 0-0.1 0l-2.2-0.4c-0.4-0.1-0.7-0.4-0.6-0.8 0-0.4 0.4-0.6 0.8-0.6l2.2 0.4c0.4 0.1 0.6 0.4 0.6 0.8-0.1 0.3-0.4 0.6-0.7 0.6z"/>
							</g>
							<g id="&lt;Group&gt;">
								<path id="&lt;Path&gt;" class="s2" d="m490.4 490.7q0 0-0.1 0c-0.4-0.1-0.6-0.5-0.6-0.9l0.5-2.6c0.1-0.4 0.5-0.7 0.8-0.6 0.4 0.1 0.7 0.4 0.6 0.8l-0.5 2.7c-0.1 0.3-0.3 0.6-0.7 0.6z"/>
							</g>
							<g id="&lt;Group&gt;">
								<path id="&lt;Path&gt;" class="s2" d="m475.4 486.5q-0.1 0-0.2 0c-0.3-0.1-0.6-0.4-0.5-0.8l0.5-2.7c0-0.4 0.4-0.6 0.8-0.5 0.4 0 0.6 0.4 0.6 0.8l-0.5 2.6c-0.1 0.4-0.4 0.6-0.7 0.6z"/>
							</g>
							<g id="&lt;Group&gt;">
								<path id="&lt;Path&gt;" class="s2" d="m504.8 481q-0.1 0-0.2 0l-3.7-0.9c-0.4 0-0.6-0.4-0.5-0.8 0.1-0.4 0.4-0.6 0.8-0.5l3.7 0.8c0.4 0.1 0.6 0.5 0.5 0.8 0 0.4-0.3 0.6-0.6 0.6z"/>
							</g>
							<g id="&lt;Group&gt;">
								<path id="&lt;Path&gt;" class="s2" d="m496.4 481q-0.2 0-0.3-0.1c-0.3-0.1-0.5-0.5-0.4-0.8l0.6-1.9c0.2-0.4 0.6-0.5 0.9-0.4 0.4 0.1 0.6 0.5 0.5 0.9l-0.7 1.8c-0.1 0.3-0.4 0.5-0.6 0.5z"/>
							</g>
							<g id="&lt;Group&gt;">
								<path id="&lt;Path&gt;" class="s2" d="m504.4 488q-0.3 0-0.5-0.2l-3.7-3.1c-0.3-0.3-0.3-0.7 0-1 0.2-0.3 0.7-0.3 0.9-0.1l3.7 3.2c0.3 0.2 0.4 0.7 0.1 1q-0.2 0.2-0.5 0.2z"/>
							</g>
							<g id="&lt;Group&gt;">
								<path id="&lt;Path&gt;" class="s2" d="m495.5 489.3c-0.3 0-0.5-0.2-0.6-0.4-0.2-0.4 0-0.8 0.4-0.9l4.1-1.4c0.3-0.1 0.7 0.1 0.8 0.5 0.2 0.3 0 0.7-0.4 0.9l-4.1 1.3q-0.1 0-0.2 0z"/>
							</g>
							<g id="&lt;Group&gt;">
								<path id="&lt;Path&gt;" class="s2" d="m501.9 492.4q-0.2 0-0.3-0.1l-2.2-1.1c-0.3-0.1-0.5-0.6-0.3-0.9 0.2-0.3 0.6-0.5 1-0.3l2.1 1.1c0.4 0.2 0.5 0.6 0.3 0.9-0.1 0.3-0.4 0.4-0.6 0.4z"/>
							</g>
							<g id="&lt;Group&gt;">
								<path id="&lt;Path&gt;" class="s2" d="m517.4 480.8q-0.2 0-0.3-0.1l-2.2-1.1c-0.3-0.2-0.4-0.6-0.3-1 0.2-0.3 0.6-0.4 1-0.3l2.1 1.1c0.4 0.2 0.5 0.6 0.3 1-0.1 0.2-0.3 0.4-0.6 0.4z"/>
							</g>
							<g id="&lt;Group&gt;">
								<path id="&lt;Path&gt;" class="s2" d="m518.1 488.8c-0.2 0-0.4-0.1-0.6-0.4l-2.2-3.8c-0.2-0.4-0.1-0.8 0.3-1 0.3-0.2 0.7-0.1 0.9 0.3l2.2 3.8c0.2 0.4 0.1 0.8-0.2 1q-0.2 0.1-0.4 0.1z"/>
							</g>
							<g id="&lt;Group&gt;">
								<path id="&lt;Path&gt;" class="s2" d="m521.1 484.1q-0.2 0-0.4-0.2c-0.3-0.2-0.4-0.6-0.1-0.9l1.9-2.6c0.2-0.3 0.6-0.4 0.9-0.2 0.4 0.3 0.4 0.7 0.2 1l-1.9 2.6c-0.2 0.2-0.4 0.3-0.6 0.3z"/>
							</g>
							<g id="&lt;Group&gt;">
								<path id="&lt;Path&gt;" class="s2" d="m526.3 486.8c-0.3 0-0.5-0.1-0.6-0.3l-1.2-1.9c-0.2-0.4-0.1-0.8 0.2-1 0.3-0.2 0.7-0.1 1 0.2l1.2 2c0.2 0.3 0.1 0.7-0.3 0.9q-0.2 0.1-0.3 0.1z"/>
							</g>
							<g id="&lt;Group&gt;">
								<path id="&lt;Path&gt;" class="s2" d="m513.1 486.8c-0.3 0-0.6-0.1-0.7-0.4l-1.1-3.3c-0.1-0.3 0.1-0.7 0.4-0.8 0.4-0.2 0.8 0 0.9 0.4l1.1 3.2c0.2 0.4 0 0.8-0.4 0.9q-0.1 0-0.2 0z"/>
							</g>
							<g id="&lt;Group&gt;">
								<path id="&lt;Path&gt;" class="s2" d="m510.4 490.7c-0.2 0-0.5-0.1-0.6-0.4-0.2-0.3 0-0.8 0.3-0.9l2.7-1.2c0.3-0.2 0.7 0 0.9 0.3 0.2 0.4 0 0.8-0.3 1l-2.7 1.2q-0.1 0-0.3 0z"/>
							</g>
							<g id="&lt;Group&gt;">
								<path id="&lt;Path&gt;" class="s2" d="m518.1 491.7q0 0-0.1 0l-2.2-0.3c-0.4-0.1-0.6-0.5-0.6-0.9 0.1-0.3 0.5-0.6 0.8-0.5l2.3 0.3c0.3 0.1 0.6 0.5 0.5 0.8 0 0.4-0.3 0.6-0.7 0.6z"/>
							</g>
							<g id="&lt;Group&gt;">
								<path id="&lt;Path&gt;" class="s2" d="m522.1 490.7q-0.1 0-0.2 0c-0.3-0.1-0.6-0.4-0.5-0.8l0.5-2.7c0-0.4 0.4-0.6 0.8-0.5 0.4 0 0.6 0.4 0.6 0.8l-0.5 2.6c-0.1 0.4-0.4 0.6-0.7 0.6z"/>
							</g>
							<g id="&lt;Group&gt;">
								<path id="&lt;Path&gt;" class="s2" d="m507.5 487.9q-0.1 0-0.2-0.1c-0.3 0-0.6-0.4-0.5-0.8l0.5-2.6c0-0.4 0.4-0.7 0.8-0.6 0.4 0.1 0.6 0.4 0.5 0.8l-0.4 2.7c-0.1 0.3-0.4 0.6-0.7 0.6z"/>
							</g>
							<g id="&lt;Group&gt;">
								<path id="&lt;Path&gt;" class="s2" d="m536.4 481q-0.1 0-0.2 0l-3.6-0.8c-0.4-0.1-0.7-0.5-0.6-0.8 0.1-0.4 0.5-0.7 0.9-0.6l3.7 0.9c0.3 0 0.6 0.4 0.5 0.8-0.1 0.3-0.4 0.5-0.7 0.5z"/>
							</g>
							<g id="&lt;Group&gt;">
								<path id="&lt;Path&gt;" class="s2" d="m528 481q-0.1 0-0.2 0c-0.4-0.1-0.6-0.5-0.5-0.9l0.7-1.8c0.1-0.4 0.5-0.6 0.9-0.5 0.4 0.2 0.5 0.6 0.4 0.9l-0.6 1.9c-0.1 0.3-0.4 0.4-0.7 0.4z"/>
							</g>
							<g id="&lt;Group&gt;">
								<path id="&lt;Path&gt;" class="s2" d="m504.8 493.8q-0.2 0-0.3-0.1c-0.3-0.1-0.5-0.5-0.4-0.9l0.6-1.8c0.2-0.4 0.6-0.6 0.9-0.4 0.4 0.1 0.6 0.5 0.5 0.8l-0.7 1.9c-0.1 0.3-0.4 0.5-0.6 0.5z"/>
							</g>
							<g id="&lt;Group&gt;">
								<path id="&lt;Path&gt;" class="s2" d="m508.8 481.1q-0.1 0-0.2 0c-0.4-0.1-0.6-0.5-0.5-0.9l0.7-1.8c0.1-0.4 0.5-0.6 0.9-0.5 0.3 0.1 0.5 0.5 0.4 0.9l-0.6 1.9c-0.1 0.2-0.4 0.4-0.7 0.4z"/>
							</g>
							<g id="&lt;Group&gt;">
								<path id="&lt;Path&gt;" class="s2" d="m536 488q-0.2 0-0.4-0.1l-3.7-3.2c-0.3-0.2-0.3-0.6-0.1-0.9 0.3-0.3 0.7-0.4 1-0.1l3.7 3.1c0.3 0.3 0.3 0.7 0.1 1q-0.3 0.2-0.6 0.2z"/>
							</g>
							<g id="&lt;Group&gt;">
								<path id="&lt;Path&gt;" class="s2" d="m527.2 489.4c-0.3 0-0.6-0.2-0.7-0.5-0.1-0.4 0.1-0.8 0.5-0.9l4-1.3c0.4-0.1 0.8 0.1 0.9 0.4 0.1 0.4-0.1 0.8-0.4 0.9l-4.1 1.3q-0.1 0.1-0.2 0.1z"/>
							</g>
							<g id="&lt;Group&gt;">
								<path id="&lt;Path&gt;" class="s2" d="m533.5 492.5q-0.1 0-0.3-0.1l-2.1-1.1c-0.4-0.2-0.5-0.6-0.3-1 0.2-0.3 0.6-0.4 0.9-0.3l2.2 1.1c0.3 0.2 0.4 0.6 0.3 1-0.2 0.2-0.4 0.4-0.7 0.4z"/>
							</g>
						</g>
					</g>
				</g>
				<path id="&lt;Path&gt;" class="s15" d="m544.5 504.7h-105.4c-1.4 0-2.5-1.1-2.5-2.5 0-1.4 1.1-2.5 2.5-2.5h105.4c1.3 0 2.4 1.1 2.4 2.5 0 1.4-1.1 2.5-2.4 2.5z"/>
			</g>
			<path id="&lt;Path&gt;" class="s25" d="m351.9 812.3c0 0 31.6-170.6 32-266.8l-32.1-1c0 0 4.6 88.2-13.8 267.1z"/>
			<path id="&lt;Path&gt;" class="s25" d="m430.9 811c0 0 8.6-173.3-3.8-268.7l-32 3.3c0 0 16.3 86.8 22 266.6z"/>
			<path id="&lt;Path&gt;" class="s15" d="m353.9 808.8h-17.7c-0.6 0-1.1 0.4-1.2 1l-2.9 13c-0.2 1.2 0.5 2.3 1.7 2.6q0.2 0 0.4 0c5.8-0.1 9.9-0.4 17.1-0.4 4.5 0 17.9 0.4 24 0.4 6.1 0 6.9-6 4.4-6.6-11.3-2.4-19.7-5.8-23.3-9.1-0.7-0.6-1.6-0.9-2.5-0.9z"/>
			<path id="&lt;Path&gt;" class="s15" d="m432.8 808.4h-17.7c-0.6 0-1.1 0.4-1.3 1l-2.8 12.9c-0.3 1.2 0.5 2.4 1.6 2.6q0.3 0 0.5 0c5.7 0 9.9-0.4 17.1-0.4 4.4 0 17.8 0.5 23.9 0.5 6.2 0 7-6.1 4.5-6.6-11.3-2.5-19.8-5.9-23.4-9.1-0.6-0.6-1.5-1-2.4-0.9z"/>
			<path id="&lt;Path&gt;" class="s15" d="m336.9 798.1l19.6 1.4c0 0 14.8-114 23.8-186.8 3.6-29.2 6.3-51.7 6.7-57.6 8.1 21.7 27.5 105.3 27.5 243.9l19.3-3.2c10.9-138.8-7.4-291.1-11.8-314.5h-77.4c-0.2 9.3-5 267.2-7.7 316.8z"/>
			<g id="&lt;Group&gt;">
				<path id="&lt;Path&gt;" class="s15" d="m438.4 310.5c0 0 14.3 3.8 18.5 9.2 4.3 5.5-1.3 17.1-8.5 14.9-7.2-2.1-15.2-20.7-10-24.1z"/>
				<path id="&lt;Path&gt;" class="s25" d="m444.8 362.1q-0.6 0.9-1.3 1.8c-2.6 3.3-6 5.7-9.8 6.9q-1.5 0.5-3 0.7c-5.4 0.9-11-0.5-15.3-4.2-1.7-1.5-3.2-3.5-4.4-5.8-4.7-9.3-1.9-17.4 1.8-31.3 0.8-3.1 2.2-5.9 4.2-8.2 7.1-8.3 19.6-9.3 27.9-2.2 11.7 9.9 6.9 30.9-0.1 42.3z"/>
				<path id="&lt;Path&gt;" class="s9" d="m433.7 370.8q-1.5 0.5-3 0.7c-5.4 0.9-11-0.5-15.3-4.2 1.9-2.4 4-3.9 4-3.9 0 0 8.6 1.4 14.3 7.4z"/>
				<path id="&lt;Path&gt;" class="s25" d="m390.3 376.1c2.3 9.3 23.4 10.5 23.4 10.5 0 0 10.7 3.5 10.6-0.5-4.7-4.5-5.6-8.7-4.6-12.6 0.6-2.2 1.9-4.4 3.5-6.4 0.8-1.1 1.7-2.1 2.7-3.1l-9.2-25.2c-3.4 10.3-16.4 34.8-26.4 37.3z"/>
				<path id="&lt;Path&gt;" class="s15" d="m442.9 312.7c0 0 4.4-1.1 8.7 6.8 3.6 6.6-3 8.8-1.9 16.2 1.1 7.3-5.1 12.1-5.1 12.1 0 0-5.2 5.5-10.3 3.4 0 0-5.9 3.8-7 9.4-1.1 5.6-11.9-3.1-20.5-0.7 0 0-6.5-4.9-7.6-18.4-0.7-8.9 2.4-17.3 2.4-17.3 0 0 1.7-8.3 11.2-13.9 9.5-5.6 27.5-4.2 30.1 2.4z"/>
				<path id="&lt;Path&gt;" class="s25" d="m432.7 347.4c-0.2 3.2 0.8 6 2.6 7.6 2.4 2.1 5.5-1.3 6.4-5.5 0.8-3.8 0.6-9.6-2.6-9.9-3.2-0.3-6.2 3.8-6.4 7.8z"/>
			</g>
			<path id="&lt;Path&gt;" class="s9" d="m372.7 555.1l7.6 57.6c3.6-29.2 6.3-51.7 6.7-57.6 0 0-18-14.4-18.3-33.8 0 0-8.6 17.7 4 33.8z"/>
			<g id="&lt;Group&gt;">
				<g id="&lt;Group&gt;">
					<path id="&lt;Path&gt;" class="s15" d="m420 377.3c0 0-7-5.9-19-5.2-11.9 0.7-16.5 5-16.5 5z"/>
					<path id="&lt;Path&gt;" class="s11" d="m420 377.3c0 0-7-5.9-19-5.2-11.9 0.7-16.5 5-16.5 5z"/>
				</g>
				<path id="&lt;Path&gt;" class="s7" d="m438.4 378.7c-2.8 11.4-5 22.3-6.8 32.5q-0.5 2.7-0.9 5.4-1.3 7.6-2.3 14.6 0 0.7-0.1 1.4c-1.3 9.1-2.2 17.4-2.8 24.7-1.9 21.7-1.5 34.6-1.5 34.6l-80.2-1.2c1.2-13.8 2-26 3.6-39.1 0.9-7.2 2-14.7 3.5-23 1.1-5.9 2.4-12.3 4-19.2 5.4-23.6 12-30.7 12-30.7 30-8.3 71.5 0 71.5 0z"/>
			</g>
			<path id="&lt;Path&gt;" class="s10" d="m353.9 808.8h-17.7c-0.6 0-1.1 0.4-1.2 1l-2.9 13c-0.2 1.2 0.5 2.3 1.7 2.6q0.2 0 0.4 0c5.8-0.1 9.9-0.4 17.1-0.4 4.5 0 17.9 0.4 24 0.4 6.1 0 6.9-6 4.4-6.6-11.3-2.4-19.7-5.8-23.3-9.1-0.7-0.6-1.6-0.9-2.5-0.9z"/>
			<path id="&lt;Path&gt;" class="s10" d="m432.8 808.4h-17.7c-0.6 0-1.1 0.4-1.3 1l-2.8 12.9c-0.3 1.2 0.5 2.4 1.6 2.6q0.3 0 0.5 0c5.7 0 9.9-0.4 17.1-0.4 4.4 0 17.8 0.5 23.9 0.5 6.2 0 7-6.1 4.5-6.6-11.3-2.5-19.8-5.9-23.4-9.1-0.6-0.6-1.5-1-2.4-0.9z"/>
			<g id="&lt;Group&gt;">
				<path id="&lt;Path&gt;" class="s7" d="m434.3 377.3c0 0-4.9-6.7-9.7-5.2-4.9 1.4-23.7 10.5-35.5 10.8-11.9 0.3-6-7.2-6-7.2 0 0-4.3-2.2-7.2-2.4-3-0.3-16.6 7-19.3 14.7-2.7 7.7-23 64.6-22.5 70.9 0.6 6.4 3.7 9.6 3.7 9.6 0 0 46.4-2.7 64.5 2.2 0 0 8.6-1.5 8.1-13.9-0.5-12.4 10-70 23.9-79.5z"/>
				<path id="&lt;Path&gt;" class="s12" d="m434.3 377.3c0 0-4.9-6.7-9.7-5.2-4.9 1.4-23.7 10.5-35.5 10.8-11.9 0.3-6-7.2-6-7.2 0 0-4.3-2.2-7.2-2.4-3-0.3-16.6 7-19.3 14.7-2.7 7.7-23 64.6-22.5 70.9 0.6 6.4 3.7 9.6 3.7 9.6 0 0 46.4-2.7 64.5 2.2 0 0 8.6-1.5 8.1-13.9-0.5-12.4 10-70 23.9-79.5z"/>
				<path id="&lt;Path&gt;" class="s7" d="m336.5 466.8c0 0-0.2 7.6 0 7.7 0.3 0.2 64 2.2 64 2.2l1.8-7.4c0 0-33.7-7-65.8-2.5z"/>
				<path id="&lt;Path&gt;" class="s19" d="m336.5 466.8c0 0-0.2 7.6 0 7.7 0.3 0.2 64 2.2 64 2.2l1.8-7.4c0 0-33.7-7-65.8-2.5z"/>
				<path id="&lt;Path&gt;" class="s7" d="m381.7 378.7c0 0-5.8 4.7-5.3 7.4 0.5 2.7 12.8 3.9 17.7 1.9 4.8-1.9 7-7.3 7-7.3 0 0-14.8 3.2-19.4-2z"/>
				<path id="&lt;Path&gt;" class="s19" d="m381.7 378.7c0 0-5.8 4.7-5.3 7.4 0.5 2.7 12.8 3.9 17.7 1.9 4.8-1.9 7-7.3 7-7.3 0 0-14.8 3.2-19.4-2z"/>
				<path id="&lt;Path&gt;" class="s9" d="m381.8 380.2c0 0-2.3 3 0 4.3 2.2 1.3 11.9 4.3 15.9-2.1 0 0-11.3 0.8-15.9-2.2z"/>
			</g>
			<path id="&lt;Path&gt;" class="s9" d="m431.6 411.2q-0.5 2.7-0.9 5.4-1.3 7.6-2.3 14.6c-6.3-7.5-2.5-24.1-2.5-24.1 2.1 0.8 4 2.2 5.7 4.1z"/>
			<path id="&lt;Path&gt;" class="s25" d="m498.2 477.2l12.3 11.7c0 0 3.6-0.8 5.5-0.9 1.9-0.1 10.2 17.8 10.5 18.7 0.2 1-12.1 1.9-13.9 1.1-1.7-0.7-7.3-8.7-7.8-9.3-0.4-0.7 0.3-4.4 0-5.2-0.3-0.8-10.4-7-10.4-7z"/>
			<path id="&lt;Path&gt;" class="s7" d="m438.4 378.7c6.1 2.9 21.6 58 25.8 67.1 4.2 9 39.5 32.3 39.5 32.3l-5.9 11.4c0 0-36.1-16.7-45-28.2-8.9-11.6-26.9-54.2-26.9-54.2z"/>
		</g>
	</g>
	<g id="Character 1">
		<g id="&lt;Group&gt;">
			<path id="&lt;Path&gt;" class="s15" d="m221.5 355.4c0 0 9.8-12.2 26-9.5 16.1 2.8 13.2 32.5 13.2 32.5 0 0 9.9 7.8 6.8 21.3-3.1 13.4-39.8 21.2-53.8 11.9-14-9.4-3.1-39.1 3.6-43.3 6.7-4.2 4.2-12.9 4.2-12.9z"/>
			<path id="&lt;Path&gt;" class="s15" d="m265.8 405.8q-0.1 0-0.3-0.1c-0.2-0.1-0.2-0.4-0.1-0.7 3.3-4.2 4.6-8.5 3.9-12.9-1.5-8.5-10.3-14.3-10.4-14.4-0.2-0.1-0.3-0.4-0.1-0.6 0.1-0.3 0.4-0.3 0.7-0.2 0.3 0.3 9.2 6.1 10.8 15.1 0.7 4.6-0.6 9.2-4.1 13.6q-0.1 0.2-0.4 0.2z"/>
			<path id="&lt;Path&gt;" class="s26" d="m296.1 390.2l-10.4-4.7c0 0-6.5-6.3-9.6-7.2-3.1-0.9-11.9 3.6-11.5 4.4 0.4 0.8 8.6 8.7 9.8 9.5 1.1 0.8 8.4-0.9 8.4-0.9l9.7 3.9 4.3-5.4"/>
			<path id="&lt;Path&gt;" class="s15" d="m297.7 431.8c-5.7 1.1-12.1 2-19.4 2.7l-0.5-7.9-0.6-9.4c14-0.2 30.2-2.6 34.6-5.7 4.3-3.2-26.1-18.1-26.1-18.1l5.5-6.5c0 0 34 13.8 37.6 23.3 2.9 7.8-6.4 16.7-31.1 21.6z"/>
			<path id="&lt;Path&gt;" class="s9" d="m297.7 431.8c-5.7 1.1-12.1 2-19.4 2.7l-0.5-7.9c6.1 0.1 16.8 0.9 19.9 5.2z"/>
			<path id="&lt;Path&gt;" class="s26" d="m185.9 780.3l-6.6-8.7 11.3-10.8 10.2-9.9 9.6 9-12.9 10.8z"/>
			<path id="&lt;Path&gt;" class="s15" d="m178.9 769c1-0.8 9.2 11.6 9.2 11.6 0 0-1.8 12.9 1.9 21.2 3.7 8.3-3.5 7.6-9.5-0.3-6-7.9-10.6-13.9-14.9-19.5-4.2-5.5 3.2-5.7 13.3-13z"/>
			<g id="&lt;Group&gt;">
				<path id="&lt;Compound Path&gt;" fill-rule="evenodd" class="s7" d="m190.9 789.9c-1.8-0.4-3.1-5.8-3.3-6.8q0-0.1 0-0.2 0 0 0.1-0.1 0 0 0 0 0-0.1 0-0.1 0 0 0 0 0 0 0 0 0.1-0.1 0.2-0.1c0.1 0 3.6-1.1 5.5 0q0.9 0.5 1.1 1.5 0.3 1.1-0.4 1.5c-0.6 0.5-1.9 0.1-3.1-0.5 0.8 1 1.6 2 1.7 2.9q0.1 0.7-0.3 1.2c-0.4 0.6-0.9 0.7-1.2 0.7q-0.2 0-0.3 0zm0.2-0.7c0.1 0 0.3 0 0.7-0.4q0.2-0.3 0.1-0.7c-0.1-1.2-2-3-3.3-4.1 0.6 2.3 1.6 4.9 2.5 5.2zm-2.1-6.1c1.9 1.3 4.1 2.3 4.7 1.9 0.2-0.1 0.1-0.5 0.1-0.7q-0.2-0.7-0.8-1.1c-0.5-0.2-1.1-0.3-1.8-0.3-0.8 0-1.6 0.1-2.2 0.2z"/>
			</g>
			<path id="&lt;Path&gt;" class="s9" d="m197.5 770.7l-6.9-9.9 10.2-9.9 9.6 9z"/>
			<path id="&lt;Path&gt;" class="s26" d="m252.5 794.1h-11l-1.8-15.3-1.6-13.9 13-2.2 0.7 16.6z"/>
			<path id="&lt;Path&gt;" class="s15" d="m239.2 793.4c0-1.2 14.8-0.3 14.8-0.3 0 0 9.1 9.3 18 11.4 8.9 2 3.9 7.4-6 7.4-9.9 0-17.4 0-24.5 0-7 0-2.6-6-2.3-18.5z"/>
			<g id="&lt;Group&gt;">
				<path id="&lt;Compound Path&gt;" fill-rule="evenodd" class="s7" d="m255.7 795q-0.1 0-0.1-0.1-0.1 0-0.1-0.1 0 0 0-0.1 0 0 0 0 0-0.1 0-0.2c0-0.1 1.3-3.6 3.3-4.4q1-0.4 1.9 0 1 0.5 1 1.3c-0.1 0.8-1.1 1.6-2.3 2.2 1.2-0.1 2.5-0.1 3.3 0.4q0.6 0.3 0.8 1c0.2 0.8-0.1 1.3-0.4 1.5-0.3 0.3-0.7 0.4-1.3 0.4-2 0-5.3-1.5-6.1-1.9zm1.3-0.2c2.2 0.9 4.9 1.7 5.6 1.1 0.1 0 0.3-0.2 0.1-0.7q0-0.4-0.4-0.6c-0.4-0.2-1-0.3-1.7-0.3-1.2 0-2.5 0.2-3.6 0.5zm2.1-4c-1.2 0.5-2.1 2.2-2.6 3.2 2.2-0.8 4.4-2 4.4-2.7 0-0.2-0.3-0.4-0.5-0.4q-0.4-0.2-0.7-0.2-0.3 0-0.6 0.1z"/>
			</g>
			<path id="&lt;Path&gt;" class="s9" d="m251.8 779.7l-12.1-0.6-1.6-14.1 13-2.2z"/>
			<path id="&lt;Path&gt;" class="s7" d="m279.8 530.8c0 0 32.3 76.5 37.4 110 5.1 33.5-109.8 123.4-109.8 123.4l-11.7-12.5c0 0 85.4-87.8 85.4-102.9 0-15.1-33.3-84.1-33.3-84.1 0 0-3.2-27.8 32-33.9z"/>
			<path id="&lt;Path&gt;" class="s12" d="m256.4 722.4c-11.8 10.8-23.1 20.6-31.9 27.9-10.3 8.6-17.1 13.9-17.1 13.9l-11.7-12.5c0 0 11.7-12 26.5-28 11.6-12.5 25.1-27.5 36.2-40.9 12.9-15.5 22.7-28.9 22.7-34 0-8-9.3-30.9-18-50.8-7.9-17.9-15.3-33.3-15.3-33.3 0 0-0.5-4.1 0.9-9.4 2.3-8.7 9.4-20.7 31.1-24.5 0 0 32.3 76.5 37.4 110 2.8 18.3-30.3 53.5-60.8 81.6z"/>
			<path id="&lt;Path&gt;" class="s9" d="m258.4 682.8l-2 39.6c-11.8 10.8-23.1 20.6-31.9 27.9-1.4-6-3-15.7-2.3-26.6 11.6-12.5 25.1-27.5 36.2-40.9z"/>
			<path id="&lt;Path&gt;" class="s9" d="m263.1 598c-7.9-17.9-15.3-33.3-15.3-33.3 0 0-0.5-4.1 0.9-9.4 2.1-1.3 3.7-1.6 3.7-1.6 0 0 9.6 15 10.7 44.3z"/>
			<path id="&lt;Path&gt;" class="s7" d="m252.8 553.7l2.2 107.6v110.1h-18.7c-43.7-208.6-13.7-260.9-13.7-260.9h0.1c0-0.1 0-0.2 0.1-0.2 7-15.7 53.1-4.2 53.1-4.2 3.3 13 5.4 39.3 5.4 39.3z"/>
			<path id="&lt;Path&gt;" class="s12" d="m252.8 553.7l2.2 107.6v110.1h-18.7c-43.7-208.6-13.7-260.9-13.7-260.9h0.1c0-0.1 0-0.2 0.1-0.2 7-15.7 53.1-4.2 53.1-4.2 3.3 13 5.4 39.3 5.4 39.3z"/>
			<path id="&lt;Path&gt;" class="s15" d="m222.6 502.4v7.8l53.4-4.1v-9.2z"/>
			<path id="&lt;Path&gt;" class="s7" d="m240.9 512.6l-2.6 0.2-0.7-13.5 2.6-0.2z"/>
			<path id="&lt;Path&gt;" class="s2" d="m264.1 507.7l-11.6 1-0.8-8.9 11.6-1z"/>
			<path id="&lt;Path&gt;" class="s7" d="m273.5 509l-2.6 0.2-0.7-13.5 2.6-0.2z"/>
			<path id="&lt;Path&gt;" class="s12" d="m240.9 512.6l-2.6 0.2-0.7-13.5 2.6-0.2z"/>
			<path id="&lt;Path&gt;" class="s12" d="m273.5 509l-2.6 0.2-0.7-13.5 2.6-0.2z"/>
			<path id="&lt;Path&gt;" class="s7" d="m275.9 497.8l-53.4 4.6c-1.2-19.8-2.5-32.6-14.3-68q-1.5-4.6-3.3-9.8 10.9-3.5 22.2-5.4c7.9-1.4 15.9-2.2 23.9-2.5 10.4-0.1 22.3 1.1 22.3 1.1 0 0 1.7 0.4 2.8 11.4 1 10.4 1.9 31-0.2 68.6z"/>
			<path id="&lt;Path&gt;" class="s27" d="m275.9 497.8l-53.4 4.6c-1.2-19.8-2.5-32.6-14.3-68q-1.5-4.6-3.3-9.8 10.9-3.5 22.2-5.4c7.9-1.4 15.9-2.2 23.9-2.5 10.4-0.1 22.3 1.1 22.3 1.1 0 0 1.7 0.4 2.8 11.4 1 10.4 1.9 31-0.2 68.6z"/>
			<path id="&lt;Path&gt;" class="s26" d="m246.6 428.5c-13.1-1.7-17.1-7.3-17.1-7.3 8.4-7.9 1.4-21.5 1.4-21.5l15.9 2.9c-0.5 2.7-0.6 4.8-0.7 6.7-0.1 9.6 4.3 9.7 4.3 9.7 2.7 5.2-3.8 9.5-3.8 9.5z"/>
			<path id="&lt;Path&gt;" class="s9" d="m246.8 402.6c-0.5 2.7-0.6 4.8-0.7 6.7-7.6-1.8-15.2-9.6-15.2-9.6z"/>
			<g id="&lt;Group&gt;">
				<path id="&lt;Path&gt;" class="s26" d="m232.6 358.8c13.5-3.2 19.5 3 23.7 16.6 5.4 17 4.4 30.1-13.2 30.4-24 0.4-32.7-41.7-10.5-47z"/>
				<path id="&lt;Path&gt;" class="s28" d="m247.5 376.7c0 0 2.7 3 5.2 4.6 0 0-0.7 2.1-3.2 2.4z"/>
				<path id="&lt;Path&gt;" class="s15" d="m240.5 375.9l-1.7 1.2c-0.3-0.8-1-1.4-1.6-1.2-0.8 0.2-1.1 1.2-0.8 2.3q0.1 0.3 0.2 0.6c-0.2-1 0.1-2.2 0.8-2.2 0.7 0 0.9 0.9 0.9 0.9 0.3 0.1 0.5 0.1 0.7 0.1q0 0 0 0 0 0 0 0c1-0.1 1.5-1.7 1.5-1.7z"/>
				<path id="&lt;Path&gt;" class="s15" d="m254.8 372.3l-1.6 1.2c-0.4-0.9-1-1.4-1.7-1.3-0.7 0.2-1.1 1.3-0.8 2.4q0.1 0.3 0.3 0.6c-0.3-1.1 0.1-2.2 0.8-2.2 0.6-0.1 0.9 0.9 0.9 0.9 0.2 0.1 0.4 0.1 0.7 0.1q0 0 0 0 0 0 0 0c0.9-0.2 1.4-1.7 1.4-1.7z"/>
				<path id="&lt;Path&gt;" class="s15" d="m231.3 372.4q-0.1 0-0.3 0c-0.3-0.2-0.5-0.7-0.3-1 1.6-3.3 5.7-3.8 5.9-3.8 0.4-0.1 0.8 0.2 0.8 0.6 0 0.4-0.2 0.8-0.6 0.8-0.1 0-3.5 0.4-4.8 3-0.1 0.3-0.4 0.4-0.7 0.4z"/>
				<path id="&lt;Path&gt;" class="s15" d="m246.3 366.1c-0.2 0-0.5-0.1-0.6-0.3-0.2-0.3-0.1-0.8 0.2-1 0.1-0.1 2.5-1.6 6.3-0.2 0.3 0.1 0.5 0.5 0.4 0.9-0.1 0.4-0.6 0.6-0.9 0.4-3.1-1.1-4.9 0.1-5 0.1q-0.2 0.1-0.4 0.1z"/>
				<path id="&lt;Path&gt;" class="s15" d="m223.3 384.9c0 0 3.7-12.5 0.7-20.8 0 0 24-17.2 31.8 9.5 0 0-3.1-24.6-26.3-19.6-23.2 4.9-15.1 38.6-0.8 45.8 0 0-7.6-7.1-5.4-14.9z"/>
				<path id="&lt;Path&gt;" class="s26" d="m226.2 387.2c-0.6-2.1-3.7-5.3-7.6-3.9-4.1 1.5-4 10.5 6.8 10.1 1.6-0.1 2.1-1.7 0.8-6.2z"/>
			</g>
			<path id="&lt;Path&gt;" class="s26" d="m276.1 429.2c-20 9.9-50.8 7.6-67.9 5.2q-1.5-4.6-3.3-9.8 10.9-3.5 22.2-5.4c7.9-1.4 15.9-2.2 23.9-2.5 10.4-0.1 22.3 1.1 22.3 1.1 0 0 1.7 0.4 2.8 11.4z"/>
			<path id="&lt;Path&gt;" class="s15" d="m218.1 569.2l-16-4.5c0 0 8.8-51.3 3.9-108.8-0.7-7.3-1.5-14.7-2.6-22.1q-0.6-4.1-1.3-8.1l14-6.5c0 0 14.4 18.4 14.8 38.3 0.5 19.9-12.8 111.7-12.8 111.7z"/>
			<path id="&lt;Path&gt;" class="s15" d="m260.7 417.2c0 0 5.8 19 5 32.7-0.7 13.7 14.1 81.1 14.1 81.1l4.3 10.3-4.3-41.8c0 0 2.6-61.3-2.6-82.3z"/>
			<path id="&lt;Path&gt;" class="s15" d="m232.6 358.8c0 0 5 16.9-10.1 24.6-18.3 9.2-16.6 29.2 1.3 31.7 0 0-18-1.8-21.5-13.5-3.6-12 6.4-29.9 6.4-29.9 0 0-5.5-9.9 9.3-17.8 8.3-4.4 14.6 4.9 14.6 4.9z"/>
			<path id="&lt;Path&gt;" class="s7" d="m234 768.8l22.9-3.4-1.9 9.2-18.9 2.5z"/>
			<path id="&lt;Path&gt;" class="s7" d="m195.7 747.5l15.3 16.7-7.6 4.4-11.9-12.6z"/>
			<path id="&lt;Path&gt;" class="s15" d="m232.7 375.2q-0.1 0-0.2 0c-0.3-0.1-0.4-0.4-0.3-0.7 4.9-12.4-1.3-17.1-1.6-17.3-0.2-0.2-0.2-0.5-0.1-0.7 0.2-0.2 0.5-0.3 0.7-0.1 0.3 0.2 7.2 5.3 1.9 18.5 0 0.2-0.2 0.3-0.4 0.3z"/>
			<g id="&lt;Group&gt;">
				<path id="&lt;Path&gt;" class="s7" d="m303.9 367.9c0 0.3-0.1 0.7-0.2 1q-0.1 0.5-0.2 0.9-0.3 0.7-1.3 1.5-0.4 0.5-1 0.9-1.4 1.1-3.4 2.3-0.8 0.4-1.5 0.8-1.9 1.1-4.2 2.2-0.9 0.4-1.7 0.8-2.3 1.1-4.7 2.1-1 0.5-1.9 0.8-2.6 1.1-5.2 2.1-1.1 0.4-2.1 0.8-2.8 1-5.7 2-1.1 0.4-2.3 0.8c-3.6 1.2-7.3 2.3-10.9 3.2l-4.9 1.2v-1.2c0 0 4.3-1.6 10.1-3.8q1-0.4 2-0.8 2.6-1 5.4-2 1-0.4 2-0.8 2.6-1.1 5.2-2.1 1-0.4 2-0.8c1.8-0.7 3.5-1.4 5.1-2.1q1-0.4 1.9-0.8c1.8-0.7 3.4-1.4 4.8-2.1q1-0.4 1.7-0.8 0.7-0.3 1.3-0.6 1.5-0.9 2.6-1.6 0.7-0.5 1.2-0.9 1.6-1.2 2.3-2.4 0.3-0.5 0.4-0.9c0.3-0.9 0.2-1.8-0.2-2.6q-0.2-0.5-0.6-1.1-0.4-0.6-1-1.3c-0.5-0.7-1.1-1.1-1.7-1.3q-0.8-0.3-1.4-0.1c-2 0.2-3.4 2.4-2.2 4.2l-1.1 1.4-0.1 0.2q0-0.1-0.1-0.2c-0.3-0.8-1.2-3.9 0.2-6q0.3-0.5 0.9-0.9 0.7-0.6 2-0.9c2.1-0.5 4 0.3 5.5 1.7q0.5 0.4 1 1.1c0.5 0.7 1 1.6 1.3 2.5q0.2 0.5 0.4 1c0.2 0.9 0.3 1.8 0.3 2.6z"/>
				<path id="&lt;Path&gt;" class="s12" d="m270.8 386.1q-1.1 0.4-2.3 0.8l-5.7-0.6q1-0.4 2-0.8z"/>
				<path id="&lt;Path&gt;" class="s12" d="m278.6 383.3q-1.1 0.4-2.1 0.8l-6.3-0.6q1-0.4 2-0.8z"/>
				<path id="&lt;Path&gt;" class="s12" d="m285.7 380.4q-1 0.5-1.9 0.8l-6.4-0.6q1-0.4 2-0.8z"/>
				<path id="&lt;Path&gt;" class="s12" d="m292.1 377.5q-0.9 0.4-1.7 0.8l-5.9-0.6q1-0.4 1.9-0.8z"/>
				<path id="&lt;Path&gt;" class="s12" d="m297.8 374.5q-0.8 0.4-1.5 0.8l-5.1-0.5q1-0.4 1.7-0.8z"/>
				<path id="&lt;Path&gt;" class="s12" d="m302.2 371.3q-0.4 0.5-1 0.9l-4.4-0.4q0.7-0.5 1.2-0.9z"/>
				<path id="&lt;Path&gt;" class="s12" d="m292.3 366.8h0.2l-0.1 0.2q0-0.1-0.1-0.2z"/>
				<path id="&lt;Path&gt;" class="s12" d="m303.9 367.9c0 0.3-0.1 0.7-0.2 1l-3.4-0.4q0.3-0.5 0.4-0.9z"/>
				<path id="&lt;Path&gt;" class="s12" d="m303.6 365.3l-3.1-0.3q-0.2-0.5-0.6-1.1l3.3 0.4q0.2 0.5 0.4 1z"/>
				<path id="&lt;Path&gt;" class="s12" d="m301.9 361.8l-4.7-0.5-1.4-0.1-3.3-0.4q0.3-0.5 0.9-0.9l7.5 0.8q0.5 0.4 1 1.1z"/>
			</g>
			<path id="&lt;Path&gt;" class="s9" d="m206 455.9c-0.7-7.3-1.5-14.7-2.6-22.1 2.2-0.4 4.9-0.6 8.1-0.4 0 0 2.3 18.4-5.5 22.5z"/>
			<path id="&lt;Path&gt;" class="s26" d="m160.9 370l-3.4-9.2c0 0-0.6-3.9-0.4-4 0.2-0.1-9.5-11.1-10.1-11.3-0.6-0.1-8.9 2.3-8.1 4.6 0.8 2.4 7.7 11 8.7 11.7 1 0.6 4.1 2.1 4.1 2.1l2.6 8.3z"/>
			<path id="&lt;Path&gt;" class="s15" d="m216.1 419.2c0 0-32.1-7.8-35.3-9-3.1-1.1-20.5-44.8-20.5-44.8l-8.4 1.4c0 0 16.7 54.1 21.4 57.9 4.8 3.8 31.6 17.3 31.6 17.3 0 0 13.6-15.2 11.2-22.8z"/>
		</g>
	</g>
</svg>