<svg version="1.2" xmlns="http://www.w3.org/2000/svg" viewBox="0 0 1920 1080" width="1920" height="1080">
	<title>9827044</title>
	<defs>
		<clipPath clipPathUnits="userSpaceOnUse" id="cp1">
			<path d="m1920 1080h-1920v-1080h1920z"/>
		</clipPath>
	</defs>
	<style>
		tspan { white-space:pre } 
		.s0 { fill: #eeeeee } 
		.s1 { fill: #95c160 } 
		.s2 { fill: #76963e } 
		.s3 { fill: #191919 } 
		.s4 { fill: #e5ac91 } 
		.s5 { fill: #de825d } 
		.s6 { fill: #642f2b } 
		.s7 { fill: #ffc9b4 } 
		.s8 { fill: #ffffff } 
		.s9 { fill: #f4872d } 
		.s10 { fill: #e42d32 } 
		.s11 { fill: #4bafe3 } 
		.s12 { fill: #eb863b } 
		.s13 { fill: #d66d25 } 
		.s14 { fill: #fa994c } 
		.s15 { fill: #993f3a } 
		.s16 { fill: #a75438 } 
		.s17 { fill: #a13f22 } 
		.s18 { fill: #fa967a } 
		.s19 { fill: #ee96be } 
		.s20 { fill: #ef6eab } 
		.s21 { fill: #0577ca } 
		.s22 { fill: #2995c0 } 
		.s23 { fill: #ce7f42 } 
		.s24 { fill: #e49553 } 
		.s25 { fill: #f5b6d1 } 
	</style>
	<g id="OBJECTS">
		<g id="&lt;Clip Group&gt;" clip-path="url(#cp1)">
			<g id="&lt;Group&gt;">
				<g id="&lt;Group&gt;">
					<g id="&lt;Group&gt;">
						<g id="&lt;Group&gt;">
							<path id="&lt;Path&gt;" class="s0" d="m356.1 643.6q-6.1 4.1-12.2 8.2c-1-3.4-4.9-4.8-8.7-5.2-3.7-0.3-7.8-0.2-10.9-1.8-3.1-1.6-4.6-5.9-1.8-9 1.1-1.2 2.8-1.9 3.8-3.2 1.3-1.6 1.4-3.6 2.3-5.3 2-3.6 6.6-5 10.6-6.3 6.7-2.1 13.3-5.2 19.4-9.2 2.3-1.5 4.6-3.1 5.9-5.4 1.3-2.2 1.4-5.2-0.5-6.3 5-1.3 11.7-4.3 11.5-9.1 0-1.5-0.9-2.7-0.8-4.2 0-4 5.2-6.7 9.3-8 31.2-10.2 63-15.2 94.8-19.5 3.2-0.4 6.7-0.8 9.4 0.5 1.2 0.6 2.2 1.6 3.5 2.1 4.4 1.7 9.6-2.1 14.2-4.7 13.3-7.5 28.3-5.7 41.6-2.3 13.4 3.3 27 8.1 41.3 5.1 8.8-1.8 17.2-6.5 26-7.7 8.1-1.1 16.1 0.8 24.2-0.4 8.1-1.2 17.2-7.1 18.1-15.8 0.3-2.6-0.2-5.4 1.2-7.7 2.4-4 9.4-1.4 8.2 3.1 0 0 15 26.2-7.6 36.1-13.1 5.8-24.6 15.6-36.6 24-6.9 4.8-14.5 11.1-14.6 19.4 2.4-3 7.2-1.4 8.5 1.9 1.4 3.3 0.5 7.3-0.5 10.9 6.4-2.1 13.1-4.3 19.4-3 6.3 1.3 11.9 7.4 10.6 14.2-0.4 2-1.3 3.9-1.3 5.9 0.1 5.7 8 7.5 12.4 3.9 4.5-3.6 6-9.8 7-15.5 0.5-3.1 0.9-6.3 2.7-8.9 3.7-5.2 10.6-5.2 16.3-6.8 5.8-1.7 11.9-9.2 8-13.5-2.1-2.4-6.5-2.4-7.4-5.6-0.8-2.9 2-5.8 4.7-7.2 2.7-1.4 5.9-2.4 7.5-5.1 1.1-2.2 0.9-4.9 1.8-7.2 2-5.6 8.6-7 14-7.4 3.6-0.2 7.6-0.4 10.2 2.1 6.4 6.1-2 18.5 0.4 27.5 3.7 3.1 8.8-2.2 11.5-6.8 2.6-4.7 7.7-10 11.5-6.9 4.4 4.9-3.7 13.7-1.8 20.5 0.5 1.8 1.7 3.3 2.9 4.7q10.2 12 20.4 24.2c-8.6 7.2-16.6 15.2-24.1 23.7-2-2.1-2.8-5.4-2-8.4-13-2.3-27.3 3.2-36.7 13.7 5.3-0.5 12.5 0.6 12.5 6.3 0 1.9-1 4-0.3 5.7 1.5 3.5 8.6 2.6 8 6.6-0.2 1.4-1.4 2.3-2.5 3.1q-12.3 8.2-24.6 16.4c0.6-5.6 3.3-11 7.5-14.8-7.1-1.3-14.2 4-19 10.1-4.8 6.1-8.3 13.3-13.9 18.6-10.9 10.5-29.4 13.7-33.4 28.4-0.9 3.4-0.9 7.1-2.5 10.2-1.2 2.4-3.2 4.2-5.3 5.8-7 5.6-14.8 10.2-21.3 16.5-6.5 6.2-11.8 14.6-11.7 23.6 0.1 5.5 2.1 10.9 1 16.3-1.2 5.4-8.1 9.9-11.6 5.9-3-3.4-0.3-8.8 1.5-13.2 1.9-4.6 2.6-9.8 0.9-14.2-1.8-4.5-6.7-7.6-11.2-6.1-4.5 1.4-7.3 6.5-11.8 7.7-3.6 1-7.1-0.6-10.5-1.8-10.8-3.6-24.7-1.4-31.5 8.3-2.3 3.3-3.6 7.1-5.2 10.7-3.2 7.3-7.8 14-10.8 21.3-2.9 7.4-4.2 15.9-0.7 22.9 3.1 6.2 10.1 10.3 17.1 9.9 7-0.3 13.7-5.1 16.4-11.8 1.1-2.5 1.6-5.4 3.4-7.6 3.1-4 8.9-4.3 13.8-4.2 1.2 0.1 2.4 0.1 3.4 0.7 2.4 1.6 1.7 5.7-0.4 7.8-2 2.1-4.9 3.1-7.3 4.9-4.5 3.5-6.3 10.3-4 15.6 2.3 5.3 8.5 8.4 14 7.2 3.9-0.9 8.4-3.5 11.3-0.8 1.6 1.4 1.9 3.8 2.1 5.9 0.6 6.6 1 14.1-3.2 19.2-1.2 1.4-2.7 2.6-3.7 4.2-1.6 2.8-1.2 6.3-0.2 9.4 3.5 9.6 14.1 16 23.8 14.2q8.1-4.6 16.1-9.3c8.4-14.3 30.5-12.6 40.5-26 0 5.9 3.9 11.7 9.2 13.5 3.3 1.2 6.8 1 10.2 0.9 13.5-0.2 29.3 4.1 34.6 17.5 1.2 3.1 1.7 6.5 3.4 9.3 7.8 12.7 29.5 2.6 38.7 14.2 2.3 2.8 3.3 6.5 4.6 10 6.3 17.2 19.4 31.6 35.3 38.7 10.5 4.6 22 6.2 32.2 11.5 10.2 5.4 19.4 16.5 17.9 28.7-0.7 5.8-3.7 10.9-6.3 16.1-6.2 12.4-10.3 26.2-11.7 40.3-1.6 15.2-1 32.7-11.2 42.7-8.9 8.9-23.9 9.2-30.7 19.9-4.1 6.3-4.2 14.7-6 22.2-3.1 12.8-11.3 23-19.3 32.6-1.8 2.2-3.7 4.5-6.3 5.5-4.1 1.7-9.4 0.3-12.6 3.4-3.2 3.1-2.4 8.8-4 13.2-1.4 3.8-4.7 6.4-7.8 8.7q-8.9 6.8-17.8 13.4c-1.6 1.2-3.2 2.4-3.8 4.4-1.4 4.4 3 8.8 6.1 12.6 3.1 3.9 3.6 11.7-0.9 11.5 7.4 2 7.4 13.7 4.2 20.6-3.2 7-7.6 15.4-3 22.3 2.8 4.2 8.6 7 8.4 11.9-0.1 3.5-3.8 5.5-7 4.9-3.3-0.6-6.2-3.1-8.8-5.5-23.8-22.7-39.6-54.7-43-86.7-2.9-28.4 3.5-55.8 5.1-84 1.6-28.1-3.1-59.7-23-79.5-5.6-5.5-12.4-10.2-15.9-17.3-2.3-4.9-2.9-10.4-5-15.3-8-18.9-35.8-25.2-38.5-45.1-2.1-15.7 13.6-27.1 17.8-42.4 0.9-3 1.2-6.3 2.7-9.1 2.1-4 6.2-6.4 9.2-9.8 2.9-3.4 5.8-13.4 1.4-12.5-40.5 8.5-45.8-18.3-45.8-18.2 0-2.6-3.1-3.6-5-5.3-4.8-4.3-1.8-13.7-6.7-17.9-4.5-3.9-11.6 0.2-17.3-1.2-4.1-1-7-4.5-10.3-7.1-3.3-2.6-8.5-4.1-11.4-1.1-1.1 1.1-1.7 2.6-3 3.4-2.9 2-6.5-1-9.3-3.1-7.8-5.9-18.9-6.3-26.5-12.4-6.7-5.4-9.4-15-6.7-23.1q-1.1-9.7-2.2-19.3-6.7-8.1-13.4-16c-1.8-2.2-3.7-4.5-3.8-7.4-0.1-2.3 1-4.6 1.6-6.9 1.1-4.9-0.3-10.2-3.8-13.5-2.1-2.1-5.8-3.4-8.2-1.3-4.5 3.8 2.4 11-0.3 16.1-0.9 1.7-2.7 3-2.9 4.8-0.4 3.4 5.3 5.2 4.4 8.6-3.4-0.3-6.9-0.8-9.6-2.7-2.7-1.9-4.3-5.6-2.8-8.6 0.6-1.2 1.5-2.1 1.9-3.3 1.7-4.3-3.7-7.5-5.2-11.6-1.7-4.5 1.3-10.1-0.8-14.4-1.2-2.3-3.7-3.7-5.4-5.7-5-5.9-1.8-15.6-5.4-22.4-1-1.9-2.6-3.4-3.5-5.3-3.8-7.3 1.3-16.5 6.2-24.1q6.7-10.2 13.5-20.6c2.2-3.5 4.6-7.9 2.7-11.2-1-1.9-3.3-2.9-4.8-4.4-1.6-1.6-2.1-4.7 0-6 0.8-0.5 1.8-0.6 2.6-1.2 1.4-1 1.5-2.8 1.5-4.4q-0.2-7.6-0.4-15.2c0-0.5-0.1-1.1-0.3-1.5-1.5-2.6-6.1 1.9-8.9 0.8-1.5-0.6-1.7-2.7-1.1-4.3 0.7-1.6 1.9-2.9 2.8-4.4 3.9-6.3 1.7-14.3-3.5-18.1-5.2-3.8-12.6-4.2-19.7-3-5.6 0.9-11.2 2.7-16.5 5.2-5 1.3-10.1 3.2-14.8 5.7q-5.3 3.3-10.6 6.4z"/>
						</g>
						<g id="&lt;Group&gt;">
							<path id="&lt;Path&gt;" class="s0" d="m1695.8 591.1c-12.9 0.4-26.7-3-39.1-9.8-7-3.9-13.7-9-21.1-11.7-10.3-3.8-20.8-2.5-31.4-3.8-19.9-2.3-39-13.8-58.7-20.9-19.9-7.2-40.3-9.6-60.6-11.2-22-1.8-44.2-2.6-65 2.8-5.6 1.5-15.2-0.5-13.7-6.4 0.4-1.6 1.7-2.6 2.9-3.6q6.4-5.1 12.8-10.2-14.1-8.2-28.2-16.3c-5.3-3-10.7-6.1-16.4-7.1-6.3-1.1-12.5 0.5-18.5 2.1q-32.3 8.9-64.8 18.7c-5.1 1.6-11.2 4.3-11.8 10.1-0.5 4.9 3.1 9.5 3.3 14.3 0.3 4.9-7.6 7.9-7.9 3-1.8-12-7.9-23.5-16.8-31.4-3.2-2.9-7.6-5.4-11.3-3.7-4.4 2-4.8 9.2-2.1 13.8 2.8 4.6 7.6 7.2 12.1 9.6-16.9 12.8-41.2-2.2-62.1 0.9-19.4 2.8-35.3 21.6-55 19.5-1.3-0.1-2.6-0.3-3.7-1.1-4.5-3.4 0.1-11.5 5.4-12 5.2-0.5 10.4 2.7 15.7 2.5 5.3-0.2 10.5-7.6 6.4-11.5-1-1-2.4-1.5-3.8-1.9q-20.2-6.1-40.3-12.1c-6.9-2-14.1-4-21-2.5-5 1.1-9.4 3.8-14.3 5.3-6.2 1.8-12.9 1.4-19.3 2.5-14.2 2.4-27.1 12.6-33.9 26.7q-1.9 2.4-3.8 4.7c-1.4 6.7-7.6 10.5-12.5 14.6-5 4-9.6 11.4-6.5 17.3 3.1 5.8 10.9 5.1 16.7 2.9 5.8-2.1 12.6-4.9 17.6-0.9 2.1 1.6 3.5 4.2 5.7 5.7 5.3 3.5 11.9-1 16.6-5.4 0.5-0.4 1.1-1 1.3-1.7 0.5-1.9-1.6-3.2-3.1-4.2-6.1-3.7-9.4-12.2-7.7-19.6 1.8-7.5 8.4-13.1 15.3-12.9 0.9 0 1.9 0.1 2.6 0.7 1.7 1.6 0.7 4.8-0.9 6.6-1.7 1.7-3.8 3.2-4.1 5.7-0.3 3.3 2.9 5.7 5.8 6.5 2.9 0.8 6.2 1 8.3 3.4 2.5 2.8 2.3 7.6 4.9 10.4 3.6 4 10.2 1.3 14.4 4.6 3.2 2.5 3.8 7.7 2.4 11.7-1.5 3.9-4.4 6.9-7.2 9.8q-6.3 3.9-12.5 7.8-18.2 1.1-36.4 2.4c-2.9 0.2-5.9 0.3-8.3-1.3-2.8-1.9-4.1-5.7-6.6-8.2-4.8-4.9-13.9-2.4-16.1 4.5-1.2 3.6-0.8 8.2-3.4 10.7-1.3 1.3-3.1 1.6-4.7 2.5-6.1 3.1-7.9 11.8-12.6 17-5.7 6.3-14.6 6.9-22.4 5.7-1.8-0.3-3.7-0.7-5.4 0.2-4.2 2.2-2.8 9.5 0.6 12.9 3.4 3.5 8.1 5.7 10 10.3 2.4 5.9-0.7 13.6 2.7 18.9 4.2 6.6 13.4 3.1 20.1-0.4 9.3-4.8 20.4-8 29.7-2.9 5.7 3.2 9.7 9.1 13.6 14.8q3.9 5.7 7.8 11.5c1.4 2.1 2.9 4.3 5.2 5.1 3.3 1.2 7.1-1.4 8.4-4.9 1.4-3.6 0.8-7.8-0.6-11.4-1.6-4-4-7.5-7.1-10.2-3.2-2.9-7.2-4.8-10.2-8.1-2.9-3.2-4.6-8.7-2.2-12.4q11.9 7.6 23.8 15.3c5.3 3.4 10.7 7 13.7 12.9 2.5 4.9 2.8 10.9 4.9 16.1 2.1 5.2 7.3 9.8 12 7.8 1.1-0.5 2.1-1.3 3.2-1.8 2.3-0.8 4.9 0.2 7.3 1.1q13.6 5.8 27.2 11.5c2.4 1 4.8 2 7.4 1.9 4.4-0.3 8.1-4.2 12.5-4.2 4.8 0 8.8 4.6 10.2 9.7 1.3 5 0.7 10.4 0 15.6-0.9 7.4-3.1 16.3-9.8 17.8-3.5 0.8-7.1-1-10.7-1.8-12.4-3.1-26.9 4.9-37.3-3.3-4.7-3.7-10.2-10.6-14.6-6.6-3.9 3.5-0.8 11.4-3.9 15.7-11.7 2-18.7-15.7-30.2-18.4-4.6-1.1-9.4 0.4-14.1-0.1-4.7-0.6-9.8-4.7-8.8-9.8 0.7-4.2 5.2-6.9 5.1-11.1 0-4.3-4.9-6.6-8.8-5.8-3.8 0.7-7.2 3.2-11 4-6.9 1.4-13.7-3.1-20.8-3.6-14.8-1.1-27.9 15.4-42.5 12.6-1.3-6.1 4.7-10.9 10.2-12.8 5.4-1.8 11.8-3.2 14.4-8.8 2.6-5.8-0.2-14.1 4.1-18.6 3.2-3.3 9.6-3.7 9.9-8.6 0.2-3.1-2.6-5.3-5.2-6.4-11.5-4.7-24.6-0.5-36.3-4.5-3.8-1.2-7.4-3.4-11.3-3.9-4-0.5-8.6 1.3-10 5.4-1.1 3.5 0.4 7.2 0.9 10.9 1 6.8-1.6 13.6-2.3 20.5-0.7 6.9 1.9 15.3 8 16.4 2.9 0.5 6.6-0.5 8.3 2.1 1.6 2.3 0.2 5.8-2 7.5-2.1 1.7-4.8 2.4-7 4-9.5 6.9-4.8 24.9-12.8 33.7-4.6 5-12.4 5.7-16.1 11.5-2.5 3.9-2.4 9.2-4.3 13.5-3.4 7.3-12.1 11.1-13.8 19-1.9 8.9 6 16.8 6.1 25.9 0.1 11.3-11.9 21.5-7.8 31.8 0.9 2.2 2.5 4 3.6 6.2 3 6.4 0.9 15 5.1 20.6 4 5.3 12.5 5.5 15.2 11.7 1.2 2.7 1 5.9 1.2 8.9 0.9 12.1 10.6 22.7 21.5 23.4 3.5 0.3 7-0.3 10.5-0.1 5.1 0.4 10 2.6 15.1 3.2 5.1 0.6 11.1-1.1 13.4-6.2q9.1-4.6 18.2-9.1 16.2 3.5 32.4 7c2.2 0.5 4.7 1.2 5.8 3.3 1.1 2.1 0.4 4.8 0 7.1-6.3 31.9 28.5 59.3 24.8 91.6-0.7 6.4-2.9 12.3-4.5 18.5-11.5 44.8 10.4 91 31.5 130.9 2.7 5.3 6 10.9 11.2 12.8 5.2 1.8 10.9-0.7 15.9-3.2q14.7-7.2 29.3-14.5c3.8-1.8 7.8-3.9 10.1-7.7 3.6-6.2 1.4-14.6 3.9-21.4 2.4-6.5 8.6-10.5 11.7-16.7 5.9-12.2-2-29 5.7-40 8-11.4 27.2-7.6 33.5-20.2 1.5-2.9 1.9-6.1 2-9.3 0.6-21-14.7-40.7-9.6-61.1 4-15.7 18.6-24.8 29.2-36.3 19.5-21.2 26.2-52.1 32-81.2q-13 7.5-25.9 15c-2.5 1.4-5.1 2.8-7.8 2.7-3.9-0.2-7-3.5-9.5-6.7-24.2-29.4-41.9-65.6-51.1-104.3 16.1 4.2 28 19.1 36.4 34.7 8.4 15.5 14.4 32.7 24.8 46.6 1.6 2.3 3.6 4.5 6.1 5.2 2.8 0.7 5.7-0.6 8.3-2 14.3-7.9 26.9-19.1 39.3-30.1 5.3-4.7 10.9-9.9 12.4-17.1 2.7-12.9-13.2-25.3-23.5-18.3q-8.8-12.5-17.6-25c-2.3-3.2-4.7-6.7-5.1-10.7-0.5-4 1.8-8.6 5.5-8.9 2.7-0.2 5.2 2 7.4 3.9 18.9 17.1 43.1 26.9 67.4 27.6 6.6 0.2 13.5-0.1 19.1 3.6 5.2 3.4 8.1 9.5 12 14.4 4.8 6.2 11.3 10.7 15.7 17.2 3.8 5.6 5.8 12.4 7.7 19q9 31.1 18.1 61.9c7.4-9.5 12.1-21.1 13.6-33.1 0.6-5.3 0.6-10.7 2.2-15.8 2.8-9.2 10.3-15.7 17.4-21.8 7.6-6.4 15.7-13.1 25.4-14.9 9.7-1.9 21.5 2.7 24.6 12.4 2 6.3 0.6 14.3 5.6 18.5 2.4 2 5.7 2.4 8.7 2.9 17.2 3.2 32.8 14.4 41.6 29.4 3.6 6.2 9 14.2 15.6 11.4 2.8-1.2 4.4-4.2 5.9-6.9 5.2-10.2 10.5-22.1 5.6-32.4-2.5-5.3-7.6-9.9-7.5-15.7q-1.6-9.5-3.3-18.9c0.5-4.2 6.2-5 10.3-3.7 4 1.2 8.6 3.2 12.1 1 1.4-0.9 2.3-2.4 3.6-3.5 4.5-3.9 11.4-2.1 17.3-3 6.8-1 12.5-5.9 15.4-11.9 2.9-6 3.3-13 2.4-19.7-0.7-4.8-0.9-11.6 3.9-12.4 0.6-4.6-2.8-9-6.6-12.3-3.7-3.2-8.1-5.8-10.9-9.9-2.8-4.1-3.2-10.3 0.7-12.8 1.1-0.6 2.4-1 3.3-1.8 1.9-1.9 1.1-5.5-1.1-7.3-2.3-1.8-5.4-2-8-1.3-2 0.6-4 1.7-6.1 1.5-3.5-0.3-6.1-4.2-6.2-7.7 0-3.5 1.8-6.6 3.6-9.4 1.8-2.8 5.1-5.8 8.1-3.8 1.2 0.9 1.9 2.3 3.1 3 3.8 2.5 8.2-3.6 12.4-1.8 0.9 0.4 1.7 1.1 2.4 1.8 8.7 8.7 15.2 19.3 18.7 30.5 0.9 2.9 2.1 6.4 5.1 7.5 3.2 1.2 6.5-1.6 6.8-4.7 0.3-3.2-1.5-6.4-3.7-9.1-2.3-2.6-4.9-4.9-6.7-7.8-4-6.2-3.5-13.7-2.1-20.4 0.5-2.4 1.3-5 3.6-5.8 2.7-1 6 1.1 8.7 0.4 1.9-0.5 3.1-2.1 4.1-3.7 6.3-10.6 7.1-24.4 2.2-37-2.3-5.7-6.1-11.5-11.8-14-2.1-0.9-4.3-1.3-6.1-2.7-5.1-3.8-3.8-12.7-9.3-15.8-3.7-2.1-8 0-11.9-1.5-3.7-1.4-5.9-5.6-6-9.3-0.1-3.7 1.4-7 2.9-10.1 0.8-1.7 1.7-3.5 3.3-4.3 2-1.2 4.7-0.7 7.2-0.2q21.7 4.2 43.5 8.7c0.9 0.2 2 0.3 2.7-0.1 2.7-1.6-2-8.1 1.2-8.7 3.7 2 7.9 4.1 11.4 3 1.2-0.4 2.2-1.1 3.4-1.3 4.3-0.5 7.7 5.4 7.1 9.5-0.5 4.1-3 7.6-2.7 11.9 0.8 8.3 11.2 13.6 16.6 20.8 2.4 3.2 3.8 6.7 6 9.9 2.2 3.2 5.6 6.2 9.4 6.5 2.8-8.5 5.1-18.9-2-26.5-2.3-2.6-5.4-4.4-7.9-6.8-2.5-2.4-4.5-5.9-3.5-8.6 1.1-2.7 4.5-3.5 7.8-3.1 3.2 0.4 6.4 1.6 9.6 2 1.1 0.1 2.4 0.1 3.1-0.5 1.4-1.2 0.5-3.7 0.9-5.5 0.3-2 2.2-3.2 3.1-5 2.3-4.4-1.8-10.7-6.6-14.6-4.7-4-10.5-7-14.2-11.9q-9.2-5.9-18.4-11.8z"/>
						</g>
						<g id="&lt;Group&gt;">
							<path id="&lt;Path&gt;" class="s0" d="m963.1 595.6c3.6 1.7 8.3 1.3 10.5 4.8 0.7 1.1 1 2.3 1.5 3.5 1.4 3.5 4.3 5.8 6.7 8.5 2.4 2.7 4.5 6.3 3.7 10-0.4 2.1-1.7 3.9-3.3 5.1-4 3.3-10.5 2.7-13.2-2-1.3-2.3-1.5-5.2-2.4-7.7-0.9-2.6-3.1-5.1-5.5-4.5-1.1 0.2-2 1-2.8 1.8-2.1 2.3-3.7 5.2-4.5 8.3-0.6 2.3-0.9 4.7-2.2 6.6-2.3 3.3-6.7 3.3-10.5 2.9-0.8-0.1-1.8-0.2-2.4-0.8-0.6-0.6-0.8-1.6-1-2.5-0.8-6.1 1.5-12.7 6-16.6 2.6-2.3 6.1-4.3 6.4-7.9 0.3-2.3-1-4.5-0.7-6.8 0.2-1.9 1.5-3.5 2-5.4 0.3-1.3 0.2-2.6 0.5-3.9 0.5-2.5 2.5-4.7 4.8-5.2 2.3-0.5 4.8 0.6 6.2 2.7q0.1 4.5 0.2 9.1z"/>
						</g>
						<g id="&lt;Group&gt;">
							<path id="&lt;Path&gt;" class="s0" d="m782.8 484.3c3.2 4.7 9.1 6.9 14.6 5.6 3.4-0.7 6.6-2.7 10.1-3.1 7.3-0.7 13.3 6.9 13.8 14.9 0.6 8-2.9 16-7.1 22.9 1.7 2.7 5.7 1.1 8.3-1 2.5-2.1 6-4.5 8.4-2.5 1.8 1.5 1.6 4.6 0.4 6.7-1.3 2.1-3.3 3.5-5.3 4.8-5.7 3.8-12 9.3-12 16.5-0.1 3.8 1.7 7.3 3.5 10.5q6.2 11.4 12.5 22.8c2.2-3.3 0.3-7.8 1.2-11.6 0.9-4.4 5.1-7.2 9-8.6 3.9-1.5 8.2-2.2 11.5-5 4-3.3 5.8-9 8.9-13.3 11.8-16.2 37.9-9.1 50.3-24.7 3.6-4.5 5.7-10.6 10.3-13.6 7.8-5.2 18.5 0.8 26.4-4.1 7.4-4.6 8.1-16 7-25.2-0.3-2-0.5-4.2 0.3-6.1 0.9-2.3 3.2-3.6 4.6-5.6 2.6-3.9 1.2-9.7-2-12.8-3.2-3.1-7.6-4.2-11.9-5-14.7-2.7-29.7-3.5-44.7-2.1-15.2 1.4-30.3 4.9-45.4 8.4-11.2 2.7-22.4 5.4-33 10.4-8.8 4.1-17 9.7-25.1 15.2-4.4 2.9-9.4 6-14.3 5"/>
						</g>
					</g>
				</g>
				<g id="&lt;Group&gt;">
					<g id="&lt;Group&gt;">
						<path id="&lt;Path&gt;" class="s1" d="m200.1 1081.8c-4.7-4.3-9.3-9.1-10.9-15.2-1.5-6.2 1.3-13.8 7.5-15.4 4.9-1.3 9.9 1.6 13.9 4.6-13.1-10.9-26.1-24.1-28.4-41-0.3-2.7-0.4-5.5 0.7-8 1.8-4.2 6.6-6.6 11.2-6.4 4.6 0.2 8.9 2.7 12.2 5.9-2.2-8.5-3.4-17.2-3.6-25.9-0.2-5.7 0.2-11.6 2.8-16.7 2.5-5.1 7.8-9.1 13.5-8.7 4.1 0.3 7.7 2.8 10.7 5.7 10.4 9.8 15.9 24.4 14.7 38.5q4.6-7.8 9.1-15.6c3.1-5.4 7-11.3 13.2-12.1 4.3-0.6 8.6 1.7 11.4 4.9 2.8 3.3 4.4 7.5 5.5 11.6 5 17.7 3.9 37.1-3.2 54 4.1-6.6 9.2-12.6 15.1-17.5 1.5-1.2 3-2.4 4.8-2.9 3.7-0.9 7.7 1.5 9.7 4.8 2 3.4 2.3 7.4 2.4 11.3 0.5 31.4-15.8 61-36.4 84.7 0 0-56.8-22.9-75.9-40.6z"/>
					</g>
					<g id="&lt;Group&gt;">
						<g id="&lt;Group&gt;">
							<path id="&lt;Path&gt;" class="s2" d="m222.1 965.6c5.2 23 12.1 45.5 19.7 67.7 7.6 22.4 15.8 44.6 23.8 66.8q6.9 19.1 13.8 38.3c0.6 1.7 3.3 0.9 2.7-0.8q-12.3-34-24.5-68.1c-8-22-15.9-44-22.6-66.3-3.9-12.7-7.3-25.4-10.2-38.3-0.4-1.8-3.1-1-2.7 0.7z"/>
						</g>
					</g>
					<g id="&lt;Group&gt;">
						<g id="&lt;Group&gt;">
							<path id="&lt;Path&gt;" class="s2" d="m203.8 1016q19.6 18.1 38.2 37.3 5.3 5.4 10.5 11c1.2 1.3 3.2-0.7 2-2q-18.3-19.4-37.6-37.9-5.5-5.3-11.1-10.4c-1.3-1.3-3.3 0.7-2 2z"/>
						</g>
					</g>
					<g id="&lt;Group&gt;">
						<g id="&lt;Group&gt;">
							<path id="&lt;Path&gt;" class="s2" d="m221 1063.1q19.5 18.2 38.1 37.4 5.3 5.4 10.5 11c1.3 1.3 3.3-0.7 2-2q-18.3-19.5-37.6-37.9-5.5-5.3-11.1-10.5c-1.3-1.2-3.3 0.8-1.9 2z"/>
						</g>
					</g>
					<g id="&lt;Group&gt;">
						<g id="&lt;Group&gt;">
							<path id="&lt;Path&gt;" class="s2" d="m254.7 1061.3c5.4-17.3 13.4-33.6 18.9-50.9 1.5-4.9 2.9-9.9 3.9-14.9 0.3-1.8-2.4-2.6-2.7-0.8-3.6 17.8-11.2 34.4-17.7 51.2-1.8 4.9-3.6 9.7-5.2 14.7-0.5 1.7 2.2 2.4 2.8 0.7z"/>
						</g>
					</g>
					<g id="&lt;Group&gt;">
						<g id="&lt;Group&gt;">
							<path id="&lt;Path&gt;" class="s2" d="m271 1105.4c5.5-17.3 13.5-33.7 18.9-50.9 1.6-4.9 2.9-9.9 3.9-15 0.4-1.7-2.3-2.5-2.7-0.7-3.6 17.8-11.2 34.3-17.6 51.2-1.9 4.8-3.6 9.7-5.2 14.6-0.5 1.8 2.2 2.5 2.7 0.8z"/>
						</g>
					</g>
				</g>
				<g id="&lt;Group&gt;">
					<g id="&lt;Group&gt;">
						<path id="&lt;Path&gt;" class="s1" d="m1714.7 1074.5c4.6-4.3 9.3-9.2 10.8-15.3 1.6-6.1-1.3-13.8-7.4-15.4-4.9-1.3-9.9 1.6-14 4.7 13.1-10.9 26.2-24.2 28.4-41 0.4-2.7 0.4-5.6-0.6-8.1-1.8-4.2-6.7-6.6-11.3-6.4-4.6 0.3-8.8 2.7-12.1 5.9 2.2-8.4 3.4-17.2 3.6-25.9 0.1-5.7-0.2-11.6-2.8-16.7-2.6-5-7.9-9.1-13.6-8.7-4.1 0.3-7.7 2.9-10.7 5.7-10.3 9.8-15.9 24.4-14.7 38.6q-4.5-7.8-9-15.7c-3.1-5.3-7.1-11.3-13.2-12.1-4.3-0.6-8.6 1.7-11.4 5-2.8 3.2-4.4 7.4-5.6 11.5-5 17.7-3.8 37.1 3.2 54.1-4-6.7-9.1-12.6-15.1-17.6-1.4-1.2-2.9-2.4-4.7-2.8-3.8-1-7.8 1.4-9.7 4.8-2 3.3-2.4 7.3-2.4 11.2-0.5 31.5 15.7 61 36.4 84.7 0 0 56.7-22.9 75.9-40.5z"/>
					</g>
					<g id="&lt;Group&gt;">
						<g id="&lt;Group&gt;">
							<path id="&lt;Path&gt;" class="s2" d="m1690 957.5c-5.2 23-12.2 45.5-19.7 67.7-7.7 22.4-15.8 44.5-23.9 66.8q-6.9 19.1-13.8 38.3c-0.6 1.7 2.1 2.4 2.7 0.7q12.3-34.1 24.6-68.1c7.9-22 15.8-44 22.6-66.4 3.8-12.6 7.3-25.4 10.2-38.2 0.4-1.8-2.3-2.5-2.7-0.8z"/>
						</g>
					</g>
					<g id="&lt;Group&gt;">
						<g id="&lt;Group&gt;">
							<path id="&lt;Path&gt;" class="s2" d="m1708.9 1006.6q-19.5 18.2-38.1 37.3-5.3 5.5-10.5 11c-1.3 1.3 0.7 3.3 2 2q18.3-19.4 37.6-37.9 5.5-5.2 11-10.4c1.4-1.3-0.6-3.2-2-2z"/>
						</g>
					</g>
					<g id="&lt;Group&gt;">
						<g id="&lt;Group&gt;">
							<path id="&lt;Path&gt;" class="s2" d="m1691.8 1053.8q-19.6 18.1-38.1 37.3-5.3 5.5-10.6 11c-1.2 1.3 0.8 3.3 2 2q18.3-19.4 37.6-37.9 5.5-5.3 11.1-10.4c1.3-1.3-0.7-3.3-2-2z"/>
						</g>
					</g>
					<g id="&lt;Group&gt;">
						<g id="&lt;Group&gt;">
							<path id="&lt;Path&gt;" class="s2" d="m1662.8 1053.2c-5.4-17.3-13.4-33.6-18.9-50.9-1.6-4.9-2.9-9.9-3.9-14.9-0.4-1.8-3.1-1.1-2.7 0.7 3.6 17.8 11.2 34.4 17.6 51.2 1.9 4.9 3.6 9.7 5.2 14.7 0.5 1.7 3.3 0.9 2.7-0.8z"/>
						</g>
					</g>
					<g id="&lt;Group&gt;">
						<g id="&lt;Group&gt;">
							<path id="&lt;Path&gt;" class="s2" d="m1646.4 1097.3c-5.4-17.3-13.4-33.7-18.9-50.9-1.5-5-2.9-9.9-3.9-15-0.3-1.8-3-1-2.7 0.7 3.6 17.8 11.2 34.4 17.7 51.3 1.8 4.8 3.6 9.7 5.1 14.6 0.6 1.7 3.3 1 2.7-0.7z"/>
						</g>
					</g>
				</g>
				<g id="&lt;Group&gt;">
					<g id="&lt;Group&gt;">
						<path id="&lt;Path&gt;" class="s1" d="m1404.1 1081.8c4.7-4.3 9.3-9.1 10.9-15.2 1.5-6.2-1.3-13.8-7.5-15.4-4.9-1.3-9.9 1.6-13.9 4.6 13.1-10.9 26.1-24.1 28.4-41 0.3-2.7 0.4-5.5-0.7-8-1.8-4.2-6.7-6.6-11.2-6.4-4.6 0.2-8.9 2.7-12.2 5.9 2.2-8.5 3.4-17.2 3.6-25.9 0.1-5.7-0.2-11.6-2.8-16.7-2.5-5.1-7.8-9.1-13.5-8.7-4.1 0.3-7.7 2.8-10.8 5.7-10.3 9.8-15.8 24.4-14.6 38.5q-4.6-7.8-9.1-15.6c-3.1-5.4-7-11.3-13.2-12.1-4.3-0.6-8.6 1.7-11.4 4.9-2.8 3.3-4.4 7.5-5.5 11.6-5 17.7-3.9 37.1 3.1 54-4-6.6-9.1-12.6-15-17.5-1.5-1.2-3-2.4-4.8-2.9-3.7-0.9-7.7 1.5-9.7 4.8-2 3.4-2.3 7.4-2.4 11.3-0.5 31.4 15.8 61 36.4 84.7 0 0 56.8-22.9 75.9-40.6z"/>
					</g>
					<g id="&lt;Group&gt;">
						<g id="&lt;Group&gt;">
							<path id="&lt;Path&gt;" class="s2" d="m1379.4 964.9c-5.2 22.9-12.1 45.4-19.7 67.7-7.6 22.3-15.8 44.5-23.8 66.7q-6.9 19.2-13.8 38.3c-0.6 1.7 2.1 2.5 2.7 0.8q12.3-34.1 24.5-68.2c8-21.9 15.9-43.9 22.6-66.3 3.9-12.6 7.3-25.4 10.2-38.3 0.4-1.7-2.3-2.5-2.7-0.7z"/>
						</g>
					</g>
					<g id="&lt;Group&gt;">
						<g id="&lt;Group&gt;">
							<path id="&lt;Path&gt;" class="s2" d="m1398.4 1014q-19.6 18.1-38.2 37.3-5.3 5.4-10.5 11c-1.2 1.3 0.8 3.3 2 2q18.3-19.5 37.6-37.9 5.5-5.3 11.1-10.4c1.3-1.3-0.7-3.3-2-2z"/>
						</g>
					</g>
					<g id="&lt;Group&gt;">
						<g id="&lt;Group&gt;">
							<path id="&lt;Path&gt;" class="s2" d="m1381.2 1061.1q-19.5 18.2-38.1 37.4-5.3 5.4-10.5 11c-1.3 1.3 0.7 3.3 2 2q18.3-19.5 37.6-37.9 5.5-5.3 11-10.5c1.4-1.2-0.6-3.2-2-2z"/>
						</g>
					</g>
					<g id="&lt;Group&gt;">
						<g id="&lt;Group&gt;">
							<path id="&lt;Path&gt;" class="s2" d="m1352.2 1060.6c-5.4-17.3-13.4-33.7-18.9-50.9-1.5-4.9-2.9-9.9-3.9-15-0.3-1.8-3-1-2.7 0.8 3.6 17.8 11.2 34.3 17.7 51.2 1.8 4.8 3.6 9.7 5.1 14.6 0.6 1.7 3.3 1 2.7-0.7z"/>
						</g>
					</g>
					<g id="&lt;Group&gt;">
						<g id="&lt;Group&gt;">
							<path id="&lt;Path&gt;" class="s2" d="m1335.9 1104.6c-5.5-17.3-13.5-33.6-18.9-50.9-1.6-4.9-2.9-9.9-3.9-14.9-0.4-1.8-3.1-1.1-2.7 0.7 3.5 17.8 11.1 34.4 17.6 51.2 1.9 4.9 3.6 9.7 5.2 14.7 0.5 1.7 3.2 1 2.7-0.8z"/>
						</g>
					</g>
				</g>
				<g id="&lt;Group&gt;">
					<g id="&lt;Group&gt;">
						<path id="&lt;Path&gt;" class="s1" d="m667 947.2c-2.6-10.6-3.4-22.4 1.7-32.1 0.8-1.6 1.8-3.1 3.4-4.1 2.7-1.7 6.3-1 8.9 0.9 2.5 1.9 4.1 4.8 5.3 7.7 6.3 15.4-3.7 61.3-7.9 65.8 0 0-8.9-27.5-11.4-38.2z"/>
					</g>
					<g id="&lt;Group&gt;">
						<path id="&lt;Path&gt;" class="s1" d="m645.5 974.3c-5.7-9.4-10.1-20.3-8.1-31.1 0.3-1.8 0.8-3.6 2-4.9 2-2.4 5.7-2.9 8.7-1.9 3 1 5.4 3.3 7.5 5.8 10.6 12.7 15 59.4 12.4 65 0 0-16.9-23.5-22.5-32.9z"/>
					</g>
					<g id="&lt;Group&gt;">
						<g id="&lt;Group&gt;">
							<path id="&lt;Path&gt;" class="s2" d="m675.6 933.1q0.9 31.7 2.4 63.4 1.4 31.8 3.3 63.4 1.1 17.9 2.3 35.8c0.1 1.8 2.9 1.8 2.8 0q-2.2-31.6-3.9-63.4-1.6-31.7-2.9-63.4-0.7-17.9-1.2-35.8c-0.1-1.8-2.9-1.8-2.8 0z"/>
						</g>
					</g>
					<g id="&lt;Group&gt;">
						<g id="&lt;Group&gt;">
							<path id="&lt;Path&gt;" class="s2" d="m650.2 956.3c5.1 21.3 12.3 42.1 21.5 62q3.9 8.5 8.3 16.7c0.9 1.6 3.3 0.2 2.5-1.4-10.2-19.2-18.5-39.4-24.8-60.2q-2.6-8.9-4.8-17.9c-0.4-1.7-3.1-1-2.7 0.8z"/>
						</g>
					</g>
					<g id="&lt;Group&gt;">
						<g id="&lt;Group&gt;">
							<path id="&lt;Path&gt;" class="s1" d="m717.6 973.7c5.7-9.3 10.2-20.2 8.3-31-0.3-1.8-0.8-3.6-1.9-4.9-2-2.5-5.7-3-8.7-2-3.1 1-5.5 3.3-7.5 5.7-10.8 12.7-15.6 59.3-13 64.9 0 0 17-23.3 22.8-32.7z"/>
						</g>
						<g id="&lt;Group&gt;">
							<g id="&lt;Group&gt;">
								<path id="&lt;Path&gt;" class="s2" d="m710.3 954.9c-5.3 21.1-12.6 41.7-21.9 61.3q-4 8.4-8.4 16.5c-0.8 1.6 1.6 3 2.5 1.4 10.4-19.2 19-39.5 25.5-60.4q2.7-9 5-18c0.5-1.8-2.3-2.6-2.7-0.8z"/>
							</g>
						</g>
					</g>
					<g id="&lt;Group&gt;">
						<g id="&lt;Group&gt;">
							<path id="&lt;Path&gt;" class="s1" d="m637.6 1029.6c-7.3-8.1-13.7-18-13.8-29-0.1-1.8 0.1-3.6 1-5.2 1.5-2.8 5.1-4 8.2-3.5 3.2 0.5 6 2.2 8.4 4.3 12.9 10.5 26 55.5 24.5 61.5 0 0-21-19.9-28.3-28.1z"/>
						</g>
						<g id="&lt;Group&gt;">
							<g id="&lt;Group&gt;">
								<path id="&lt;Path&gt;" class="s2" d="m638.9 1011.1c9.1 20.1 20.1 39.2 33 57q5.4 7.5 11.2 14.7c1.1 1.4 3.1-0.6 1.9-2-13.6-16.9-25.5-35.2-35.6-54.4q-4.3-8.3-8.1-16.7c-0.8-1.6-3.2-0.2-2.4 1.4z"/>
							</g>
						</g>
					</g>
					<g id="&lt;Group&gt;">
						<g id="&lt;Group&gt;">
							<path id="&lt;Path&gt;" class="s1" d="m728.2 1026.8c7-8.5 12.9-18.7 12.6-29.6-0.1-1.8-0.3-3.7-1.3-5.2-1.6-2.7-5.2-3.7-8.3-3.1-3.2 0.6-5.9 2.5-8.2 4.6-12.4 11.1-23.6 56.6-21.8 62.5 0 0 20-20.8 27-29.2z"/>
						</g>
						<g id="&lt;Group&gt;">
							<g id="&lt;Group&gt;">
								<path id="&lt;Path&gt;" class="s2" d="m723.6 1007.3c-8.2 20.2-18.3 39.5-30.2 57.7q-5.1 7.7-10.6 15.2c-1 1.4 1.4 2.8 2.5 1.4 13-17.7 24.3-36.7 33.6-56.6q3.9-8.4 7.4-16.9c0.6-1.7-2.1-2.5-2.7-0.8z"/>
							</g>
						</g>
					</g>
				</g>
				<g id="&lt;Group&gt;">
					<g id="&lt;Group&gt;">
						<path id="&lt;Path&gt;" class="s1" d="m1830.2 1031.4c8.2-7.2 18.2-13.5 29.2-13.5 1.8 0 3.6 0.2 5.2 1.1 2.7 1.6 3.9 5.2 3.4 8.3-0.5 3.1-2.3 5.9-4.4 8.3-10.7 12.7-55.8 25.3-61.8 23.7 0 0 20.2-20.7 28.4-27.9z"/>
					</g>
					<g id="&lt;Group&gt;">
						<path id="&lt;Path&gt;" class="s1" d="m1796.2 1025.1c5.7-9.4 13.3-18.4 23.7-21.8 1.7-0.5 3.6-0.9 5.3-0.5 3.1 0.7 5.3 3.7 5.8 6.9 0.4 3.1-0.5 6.3-1.7 9.2-6.3 15.4-45.5 41.1-51.7 41.4 0 0 12.9-25.9 18.6-35.2z"/>
					</g>
					<g id="&lt;Group&gt;">
						<g id="&lt;Group&gt;">
							<path id="&lt;Path&gt;" class="s2" d="m1846.7 1032.4q-27.6 15.7-55 31.8-27.4 16.1-54.6 32.6-15.3 9.3-30.5 18.7c-1.6 0.9-0.1 3.4 1.4 2.4q27-16.7 54.3-33 27.2-16.3 54.7-32.2 15.5-9 31.1-17.9c1.6-0.8 0.2-3.3-1.4-2.4z"/>
						</g>
					</g>
					<g id="&lt;Group&gt;">
						<g id="&lt;Group&gt;">
							<path id="&lt;Path&gt;" class="s2" d="m1814.3 1020.8c-16.4 14.5-31.4 30.6-44.7 48q-5.7 7.4-11 15.2c-1 1.5 1.5 2.9 2.5 1.4 12.2-18 26.2-34.8 41.8-50.1q6.5-6.4 13.4-12.5c1.4-1.2-0.6-3.2-2-2z"/>
						</g>
					</g>
					<g id="&lt;Group&gt;">
						<g id="&lt;Group&gt;">
							<path id="&lt;Path&gt;" class="s1" d="m1830.4 1088.5c10.9 0.7 22.6-0.4 31.3-7.1 1.5-1.1 2.8-2.3 3.5-4 1.2-2.9 0-6.5-2.3-8.6-2.3-2.2-5.5-3.3-8.6-4-16.2-3.6-59.7 13.9-63.4 18.8 0 0 28.5 4.2 39.5 4.9z"/>
						</g>
						<g id="&lt;Group&gt;">
							<g id="&lt;Group&gt;">
								<path id="&lt;Path&gt;" class="s2" d="m1843.6 1073.3c-21.2 5.2-42.8 8.3-64.6 9.3q-9.2 0.4-18.3 0.3c-1.8 0-1.8 2.8 0 2.8 21.9 0.2 43.9-1.7 65.4-5.7q9.2-1.8 18.2-4c1.8-0.4 1-3.1-0.7-2.7z"/>
							</g>
						</g>
					</g>
					<g id="&lt;Group&gt;">
						<g id="&lt;Group&gt;">
							<path id="&lt;Path&gt;" class="s1" d="m1743.6 1043.9c3.8-10.3 9.6-20.5 19.2-25.8 1.6-0.8 3.3-1.6 5.1-1.5 3.2 0.1 5.9 2.7 6.9 5.6 1.1 3 0.8 6.3 0.2 9.5-3.3 16.2-37 48.9-43 50.3 0 0 7.8-27.8 11.6-38.1z"/>
						</g>
						<g id="&lt;Group&gt;">
							<g id="&lt;Group&gt;">
								<path id="&lt;Path&gt;" class="s2" d="m1760.8 1036.1c-13.5 17.4-25.2 36.1-35 55.7q-4.2 8.3-7.8 16.8c-0.7 1.7 1.7 3.1 2.4 1.5 8.6-20 19.1-39.1 31.4-56.9q5.3-7.7 11-15.1c1-1.4-0.9-3.4-2-2z"/>
							</g>
						</g>
					</g>
					<g id="&lt;Group&gt;">
						<g id="&lt;Group&gt;">
							<path id="&lt;Path&gt;" class="s1" d="m1788.5 1122.7c10.7 2.2 22.5 2.7 32-2.7 1.6-0.9 3.1-2 4-3.5 1.6-2.8 0.8-6.4-1.2-8.9-1.9-2.5-4.9-4-7.9-5.1-15.5-5.8-61 5.6-65.4 9.9 0 0 27.7 8.1 38.5 10.3z"/>
						</g>
						<g id="&lt;Group&gt;">
							<g id="&lt;Group&gt;">
								<path id="&lt;Path&gt;" class="s2" d="m1803.8 1109.5c-21.6 2.2-43.3 2.3-64.9 0.3q-9.3-0.8-18.5-2.2c-1.8-0.3-2.6 2.4-0.8 2.7 21.7 3.2 43.7 4.4 65.7 3.4q9.3-0.5 18.5-1.4c1.8-0.2 1.8-3 0-2.8z"/>
							</g>
						</g>
					</g>
				</g>
				<g id="&lt;Group&gt;">
					<g id="&lt;Group&gt;">
						<path id="&lt;Path&gt;" class="s1" d="m89.8 1031.4c-8.2-7.2-18.2-13.5-29.2-13.5-1.8 0-3.6 0.2-5.2 1.1-2.7 1.6-3.9 5.2-3.4 8.3 0.5 3.1 2.3 5.9 4.4 8.3 10.7 12.7 55.8 25.3 61.8 23.7 0 0-20.2-20.7-28.4-27.9z"/>
					</g>
					<g id="&lt;Group&gt;">
						<path id="&lt;Path&gt;" class="s1" d="m123.8 1025.1c-5.7-9.4-13.3-18.4-23.7-21.8-1.7-0.5-3.6-0.9-5.3-0.5-3.1 0.7-5.3 3.7-5.8 6.9-0.4 3.1 0.5 6.3 1.7 9.2 6.3 15.4 45.5 41.1 51.7 41.4 0 0-12.9-25.9-18.6-35.2z"/>
					</g>
					<g id="&lt;Group&gt;">
						<g id="&lt;Group&gt;">
							<path id="&lt;Path&gt;" class="s2" d="m71.9 1034.8q27.6 15.7 55 31.8 27.4 16.1 54.6 32.6 15.3 9.3 30.5 18.7c1.5 1 3-1.5 1.4-2.4q-27-16.7-54.3-33-27.2-16.4-54.7-32.3-15.5-8.9-31.1-17.8c-1.6-0.9-3 1.6-1.4 2.4z"/>
						</g>
					</g>
					<g id="&lt;Group&gt;">
						<g id="&lt;Group&gt;">
							<path id="&lt;Path&gt;" class="s2" d="m103.7 1022.8c16.3 14.4 31.3 30.4 44.5 47.7q5.6 7.3 10.7 14.9c1 1.5 3.5 0.1 2.5-1.4-12.3-18.1-26.4-35-42-50.4q-6.7-6.6-13.7-12.8c-1.4-1.2-3.4 0.8-2 2z"/>
						</g>
					</g>
					<g id="&lt;Group&gt;">
						<g id="&lt;Group&gt;">
							<path id="&lt;Path&gt;" class="s1" d="m89.6 1088.5c-10.9 0.7-22.6-0.4-31.3-7.1-1.5-1.1-2.8-2.3-3.5-4-1.2-2.9 0-6.5 2.3-8.6 2.3-2.2 5.5-3.3 8.6-4 16.2-3.6 59.7 13.9 63.4 18.8 0 0-28.5 4.2-39.5 4.9z"/>
						</g>
						<g id="&lt;Group&gt;">
							<g id="&lt;Group&gt;">
								<path id="&lt;Path&gt;" class="s2" d="m75.7 1076c21.3 5.3 43.1 8.4 65 9.4q9.3 0.4 18.6 0.3c1.8 0 1.9-2.8 0-2.8-21.7 0.2-43.5-1.7-64.9-5.7q-9.1-1.7-18-3.9c-1.7-0.4-2.5 2.3-0.7 2.7z"/>
							</g>
						</g>
					</g>
					<g id="&lt;Group&gt;">
						<g id="&lt;Group&gt;">
							<path id="&lt;Path&gt;" class="s1" d="m176.4 1043.9c-3.8-10.3-9.6-20.5-19.2-25.8-1.6-0.8-3.3-1.6-5.1-1.5-3.2 0.1-5.9 2.7-6.9 5.6-1.1 3-0.8 6.3-0.2 9.5 3.3 16.2 37 48.9 43 50.3 0 0-7.8-27.8-11.6-38.1z"/>
						</g>
						<g id="&lt;Group&gt;">
							<g id="&lt;Group&gt;">
								<path id="&lt;Path&gt;" class="s2" d="m157.2 1038.1c13.3 17.2 24.9 35.7 34.6 55.1q4.1 8.3 7.8 16.9c0.7 1.6 3.1 0.2 2.4-1.5-8.7-20.2-19.4-39.5-31.9-57.6q-5.2-7.6-10.9-14.9c-1.1-1.4-3 0.6-2 2z"/>
							</g>
						</g>
					</g>
					<g id="&lt;Group&gt;">
						<g id="&lt;Group&gt;">
							<path id="&lt;Path&gt;" class="s1" d="m131.5 1122.7c-10.7 2.2-22.5 2.7-32-2.7-1.6-0.9-3.1-2-4-3.5-1.6-2.8-0.8-6.4 1.2-8.9 1.9-2.5 4.9-4 7.9-5.1 15.5-5.8 61 5.6 65.4 9.9 0 0-27.7 8.1-38.5 10.3z"/>
						</g>
						<g id="&lt;Group&gt;">
							<g id="&lt;Group&gt;">
								<path id="&lt;Path&gt;" class="s2" d="m116.2 1112.3c21.9 2.2 44 2.3 65.9 0.2q9.2-0.8 18.3-2.2c1.8-0.3 1-3-0.8-2.7-21.4 3.2-43.2 4.3-64.9 3.3q-9.3-0.5-18.5-1.4c-1.8-0.2-1.8 2.6 0 2.8z"/>
							</g>
						</g>
					</g>
				</g>
				<g id="&lt;Group&gt;">
					<g id="&lt;Group&gt;">
						<path id="&lt;Path&gt;" class="s3" d="m341.9 714.4c0 25.4 17.9 46 40 46 22.2 0 40.1-20.6 40.1-46 0-25.4-17.9-46-40.1-46-22.1 0-40 20.6-40 46z"/>
						<path id="&lt;Path&gt;" class="s3" d="m377.4 737.7c0 0-60.4 10.9-40.1 146.9l40.1 10.5c0 0-4.3-21 1.6-35 0 0-3.2 17.8 7.6 38.2 0 0 128.1 27.3 187.7 1.2l-2.8-22.3c0 0 12.4 10.7 13.7 22.4l47.6-1.6c0 0-4.5-53.3-45.4-76.2l-5.2-79.2c0 0-132.3-46.4-204.8-4.9z"/>
						<path id="&lt;Path&gt;" class="s3" d="m585.7 795.6l-3.5-53c0 0-25.3-8.9-59.9-15.4 0.3 0.3 0.6 0.6 0.9 0.9 18.2 19.2 17.3 45.6 17.8 71.2 14.8 2.5 30.4 1.1 44.7-3.7z"/>
						<path id="&lt;Path&gt;" class="s3" d="m549.1 823.7c-4.5-3.4-6.8-10.2-7.9-15.8-1.1-28.1 2.3-58.4-18-79.8-0.3-0.3-0.6-0.6-0.9-0.9-17.3-3.3-36.9-5.9-56.7-6.6-11.9 5.6-22.2 14.9-27.8 26.6-21.4 40.5-37.1 82.1-40.5 127.1-0.6 8.8 0 18 2.3 26.5 34.1 6.1 126.6 19.7 174.7-1.3l-2.8-22.3c0 0 12.4 10.7 13.7 22.4l13.6-0.4c-1.9-29.3-23.6-55.7-49.7-75.5z"/>
						<path id="&lt;Path&gt;" class="s4" d="m352.5 950c0 0 14-21.1 44.9-31.3 33.3-11 63.6 5.2 69.6 2 6-3.2 10.2-32.9 10.2-32.9l33.1 2.4c0 0 5.3 28.5 9.8 30.9 4.4 2.4 79.8-20.6 93.2 44 0 0-169.4 55.8-260.8-15.1z"/>
						<path id="&lt;Path&gt;" class="s5" d="m487.3 919.6c10.5 4.2 20.3-1.7 27.4-10.4-2.5-8.7-4.4-19-4.4-19l-33.1-2.4c0 0-1.6 11.2-4.2 20.6 3.8 5 8.6 8.9 14.3 11.2z"/>
						<g id="&lt;Group&gt;">
							<g id="&lt;Group&gt;">
								<path id="&lt;Path&gt;" class="s4" d="m428.2 833.8c-2.8-5.9-5.7-11.9-10.6-16.2-4.9-4.3-12.2-6.4-18-3.4-4.4 2.3-7 7.1-8 12-2.4 12.2 4.8 25.1 15.4 31.6 9.8 6 23.7 6.8 32.2-1z"/>
							</g>
							<g id="&lt;Group&gt;">
								<g id="&lt;Group&gt;">
									<path id="&lt;Path&gt;" class="s6" d="m401.9 822.8c7.1 3.8 12.5 10.6 14.2 18.5 0.4 1.9 0.5 5.5-2.2 5.6-2 0.1-3.9-2.1-4.8-3.7-0.9-1.6-1.1-4.1 0.7-5.3 1.9-1.4 4.2 0.6 5.6 1.8 1.1 1 2.8-0.7 1.7-1.7-1.6-1.4-3.4-2.8-5.6-2.9-2-0.2-3.8 1-4.7 2.7-2 3.9 0.7 8.8 4.3 10.7 1.8 1 4 1.1 5.6-0.3 1.7-1.5 2.1-3.8 1.9-5.9-0.5-4.2-2.4-8.5-4.8-11.9-2.7-4-6.4-7.4-10.7-9.7-1.3-0.7-2.5 1.4-1.2 2.1z"/>
								</g>
							</g>
						</g>
						<g id="&lt;Group&gt;">
							<g id="&lt;Group&gt;">
								<path id="&lt;Path&gt;" class="s4" d="m560.1 827.9c1.7-6.3 3.4-12.8 7.4-17.9 3.9-5.1 10.7-8.6 17-6.8 4.7 1.4 8.2 5.6 10.1 10.3 4.7 11.5 0.1 25.5-9.1 33.9-8.5 7.8-22 11.2-31.8 5.1z"/>
							</g>
							<g id="&lt;Group&gt;">
								<g id="&lt;Group&gt;">
									<path id="&lt;Path&gt;" class="s6" d="m582.2 810.4c-6.7 5.4-11 14-11.1 22.7 0 2.1 0.4 4.4 2 5.9 1.5 1.4 3.5 1.8 5.4 0.9 3.6-1.8 6-7.3 4.1-11-0.9-1.9-2.9-3.3-5-3.1-2.4 0.2-4.2 2.1-5.6 3.9-0.9 1.2 0.7 2.9 1.7 1.7 1.1-1.4 2.7-3.7 4.8-3.2 2.1 0.5 2.7 3 2.3 4.8-0.4 1.9-1.9 4.5-3.9 5-2.5 0.6-3.4-2.6-3.4-4.5-0.2-8.2 4.1-16.3 10.4-21.5 1.2-0.9-0.5-2.6-1.7-1.6z"/>
								</g>
							</g>
						</g>
						<g id="&lt;Group&gt;">
							<path id="&lt;Path&gt;" class="s4" d="m542.9 737.4c17.8 16.6 24.6 41.8 28.4 65.8 2.1 14 3.6 28.3 0.9 42.2-3.6 19.3-15.3 36.9-31.7 47.7-16.4 10.8-37.1 14.6-56.3 10.4-24.8-5.5-45.5-23.8-57.7-46.1-5.3-9.9-9.2-20.5-11.8-31.4-7.7-31.9 0.4-65.8 22.6-90 21.1-23 67-34.6 105.6 1.4z"/>
						</g>
						<g id="&lt;Group&gt;">
							<path id="&lt;Path&gt;" class="s7" d="m572.7 814c1.2 10.5 1.5 21.1-0.5 31.4-3.6 19.3-15.3 36.9-31.7 47.7-12.7 8.3-28.1 12.5-43.3 12 14.1-0.4 27.8-4.9 39.5-13.9 24-18.7 33.6-47.6 36-77.2z"/>
						</g>
						<path id="&lt;Path&gt;" class="s5" d="m569.4 842.7c0 10.7-8.6 19.3-19.3 19.3-10.7 0-19.3-8.6-19.3-19.3 0-10.7 8.6-19.3 19.3-19.3 10.7 0 19.3 8.6 19.3 19.3z"/>
						<g id="&lt;Group&gt;">
							<g id="&lt;Group&gt;">
								<path id="&lt;Path&gt;" class="s8" d="m532 831.9c38.3 13.8 47.5-49.4 9.3-47.5-19.3 4.3-31.6 39-9.3 47.5z"/>
							</g>
							<path id="&lt;Path&gt;" class="s3" d="m518.9 816.5c0 0 4.5-26.3 25.4-26 19.9 0.3 21.4 19.1 21.4 19.1 0 0 6.3-1 3.8-11-2.5-10-13-18.2-26.6-16.5-12.6 1.5-25.4 17.2-24 34.4z"/>
							<path id="&lt;Path&gt;" class="s3" d="m521.2 809.1c-0.5 11 6.5 20.2 15.8 20.7 9.3 0.4 17.2-8.1 17.8-19 0.5-10.9-6.5-20.2-15.8-20.7-9.3-0.4-17.2 8.1-17.8 19z"/>
						</g>
						<g id="&lt;Group&gt;">
							<path id="&lt;Path&gt;" class="s4" d="m517.2 841.9c5.5-1.2 8-8.6 8.3-14.3 0.2-2.6-0.3-5.3-1-7.8-1.4-5.1-3.8-9.8-6.1-14.5q-3.9-8-7.8-15.9c0 0-11.7 12.2-14.6 27.1-2.9 15-0.5 30 21.2 25.4z"/>
						</g>
						<g id="&lt;Group&gt;">
							<g id="&lt;Group&gt;">
								<path id="&lt;Path&gt;" class="s6" d="m517.8 842.9c5.5-4.3 9.4-10.7 8.9-17.8-0.7-8.1-4.9-15.7-8.4-22.8q-3.4-6.8-6.7-13.5c-0.7-1.4-2.7-0.2-2 1.2q3.3 6.8 6.7 13.7c2.2 4.4 4.5 8.9 6.1 13.5 1.6 4.4 2.7 9.1 1.3 13.7-1.1 4-3.8 7.4-7.1 10-1.2 0.9 0 2.9 1.2 2z"/>
							</g>
						</g>
						<g id="&lt;Group&gt;">
							<g id="&lt;Group&gt;">
								<path id="&lt;Path&gt;" class="s6" d="m503.5 828.1q-1.6 1.8-2.7 3.9c-0.3 0.5-0.1 1.3 0.4 1.6 0.6 0.3 1.3 0.1 1.6-0.4q0.8-1.5 1.9-2.9-0.1 0.2-0.2 0.3 0.3-0.4 0.7-0.8c0.2-0.3 0.3-0.5 0.3-0.9 0-0.3-0.1-0.6-0.3-0.8-0.5-0.4-1.3-0.5-1.7 0z"/>
							</g>
						</g>
						<path id="&lt;Path&gt;" class="s7" d="m521.9 821.6c0 4.2-2.9 7.6-6.4 7.6-3.5 0-6.4-3.4-6.4-7.6 0-4.2 2.9-7.6 6.4-7.6 3.5 0 6.4 3.4 6.4 7.6z"/>
						<path id="&lt;Path&gt;" class="s5" d="m473 845.6c0 10.7-8.6 19.4-19.3 19.4-10.7 0-19.4-8.7-19.4-19.4 0-10.6 8.7-19.3 19.4-19.3 10.7 0 19.3 8.7 19.3 19.3z"/>
						<g id="&lt;Group&gt;">
							<g id="&lt;Group&gt;">
								<path id="&lt;Path&gt;" class="s8" d="m476.9 838.6c-41.3 14.9-51.2-53.3-10-51.2 20.7 4.6 33.9 42 10 51.2z"/>
							</g>
							<path id="&lt;Path&gt;" class="s3" d="m490.9 822c0 0-4.8-28.4-27.3-28-21.5 0.3-23.1 20.5-23.1 20.5 0 0-6.8-1-4.1-11.8 2.8-10.8 14.1-19.6 28.7-17.8 13.6 1.6 27.3 18.5 25.8 37.1z"/>
							<path id="&lt;Path&gt;" class="s3" d="m476.8 811.3c0.6 11.8-7 21.7-17 22.2-10 0.6-18.6-8.6-19.2-20.4-0.6-11.8 7-21.8 17-22.3 10-0.5 18.6 8.7 19.2 20.5z"/>
						</g>
						<g id="&lt;Group&gt;">
							<path id="&lt;Path&gt;" class="s3" d="m512.2 850.8c-6.8 2.8-14.5 1.7-20.5-2.5-3.8-2.7-8.2-4.5-12.8-3.5-11.9 2.6-11.1 36.3 17.9 39.1 28.9 2.8 42-25.6 28.8-32.6-4.9-2.6-9.5-2.1-13.4-0.5z"/>
							<path id="&lt;Path&gt;" class="s8" d="m517.4 862.8c-9.8 6.3-39.4 4.8-37.6-18.2 4.3-0.6 8.4 1.2 11.9 3.7 6 4.2 13.7 5.3 20.5 2.5 3.8-1.6 8.4-2.1 13.2 0.4-1.3 4.5-3.9 8.7-8 11.6z"/>
						</g>
						<path id="&lt;Path&gt;" class="s8" d="m483 819.1c0 1.9-3.6 3.4-8 3.4-4.4 0-8-1.5-8-3.4 0-1.9 3.6-3.5 8-3.5 4.4 0 8 1.6 8 3.5z"/>
						<path id="&lt;Path&gt;" class="s8" d="m560.4 819.1c0 1.9-3.6 3.4-8 3.4-4.4 0-8-1.5-8-3.4 0-1.9 3.6-3.5 8-3.5 4.4 0 8 1.6 8 3.5z"/>
						<path id="&lt;Path&gt;" class="s3" d="m411.7 814c0 0 47-1.7 50-72 0 0 51.8-25 57.1 39.2l73.1 2.8c0 0 21.1-68.5-49-93.6-70.1-25.1-162.6 17.1-164.7 46.8z"/>
						<path id="&lt;Path&gt;" class="s3" d="m555.9 773.3c0 3.6-5.1 3.1-11.5 3.1-6.3 0-11.4 0.5-11.4-3.1 0-3.6 5.1-6.5 11.4-6.5 6.4 0 11.5 2.9 11.5 6.5z"/>
						<path id="&lt;Path&gt;" class="s3" d="m473.2 776.4c0 3.6-5.1 3.1-11.5 3.1-6.3 0-11.4 0.5-11.4-3.1 0-3.6 5.1-6.5 11.4-6.5 6.4 0 11.5 2.9 11.5 6.5z"/>
						<path id="&lt;Path&gt;" class="s9" d="m602.9 930.1c0 0 135.9 118.7 109.2 187-27.2 69.4-174.1-94.2-174.1-94.2z"/>
						<path id="&lt;Path&gt;" class="s9" d="m362.4 937.3c0 0-126.6 114.2-99.9 182.5 27.1 69.4 164.7-89.7 164.7-89.7z"/>
						<path id="&lt;Path&gt;" class="s9" d="m362.4 937.3c0 0 119.2 41.3 229.8 8.4 0 0 36.1 100.1 21.7 204.3h-246.9z"/>
						<g id="&lt;Group&gt;">
							<g id="&lt;Group&gt;">
								<path id="&lt;Path&gt;" class="s4" d="m293 1078l99.2-25 11.8 26.1c0 0-103.5 80-128.3 59.3l-6-18c-6-18.2 4.7-37.7 23.3-42.4z"/>
							</g>
						</g>
						<path id="&lt;Path&gt;" class="s9" d="m279.4 1071.8l83.5-17 23.5 51.3c0 0-101.3 90.8-125.5 8.9 0 0-1.4-7.1-1.9-16.9-0.5-12.6 8.1-23.8 20.4-26.3z"/>
						<g id="&lt;Group&gt;">
							<g id="&lt;Group&gt;">
								<path id="&lt;Path&gt;" class="s4" d="m686.2 1073.7l-85.8-25-4.9 18.3c-2.6 9.6 0.3 20 7.3 25.9 23.5 20.4 77 61.9 98.4 41.2l5.2-18.1c5.1-18.2-4.1-37.7-20.2-42.3z"/>
							</g>
						</g>
						<path id="&lt;Path&gt;" class="s9" d="m698 1067.5l-72.2-17-20.3 51.3c0 0 87.6 90.7 108.5 8.9 0 0 1.2-7.1 1.6-17 0.5-12.6-7-23.7-17.6-26.2z"/>
						<g id="&lt;Group&gt;">
							<g id="&lt;Group&gt;">
								<path id="&lt;Path&gt;" class="s6" d="m363.2 1050c-18 0.4-35.9 4.2-52.5 11.1q-7 2.9-13.7 6.5c-1.6 0.8-0.2 3.3 1.4 2.4 15.5-8.3 32.5-13.9 50-16.1q7.4-0.9 14.8-1.1c1.8-0.1 1.8-2.9 0-2.8z"/>
							</g>
						</g>
						<g id="&lt;Group&gt;">
							<g id="&lt;Group&gt;">
								<path id="&lt;Path&gt;" class="s6" d="m624.8 1056.2c17.7-1.3 34.1 6.6 48.7 15.9 4.1 2.6 8.2 5.4 12.3 8.2 1.5 1 2.9-1.4 1.4-2.4-14.6-10-29.8-20.3-47.5-23.6-4.9-0.9-9.9-1.2-14.9-0.9-1.8 0.2-1.8 3 0 2.8z"/>
							</g>
						</g>
						<g id="&lt;Group&gt;">
							<g id="&lt;Group&gt;">
								<path id="&lt;Path&gt;" class="s6" d="m625.5 1047.4q1.3-7.1 1.7-14.4c0.1-0.8-0.6-1.4-1.4-1.4-0.8 0-1.3 0.6-1.4 1.4q-0.4 6.9-1.6 13.7c-0.1 0.7 0.2 1.5 1 1.7 0.7 0.2 1.6-0.2 1.7-1z"/>
							</g>
						</g>
						<g id="&lt;Group&gt;">
							<g id="&lt;Group&gt;">
								<path id="&lt;Path&gt;" class="s6" d="m364.8 1021.6c-1.1 5.8-1.5 11.7-1.2 17.6 0.1 1.8 2.9 1.8 2.8 0-0.3-5.6 0.1-11.3 1.1-16.8 0.4-1.8-2.3-2.6-2.7-0.8z"/>
							</g>
						</g>
						<g id="&lt;Group&gt;">
							<path id="&lt;Path&gt;" class="s4" d="m404.4 1045.7c2.5-7.4-5.9-14.9-13-18.1-1.8-0.8-3.7-1.4-5.6-1.4-1.7 0-3.6 0.7-4.3 2.2-0.8 1.8 0.4 3.8 1.3 5.5 1.3 2.4 2.1 5.1 2 7.8-0.1 2.7-0.9 6.4-3 8.1 0 0 15.5 17.2 22.6-4.1z"/>
						</g>
						<g id="&lt;Group&gt;">
							<path id="&lt;Path&gt;" class="s4" d="m591.4 1048c-2.5-7.4 5.9-14.9 13-18.1 1.8-0.8 3.7-1.4 5.6-1.4 1.8 0 3.7 0.6 4.3 2.2 0.8 1.8-0.4 3.8-1.3 5.5-1.3 2.4-2.1 5.1-2 7.8 0.1 2.7 1 6.4 3.1 8.1 0 0-15.5 17.2-22.7-4.1z"/>
						</g>
						<g id="&lt;Group&gt;">
							<path id="&lt;Path&gt;" class="s10" d="m493.8 1137.3c-31.6-24.8-62.4-55.3-87.9-86.8-17-21-34.2-45-33.6-72.5 0.3-15 6.3-29.8 16.5-40.5 10.1-10.6 24.2-17.1 38.6-17.5 18.5-0.7 36.5 8.3 50.5 20.9 13.5 12.1 24.2 28.1 28.3 46.2 1.7 7.6 0.9 17.9-6.3 20.3-7.2 2.4-13.8-5.8-15.5-13.4-4-17.8 4.9-36.2 16.7-49.6 18.7-20.9 46.8-33.8 73.9-29.4 27.1 4.4 51.4 28 53.7 56.5 0.8 10.3-1.1 20.7-4.2 30.5-9.3 29.3-28.9 54-51 74.6-22 20.6-79.7 60.7-79.7 60.7z"/>
						</g>
						<g id="&lt;Group&gt;">
							<path id="&lt;Path&gt;" class="s4" d="m391.2 1039.1c-4.6 2.6-11.7 13.1-13 18.2-3.9 15.6 9.3 22.5 13.8 24 8.4 2.8 17.7 0.4 25.8-3.2 8-3.6 15.9-8.9 19.8-16.9 1.1-2.3 1.9-5 1.5-7.5-0.2-0.9-0.6-2-1.5-2-0.6-0.1-1 0.3-1.5 0.6q-2.5 1.9-5 3.9c2-2.5 3.5-5.3 4.5-8.3 0.6-2 0.8-4.6-0.9-5.7-1-0.7-2.2-0.6-3.3-0.3-4.2 1.2-6.3 5.8-9.9 8.3 1.8-1.9 3.2-4.2 4.2-6.6 1-2.7 1.6-5.8 0.5-8.5-1.2-2.7-4.4-4.6-7.1-3.5-1.2 0.5-2.1 1.5-2.9 2.4-2.9 3.3-5.4 6.8-8.6 9.7-3.2 2.9-7.2 5.2-11.5 5.3z"/>
						</g>
						<g id="&lt;Group&gt;">
							<path id="&lt;Path&gt;" class="s4" d="m604.7 1041.4c4.5 2.6 11.7 13.1 13 18.2 3.9 15.6-9.3 22.5-13.9 24-8.4 2.8-17.7 0.4-25.7-3.2-8.1-3.7-16-8.9-19.9-16.9-1.1-2.3-1.9-5-1.5-7.5 0.2-0.9 0.7-2 1.6-2 0.5-0.1 1 0.3 1.4 0.6q2.5 1.9 5 3.8c-2-2.4-3.5-5.2-4.5-8.2-0.6-2-0.8-4.6 1-5.8 0.9-0.6 2.1-0.6 3.2-0.2 4.2 1.2 6.3 5.8 9.9 8.3-1.7-1.9-3.1-4.2-4.1-6.6-1.1-2.7-1.6-5.8-0.5-8.5 1.1-2.7 4.3-4.6 7-3.5 1.2 0.5 2.1 1.5 3 2.4 2.8 3.3 5.4 6.8 8.5 9.7 3.2 2.9 7.2 5.2 11.5 5.2z"/>
						</g>
						<g id="&lt;Group&gt;">
							<g id="&lt;Group&gt;">
								<path id="&lt;Path&gt;" class="s3" d="m420.2 708.7c21.2-17.9 47.6-30.3 75.5-32 14.2-0.8 28.5 1 41.8 5.9 12.5 4.5 25 11.5 31.9 23.4 6.6 11.5 7.8 26 2.7 38.4-0.7 1.6 2 2.4 2.7 0.7 4.7-11.5 4.2-24.7-0.7-36-2.5-5.7-6.1-10.9-10.6-15-5.4-5-12-8.6-18.7-11.6-13.4-5.9-28.1-8.8-42.8-8.8-14.5 0-29 3-42.5 8.2-13.4 5.2-25.9 12.5-37.2 21.4q-2.1 1.7-4.1 3.4c-1.4 1.1 0.6 3.1 2 2z"/>
							</g>
						</g>
					</g>
				</g>
				<g id="&lt;Group&gt;">
					<g id="&lt;Group&gt;">
						<path id="&lt;Path&gt;" class="s4" d="m938.5 872.8v29.2l39.8 32.2c0 0-38.7 47.1-81.6 34.2-42.9-12.8-50.9-37-50.9-37l33.6-26v-38.4z"/>
						<path id="&lt;Path&gt;" class="s6" d="m820.5 795.7l2.6-73.1 70.8-2.1-48.1 74.9z"/>
						<g id="&lt;Group&gt;">
							<g id="&lt;Group&gt;">
								<path id="&lt;Path&gt;" class="s4" d="m970 810.7c2.8-5.8 5.7-11.8 10.6-16.1 4.9-4.3 12.2-6.5 18-3.5 4.4 2.3 7 7.2 8 12.1 2.4 12.2-4.8 25-15.4 31.6-9.8 6-23.7 6.8-32.2-1.1z"/>
							</g>
							<g id="&lt;Group&gt;">
								<g id="&lt;Group&gt;">
									<path id="&lt;Path&gt;" class="s6" d="m995.1 797.7c-7.6 4-13.4 11.5-15.2 19.9-0.5 2.2-0.6 4.6 0.7 6.5 1.1 1.7 3.2 2.5 5.2 2 3.8-1.1 7.1-6 6.1-9.9-0.5-2-2-3.8-4.1-4.1-2.6-0.5-4.8 1.3-6.7 2.9-1.1 1 0.6 2.6 1.7 1.6 1.4-1.2 3.7-3.2 5.6-1.8 1.8 1.3 1.6 3.7 0.7 5.4-0.9 1.6-2.8 3.8-4.8 3.7-2.7-0.2-2.6-3.8-2.2-5.6 1.7-7.9 7.1-14.8 14.2-18.6 1.3-0.7 0.1-2.7-1.2-2z"/>
								</g>
							</g>
						</g>
						<g id="&lt;Group&gt;">
							<g id="&lt;Group&gt;">
								<path id="&lt;Path&gt;" class="s4" d="m838.1 804.8c-1.7-6.3-3.4-12.7-7.4-17.8-3.9-5.2-10.7-8.7-17-6.9-4.7 1.4-8.3 5.7-10.1 10.3-4.7 11.6-0.1 25.5 9.1 34 8.5 7.8 22 11.2 31.8 5.1z"/>
							</g>
							<g id="&lt;Group&gt;">
								<g id="&lt;Group&gt;">
									<path id="&lt;Path&gt;" class="s6" d="m814.3 789c6.3 5.1 10.6 13.2 10.4 21.5 0 1.8-0.9 5.1-3.4 4.5-2-0.5-3.3-3-3.8-4.8-0.5-1.9 0-4.5 2.2-5 2.1-0.5 3.7 1.8 4.8 3.2 1 1.1 2.6-0.5 1.7-1.7-1.2-1.6-2.7-3.3-4.8-3.8-1.9-0.5-3.8 0.3-5.1 1.8-2.8 3.4-1 8.7 2.1 11.3 1.5 1.3 3.4 1.8 5.3 1 2-1 3-3 3.3-5.1 0.5-4.3-0.7-9-2.3-12.9-1.9-4.6-4.9-8.6-8.7-11.7-1.2-0.9-2.9 0.7-1.7 1.7z"/>
								</g>
							</g>
						</g>
						<g id="&lt;Group&gt;">
							<path id="&lt;Path&gt;" class="s4" d="m855.3 714.3c-17.8 16.6-24.6 41.8-28.4 65.9-2.1 13.9-3.6 28.3-0.9 42.2 3.6 19.2 15.3 36.8 31.7 47.6 16.4 10.8 37.1 14.7 56.3 10.5 24.8-5.5 45.5-23.9 57.6-46.2 5.4-9.8 9.3-20.4 11.9-31.3 7.7-32-0.4-65.8-22.6-90-21.1-23-67-34.7-105.6 1.3z"/>
						</g>
						<g id="&lt;Group&gt;">
							<path id="&lt;Path&gt;" class="s7" d="m825.5 791c-1.2 10.5-1.5 21 0.5 31.4 3.6 19.2 15.3 36.8 31.7 47.6 12.7 8.4 28.1 12.6 43.3 12.1-14.1-0.4-27.8-4.9-39.5-13.9-24-18.8-33.6-47.7-36-77.2z"/>
						</g>
						<path id="&lt;Path&gt;" class="s5" d="m813.1 825.1c0 10.6 8.7 19.3 19.4 19.3 10.7 0 19.3-8.7 19.3-19.3 0-10.7-8.6-19.4-19.3-19.4-10.7 0-19.4 8.7-19.4 19.4z"/>
						<g id="&lt;Group&gt;">
							<g id="&lt;Group&gt;">
								<path id="&lt;Path&gt;" class="s8" d="m866.2 808.9c-38.3 13.8-47.5-49.4-9.3-47.6 19.3 4.3 31.6 39 9.3 47.6z"/>
							</g>
							<path id="&lt;Path&gt;" class="s3" d="m879.3 793.5c0 0-4.6-28.9-25.5-28.6-20 0.3-21.3 21.6-21.3 21.6 0 0-6.3-0.9-3.8-10.9 2.5-10.1 13-18.2 26.6-16.6 12.6 1.5 25.4 17.2 24 34.5z"/>
							<path id="&lt;Path&gt;" class="s3" d="m873.3 788.9c0.6 10.9-6.5 20.2-15.8 20.7-9.2 0.4-17.2-8.1-17.8-19-0.5-11 6.6-20.2 15.8-20.7 9.3-0.4 17.3 8.1 17.8 19z"/>
						</g>
						<g id="&lt;Group&gt;">
							<path id="&lt;Path&gt;" class="s4" d="m881 818.8c-5.5-1.2-8-8.6-8.3-14.2-0.2-2.7 0.3-5.3 1-7.9 1.4-5 3.8-9.7 6.1-14.4q3.9-8 7.8-16c0 0 11.7 12.2 14.6 27.2 2.9 14.9 0.5 29.9-21.2 25.3z"/>
						</g>
						<g id="&lt;Group&gt;">
							<g id="&lt;Group&gt;">
								<path id="&lt;Path&gt;" class="s6" d="m881.6 817.8c-3.2-2.5-5.9-5.9-7.1-9.8-1.4-4.6-0.3-9.4 1.3-13.8 1.6-4.6 3.8-9 6-13.3q3.4-7 6.8-14c0.7-1.3-1.3-2.5-2-1.2-3.8 7.7-7.9 15.4-11.3 23.3-3 6.9-5.4 14.6-2.2 21.9 1.6 3.6 4.2 6.6 7.3 8.9 1.2 1 2.4-1.1 1.2-2z"/>
							</g>
						</g>
						<g id="&lt;Group&gt;">
							<g id="&lt;Group&gt;">
								<path id="&lt;Path&gt;" class="s6" d="m893 806.7q0.4 0.4 0.7 0.8-0.1-0.1-0.2-0.2 1.1 1.3 1.9 2.8c0.3 0.6 1.1 0.8 1.6 0.4 0.5-0.3 0.7-1 0.4-1.6q-1.1-2.1-2.7-3.8c-0.2-0.3-0.6-0.4-0.8-0.4-0.3 0-0.7 0.1-0.9 0.4-0.4 0.5-0.4 1.1 0 1.6z"/>
							</g>
						</g>
						<path id="&lt;Path&gt;" class="s7" d="m876.3 798.6c0 4.1 2.9 7.5 6.4 7.5 3.5 0 6.4-3.4 6.4-7.5 0-4.2-2.9-7.6-6.4-7.6-3.5 0-6.4 3.4-6.4 7.6z"/>
						<path id="&lt;Path&gt;" class="s5" d="m919.1 831.8c0 10.7 8.7 19.4 19.4 19.4 10.6 0 19.3-8.7 19.3-19.4 0-10.7-8.7-19.3-19.3-19.3-10.7 0-19.4 8.6-19.4 19.3z"/>
						<g id="&lt;Group&gt;">
							<g id="&lt;Group&gt;">
								<path id="&lt;Path&gt;" class="s8" d="m921.3 815.6c41.3 14.8 51.2-53.3 10-51.3-20.7 4.6-33.9 42-10 51.3z"/>
							</g>
							<path id="&lt;Path&gt;" class="s3" d="m907.3 799c0 0 4.9-31.5 27.5-31.2 21.4 0.4 22.9 23.7 22.9 23.7 0 0 6.8-1 4.1-11.9-2.8-10.8-14.1-19.5-28.7-17.8-13.6 1.6-27.3 18.6-25.8 37.2z"/>
							<path id="&lt;Path&gt;" class="s3" d="m915.5 794.5c-0.6 11.8 7 21.8 17 22.3 10 0.5 18.5-8.7 19.1-20.5 0.6-11.8-7-21.8-17-22.3-10-0.5-18.6 8.7-19.1 20.5z"/>
						</g>
						<path id="&lt;Path&gt;" class="s3" d="m842.3 750.2c0 3.6 5.1 3.2 11.5 3.2 6.3 0 11.4 0.4 11.4-3.2 0-3.6-5.1-6.5-11.4-6.5-6.4 0-11.5 2.9-11.5 6.5z"/>
						<path id="&lt;Path&gt;" class="s3" d="m925 753.4c0 3.6 5.1 3.1 11.5 3.1 6.3 0 11.4 0.5 11.4-3.1 0-3.6-5.1-6.5-11.4-6.5-6.4 0-11.5 2.9-11.5 6.5z"/>
						<path id="&lt;Path&gt;" class="s8" d="m910 802.3c0 1.9 3.5 3.5 7.9 3.5 4.4 0 8-1.6 8-3.5 0-1.9-3.6-3.5-8-3.5-4.4 0-7.9 1.6-7.9 3.5z"/>
						<path id="&lt;Path&gt;" class="s8" d="m837.8 798.9c0 1.9 3.6 3.4 8 3.4 4.4 0 8-1.5 8-3.4 0-1.9-3.6-3.5-8-3.5-4.4 0-8 1.6-8 3.5z"/>
						<path id="&lt;Path&gt;" class="s6" d="m945.2 709.8c0 0-7.8 53.4 31.4 89.2 0 0 8.6-7.6 24.1-6.4 0 0 53.5-87.6-48.6-105.8 0 0-25.6-40.6-106.3-11.2-80.7 29.4-82.9 15.8-82.9 15.8 0 0 43.2 61.1 116.5 52.3 73.2-8.8 65.8-33.9 65.8-33.9z"/>
						<g id="&lt;Group&gt;">
							<g id="&lt;Group&gt;">
								<path id="&lt;Path&gt;" class="s3" d="m874.3 836.6c10.1 3.3 21.3 3 31.2-1 1.7-0.6 0.9-3.3-0.7-2.7-9.5 3.8-20 4.2-29.8 1-1.7-0.5-2.4 2.2-0.7 2.7z"/>
							</g>
						</g>
						<path id="&lt;Path&gt;" class="s11" d="m851.8 921.8c32.8 25 78.1 25.3 111.2 0.7l4.2-3.2c0 0 41-7.3 82.7 36.4l-6.6 52.9c-4 31.4-4.3 63.1-1 94.5l7.6 72.9h-268.2l3.1-22.1c8.4-60 3.5-121.1-14.4-179.1 0 0 13.7-44.3 81.4-53z"/>
						<path id="&lt;Path&gt;" class="s11" d="m851.8 921.8c0 0-83.8-9.6-111.8 108.7 0 0 36.8 34.9 80.5 23.7z"/>
						<path id="&lt;Path&gt;" class="s11" d="m983 921.8c0 0 83.8-9.6 111.9 108.7 0 0-36.9 34.9-80.6 23.7z"/>
						<g id="&lt;Group&gt;">
							<g id="&lt;Group&gt;">
								<path id="&lt;Path&gt;" class="s6" d="m783 702.8c4.4 11.3 13.7 20 22.8 27.5 9.7 7.9 20.4 14.6 32.3 18.7 12 4.1 25 5.4 37.5 2.6 11.8-2.7 22.6-8.7 31.9-16.4 10.7-9 19.3-20.2 26.7-32.1 0.4-0.8-0.8-1.5-1.3-0.7-12.5 20.2-29.4 39.3-52.9 46.5-12 3.8-24.7 3.6-36.8 0.2-11.9-3.3-22.9-9.4-32.7-16.9-5.3-4.1-10.4-8.5-15-13.3-4.6-4.8-8.7-10.2-11.1-16.5-0.3-0.8-1.7-0.4-1.4 0.4z"/>
							</g>
						</g>
						<g id="&lt;Group&gt;">
							<g id="&lt;Group&gt;">
								<path id="&lt;Path&gt;" class="s6" d="m969.4 693.3c7.3 2.3 14.7 4.7 21.4 8.5 3.4 2 6.5 4.3 9.2 7.1 2.9 2.9 5.3 6.4 7.4 9.9 8.1 13.2 12.7 30.2 4.7 44.5-3.7 6.6-9.8 11.8-17.2 13.4-0.9 0.2-0.5 1.6 0.4 1.4 14.3-3.1 22.6-18.1 22.4-31.9-0.1-8.6-2.9-17-7-24.5-3.9-7.4-8.9-14.3-15.9-19.1-7.6-5.1-16.4-7.9-25-10.6-0.9-0.3-1.2 1-0.4 1.3z"/>
							</g>
						</g>
					</g>
					<g id="&lt;Group&gt;">
						<g id="&lt;Group&gt;">
							<path id="&lt;Path&gt;" class="s4" d="m1055.8 1090c-5.4-7.3 1.1-18.6 7.8-24.8 1.7-1.5 3.6-2.8 5.7-3.5 1.9-0.6 4.3-0.6 5.6 0.9 1.5 1.7 0.8 4.3 0.4 6.5-0.5 3.1-0.4 6.3 0.7 9.3 1.1 2.9 3.4 6.7 6.3 7.9 0 0-10.8 24.6-26.5 3.7z"/>
						</g>
						<g id="&lt;Group&gt;">
							<path id="&lt;Path&gt;" class="s4" d="m759.9 1091.2c5.4-7.2-1.1-18.6-7.8-24.7-1.7-1.6-3.6-2.9-5.7-3.6-1.9-0.6-4.3-0.6-5.6 0.9-1.5 1.7-0.8 4.3-0.4 6.5 0.5 3.1 0.4 6.4-0.7 9.3-1.1 3-3.4 6.8-6.3 7.9 0 0 10.9 24.7 26.5 3.7z"/>
						</g>
						<g id="&lt;Group&gt;">
							<path id="&lt;Path&gt;" class="s10" d="m1000 989.3c-0.6-11.3-5.4-22.3-13.3-30.1-7.8-7.9-18.6-12.4-29.4-12.5-14 0-27.3 7.1-37.6 16.9-3.6 3.4-6.9 7.2-9.8 11.3-3-4-6.3-7.8-10-11.1-10.6-9.5-24.1-16.2-38.1-15.7-10.8 0.3-21.4 5.2-29.1 13.2-7.6 8-12.1 19.2-12.4 30.5-0.4 20.6 12.6 38.7 25.4 54.6 19.2 23.7 42.3 46.7 66.1 65.4 23.3-19.4 45.8-43 64.3-67.2 12.4-16.2 24.9-34.7 23.9-55.3z"/>
						</g>
						<g id="&lt;Group&gt;">
							<path id="&lt;Path&gt;" class="s10" d="m930.8 918.5c-0.1-2.9-1.4-5.7-3.4-7.7-2-2-4.8-3.2-7.6-3.2-3.5 0-7 1.8-9.6 4.3q-1.4 1.4-2.5 2.9-1.2-1.5-2.6-2.8c-2.7-2.4-6.2-4.2-9.7-4-2.8 0.1-5.5 1.3-7.5 3.4-2 2-3.1 4.9-3.2 7.8-0.1 5.3 3.2 9.9 6.5 14 4.9 6.1 10.9 11.9 17 16.7 5.9-4.9 11.7-11 16.5-17.2 3.2-4.1 6.4-8.9 6.1-14.2z"/>
						</g>
						<g id="&lt;Group&gt;">
							<path id="&lt;Path&gt;" class="s10" d="m1043.1 1019.9c2-2.1 3.3-4.9 3.4-7.7 0.1-2.9-0.9-5.7-2.7-7.8-2.4-2.6-6.1-3.9-9.7-4.2q-1.9-0.1-3.9 0.1 0.4-1.9 0.4-3.8c0-3.7-1.1-7.4-3.6-9.9-1.9-2-4.7-3.2-7.5-3.3-2.8 0-5.7 1-7.9 2.9-4 3.5-5.2 9.1-6 14.3-1.2 7.7-1.5 16.1-1 23.8 7.7 1.1 16.1 1.3 23.9 0.6 5.2-0.4 10.8-1.3 14.6-5z"/>
						</g>
						<g id="&lt;Group&gt;">
							<path id="&lt;Path&gt;" class="s10" d="m777 1019.9c-2-2.1-3.3-4.9-3.4-7.7-0.1-2.9 0.9-5.7 2.7-7.8 2.4-2.6 6.1-3.9 9.7-4.2q1.9-0.1 3.8 0.1-0.3-1.9-0.3-3.8c0-3.7 1-7.4 3.5-9.9 2-2 4.7-3.2 7.6-3.3 2.8 0 5.7 1 7.9 2.9 4 3.5 5.2 9.1 6 14.3 1.2 7.7 1.5 16.1 1 23.8-7.7 1.1-16.1 1.3-23.9 0.6-5.2-0.4-10.8-1.3-14.6-5z"/>
						</g>
						<g id="&lt;Group&gt;">
							<path id="&lt;Path&gt;" class="s12" d="m1062.2 1176.4h-152v-159.3h152z"/>
							<path id="&lt;Path&gt;" class="s13" d="m910.2 1176.4h-152.1v-159.3h152.1z"/>
							<path id="&lt;Path&gt;" class="s13" d="m1099.1 1058.8h-152.1l-36.8-41.7h152z"/>
							<path id="&lt;Path&gt;" class="s14" d="m721.3 1058.8h152l36.9-41.7h-152.1z"/>
						</g>
						<g id="&lt;Group&gt;">
							<path id="&lt;Path&gt;" class="s4" d="m747.7 1079.1c-6 1.2-17.7 10.2-21 15.4-10 15.8 2.1 28.2 6.6 31.6 8.3 6.1 19.4 6.8 29.6 5.7 10.2-1.1 20.9-4 28-11.4 2.1-2.2 3.9-4.8 4.4-7.8 0.2-1.1 0.1-2.4-0.9-2.8-0.6-0.2-1.2 0-1.8 0.2q-3.5 1.2-7 2.4c3.1-1.9 5.8-4.5 8-7.5 1.4-1.9 2.5-4.7 1-6.6-0.8-1.1-2.1-1.5-3.5-1.5-5-0.2-9 4.2-13.9 5.6 2.6-1.5 5-3.5 6.9-5.8 2.2-2.6 3.9-5.8 3.7-9.2-0.3-3.4-3.2-6.7-6.5-6.4-1.5 0.1-2.9 0.8-4.2 1.6-4.3 2.5-8.4 5.5-13 7.6-4.5 2-9.8 3.1-14.6 1.6z"/>
						</g>
						<g id="&lt;Group&gt;">
							<path id="&lt;Path&gt;" class="s4" d="m1068 1077.9c6 1.2 17.7 10.2 21 15.3 10 15.9-2.1 28.3-6.6 31.7-8.3 6.1-19.4 6.8-29.6 5.7-10.2-1.1-20.9-4-28-11.4-2.1-2.2-3.9-4.9-4.4-7.9-0.2-1 0-2.3 0.9-2.7 0.6-0.2 1.2 0 1.8 0.2q3.5 1.2 7 2.4c-3.1-2-5.8-4.5-8-7.5-1.4-2-2.5-4.8-1-6.7 0.8-1 2.1-1.4 3.5-1.5 5-0.2 9.1 4.2 13.9 5.7-2.6-1.5-5-3.5-6.9-5.8-2.2-2.6-3.9-5.9-3.7-9.2 0.3-3.4 3.2-6.7 6.5-6.5 1.5 0.1 2.9 0.9 4.2 1.6 4.3 2.6 8.4 5.6 13 7.6 4.5 2.1 9.8 3.2 14.6 1.6z"/>
						</g>
					</g>
					<path id="&lt;Path&gt;" class="s8" d="m997.8 1098.4h-74.4v-29.2h74.4z"/>
					<path id="&lt;Path&gt;" class="s8" d="m960.6 1121.5h-37.2v-14.6h37.2z"/>
				</g>
				<g id="&lt;Group&gt;">
					<path id="&lt;Path&gt;" class="s15" d="m1390.8 681.8c0 0 8-10.4 5-20.8-3-10.4 20.2-8.4 13 17.7z"/>
					<path id="&lt;Path&gt;" class="s15" d="m1615.4 701c0 0-8-10.4-5-20.8 3-10.4-20.2-8.4-13 17.7z"/>
					<g id="&lt;Group&gt;">
						<path id="&lt;Path&gt;" class="s3" d="m1506.3 994.4c-16 9-36.2 10.4-53.3 3.7-13-5-25.2-17.1-23.2-30.9 0.5-3.5 2.1-7.1 5.2-8.8 3.1-1.8 7.8-0.9 9.1 2.4 1.2 2.9-0.7 6.4-3.4 7.9-2.7 1.6-6 1.6-9.2 1.3-20.9-2.1-38.6-18.9-45.5-38.9-2.5-7.3-3.8-15.5-0.6-22.6 3.2-7 12-11.8 18.9-8.4 2.3 1.1 4.2 3.1 4.6 5.6 0.7 4-2.9 7.7-6.9 8.4-3.9 0.7-7.9-0.9-11.4-2.9-14.2-8.4-22.3-25-23.2-41.4-0.8-14.1 3.9-29.3 15.6-37.2 11.6-7.9 30.5-4.8 35.9 8.2 0.6 1.4 1 3 0.6 4.5-0.7 2.7-3.9 4.1-6.7 3.6-2.7-0.5-5-2.3-7-4.3-12.7-12.6-17.6-32.4-12.4-49.5 5.2-17.2 20.5-30.8 38.1-34.1 10.2-2 21.7-0.3 29.4 6.8 4.1 3.7 6.9 10.1 3.8 14.7-3.3 4.6-11 3.8-14.7-0.5-3.7-4.2-4.1-10.5-3.2-16 2.1-12.8 10.4-24.1 21.1-31.4 10.7-7.3 23.5-10.9 36.4-12 11.7-1 23.7 0.1 34.4 5 10.6 4.8 19.6 13.9 22.8 25.1 1.4 5-0.1 12.3-5.3 12.4-1.8 0-3.4-1-4.7-2.1-8.4-7.2-6.3-21.7 1.9-29 8.3-7.2 20.3-8.4 31.2-6.7 15.7 2.5 30.5 10.3 41.4 21.9 10.8 11.4 17.8 27.5 15 42.9-1.3 7-6.3 14.6-13.3 13.8-6.8-0.8-10.1-9.9-7-16 3.1-6.1 10.2-9.1 17-9.9 15.8-1.8 31.3 6.4 42.5 17.7 9.5 9.6 16.7 22 17.7 35.4 1.1 13.5-4.8 27.9-16.4 34.8-7.8 4.7-20.6 3.7-22.8-5.1-1.4-5.5 2.7-11.3 8.1-13.4 5.3-2 11.3-1 16.6 1.1 18 7.2 29.5 26.7 29.3 46.1-0.2 19.3-11 37.7-26.5 49.3-8.1 6.1-18.6 10.6-28.3 7.6-9.6-3.1-15.6-16.7-8.5-24 6.8-6.9 19.2-2.8 25.2 4.9 12 15.4 6.1 39-6.9 53.7-7.4 8.4-17.3 15-28.3 16.8-11.1 1.9-23.3-1.8-30.2-10.6-4.4-5.6-5.3-15.4 1.1-18.3 1.8-0.9 3.8-0.9 5.8-0.6 8.9 1.8 13.4 13.2 10.3 21.8-3.1 8.6-11.5 14.3-20.2 17.2-24.4 8.3-53.8-2.7-67-24.9z"/>
					</g>
					<path id="&lt;Path&gt;" class="s16" d="m1613.8 692.1c0 0 11.3 0.8 17.5 21 6.3 20.2 27.7 127.2 27.7 127.2l-46.6-0.3-9.5-87.7c0 0-14.1-25.1-6-42.5 8.1-17.3 16.9-17.7 16.9-17.7z"/>
					<path id="&lt;Path&gt;" class="s16" d="m1397.3 675.6c0 0-11 2.4-14.4 23.3-3.4 20.8-9.6 129.8-9.6 129.8l46.1-6.8-2.8-88.2c0 0 10.4-26.8 0-42.8-10.5-16.1-19.3-15.3-19.3-15.3z"/>
					<path id="&lt;Path&gt;" class="s11" d="m1425.8 798.3c0 0 37 127.7 86.1 196.1 0 0-36.8 40.1-67.6 47.6 0 0-80.8-89.2-85.3-233.2 0 0 52.4-0.4 66.8-10.5z"/>
					<path id="&lt;Path&gt;" class="s16" d="m1505.9 963.9v26l-14.8 10.9c0 0 26.9 31.8 71.6 4.8l-8.2-17.3v-30.8z"/>
					<path id="&lt;Path&gt;" class="s17" d="m1525.5 990.7c10.2 1.8 21.1-3.2 29-10.6v-22.6l-48.6 6.4v14.9c5.4 5.6 11.6 10.4 19.6 11.9z"/>
					<g id="&lt;Group&gt;">
						<g id="&lt;Group&gt;">
							<path id="&lt;Path&gt;" class="s16" d="m1599.1 903.7c2.9-5.8 5.8-11.8 10.7-16.1 4.9-4.3 12.2-6.5 18-3.5 4.4 2.3 7 7.1 8 12 2.3 12.3-4.8 25.1-15.4 31.6-9.8 6.1-23.8 6.8-32.2-1z"/>
						</g>
						<g id="&lt;Group&gt;">
							<g id="&lt;Group&gt;">
								<path id="&lt;Path&gt;" class="s6" d="m1624.3 890.7c-7.6 4-13.4 11.5-15.3 19.9-0.4 2.2-0.5 4.6 0.8 6.5 1.1 1.7 3.1 2.5 5.1 1.9 3.9-1 7.2-5.9 6.2-9.8-0.5-2.1-2-3.8-4.1-4.1-2.6-0.5-4.9 1.3-6.7 2.8-1.1 1 0.5 2.7 1.7 1.7 1.4-1.2 3.7-3.2 5.6-1.8 1.7 1.3 1.5 3.7 0.6 5.4-0.8 1.5-2.7 3.8-4.7 3.7-2.7-0.2-2.6-3.8-2.2-5.7 1.7-7.8 7.1-14.7 14.2-18.5 1.3-0.7 0.1-2.7-1.2-2z"/>
							</g>
						</g>
					</g>
					<g id="&lt;Group&gt;">
						<g id="&lt;Group&gt;">
							<path id="&lt;Path&gt;" class="s16" d="m1467.3 897.8c-1.7-6.3-3.4-12.7-7.4-17.9-4-5.1-10.8-8.6-17-6.8-4.8 1.4-8.3 5.7-10.1 10.3-4.7 11.6-0.1 25.5 9.1 34 8.5 7.8 22 11.2 31.8 5.1z"/>
						</g>
						<g id="&lt;Group&gt;">
							<g id="&lt;Group&gt;">
								<path id="&lt;Path&gt;" class="s6" d="m1443.5 882c6.3 5.1 10.6 13.2 10.4 21.5 0 1.8-0.9 5-3.4 4.5-2-0.5-3.4-3.1-3.8-4.8-0.5-1.9 0-4.5 2.2-5.1 2-0.4 3.7 1.8 4.8 3.2 1 1.2 2.6-0.4 1.7-1.6-1.3-1.6-2.7-3.3-4.8-3.8-1.9-0.5-3.9 0.3-5.1 1.8-2.8 3.4-1 8.7 2.1 11.3 1.5 1.2 3.4 1.8 5.2 0.9 2-0.9 3.1-2.9 3.3-5 0.6-4.3-0.6-9-2.2-13-1.9-4.5-4.9-8.5-8.7-11.6-1.2-1-2.9 0.7-1.7 1.7z"/>
							</g>
						</g>
					</g>
					<g id="&lt;Group&gt;">
						<path id="&lt;Path&gt;" class="s16" d="m1484.5 807.3c-17.8 16.6-24.6 41.8-28.4 65.8-2.2 14-3.6 28.4-0.9 42.2 3.6 19.3 15.3 36.9 31.7 47.7 16.3 10.8 37.1 14.7 56.3 10.4 24.7-5.4 45.5-23.8 57.6-46.1 5.4-9.9 9.3-20.4 11.9-31.3 7.7-32-0.4-65.8-22.6-90-21.1-23-67.1-34.7-105.6 1.3z"/>
					</g>
					<g id="&lt;Group&gt;">
						<path id="&lt;Path&gt;" class="s18" d="m1454.7 884c-1.2 10.4-1.5 21 0.5 31.3 3.6 19.3 15.3 36.9 31.7 47.7 12.7 8.4 28 12.6 43.3 12-14.1-0.3-27.8-4.8-39.5-13.8-24-18.8-33.6-47.7-36-77.2z"/>
					</g>
					<path id="&lt;Path&gt;" class="s17" d="m1461.7 914.9c0 10.7 8.6 19.4 19.3 19.4 10.7 0 19.3-8.7 19.3-19.4 0-10.6-8.6-19.3-19.3-19.3-10.7 0-19.3 8.7-19.3 19.3z"/>
					<g id="&lt;Group&gt;">
						<g id="&lt;Group&gt;">
							<path id="&lt;Path&gt;" class="s8" d="m1495.4 901.9c-38.3 13.8-47.5-49.5-9.3-47.6 19.3 4.3 31.5 39 9.3 47.6z"/>
						</g>
						<path id="&lt;Path&gt;" class="s3" d="m1508.5 886.5c0 0-4.5-26.3-25.4-26-20 0.3-21.4 19-21.4 19 0 0-6.3-0.9-3.8-11 2.5-10 13-18.1 26.6-16.5 12.6 1.5 25.4 17.2 24 34.5z"/>
						<path id="&lt;Path&gt;" class="s3" d="m1506.2 879.1c0.5 10.9-6.5 20.2-15.8 20.6-9.3 0.5-17.3-8-17.8-19-0.6-10.9 6.5-20.2 15.8-20.6 9.3-0.5 17.2 8 17.8 19z"/>
					</g>
					<g id="&lt;Group&gt;">
						<path id="&lt;Path&gt;" class="s16" d="m1510.2 911.8c-5.6-1.2-8-8.6-8.3-14.2-0.2-2.7 0.3-5.3 1-7.9 1.4-5 3.7-9.7 6-14.4q4-8 7.9-16c0 0 11.7 12.2 14.6 27.2 2.9 14.9 0.4 29.9-21.2 25.3z"/>
					</g>
					<g id="&lt;Group&gt;">
						<g id="&lt;Group&gt;">
							<path id="&lt;Path&gt;" class="s6" d="m1510.8 910.8c-3.2-2.5-5.9-5.9-7.1-9.8-1.4-4.6-0.3-9.4 1.2-13.8 1.6-4.6 3.9-9 6-13.3q3.5-7 6.9-14c0.7-1.4-1.4-2.6-2-1.2-3.8 7.7-7.9 15.4-11.3 23.3-3 6.9-5.5 14.6-2.2 21.9 1.6 3.6 4.2 6.6 7.3 8.9 1.2 1 2.4-1.1 1.2-2z"/>
						</g>
					</g>
					<g id="&lt;Group&gt;">
						<g id="&lt;Group&gt;">
							<path id="&lt;Path&gt;" class="s6" d="m1522.2 899.7q0.4 0.4 0.7 0.8-0.1-0.1-0.2-0.2 1 1.3 1.8 2.8c0.3 0.5 1.1 0.8 1.7 0.4 0.5-0.3 0.7-1 0.4-1.6q-1.2-2.1-2.7-3.9c-0.2-0.2-0.6-0.3-0.9-0.3-0.2 0-0.6 0.1-0.8 0.3-0.4 0.5-0.4 1.2 0 1.7z"/>
						</g>
					</g>
					<path id="&lt;Path&gt;" class="s18" d="m1505.5 891.5c0 4.2 2.8 7.6 6.4 7.6 3.5 0 6.4-3.4 6.4-7.6 0-4.1-2.9-7.5-6.4-7.5-3.6 0-6.4 3.4-6.4 7.5z"/>
					<path id="&lt;Path&gt;" class="s17" d="m1557.8 914.9c0 10.7 8.6 19.4 19.3 19.4 10.7 0 19.3-8.7 19.3-19.4 0-10.6-8.6-19.3-19.3-19.3-10.7 0-19.3 8.7-19.3 19.3z"/>
					<g id="&lt;Group&gt;">
						<g id="&lt;Group&gt;">
							<path id="&lt;Path&gt;" class="s8" d="m1550.5 908.6c41.3 14.8 51.2-53.3 10-51.3-20.8 4.6-33.9 42-10 51.3z"/>
						</g>
						<path id="&lt;Path&gt;" class="s3" d="m1536.4 891.9c0 0 4.9-28.3 27.4-28 21.5 0.3 23.1 20.6 23.1 20.6 0 0 6.7-1 4-11.9-2.7-10.8-14-19.6-28.6-17.8-13.6 1.6-27.4 18.6-25.9 37.1z"/>
						<path id="&lt;Path&gt;" class="s3" d="m1550.6 881.2c-0.6 11.8 7 21.8 17 22.3 10 0.5 18.6-8.7 19.2-20.5 0.6-11.8-7.1-21.7-17.1-22.2-9.9-0.5-18.5 8.6-19.1 20.4z"/>
					</g>
					<path id="&lt;Path&gt;" class="s3" d="m1471.5 843.2c0 3.6 5.1 3.1 11.4 3.1 6.4 0 11.5 0.5 11.5-3.1 0-3.6-5.1-6.5-11.5-6.5-6.3 0-11.4 2.9-11.4 6.5z"/>
					<path id="&lt;Path&gt;" class="s3" d="m1554.1 846.3c0 3.6 5.2 3.2 11.5 3.2 6.4 0 11.5 0.4 11.5-3.2 0-3.5-5.1-6.5-11.5-6.5-6.3 0-11.5 3-11.5 6.5z"/>
					<path id="&lt;Path&gt;" class="s8" d="m1544.4 889c0 1.9 3.6 3.5 8 3.5 4.4 0 7.9-1.6 7.9-3.5 0-1.9-3.5-3.4-7.9-3.4-4.4 0-8 1.5-8 3.4z"/>
					<path id="&lt;Path&gt;" class="s8" d="m1467 889c0 1.9 3.6 3.5 8 3.5 4.4 0 7.9-1.6 7.9-3.5 0-1.9-3.5-3.4-7.9-3.4-4.4 0-8 1.5-8 3.4z"/>
					<g id="&lt;Group&gt;">
						<g id="&lt;Group&gt;">
							<path id="&lt;Path&gt;" class="s3" d="m1567.6 913.9c-9.2 7.1-19.9 12.2-31.3 14.3-11.3 2.2-22.9 1.2-33.6-2.9-5.9-2.3-11.5-5.5-16.2-9.7-1.4-1.2-3.4 0.8-2 2 8.9 7.7 20.1 12.5 31.8 14 11.9 1.6 24-0.4 35.1-5 6.3-2.6 12.2-6.1 17.6-10.3 1.4-1 0-3.5-1.4-2.4z"/>
						</g>
					</g>
					<g id="&lt;Group&gt;">
						<path id="&lt;Path&gt;" class="s3" d="m1632.2 869.9c-1.2 5.4-4.1 10.3-8.2 14-2 1.9-4.4 3.5-7.1 3.8-4.9 0.7-9.5-3-12.3-7.2-6.6-9.8-6.9-23.6-0.5-33.7 1.2-1.9 3.4-3.9 5.4-2.9 0.8 0.4 1.3 1.1 1.6 1.9 1.7 3.9-1.1 8.7-5.1 10.1-4.1 1.4-8.6-0.1-11.9-2.8-3.3-2.7-5.5-6.4-7.4-10.2-4.7-9.3-8.2-19.9-5.2-29.8 0.9-3 3.7-6.4 6.6-5.2 1.5 0.6 2.4 2.3 2.6 3.9 1.2 6.9-5.2 12.9-11.7 15.3-9.6 3.6-20.8 2.5-29.8-2.4-9.1-4.8-16.1-13.2-20-22.7-1.2-2.9-1.4-7.3 1.7-8.1 2.7-0.7 4.7 2.6 5.3 5.4 2.4 12.7-5.4 26.6-17.5 31.1-12.2 4.4-27.1-1.1-33.5-12.3-0.6-1.1-1.1-2.2-1-3.4 0.1-1.2 1.1-2.3 2.3-2.2 0.8 0 1.4 0.6 1.9 1.1 4.2 4.8 3.6 12.4 0.7 18-2.3 4.5-6 8.4-10.6 10.3-4.7 1.9-10.4 1.6-14.3-1.5-0.6-0.4-1.2-1-1.4-1.7-0.4-1.8 2.1-3.2 3.8-2.5 1.7 0.8 2.6 2.6 3.1 4.4 3.4 11.5-2.2 25-12.7 30.8-3.8 2.1-9.2 2.9-11.9-0.5l10-62.7c0 0 21-24.5 46.7-31.7 25.8-7.2 106.1 2.4 123.1 44.5 16.9 42.1 7.3 48.9 7.3 48.9z"/>
					</g>
					<path id="&lt;Path&gt;" class="s11" d="m1494.4 991c0 0 27.2 11.4 64 0 0 0 63.5-65.5 46.4-185.8 0 0 40.1-3.7 58.8-6.9 0 0 30.5 103.7-28.7 251.1l9.6 132.3h-209.1l8.9-139.7z"/>
					<g id="&lt;Group&gt;">
						<g id="&lt;Group&gt;">
							<path id="&lt;Path&gt;" class="s19" d="m1425.9 634.1c-2.4-8.7-3.2-18-2.3-27 0.4-3.1 1.1-6.5 3.7-8.3 2-1.3 4.6-1.3 6.9-0.7 2.7 0.7 5.1 2.2 7.4 3.8 6.5 4.5 12.1 10.1 16.6 16.6z"/>
						</g>
						<path id="&lt;Path&gt;" class="s20" d="m1446 686.9c0 0-23.1 17.2-24.2 22.9-1 5.6 32.4 30 37.7 24.4 5.3-5.6 18.6-26.7 18.6-26.7z"/>
						<path id="&lt;Path&gt;" class="s19" d="m1415 654c-7 36.6 30.7 74.4 84 84.5 53.4 10.1 102.3-11.3 109.2-47.9 6.9-36.5-30.7-74.3-84.1-84.4-53.4-10.1-102.2 11.3-109.1 47.8z"/>
						<path id="&lt;Path&gt;" class="s19" d="m1525 718.6c0 0 3.8 28.4 0.6 33.2-3.3 4.7-44.1-2.1-43.8-9.8 0.2-7.7 6-32 6-32z"/>
						<path id="&lt;Path&gt;" class="s19" d="m1568.7 714.2c0 0 12.9 19.5 12.2 24.2-0.8 4.6-33 14.1-35.6 8.3-2.5-5.7-6.9-25.6-6.9-25.6z"/>
						<g id="&lt;Group&gt;">
							<g id="&lt;Group&gt;">
								<path id="&lt;Path&gt;" class="s19" d="m1589.1 649.3c1 6.3 2.4 12.7 4.6 18.7 1.7 4.8 4.2 9.6 8.3 12.8 9.7 7.4 23.9 0.8 29.6-8.5 5.7-9.5 3-24.2-8.4-27.9-5.4-1.8-12.2 0.8-13.8 6.6-1.6 5.6 2.7 11.5 8.3 12.4 7.2 1.2 13.1-4 15.6-10.4 2.5-6.5 1.7-13.9-1.2-20.1-0.7-1.4-2.7-1.8-3.9-1-1.4 0.8-1.6 2.4-1 3.8 1.9 4.1 2.5 8.9 1.4 13.3-0.9 4-3.3 7.9-7.5 8.8-3.2 0.7-7-1.6-6.4-5 0.2-1.1 1.4-2.4 2.6-2.9 1.6-0.8 3.5-0.6 5.2 0.2 3.6 1.7 5.8 5.5 6.3 9.4 0.6 3.8-0.5 7.7-2.7 10.9-4.2 6.1-14.4 11-20.8 5.9-3.3-2.7-5.2-6.9-6.6-10.8-1.9-5.8-3.2-11.7-4.2-17.7-0.2-1.5-2.1-2.3-3.4-1.9-1.6 0.4-2.2 1.9-2 3.4z"/>
							</g>
						</g>
						<path id="&lt;Path&gt;" class="s20" d="m1488.3 680.8c-2 10.3-16.2 16.3-31.8 13.3-15.6-2.9-26.6-13.6-24.7-23.9 2-10.3 16.2-16.3 31.8-13.3 15.6 2.9 26.6 13.7 24.7 23.9z"/>
						<path id="&lt;Path&gt;" class="s3" d="m1448.3 672.3c-1 5.3-0.7 9.7 0.6 10 1.4 0.3 3.3-3.8 4.3-9.1 1-5.3 0.7-9.7-0.6-10-1.4-0.2-3.3 3.8-4.3 9.1z"/>
						<path id="&lt;Path&gt;" class="s3" d="m1465.2 675.5c-1 5.3-0.7 9.8 0.7 10 1.3 0.3 3.2-3.8 4.2-9.1 1-5.2 0.7-9.7-0.6-10-1.4-0.2-3.3 3.8-4.3 9.1z"/>
						<path id="&lt;Path&gt;" class="s3" d="m1438.9 654.2c-0.5 2.5-2 4.4-3.3 4.2-1.3-0.3-1.9-2.5-1.5-5.1 0.5-2.6 2-4.4 3.3-4.2 1.3 0.3 2 2.5 1.5 5.1z"/>
						<path id="&lt;Path&gt;" class="s3" d="m1490.5 664c-0.5 2.5-2 4.4-3.3 4.1-1.3-0.2-2-2.5-1.5-5 0.5-2.6 2-4.5 3.3-4.2 1.3 0.2 1.9 2.5 1.5 5.1z"/>
						<g id="&lt;Group&gt;">
							<g id="&lt;Group&gt;">
								<path id="&lt;Path&gt;" class="s20" d="m1485.5 715.6q-3 12.5-4.4 25.3c-0.2 1.8 2.6 1.7 2.8 0q1.4-12.4 4.3-24.5c0.5-1.8-2.2-2.6-2.7-0.8z"/>
							</g>
						</g>
						<g id="&lt;Group&gt;">
							<g id="&lt;Group&gt;">
								<path id="&lt;Path&gt;" class="s20" d="m1528.1 751c1.1-4.2 1.4-8.5 1.6-12.8q0.4-6.9 0.8-13.8c0.1-1.8-2.7-1.8-2.8 0q-0.4 6.6-0.8 13.3c-0.2 4.2-0.4 8.5-1.6 12.6-0.4 1.7 2.3 2.5 2.8 0.7z"/>
							</g>
						</g>
						<g id="&lt;Group&gt;">
							<g id="&lt;Group&gt;">
								<path id="&lt;Path&gt;" class="s20" d="m1542.6 727c-0.4 7 0.2 13.9 1.8 20.7 0.4 1.8 3.1 1 2.7-0.7-1.5-6.6-2.1-13.3-1.7-20 0.1-1.8-2.7-1.8-2.8 0z"/>
							</g>
						</g>
						<g id="&lt;Group&gt;">
							<g id="&lt;Group&gt;">
								<path id="&lt;Path&gt;" class="s20" d="m1575.3 722.6q0.9 7.3 2.9 14.3c0.5 1.8 3.2 1 2.7-0.7-1.3-4.5-2.2-9-2.8-13.6-0.1-0.8-0.6-1.4-1.4-1.4-0.7 0-1.5 0.6-1.4 1.4z"/>
							</g>
						</g>
						<g id="&lt;Group&gt;">
							<g id="&lt;Group&gt;">
								<path id="&lt;Path&gt;" class="s20" d="m1507.3 629.9c3.9-2.6 8.1-4.8 12.5-6.5 4.4-1.7 9.3-3.4 14-3.4 1.8 0 3.8 0.3 5.2 1.5 1.3 1.1 1.3 3 1.1 4.6-0.3 2.1-1.1 4.3-1.8 6.4q-1 3.2-2.4 6.2c-2.2 4.9-4.9 9.5-8.2 13.8-0.9 1.2-0.2 3.1 1 3.8 1.5 0.9 3 0.2 3.9-1 3.2-4.2 5.9-8.8 8.1-13.6 2.2-4.8 4.3-10 5-15.3 0.3-2.5 0-5.2-1.4-7.3-1.5-2.3-4-3.7-6.6-4.3-5.5-1.3-11.4 0.4-16.6 2.2-5.9 1.9-11.5 4.7-16.6 8.1-1.3 0.8-1.8 2.5-1 3.8 0.7 1.3 2.5 1.9 3.8 1z"/>
							</g>
						</g>
						<g id="&lt;Group&gt;">
							<path id="&lt;Path&gt;" class="s8" d="m1583.5 693.9c1.2-3 1.3-6.4 0.3-9.4-1-3-3.3-5.5-6-6.9-3.6-1.8-7.9-1.6-11.8-0.4q-2.1 0.7-4 1.7-0.4-2.1-1.2-4.1c-1.5-3.8-4.1-7.2-7.8-8.8-2.8-1.3-6.2-1.4-9.2-0.2-2.9 1.1-5.5 3.4-7 6.3-2.7 5.2-1.6 11.5-0.3 17.2 2 8.5 5.1 17.3 8.9 25.1 8.4-2 17.2-5.3 25-9.2 5.2-2.7 10.7-5.9 13.1-11.3z"/>
						</g>
						<g id="&lt;Group&gt;">
							<path id="&lt;Path&gt;" class="s20" d="m1523.7 648.8c2.9-3.8 5-8.1 6.3-12.8 0.4-1.5 0.7-3.4-0.2-4.7-0.7-1-2-1.5-3.2-1.7-1.5-0.2-3 0.1-4.4 0.4-4 1-7.9 2.7-11.3 5z"/>
						</g>
					</g>
					<path id="&lt;Path&gt;" class="s16" d="m1624.1 701.2c-0.8 4.4-11.6 6.1-24.1 3.7-12.5-2.3-21.9-7.8-21.1-12.2 0.8-4.4 11.6-6.1 24.1-3.7 12.5 2.3 21.9 7.8 21.1 12.2z"/>
					<path id="&lt;Path&gt;" class="s16" d="m1621.9 731.3c-0.8 4.5-11.6 6.1-24.1 3.7-12.5-2.3-21.9-7.8-21.1-12.2 0.8-4.4 11.6-6.1 24.1-3.7 12.5 2.4 22 7.8 21.1 12.2z"/>
					<path id="&lt;Path&gt;" class="s16" d="m1626.3 716.7c-0.9 5-13 6.8-26.9 4.2-13.9-2.7-24.5-8.8-23.5-13.7 0.9-4.9 12.9-6.8 26.9-4.1 13.9 2.6 24.4 8.7 23.5 13.6z"/>
					<path id="&lt;Path&gt;" class="s16" d="m1388.4 686.1c1.4 4.3 12.4 4.4 24.4 0.3 12-4.1 20.6-10.8 19.2-15.1-1.5-4.2-12.4-4.3-24.4-0.3-12 4.1-20.6 10.9-19.2 15.1z"/>
					<path id="&lt;Path&gt;" class="s16" d="m1394.8 715.6c1.4 4.3 12.3 4.4 24.4 0.3 12-4 20.6-10.8 19.1-15-1.4-4.3-12.3-4.4-24.3-0.3-12.1 4-20.7 10.8-19.2 15z"/>
					<path id="&lt;Path&gt;" class="s16" d="m1388.4 701.8c1.6 4.7 13.8 4.9 27.2 0.3 13.4-4.5 23-12.1 21.4-16.8-1.6-4.7-13.8-4.9-27.2-0.3-13.4 4.5-23 12-21.4 16.8z"/>
					<path id="&lt;Path&gt;" class="s21" d="m1561.6 1132c-39.4 12.4-78.7-2.3-113.6-21.4q-4.1-2.2-7.7-5l-4.9 76.1h209.1l-7.6-105.2c-18.4 25.8-44 46-75.3 55.5z"/>
					<g id="&lt;Group&gt;">
						<g id="&lt;Group&gt;">
							<path id="&lt;Path&gt;" class="s3" d="m1495.7 820.3q-0.2-0.5-0.4-1c-0.4-0.8-1.6-0.2-1.3 0.5 2.6 8.1 12.5 12.1 20.3 12.9 8.6 0.8 17.2-2.1 23.6-7.9 3.4-3.1 6.1-6.9 7.8-11.1 0.4-0.9-1-1.2-1.3-0.4-2.9 6.9-8.5 12.7-15.4 15.7-7.7 3.4-16.8 3.2-24.4-0.4-4-1.9-7.9-4.8-9.3-9.2q-0.6 0.3-1.3 0.6 0.3 0.5 0.5 1c0.3 0.8 1.5 0.1 1.2-0.7z"/>
						</g>
					</g>
					<path id="&lt;Path&gt;" class="s17" d="m1530.7 939.5c0 0-8.8 4.7-21.7 0 0 0 4.6 11.2 12.7 9.6 8-1.6 9-9.6 9-9.6z"/>
				</g>
				<g id="&lt;Group&gt;">
					<path id="&lt;Path&gt;" class="s16" d="m1183.8 1001.4l7.5 126.6c0 0-30.5 31-55.6-12.3-25.1-43.2-7-129.3-7-129.3z"/>
					<path id="&lt;Path&gt;" class="s9" d="m1178.7 955.5l-7.5 194.5h179.6l-12.9-120.2c0 0 23.7-70.6-58.3-108.3-81.9-37.6-100.9 34-100.9 34z"/>
					<path id="&lt;Path&gt;" class="s11" d="m1174.1 1074.4l-2.9 75.6h179.6l-6.2-57.4c-11.9 6.4-25.1 10.7-38.2 13.3-46.4 9-96.3-2.7-132.3-31.5z"/>
					<path id="&lt;Path&gt;" class="s9" d="m1230.6 971.2l-49.5 91.7c0 0-48.7-3-85.2-34.7 0 0 23.9-25.8 40.5-69.7 16.5-43.9 87.8-36.7 94.2 12.7z"/>
					<path id="&lt;Path&gt;" class="s19" d="m1220.9 690.3c0 0 52.9-5.6 115.1 62.7 66.5 73.1-42.8 159.2-42.8 159.2l45 27.3-31.2 16-48.7-13.8-53.7-230.6z"/>
					<path id="&lt;Path&gt;" class="s20" d="m1223.5 713c0 0 83.2 30.1 101.4 96.5 18.1 66.4-59.9 119.6-95.7 108.1-35.8-11.5-5.7-204.6-5.7-204.6z"/>
					<path id="&lt;Path&gt;" class="s16" d="m1262.8 881.9l-5.5 41.7 28.6 21.1c0 0-58.6 9.8-89.4-5.1l16.4-20.8v-41.2z"/>
					<path id="&lt;Path&gt;" class="s17" d="m1249.5 919.5c3.3-1.4 6.3-3.2 9-5.4l4.3-32.2-49.9-4.3v28.7c9.2 11.6 22.7 19.1 36.6 13.2z"/>
					<g id="&lt;Group&gt;">
						<g id="&lt;Group&gt;">
							<path id="&lt;Path&gt;" class="s16" d="m1167.7 830.5c-2.8-5.9-5.7-11.9-10.6-16.2-4.9-4.3-12.2-6.4-18-3.4-4.4 2.3-7 7.1-8 12-2.4 12.2 4.8 25.1 15.4 31.6 9.8 6 23.7 6.8 32.2-1z"/>
						</g>
						<g id="&lt;Group&gt;">
							<g id="&lt;Group&gt;">
								<path id="&lt;Path&gt;" class="s6" d="m1141.4 819.5c7.1 3.8 12.5 10.6 14.2 18.5 0.4 1.9 0.5 5.5-2.2 5.6-2 0.1-3.9-2.1-4.7-3.7-1-1.6-1.2-4.1 0.6-5.3 1.9-1.4 4.2 0.6 5.6 1.8 1.2 1 2.8-0.7 1.7-1.7-1.6-1.4-3.4-2.8-5.6-2.9-2-0.2-3.8 1-4.7 2.7-2 3.9 0.7 8.8 4.3 10.7 1.8 1 4 1.1 5.6-0.3 1.7-1.5 2.1-3.8 1.9-5.9-0.5-4.2-2.4-8.5-4.8-11.9-2.7-4-6.4-7.4-10.7-9.7-1.3-0.7-2.5 1.4-1.2 2.1z"/>
							</g>
						</g>
					</g>
					<g id="&lt;Group&gt;">
						<path id="&lt;Path&gt;" class="s16" d="m1282.4 734.1c17.8 16.6 24.6 41.8 28.4 65.8 2.1 14 3.6 28.3 0.9 42.2-3.6 19.3-15.3 36.9-31.7 47.7-16.3 10.8-37.1 14.6-56.3 10.4-24.8-5.5-45.5-23.8-57.6-46.1-5.4-9.9-9.3-20.5-11.9-31.4-7.7-31.9 0.4-65.8 22.6-90 10.6-11.6 27.6-18.5 46.7-19.7 18.9-1.2 39.8 3.2 58.9 21.1z"/>
					</g>
					<g id="&lt;Group&gt;">
						<path id="&lt;Path&gt;" class="s18" d="m1312.2 810.7c1.2 10.5 1.5 21.1-0.5 31.4-3.6 19.3-15.3 36.9-31.7 47.7-12.7 8.3-28.1 12.5-43.3 12 14.1-0.4 27.8-4.9 39.5-13.9 24-18.7 33.6-47.6 36-77.2z"/>
					</g>
					<path id="&lt;Path&gt;" class="s17" d="m1307 837.4c0 10.7-8.7 19.4-19.4 19.4-10.7 0-19.3-8.7-19.3-19.4 0-10.6 8.6-19.3 19.3-19.3 10.7 0 19.4 8.7 19.4 19.3z"/>
					<g id="&lt;Group&gt;">
						<g id="&lt;Group&gt;">
							<path id="&lt;Path&gt;" class="s8" d="m1271.5 828.6c38.3 13.8 47.5-49.4 9.3-47.5-19.3 4.3-31.6 39-9.3 47.5z"/>
						</g>
						<path id="&lt;Path&gt;" class="s3" d="m1258.4 813.2c0 0 4.5-26.3 25.4-26 19.9 0.3 21.4 19.1 21.4 19.1 0 0 6.3-1 3.8-11-2.5-10.1-13-18.2-26.6-16.5-12.6 1.5-25.4 17.2-24 34.4z"/>
						<path id="&lt;Path&gt;" class="s3" d="m1262.8 808.6c-0.5 11 6.5 20.2 15.8 20.7 9.3 0.5 17.3-8 17.8-19 0.6-10.9-6.5-20.2-15.8-20.6-9.3-0.5-17.2 8-17.8 18.9z"/>
					</g>
					<g id="&lt;Group&gt;">
						<path id="&lt;Path&gt;" class="s16" d="m1256.7 838.6c5.5-1.2 8-8.6 8.3-14.3 0.2-2.6-0.3-5.3-1-7.8-1.4-5.1-3.7-9.8-6.1-14.5q-3.9-8-7.8-15.9c0 0-11.7 12.2-14.6 27.1-2.9 15-0.5 30 21.2 25.4z"/>
					</g>
					<g id="&lt;Group&gt;">
						<g id="&lt;Group&gt;">
							<path id="&lt;Path&gt;" class="s6" d="m1257.3 839.6c5.5-4.3 9.4-10.7 8.9-17.9-0.7-8-4.9-15.6-8.4-22.7q-3.4-6.8-6.7-13.5c-0.7-1.4-2.7-0.2-2 1.2q3.3 6.8 6.7 13.7c2.2 4.4 4.5 8.9 6.1 13.5 1.6 4.4 2.7 9.1 1.3 13.7-1.1 4-3.8 7.4-7.1 9.9-1.2 1 0 3 1.2 2.1z"/>
						</g>
					</g>
					<g id="&lt;Group&gt;">
						<g id="&lt;Group&gt;">
							<path id="&lt;Path&gt;" class="s6" d="m1243 824.8q-1.6 1.8-2.7 3.9c-0.3 0.5-0.1 1.3 0.4 1.6 0.6 0.3 1.3 0.1 1.6-0.4q0.9-1.5 1.9-2.9-0.1 0.2-0.2 0.3 0.3-0.4 0.7-0.8c0.2-0.3 0.3-0.5 0.3-0.9 0-0.3-0.1-0.6-0.3-0.8-0.5-0.4-1.3-0.5-1.7 0z"/>
						</g>
					</g>
					<path id="&lt;Path&gt;" class="s18" d="m1261.4 818.3c0 4.2-2.9 7.6-6.4 7.6-3.5 0-6.4-3.4-6.4-7.6 0-4.2 2.9-7.6 6.4-7.6 3.5 0 6.4 3.4 6.4 7.6z"/>
					<path id="&lt;Path&gt;" class="s17" d="m1214.3 845.9c0 10.6-8.7 19.3-19.4 19.3-10.7 0-19.3-8.7-19.3-19.3 0-10.7 8.6-19.4 19.3-19.4 10.7 0 19.4 8.7 19.4 19.4z"/>
					<g id="&lt;Group&gt;">
						<g id="&lt;Group&gt;">
							<path id="&lt;Path&gt;" class="s8" d="m1216.4 835.3c-41.3 14.9-51.2-53.3-10-51.2 20.7 4.6 33.9 42 10 51.2z"/>
						</g>
						<path id="&lt;Path&gt;" class="s3" d="m1230.4 818.7c0 0-4.8-28.4-27.3-28-21.5 0.3-23.1 20.5-23.1 20.5 0 0-6.8-1-4-11.8 2.7-10.8 14-19.6 28.6-17.8 13.6 1.6 27.3 18.5 25.8 37.1z"/>
						<path id="&lt;Path&gt;" class="s3" d="m1222.8 813.7c0.6 11.8-7 21.7-17 22.2-10 0.5-18.6-8.6-19.2-20.4-0.6-11.8 7.1-21.8 17-22.3 10-0.5 18.6 8.7 19.2 20.5z"/>
					</g>
					<path id="&lt;Path&gt;" class="s3" d="m1295.4 770c0 3.6-5.1 3.1-11.5 3.1-6.3 0-11.4 0.5-11.4-3.1 0-3.6 5.1-6.5 11.4-6.5 6.4 0 11.5 2.9 11.5 6.5z"/>
					<path id="&lt;Path&gt;" class="s3" d="m1212.7 773.1c0 3.6-5.1 3.1-11.4 3.1-6.4 0-11.5 0.5-11.5-3.1 0-3.6 5.1-6.5 11.5-6.5 6.3 0 11.4 2.9 11.4 6.5z"/>
					<path id="&lt;Path&gt;" class="s8" d="m1226.6 824.4c0 1.9-3.6 3.5-8 3.5-4.4 0-7.9-1.6-7.9-3.5 0-1.9 3.5-3.4 7.9-3.4 4.4 0 8 1.5 8 3.4z"/>
					<path id="&lt;Path&gt;" class="s8" d="m1301.1 818.6c0 1.9-3.4 3.5-7.5 3.5-4.2 0-7.5-1.6-7.5-3.5 0-1.9 3.3-3.5 7.5-3.5 4.1 0 7.5 1.6 7.5 3.5z"/>
					<path id="&lt;Path&gt;" class="s6" d="m1152.5 811.6c0 0 62.5-3 50.4-78 0 0 77.5-34.2 108.9 72.9 0 0 18.7-31.2-2.2-72.5-20.9-41.3-111.2-16.6-111.2-16.6 0 0-76.5 19.1-61 94.6 0 0 7.9-4 15.1-0.4z"/>
					<g id="&lt;Group&gt;">
						<g id="&lt;Group&gt;">
							<path id="&lt;Path&gt;" class="s3" d="m1256.9 851.5c-2.9 2.1-6.5 2.7-10.1 3-3.3 0.2-6.7 0-9.9-0.7-6.6-1.2-12.9-4.1-18-8.4-0.7-0.6-1.7 0.4-1 1 5.4 4.5 12 7.6 19 8.9 6.6 1.2 15 1.4 20.7-2.6 0.8-0.5 0.1-1.7-0.7-1.2z"/>
						</g>
					</g>
					<path id="&lt;Path&gt;" class="s19" d="m1221.4 712.7c0 0-61.1 14-59.5 91.6 1.6 77.5 80.2 97.5 80.2 97.5l64.9 53.7c0 0-105.6 56.7-191.1 16.4 0 0 25.9-50 38.8-56.5 0 0-57.6-26.7-63.9-85.9-5.3-49.9 64.4-134.7 130.1-139.2z"/>
					<path id="&lt;Path&gt;" class="s16" d="m1126.5 1091.4l119.8-68.1 10.4 16.2c5.4 8.4-1 8.4-7.2 16.3-20.8 26.8-63.3 94.3-92.7 81z"/>
					<g id="&lt;Group&gt;">
						<g id="&lt;Group&gt;">
							<path id="&lt;Path&gt;" class="s6" d="m1157.1 1077.2q6.4-4.5 12.9-8.9c4.2-3 8.4-6 12.8-8.6 8.9-5.3 18.3-10 27.5-14.9q7.8-4.2 15.7-8.4c1.3-0.7 0.2-2.8-1.2-2.1q-14 7.5-28 15c-4.5 2.5-9.1 4.9-13.6 7.4-4.4 2.5-8.6 5.5-12.8 8.4q-7.2 5-14.5 10.1c-1.3 0.9-0.1 2.9 1.2 2z"/>
						</g>
					</g>
					<g id="&lt;Group&gt;">
						<g id="&lt;Group&gt;">
							<path id="&lt;Path&gt;" class="s6" d="m1283.6 719c12.9 0 24.3 8.3 30.7 19.1 3.4 5.8 5.7 12.2 7 18.8 1.4 7.1 2.1 14.6 1 21.7-1.2 7.3-4.3 14.3-9.9 19.2-0.7 0.6 0.3 1.6 1 1 11.1-9.8 12-25.7 9.8-39.3-2.2-13.5-8.1-26.9-19.4-35.1-5.9-4.2-12.9-6.8-20.2-6.8-0.9 0-0.9 1.5 0 1.4z"/>
						</g>
					</g>
					<g id="&lt;Group&gt;">
						<g id="&lt;Group&gt;">
							<path id="&lt;Path&gt;" class="s6" d="m1203.9 727.4c2.9 4.2 4 9.1 4.4 14 0.5 5.2 0.3 10.5-0.5 15.6-1.6 9.7-5.5 19-12.2 26.3-3.5 3.8-7.6 6.9-12.3 9.1-0.8 0.4-0.1 1.6 0.7 1.2 8.6-4.1 15.5-11.3 19.8-19.7 4.9-9.5 6.7-20.4 6.1-31-0.4-5.7-1.5-11.4-4.8-16.2-0.5-0.7-1.7 0-1.2 0.7z"/>
						</g>
					</g>
					<g id="&lt;Group&gt;">
						<path id="&lt;Path&gt;" class="s16" d="m1242.6 1021.6c1.4-8.4-9.1-15-17.4-17.2-2.1-0.5-4.3-0.8-6.4-0.4-1.8 0.3-3.8 1.3-4.2 3.2-0.5 2 1.2 3.9 2.5 5.6 1.8 2.3 3.2 5.1 3.6 8.1 0.3 2.9 0.1 7.1-1.8 9.3 0 0 19.9 15.8 23.7-8.6z"/>
					</g>
					<g id="&lt;Group&gt;">
						<path id="&lt;Path&gt;" class="s11" d="m1365.7 968.8c-26.4-22-19.6-36-19.6-36h-40.9-40.9c0 0 6.9 14-19.6 36-26.4 22.1 4.8 100.2 4.8 100.2h55.7 55.7c0 0 31.3-78.1 4.8-100.2z"/>
						<path id="&lt;Path&gt;" class="s22" d="m1249.5 1069c0 6.3 25 11.5 55.7 11.5 30.8 0 55.7-5.2 55.7-11.5 0-6.3-24.9-11.4-55.7-11.4-30.7 0-55.7 5.1-55.7 11.4z"/>
						<path id="&lt;Path&gt;" class="s22" d="m1249.5 932.8c0 6.3 25 11.4 55.7 11.4 30.8 0 55.7-5.1 55.7-11.4 0-6.3-24.9-11.5-55.7-11.5-30.7 0-55.7 5.2-55.7 11.5z"/>
						<path id="&lt;Path&gt;" class="s22" d="m1249.5 932.8v-11.5h111.4v11.5z"/>
						<path id="&lt;Path&gt;" class="s11" d="m1249.5 921.3c0 6.4 25 11.5 55.7 11.5 30.8 0 55.7-5.1 55.7-11.5 0-6.3-24.9-11.4-55.7-11.4-30.7 0-55.7 5.1-55.7 11.4z"/>
						<g id="&lt;Group&gt;">
							<path id="&lt;Path&gt;" class="s10" d="m1337.6 1009.1c-0.1-4-1.8-7.8-4.6-10.5-2.7-2.7-6.4-4.3-10.2-4.3-4.9 0-9.5 2.4-13.1 5.8q-1.9 1.8-3.4 4-1.5-2.1-3.5-3.9c-3.6-3.3-8.3-5.6-13.2-5.5-3.8 0.2-7.5 1.9-10.1 4.6-2.7 2.8-4.2 6.7-4.3 10.6-0.2 7.2 4.3 13.5 8.8 19 6.7 8.3 14.7 16.3 23 22.8 8.1-6.8 15.9-15 22.4-23.4 4.3-5.6 8.6-12 8.2-19.2z"/>
						</g>
						<g id="&lt;Group&gt;">
							<path id="&lt;Path&gt;" class="s10" d="m1324.1 970.2c-0.2-2.2-1.1-4.3-2.6-5.9-1.6-1.5-3.7-2.4-5.8-2.4-2.8 0-5.4 1.4-7.4 3.3q-1.1 1-1.9 2.2-0.9-1.2-2-2.2c-2.1-1.8-4.7-3.2-7.5-3.1-2.1 0.1-4.2 1.1-5.7 2.6-1.5 1.6-2.4 3.8-2.4 6-0.1 4.1 2.4 7.6 5 10.7 3.7 4.7 8.3 9.2 12.9 12.9 4.6-3.8 9-8.5 12.7-13.2 2.4-3.2 4.9-6.8 4.7-10.9z"/>
						</g>
						<g id="&lt;Group&gt;">
							<path id="&lt;Path&gt;" class="s10" d="m1352.2 1058c1-1.6 1.5-3.7 1.1-5.6-0.3-2-1.4-3.7-2.9-4.8-2-1.5-4.6-1.8-7.1-1.5q-1.3 0.2-2.6 0.6 0-1.3-0.3-2.6c-0.5-2.4-1.8-4.8-3.8-6.1-1.6-1.1-3.7-1.5-5.6-1.1-1.9 0.4-3.7 1.5-4.9 3.1-2.2 2.9-2.2 6.8-1.9 10.4 0.3 5.4 1.3 11.1 2.7 16.2 5.4-0.4 11-1.5 16.2-3.1 3.4-1 7.1-2.4 9.1-5.5z"/>
						</g>
						<g id="&lt;Group&gt;">
							<path id="&lt;Path&gt;" class="s10" d="m1279.8 1037c-1.3-1.5-3.2-2.4-5.2-2.6-1.9-0.2-3.9 0.4-5.4 1.6-1.9 1.6-2.9 4-3.2 6.5q-0.1 1.3 0 2.7-1.3-0.3-2.6-0.4c-2.6-0.1-5.1 0.5-7 2.1-1.4 1.3-2.3 3.1-2.5 5.1-0.1 1.9 0.5 4 1.8 5.5 2.2 2.9 6 3.9 9.6 4.6 5.2 1.1 11 1.6 16.3 1.5 1-5.3 1.4-11 1.2-16.4-0.1-3.6-0.5-7.5-3-10.2z"/>
						</g>
						<g id="&lt;Group&gt;">
							<path id="&lt;Path&gt;" class="s10" d="m1274.2 969.6c-1.3-1.5-3.2-2.4-5.2-2.6-1.9-0.2-3.9 0.4-5.4 1.6-1.9 1.6-2.9 4.1-3.2 6.5q-0.1 1.4 0 2.7-1.3-0.3-2.6-0.4c-2.5-0.1-5.1 0.5-7 2.1-1.4 1.3-2.3 3.2-2.4 5.1-0.2 2 0.5 4 1.7 5.5 2.3 2.9 6.1 3.9 9.6 4.6 5.3 1.1 11 1.6 16.3 1.5 1-5.3 1.4-11 1.2-16.4-0.1-3.6-0.5-7.5-3-10.2z"/>
						</g>
						<g id="&lt;Group&gt;">
							<path id="&lt;Path&gt;" class="s10" d="m1369.2 985.3c-0.1-2-1.1-3.9-2.5-5.2-1.4-1.4-3.4-2.1-5.3-2-2.4 0.1-4.7 1.4-6.5 3.2q-0.9 1-1.6 2.1-0.9-1.1-1.9-1.9c-1.9-1.6-4.3-2.7-6.8-2.5-1.9 0.1-3.7 1-5 2.5-1.3 1.5-2 3.5-2 5.5 0.1 3.6 2.5 6.7 4.9 9.4 3.5 4.1 7.7 7.9 12.1 11.1 3.9-3.6 7.7-7.9 10.8-12.3 2.1-2.9 4.2-6.3 3.8-9.9z"/>
						</g>
					</g>
					<g id="&lt;Group&gt;">
						<path id="&lt;Path&gt;" class="s16" d="m1227.1 1016.9c-4.5 3.7-10.3 16.3-10.7 22.1-1.4 17.6 14.2 22.7 19.5 23.5 9.6 1.4 19.1-2.9 27.2-8.3 8.1-5.5 15.6-12.6 18.3-22 0.8-2.7 1.1-5.7 0.2-8.4-0.3-1-1-2-2-1.9-0.6 0.1-1 0.5-1.4 0.9q-2.4 2.6-4.8 5.1c1.8-3 2.9-6.3 3.4-9.8 0.3-2.2 0-5-2.1-6-1.1-0.5-2.4-0.2-3.6 0.3-4.3 2.1-5.7 7.5-9.1 10.9 1.5-2.4 2.6-5.1 3.2-7.9 0.7-3.1 0.7-6.6-1-9.3-1.7-2.7-5.6-4.2-8.3-2.5-1.2 0.8-2 2-2.7 3.2-2.5 4-4.6 8.3-7.5 12.1-2.9 3.7-6.8 6.9-11.5 7.8z"/>
					</g>
					<g id="&lt;Group&gt;">
						<path id="&lt;Path&gt;" class="s23" d="m1265.2 922.2c0 4.4 18.3 8 40.8 8 22.6 0 40.9-3.6 40.9-8 0-4.4-18.3-8-40.9-8-22.5 0-40.8 3.6-40.8 8z"/>
						<path id="&lt;Path&gt;" class="s23" d="m1265.2 922.2l-6.8-28.9h95.3l-6.8 28.9z"/>
						<path id="&lt;Path&gt;" class="s24" d="m1258.4 893.3c0 5.1 21.3 9.3 47.6 9.3 26.4 0 47.7-4.2 47.7-9.3 0-5.2-21.3-9.4-47.7-9.4-26.3 0-47.6 4.2-47.6 9.4z"/>
					</g>
					<path id="&lt;Path&gt;" class="s25" d="m1194.7 696.1c-56.7 20.6-108.5 90.1-103.9 133.4 2.3 21.5 11.4 38.7 22 52-29.2-70.3 18.9-143.2 81.9-185.4z"/>
					<g id="&lt;Group&gt;" style="mix-blend-mode: overlay">
						<g id="&lt;Group&gt;">
							<path id="&lt;Path&gt;" class="s8" d="m1264.2 952.7c-4.4 14.2-17.5 23.2-24 36.2-1.8 3.6-3.1 7.4-3.5 11.4-0.2 1.5 2.2 1.5 2.3 0 1.7-14.7 14.6-24.6 22.2-36.2 2.2-3.3 4-6.9 5.2-10.7 0.5-1.5-1.8-2.1-2.2-0.7z"/>
						</g>
					</g>
					<g id="&lt;Group&gt;">
						<g id="&lt;Group&gt;">
							<path id="&lt;Path&gt;" class="s8" d="m1330 899.7c-14.6 2.3-29.5 2.6-44.1 0.9-1.5-0.2-1.5 2.2 0 2.3 14.9 1.8 29.9 1.4 44.7-0.9 1.5-0.2 0.9-2.5-0.6-2.3z"/>
						</g>
					</g>
				</g>
				<g id="&lt;Group&gt;">
					<path id="&lt;Path&gt;" class="s8" d="m1360.3 682.6c0.4-2.6-0.2-5.4-1.7-7.5-1.4-2.1-3.7-3.6-6.2-4.1-3.2-0.6-6.5 0.4-9.3 2.2q-1.5 0.9-2.8 2.2-0.7-1.6-1.8-3c-2-2.6-4.8-4.8-8-5.3-2.5-0.3-5.1 0.3-7.2 1.8-2.1 1.5-3.7 3.9-4.2 6.5-1 4.7 1.2 9.4 3.4 13.6 3.4 6.2 7.7 12.5 12.3 17.8 6.2-3.4 12.4-7.9 17.7-12.6 3.5-3.2 7.2-6.9 7.8-11.6z"/>
				</g>
				<g id="&lt;Group&gt;">
					<path id="&lt;Path&gt;" class="s8" d="m735.6 844.5c-0.8-4.1-3-7.9-6.2-10.3-3.3-2.5-7.4-3.7-11.3-3.2-5.1 0.7-9.6 3.9-12.9 7.9q-1.8 2.1-3 4.6-2-2-4.2-3.6c-4.3-2.9-9.5-4.8-14.6-3.9-3.9 0.6-7.6 2.9-9.9 6.1-2.4 3.3-3.6 7.6-3.1 11.7 0.8 7.6 6.3 13.5 11.7 18.7 8.1 7.7 17.6 15 27.2 20.7 7.5-8.2 14.6-17.8 20.2-27.5 3.7-6.4 7.4-13.7 6.1-21.2z"/>
				</g>
				<g id="&lt;Group&gt;">
					<path id="&lt;Path&gt;" class="s8" d="m1062.7 868.9c0.4-2.6-0.3-5.3-1.7-7.5-1.5-2.1-3.7-3.6-6.2-4.1-3.2-0.6-6.6 0.4-9.4 2.2q-1.4 1-2.7 2.2-0.8-1.6-1.8-2.9c-2-2.7-4.8-4.8-8-5.3-2.5-0.4-5.2 0.2-7.3 1.8-2.1 1.5-3.6 3.8-4.1 6.4-1 4.7 1.2 9.4 3.4 13.6 3.4 6.3 7.7 12.5 12.3 17.8 6.2-3.4 12.4-7.8 17.7-12.6 3.5-3.1 7.2-6.8 7.8-11.6z"/>
				</g>
				<g id="&lt;Group&gt;">
					<path id="&lt;Path&gt;" class="s8" d="m1389.1 602.6c-0.4-1.8-1.6-3.5-3.1-4.5-1.5-1-3.4-1.4-5.2-1-2.3 0.4-4.2 2-5.5 3.9q-0.7 1.1-1.2 2.2-1-0.8-2-1.5c-2.1-1.2-4.5-1.8-6.7-1.3-1.8 0.4-3.3 1.6-4.3 3.1-1 1.6-1.3 3.5-1 5.4 0.6 3.3 3.3 5.8 5.9 8 3.9 3.2 8.4 6.2 12.8 8.4 3.2-3.9 6.1-8.4 8.3-13 1.4-3 2.9-6.4 2-9.7z"/>
				</g>
				<g id="&lt;Group&gt;">
					<path id="&lt;Path&gt;" class="s8" d="m659.3 703.4c-0.4-1.8-1.6-3.4-3.1-4.4-1.5-1-3.4-1.4-5.2-1.1-2.3 0.5-4.2 2.1-5.5 4q-0.7 1-1.2 2.1-1-0.8-2-1.4c-2.1-1.2-4.5-1.9-6.7-1.3-1.7 0.4-3.3 1.5-4.3 3.1-1 1.5-1.3 3.5-1 5.3 0.6 3.4 3.3 5.9 5.9 8 3.9 3.2 8.4 6.2 12.8 8.4 3.2-3.9 6.1-8.4 8.3-12.9 1.4-3.1 2.9-6.5 2-9.8z"/>
				</g>
				<g id="&lt;Group&gt;">
					<path id="&lt;Path&gt;" class="s8" d="m747.8 735.2c-0.4-1.8-1.6-3.5-3.1-4.5-1.5-1-3.4-1.4-5.2-1-2.2 0.4-4.2 2-5.5 3.9q-0.7 1-1.2 2.2-1-0.9-2-1.5c-2-1.2-4.4-1.8-6.7-1.3-1.7 0.4-3.3 1.5-4.3 3.1-0.9 1.5-1.3 3.5-1 5.3 0.6 3.4 3.3 5.9 5.9 8.1 3.9 3.2 8.4 6.1 12.9 8.4 3.1-3.9 6-8.5 8.2-13 1.5-3 2.9-6.4 2-9.7z"/>
				</g>
			</g>
			<g id="&lt;Group&gt;">
				<g id="&lt;Group&gt;">
					<g id="&lt;Group&gt;">
					</g>
				</g>
			</g>
			<g id="&lt;Group&gt;">
				<g id="&lt;Group&gt;">
					<g id="&lt;Group&gt;">
						<g id="&lt;Group&gt;">
							<g id="&lt;Group&gt;">
								<g id="&lt;Group&gt;">
								</g>
								<g id="&lt;Group&gt;">
									<g id="&lt;Group&gt;">
									</g>
									<g id="&lt;Group&gt;">
									</g>
								</g>
								<g id="&lt;Group&gt;">
									<g id="&lt;Group&gt;">
									</g>
									<g id="&lt;Group&gt;">
									</g>
								</g>
							</g>
						</g>
					</g>
				</g>
			</g>
		</g>
	</g>
</svg>