<svg version="1.2" xmlns="http://www.w3.org/2000/svg" viewBox="0 0 2728 1572" width="1080" height="622">
	<title>5454</title>
	<style>
		.s0 { fill: #ffb27d } 
		.s1 { fill: #2c3a64 } 
		.s2 { fill: #35488b } 
		.s3 { fill: #ffb93e } 
		.s4 { fill: #ffa412 } 
		.s5 { fill: #ea9c68 } 
		.s6 { fill: #ffffff } 
		.s7 { fill: #a56941 } 
		.s8 { fill: #f99746 } 
		.s9 { fill: #ed7d2b } 
		.s10 { fill: #8e512f } 
		.s11 { fill: #b2443b } 
		.s12 { fill: #f99f46 } 
		.s13 { fill: #82b378 } 
		.s14 { fill: #ed985f } 
		.s15 { fill: #c65447 } 
		.s16 { fill: #a05a2b } 
		.s17 { fill: #bc6e39 } 
		.s18 { fill: #afcdfb } 
		.s19 { fill: #25386d } 
		.s20 { fill: #1d2a49 } 
		.s21 { fill: #17263d } 
		.s22 { fill: #2e3552 } 
	</style>
	<g id="Слой 2">
		<g id="&lt;Group&gt;">
			<g id="&lt;Group&gt;">
				<path id="&lt;Path&gt;" class="s0" d="m2242.1 1138.9l-35.4 18.1-7.1-24.6c0 0 4.5-8.5 6.5-22.4 0.9-5.9 1.3-12.7 0.8-20.3l28.8 14.8c0 0-0.7 2.7-1.1 6.6-0.5 4.3-0.7 10 0.5 15.5 1 4.6 3.1 9.1 7 12.3z"/>
				<path id="&lt;Path&gt;" class="s0" d="m2178.9 1143.9c0 0-32.7-42.4-48.7-55.5 0 0-21.7-53.7-23.5-57.2-1.8-3.6-13.1 2.9-13.1 2.9 0 0 8 52.2 16.5 67.7 8.4 15.4 34.5 67.3 53 69.3 18.4 1.9 15.8-27.2 15.8-27.2z"/>
				<path id="&lt;Path&gt;" class="s1" d="m2277.6 1542.2c0 0 3.7 7.2 11.9 9 5.1 1.1 9.5 3.8 12.3 7.6 2.3 3.1 0.1 7.6-3.9 7.6h-41.5c-3.5 0-6.3-3-6-6.6 0.4-3 0.7-6.6 0.8-9.4 0.3-6 6.3-10.8 6.3-10.8z"/>
				<path id="&lt;Path&gt;" class="s2" d="m2278.6 1544c0 0-10 5.9-26.8 2.3 0 0-28.7-73.3-30.4-107.8q-0.1-2-0.1-3.9c0.6-32.5-29.4-116.9-21.3-134.3 8.1-17.3 73.4 7.8 73.4 7.8l1.3 58.9z"/>
				<path id="&lt;Path&gt;" class="s1" d="m2274.7 1367l-53.3 71.5q-0.1-2-0.1-3.9c0.6-32.5-29.4-116.9-21.3-134.3 8.1-17.3 73.4 7.8 73.4 7.8z"/>
				<path id="&lt;Path&gt;" class="s0" d="m2244.6 1147.6c0 0 47.2-42.1 50.1-47.9 2.9-5.8 16.2-57.4 16.2-57.4l11.3 1.3c0 0-2.2 62-6.9 74.1-4.7 12.1-60.3 63.4-60.3 63.4z"/>
				<path id="&lt;Path&gt;" class="s1" d="m2170.3 1542.2c0 0 3.7 7.2 11.9 9 5.2 1.1 9.6 3.8 12.3 7.6 2.4 3.1 0.1 7.6-3.8 7.6h-41.6c-3.5 0-6.3-3-5.9-6.6 0.3-3 0.6-6.6 0.8-9.4 0.3-6 6.3-10.8 6.3-10.8z"/>
				<path id="&lt;Path&gt;" class="s2" d="m2235.2 1309.5c0 0-57.7 215.4-59.5 236.4 0 0-11.2 5.8-29.5-4.4 0 0-10.6-96.5 0-122.9 10.6-26.4-2.1-106.1 24.9-124.1 27-17.9 64.1 15 64.1 15z"/>
				<path id="&lt;Path&gt;" class="s3" d="m2271.5 1170.1c0.2-3 18-15 18-15 3.7-22.3-10.5-38.5-10.5-38.5l-21.4 15.2c-4.1 0.3-5.9 1.8-5.9 1.8-3.5-1-13.4 0-13.4 0 0.1 5.1-1.9 9.7-10.8 10.9-11.9 1.5-22.5-6.6-27.9-12.1 0 0-7.2-0.6-16.3 2.3 0 0-4.3-2.2-9-2.4l-17.5-15.7c0 0-20.5 5.9-23.7 36.8 0 0 23 17.5 24.6 31.3l0.7 5.3 2.2 18.6 3.9 32.5-11.7 64.9q-0.1 0.8-0.1 1.7c0 4.3 3 8.2 7.3 9.3 0 0 1 0.1 2.9 0.4 12.4 1.7 62.6 7.7 102-3 8.9-2.4 14.7-10.8 14-20l-8.3-104.6c0 0 0.7-16.8 0.9-19.7z"/>
				<path id="&lt;Path&gt;" class="s4" d="m2178.8 1268.4c-0.8 22.6-3 41.8-15.9 49-1.9-0.3-2.9-0.4-2.9-0.4-4.3-1.1-7.3-5-7.3-9.3q0-0.9 0.1-1.7l11.7-64.9-3.9-32.5q0.3-0.9 0.3-0.9c0 0 18.9 31.7 17.9 60.7z"/>
				<path id="&lt;Path&gt;" class="s5" d="m2235.1 1126.6c-16.4-0.5-29-16.6-29-16.6l28.5 1.1c-0.5 4.3-0.7 10 0.5 15.5z"/>
				<g id="&lt;Group&gt;">
					<path id="&lt;Path&gt;" class="s0" d="m2243 1117.4c0 0-32.7 8.7-44-17.4-12.2-28.1 1.2-48.5 12.3-49.9 22.2-2.8 35.1 5.7 39 14.6 3.8 8.9 10.8 48.1-7.3 52.7z"/>
					<path id="&lt;Path&gt;" class="s6" d="m2230.1 1102.8c0 0 1.3 3.3 10 1.4 0 0 7.2-1.6 6.4-5.4 0 0-7.5-1.6-16.4 4z"/>
					<path id="&lt;Path&gt;" class="s1" d="m2199.6 1029.2c-8.6 2.7-14.9 6.8-19.3 11.9-0.4-1.9-0.5-3.7-0.5-3.7-0.8 1.7-0.9 3.7-0.8 5.4q-0.1 0.1-0.2 0.2c-1.6 0.1-4.1 0.8-5.6 3.2 0 0 1.8-1.2 4.1-1-11.5 19.1 0.2 47.5 27.5 63.9 0 0-3.8-11.2-3.3-17.3 0 0-8.6-10.8-3.6-13.5 5-2.7 7.7 3.7 8.8 2.4 1.1-1.2 2.9-22.6 9-22 6 0.7 28.4 7.6 38.2-0.8 9.8-8.5-14-41.5-54.3-28.7z"/>
				</g>
				<path id="&lt;Path&gt;" class="s0" d="m2310.9 1042.3c0 0 0.3-4.9-1.3-9-1.6-4.1-0.7-14.8 1.3-14.2 2.1 0.6 1.2 4.5 3.4 4 2.3-0.4 5.9-12.8 8.8-11.7 2.9 1.1 5 5.3 4.1 14.3-0.9 9-5 17.9-5 17.9z"/>
				<path id="&lt;Path&gt;" class="s0" d="m2106.5 1031.1c0 0-1.2-5.4-0.3-10.2 1-4.9-2.1-16.5-4.2-15.4-2.1 1-0.4 5.1-3 5-2.5 0-8.9-13.1-11.9-11.2-3.1 1.8-4.6 6.8-1.9 16.6 2.7 9.8 9.1 18.9 9.1 18.9z"/>
				<g id="&lt;Group&gt;">
					<path id="&lt;Path&gt;" class="s1" d="m2216.6 1083.7q-0.2 0-0.4-0.1c-0.2-0.3-0.1-0.6 0.1-0.8 5.2-4.4 12.4-2.5 12.7-2.5 0.3 0.1 0.4 0.4 0.4 0.7-0.1 0.2-0.4 0.4-0.6 0.3-0.1 0-7-1.7-11.9 2.3q-0.1 0.1-0.3 0.1z"/>
				</g>
				<g id="&lt;Group&gt;">
					<path id="&lt;Path&gt;" class="s1" d="m2240.3 1079.3q-0.2 0-0.3-0.2c-0.1-0.2-0.1-0.5 0.1-0.7 4.5-4.4 10.7-2.6 10.9-2.5 0.3 0.1 0.4 0.4 0.3 0.6 0 0.3-0.3 0.5-0.5 0.4-0.1 0-6-1.8-10.2 2.3q-0.1 0.1-0.3 0.1z"/>
				</g>
				<path id="&lt;Path&gt;" class="s3" d="m2251.7 1133.6c-3.5-1-14.1-0.2-14.1-0.2 0.1 5.1-1.2 9.9-10.1 11.1z"/>
			</g>
			<g id="&lt;Group&gt;">
				<path id="&lt;Path&gt;" class="s7" d="m1977.1 1132.1c0 0-47.2-42.1-50.1-47.9-2.9-5.8-16.2-57.5-16.2-57.5l-11.3 1.4c0 0 2.2 62 6.9 74.1 4.7 12.1 60.3 63.4 60.3 63.4z"/>
				<path id="&lt;Path&gt;" class="s7" d="m2057.6 1185.3c0 0 33.7 53.5 34.9 59.8 1.2 6.4-0.2 59.8-0.2 59.8l11.1 1.7c0 0 15.1-60.1 13.9-73-1.2-12.9-40.4-77.6-40.4-77.6z"/>
				<path id="&lt;Path&gt;" class="s7" d="m2021.6 1440l21.2 104.1h21.8c0 0 15.3-98 1.1-111.5-14.2-13.6-44.1 7.4-44.1 7.4z"/>
				<path id="&lt;Path&gt;" class="s7" d="m1957.1 1435.3l0.6 109 18.9-1.6c0 0 36.2-89.1 25.2-105.4-11.1-16.2-44.7-2-44.7-2z"/>
				<path id="&lt;Path&gt;" class="s2" d="m1957.7 1542.2c0 0-3.7 7.2-11.9 9-5.1 1.1-9.6 3.8-12.3 7.6-2.3 3.1-0.1 7.6 3.9 7.6h41.5c3.5 0 6.3-3 5.9-6.6-0.3-3-0.6-6.6-0.7-9.4-0.3-6-6.4-10.8-6.4-10.8z"/>
				<path id="&lt;Path&gt;" class="s2" d="m2046.6 1433c-1.1 9.2-4.5 15.9-10.5 18.5-16.6 7.3-35.4 6.8-51.4 3.7-3.5-0.6-6.9-1.4-10.1-2.3-16.3-4.3-27.8-10.1-27.8-10.1l14-138.6c15.8-3.2 37.5 4 58.4 35.8 19 28.8 30.6 69.2 27.4 93z"/>
				<path id="&lt;Path&gt;" class="s1" d="m2046.6 1433c-1.1 9.2-4.5 15.9-10.5 18.5-16.6 7.3-35.4 6.8-51.4 3.7-3.5-0.6-6.9-1.4-10.1-2.3-3.2-60.9 19.2-116.9 25.9-124.7 21.2 32.3 45.1 79 46.1 104.8z"/>
				<path id="&lt;Path&gt;" class="s2" d="m2043.8 1542.2c0 0-3.7 7.2-11.9 9-5.1 1.1-9.6 3.8-12.3 7.6-2.3 3.1-0.1 7.6 3.9 7.6h41.5c3.5 0 6.3-3 5.9-6.6-0.3-3-0.6-6.6-0.7-9.4-0.3-6-6.4-10.8-6.4-10.8z"/>
				<path id="&lt;Path&gt;" class="s2" d="m2061.5 1058.8c2.5-11.1-0.6-19.3-5.7-27.2-4.9-7.6-11.8-7.9-18.4-14.4-6.3-6-17.9-10-27.1-10-29.6 0-55.2 18.1-49.3 48.8 1.8 9.7 0.3 17.4 8.2 28.8 9.8 14.2 21.8 25.7 41.1 25.7 10.2 0 19.2-2.4 27.1-9.8 4.3-4.1 10.4-4.6 14.2-9 7.6-8.9 7.1-20.7 9.9-32.9z"/>
				<path id="&lt;Path&gt;" class="s2" d="m1987.6 1309.5l18.4 151.4c0 0 38.8 9.1 81.5-4.3 0 0-12.7-145-22.9-155.6-10.3-10.6-77 8.5-77 8.5z"/>
				<path id="&lt;Path&gt;" class="s7" d="m1983.2 1130.9l36.8 18.8 7.4-25.5c0 0-4.7-8.9-6.8-23.4-0.9-6-1.4-13.1-0.8-21l-30 15.4c0 0 0.7 2.8 1.2 6.9 0.5 4.4 0.7 10.3-0.5 16-1.1 4.9-3.3 9.5-7.3 12.8z"/>
				<path id="&lt;Path&gt;" class="s8" d="m2063.8 1237.3l4.1-33.9 0.2-1.3c6.5-5.6 32.6-15.3 32.6-15.3 0 0-15.7-35.1-25.2-46.8q0 0 0 0c-2.7-3.4-7.9-6.1-13.8-8.3-4.9-1.8-10.3-3.2-15.4-4.4-10.2-2.2-18.9-3.1-18.9-3.1-5.6 5.7-16.7 14.2-29 12.6-9.3-1.3-10.8-6.1-10.6-11.4q-2 0.3-3.9 0.7l-29.9-15c0 0-19.3 29.2-7.1 52.6 0 0 13.2 5.9 14.8 18.6l-2 97.6c-0.8 9.5-9.5 31.1-0.3 33.6 41 11.1 93.3 4.9 106.2 3.1 1.9-0.3 2.9-0.5 2.9-0.5 4.6-1.1 7.6-5.1 7.6-9.6q0-0.9-0.1-1.8z"/>
				<path id="&lt;Path&gt;" class="s9" d="m2036.1 1257.9c0.6 23.6 16 51.2 29.5 58.7 1.9-0.3 2.9-0.5 2.9-0.5 4.6-1.1 7.6-5.1 7.6-9.6q0-0.9-0.1-1.8l-12.2-67.4 4.1-33.9q-0.3-0.9-0.3-0.9c0 0-32.4 13.8-31.5 55.4z"/>
				<path id="&lt;Path&gt;" class="s10" d="m1990.5 1118.1c17-0.4 30.1-17.3 30.1-17.3l-29.6 1.3c0.5 4.4 0.7 10.3-0.5 16z"/>
				<path id="&lt;Path&gt;" class="s7" d="m1988.8 1107.8c0 0 37.8 4.6 38.6-22 0.8-26.5-15-43.8-25.5-43.6-20.9 0.4-24.3 8.9-26.8 17.7-2.4 8.8-3.6 46 13.7 47.9z"/>
				<path id="&lt;Path&gt;" class="s6" d="m1998.9 1092.5c0 0-0.8 3.3-9.1 2.7 0 0-6.9-0.5-6.6-4.2 0 0 6.7-2.5 15.7 1.5z"/>
				<path id="&lt;Path&gt;" class="s2" d="m1992.6 1042.5c0 0 32.2 0 24.8 22.1-4.6 13.9 10.9 16.1 10.9 16.1l7.5-22.3-4.7-17.5z"/>
				<path id="&lt;Path&gt;" class="s7" d="m1910.8 1026.7c0 0-0.3-4.8 1.3-8.9 1.6-4.1 0.7-14.8-1.4-14.2-2 0.6-1.1 4.5-3.3 4-2.3-0.4-5.9-12.8-8.8-11.7-2.9 1.1-5 5.3-4.1 14.3 0.9 9 5 17.9 5 17.9z"/>
				<path id="&lt;Path&gt;" class="s7" d="m2092.3 1304.9c0 0-1.2 4.7-3.8 8.2-2.7 3.5-4.7 14-2.6 14 2.1 0 2.3-4 4.3-2.9 2 1 2.1 13.9 5.2 13.7 3.1-0.3 6.3-3.7 7.9-12.6 1.7-8.9 0.1-18.7 0.1-18.7z"/>
			</g>
			<g id="&lt;Group&gt;">
				<path id="&lt;Path&gt;" class="s5" d="m1312.8 1150.5c0 0 44.8 29.1 59.2 43.9 0 0 55.3 17.3 58.9 18.8 3.7 1.5-1.8 13.3-1.8 13.3 0 0-52.7-3.7-68.8-10.9-16.1-7.1-69.9-28.9-73.4-47.2-3.4-18.2 25.9-17.9 25.9-17.9z"/>
				<path id="&lt;Path&gt;" class="s0" d="m1259.9 1489.9l-10 53.6h-18.3l-4.7-65.3z"/>
				<path id="&lt;Path&gt;" class="s0" d="m1342.2 1485.1l11.4 59-16 0.7-30.4-57.5z"/>
				<path id="&lt;Path&gt;" class="s11" d="m1250.3 1541.4c0 0 4.3 7.9 12.5 9.7 5.1 1.1 9.6 3.8 12.3 7.5 2.3 3.2 0.1 7.7-3.9 7.7h-41.5c-3.5 0-6.3-3.1-5.9-6.6 0.3-3.1 0.6-6.6 0.7-9.4 0.3-6 6.8-11.4 6.8-11.4 0 0 5.7 3.2 7.9 3.6 4.8 0.8 11.1-1.1 11.1-1.1z"/>
				<path id="&lt;Path&gt;" class="s11" d="m1353.1 1541.4c0 0 4.3 7.9 12.5 9.7 5.2 1.2 9.6 3.9 12.3 7.7 2.3 3.2 0 7.6-3.9 7.6l-41.6-0.2c-3.5 0-6.2-3.1-5.9-6.6 0.4-3.1 0.7-6.7 0.9-9.4 0.3-6 6.8-11.4 6.8-11.4 0 0 5.7 3.3 7.9 3.6 4.8 0.9 11-1 11-1z"/>
				<path id="&lt;Path&gt;" class="s3" d="m1351.6 1487.6c0 0-17.3 5.4-36.3 7.1-18 1.6-37.5 0-45.7-12.4-2.4-3.6-3.8-9.9-4.3-18-3.5-49.4 22.6-167.5 22.6-167.5h30.5c0 2.4 33.2 190.8 33.2 190.8z"/>
				<path id="&lt;Path&gt;" class="s4" d="m1315.3 1494.7c-18 1.6-37.5 0-45.7-12.4-2.4-3.6-3.8-9.9-4.3-18q0-0.1 0-0.2c4.9-18.1 18.2-130.5 18.2-130.5 0 0 45.6 120.2 31.8 161.1z"/>
				<path id="&lt;Path&gt;" class="s3" d="m1221.2 1303.6c0 0-13.7 92-19.9 190.2 0 0 43 17.7 83 3.5l7.3-187.2z"/>
				<path id="&lt;Path&gt;" class="s11" d="m1241.7 1037c0 0-2.8-12.3-14.3-12.9 0 0 3.7 2.2 4.2 4.6 0 0-6.7-5.7-17.1-1.9-10.4 3.8-25.8 14.3-18 39 7.8 24.6-8.1 30.7-14.5 46.6-6.3 15.8 15.3 18.9 10.9 31.3-4.5 12.4 8.8 41.7 42.9 28.9 34-12.8 41.8-61.9 27.3-73.9-14.5-12-21.4-61.7-21.4-61.7z"/>
				<path id="&lt;Path&gt;" class="s12" d="m1252.1 1036.3c0 0-15.3-2-24.8 7.9-5.1 5.3 0.2 13 0.2 13z"/>
				<path id="&lt;Path&gt;" class="s11" d="m1298.4 1060c-0.3-0.5-12.4-19.7-35.1-23.5-18.4-3.1-35.7 9.8-38.5 28.3-2.8 18.5 0.1 42.5 30.3 51.2z"/>
				<g id="&lt;Group&gt;">
					<path id="&lt;Path&gt;" class="s0" d="m1292.8 1142.5l-34.2 20.4-8.6-24.1c0 0 3.9-8.8 5.1-22.8 0.5-5.9 0.5-12.8-0.6-20.3l29.8 12.9c0 0-0.5 2.8-0.7 6.7-0.3 4.3-0.1 10 1.4 15.4 1.4 4.6 3.8 8.9 7.8 11.8z"/>
					<path id="&lt;Path&gt;" class="s5" d="m1285 1130.7c-16.4 0.6-29.9-14.7-29.9-14.7l28.5-0.7c-0.3 4.3-0.1 10 1.4 15.4z"/>
					<path id="&lt;Path&gt;" class="s0" d="m1292.4 1121.1c0 0-32.1 10.7-45-14.6-14-27.3-1.9-48.5 9.1-50.6 21.9-4.2 35.3 3.4 39.8 12.1 4.4 8.7 13.8 47.3-3.9 53.1z"/>
					<path id="&lt;Path&gt;" class="s6" d="m1278.5 1107.3c0 0 1.6 3.2 10.1 0.8 0 0 7.1-2 6.1-5.8 0 0-7.6-1.2-16.2 5z"/>
				</g>
				<path id="&lt;Path&gt;" class="s2" d="m1336.1 1166.3l-27.3-22.2c-3.2-2.7-7.3-4.7-12.5-5.4-2-0.2-6-1-8.3-1.3 0.4 5.1 0.4 9.2-8.5 10.8-11.8 2.1-23.4-5.5-29-10.8-9.2 1.8-13.8 3.3-21.2 6.3-4.2 1.6-7.6 4.7-9.7 8.5-1.9 3.4-2.8 7.4-2.3 11.5l9 78.3c0 0-10.8 66.6-8.9 66.8 12.4 1.2 66.8 12.1 105.7-0.3 6.3-2.1-8.8-37.3-5.8-109.5 21.6-12.9 18.8-32.7 18.8-32.7z"/>
				<path id="&lt;Path&gt;" class="s11" d="m1269.9 1058.9c0 0 0.4 25.2-14.1 33.5 0 0 5.7-11.9 3.8-19.1 0 0-3.8 22.5-15.2 26.4-11.5 3.9-17.3-41.8 6.4-51 23.8-9.2 47.2 1.7 50 17.8 2.8 16.1 0.7 19.4 0.7 19.4 0 0-11.1-30.5-31.6-27z"/>
				<path id="&lt;Path&gt;" class="s1" d="m1217.4 1308.8c-1.9-0.2 8.9-66.8 8.9-66.8l-9-78.3c-0.5-4.1 0.4-8.1 2.3-11.5q0.9 0.1 1.8 0.9c19.1 16 36.6 81.2 36.6 81.2 0 0 9.1 52.6-40.6 74.5z"/>
				<path id="&lt;Path&gt;" class="s0" d="m1214.5 1172.5c0 0-16.2 61.2-13.2 72.5 2.9 11.2 34.5 37.3 39.8 39l3.8-10c0 0-24.1-33.2-22-36.7 4.4-7.7 22-52.9 22-52.9z"/>
				<path id="&lt;Path&gt;" class="s2" d="m1240.3 1196.3c0 0-18.7 3.2-36.8-15.5 0 0 15.4-45.2 34.6-36.1 19.3 9.2 14.6 40.7 2.2 51.6z"/>
				<path id="&lt;Path&gt;" class="s0" d="m1244.9 1274c0 0 15.9 3.1 16.5 8.2 0.6 4.1-6.7 10.9-10.5 9.4-3.9-1.4-9.8-7.6-9.8-7.6z"/>
			</g>
			<g id="&lt;Group&gt;">
				<path id="&lt;Path&gt;" class="s8" d="m1753 768.9c0.5-2.8-0.7-5.6-2.8-6.3-81.6-27.7-161.9-26.2-214.8-20.1-57.4 6.6-96.1 19.9-96.5 20.1-2 0.7-3.3 3.5-2.7 6.3 0.4 2.3 2 3.9 3.7 3.9q0.5 0 0.9-0.2c0.4-0.1 38.5-13.2 95.2-19.8 52.4-6 131.7-7.5 212.3 19.8 2.1 0.7 4.2-1 4.7-3.7z"/>
				<path id="&lt;Path&gt;" class="s8" d="m1816.9 786.1c-47.9-88.9-106.6-146.9-147.4-179.9-44.5-36-77.3-50.7-78.7-51.3-2.7-1.2-5.7-1.1-8.3 0.3-44.1 23.7-93 69.8-145.4 136.9-38.7 49.7-65.1 93.1-65.4 93.6-2.7 4.4-1.2 10.2 3.2 13 4.5 2.7 10.3 1.2 13-3.3 1-1.6 100.6-165.1 199.4-221.2 10 5 37.1 19.8 70.9 47.2 39.2 31.8 95.8 87.8 142 173.6 1.7 3.2 5 5 8.4 5 1.5 0 3-0.3 4.5-1.1 4.6-2.5 6.3-8.2 3.8-12.8z"/>
				<path id="&lt;Compound Path&gt;" fill-rule="evenodd" class="s8" d="m1666.1 788.3c4 0 7.1 3.2 7.1 7.1v150.9c0 3.9-3.1 7.1-7.1 7.1h-150.9c-3.9 0-7.1-3.2-7.1-7.1v-150.9c0-3.9 3.2-7.1 7.1-7.1zm-7.1 14.2h-57.7v61.3h57.7zm-136.6 0v61.2h64.7v-61.2zm0 136.6h64.7v-61.2h-64.7zm136.7 0v-61.2h-57.7v61.2z"/>
				<path id="&lt;Path&gt;" class="s8" d="m1761.1 796.5c-5.1 0.5-8.8 5.1-8.4 10.2 9.5 108-16.7 169.9-22 185.1-92.2 28-241.3 9-268.1 4.7-27.7-82-24.9-182.3-23.9-203.3 0.1-2.3-1.5-4.2-3.8-4.5l-3.5-0.5c-3-0.5-5.8 1.7-6.1 4.7-1.3 11-4 37.4-4.3 70.9-0.3 40.4 3 98.9 20.7 148.7l1.3 3.6 3.7 0.6c0.5 0.1 48.3 8.4 108 12.4q34.2 2.4 64 2.4c50.4 0 91.4-5 122.4-15l2.9-0.9 1.2-2.9c0.3-0.9 8.5-21.9 15.1-59.2 5.9-33.6 11.4-87.4 4.9-153.7-0.2-2-2-3.5-4.1-3.3z"/>
			</g>
			<g id="&lt;Group&gt;">
				<g id="&lt;Group&gt;">
					<path id="&lt;Path&gt;" class="s3" d="m574.8 1001.4c-1.1-0.2-1.9-1.3-1.9-2.8 0-1.8 1.1-3.4 2.4-3.6 0.3-0.1 25.6-3.9 61.7-1.6 33.3 2.2 82.9 10.3 130 36.5 1.2 0.6 1.7 2.5 1 4.2-0.6 1.6-2.1 2.4-3.2 1.8-46.6-25.9-95.7-33.9-128.6-36-35.7-2.4-60.6 1.4-60.8 1.5q-0.4 0-0.6 0z"/>
				</g>
				<g id="&lt;Group&gt;">
					<path id="&lt;Path&gt;" class="s3" d="m798.8 1059.5c-2.1-0.4-3.9-1.9-4.6-4-18.9-58.1-47.4-98.9-68-122.9-17.8-20.7-32.8-32.8-38.4-37-67.1 23.5-146.8 113-147.6 113.9-2.1 2.5-5.9 2.7-8.3 0.5-2.5-2.1-2.7-5.9-0.6-8.3 0.3-0.3 21.4-24.1 50.8-50.3 39.8-35.5 75-58.4 104.9-68.1 1.7-0.5 3.6-0.3 5.1 0.8 0.8 0.5 19.4 13.3 42.7 40.4 21.5 24.9 51.1 67.2 70.7 127.3 1 3.1-0.7 6.5-3.8 7.5-1 0.3-2 0.3-2.9 0.2z"/>
				</g>
				<g id="&lt;Group&gt;">
					<g id="&lt;Group&gt;">
						<path id="&lt;Compound Path&gt;" fill-rule="evenodd" class="s3" d="m693.9 1138l-93-16.9c-2.4-0.5-4-2.8-3.6-5.2l17-92.9c0.4-2.5 2.7-4.1 5.1-3.6l93 16.9c2.4 0.4 4 2.8 3.5 5.2l-16.9 92.9c-0.4 2.4-2.7 4-5.1 3.6zm-87-24.9l84.2 15.3 15.3-84.1-84.2-15.4z"/>
					</g>
					<g id="&lt;Group&gt;">
						<path id="&lt;Path&gt;" class="s3" d="m702.3 1091.5l-92.9-16.9c-2.4-0.4-4-2.7-3.6-5.2 0.4-2.4 2.8-4 5.2-3.6l92.9 17c2.4 0.4 4 2.7 3.6 5.1-0.4 2.5-2.8 4.1-5.2 3.6z"/>
					</g>
					<g id="&lt;Group&gt;">
						<path id="&lt;Path&gt;" class="s3" d="m649.6 1129.9c-2.5-0.4-4.1-2.7-3.6-5.2l16.9-92.9c0.4-2.4 2.7-4 5.2-3.6 2.4 0.5 4 2.8 3.5 5.2l-16.9 92.9c-0.4 2.5-2.7 4.1-5.1 3.6z"/>
					</g>
				</g>
				<g id="&lt;Group&gt;">
					<path id="&lt;Path&gt;" class="s3" d="m655.9 1180.7q-18.4-3.3-39.2-8.6c-36.3-9.2-64.8-19.6-65.1-19.7l-2.2-0.8-0.4-2.4c-5.3-32.6-0.8-69.1 3.9-93.9 4-20.6 8.6-36.5 10.6-43.2 0.6-1.8 2.5-2.8 4.3-2.2l2.1 0.7c1.4 0.4 2.2 1.8 1.8 3.2-2.9 12.9-15.9 74.3-8 127.9 16 5.7 105.7 34.1 165.6 27.2 5-8.8 28.1-44 34.3-111.5 0.3-3.3 3.1-5.7 6.3-5.4 1.3 0.1 2.3 1.2 2.2 2.5-3.4 41.6-12.9 74-20.3 94.1-8.2 22.2-15.6 34.2-15.9 34.7l-1 1.7-1.9 0.2c-20.2 2.7-46.1 1.2-77.1-4.5z"/>
				</g>
			</g>
			<g id="&lt;Group&gt;">
				<path id="&lt;Compound Path&gt;" fill-rule="evenodd" class="s13" d="m1349 1025.1c-2.5 2-6.2 1.7-8.2-0.8-9-10.8-19.4-28-31-50.9-23 3.1-54 2.2-78.9-17-16.1-12.4-22-26.6-22.2-27.2l-2.1-5.2 5.1-2.3q0.3-0.1 0.6-0.2c23.6-10.6 46.4-9.8 67.6 2.4 3.6 2 6.9 4.3 10 6.6q-4-9.4-8.8-21.4c-23.5-19.4-29.9-39.6-31-53.1-1.3-15.2 3.5-25.8 3.7-26.2l2.3-5.1 5.1 2.2c19 7.8 31.1 22 35.2 41 3 13.8 1.1 27.2-0.6 34.9 1.6 3.6 3.5 7.9 5.6 12.7 4.9-20.1 19.3-28.4 20.1-28.9l4.9-2.7 2.9 4.7c15 24.3 4.5 47.3-11.3 62 14.7 29.6 27.3 51.1 36.5 62.3 2.1 2.5 1.7 6.1-0.7 8.2zm-40.8-63.2q1.1-0.1 2.2-0.3l-0.4-0.7zm-85.9-32c2.8 4.5 7.9 11.4 16.2 17.6 16.9 12.8 39 17.8 65.7 14.9-11.3-16.3-39.7-47.8-81.9-32.5zm100.2-29.3c-5.7 5.6-13.7 17.7-10 39v0.1c7.4-7.7 17-21.9 10-39.1zm-59.9-60.3c-2.4 10.4-3.6 33.5 22.5 57 2.9-15.4 3.6-42.8-22.5-57z"/>
			</g>
			<g id="&lt;Group&gt;">
				<path id="&lt;Compound Path&gt;" fill-rule="evenodd" class="s13" d="m866.2 1501.9c-1.6 1.3-4 1.1-5.4-0.6-5.8-7-12.6-18.2-20.2-33.2-15 2-35.3 1.4-51.6-11.1-10.5-8.1-14.3-17.4-14.4-17.8l-1.4-3.3 3.3-1.5q0.2-0.1 0.4-0.2c15.5-6.9 30.3-6.4 44.2 1.5 2.3 1.4 4.5 2.9 6.5 4.4q-2.6-6.2-5.8-14c-15.3-12.7-19.5-25.8-20.2-34.7-0.9-9.9 2.3-16.8 2.4-17.1l1.5-3.3 3.4 1.4c12.3 5.1 20.3 14.4 23 26.8 1.9 9 0.7 17.8-0.4 22.8 1 2.4 2.2 5.2 3.6 8.3 3.2-13.1 12.6-18.6 13.2-18.9l3.1-1.8 1.9 3.1c9.8 15.9 3 30.9-7.3 40.5 9.6 19.4 17.8 33.4 23.8 40.7 1.4 1.6 1.1 4-0.5 5.3zm-26.6-41.2q0.7-0.1 1.4-0.2l-0.2-0.5zm-56.2-20.9c1.9 3 5.2 7.5 10.6 11.5 11.1 8.4 25.5 11.6 42.9 9.7-7.3-10.6-25.9-31.2-53.5-21.2zm65.5-19.1c-3.7 3.6-9 11.5-6.5 25.4v0.1c4.8-5 11.1-14.3 6.5-25.5zm-39.2-39.4c-1.5 6.8-2.3 21.9 14.8 37.2 1.9-10 2.3-27.9-14.8-37.2z"/>
			</g>
			<g id="&lt;Group&gt;">
				<path id="&lt;Compound Path&gt;" fill-rule="evenodd" class="s13" d="m1861.6 952.2c-2.5-2.1-2.8-5.7-0.8-8.2 9.3-11.2 21.9-32.7 36.5-62.3-15.8-14.7-26.2-37.7-11.3-62l3-4.7 4.8 2.7c0.8 0.5 15.3 8.8 20.1 28.8 2.2-4.7 4.1-9 5.7-12.6-1.8-7.7-3.7-21.1-0.7-34.9 4.1-19.1 16.3-33.2 35.2-41.1l5.2-2.1 2.3 5.1c0.2 0.4 5 10.9 3.7 26.2-1.2 13.5-7.5 33.7-31 53.1q-4.9 12-8.9 21.4c3.1-2.4 6.5-4.6 10-6.6 21.3-12.2 44-13 67.7-2.5q0.3 0.2 0.6 0.3l5 2.3-2 5.2c-0.3 0.6-6.1 14.7-22.2 27.1-24.9 19.3-55.9 20.2-78.9 17.1-11.6 22.9-22.1 40-31 50.9-2.1 2.4-5.7 2.8-8.2 0.8zm43.8-60.3l-0.4 0.8q1.1 0.1 2.2 0.3zm5.9 1.5c26.7 2.9 48.7-2 65.6-14.8 8.3-6.3 13.4-13.1 16.3-17.6-42.3-15.4-70.7 16.2-81.9 32.4zm-8.4-22.6v-0.2c3.7-21.3-4.3-33.4-10-39-7 17.2 2.6 31.4 10 39.2zm27.4-42.5c26.1-23.5 24.9-46.6 22.6-57-26.2 14.3-25.5 41.7-22.6 57z"/>
			</g>
			<g id="&lt;Group&gt;">
				<g id="&lt;Group&gt;">
					<path id="&lt;Path&gt;" class="s3" d="m1982.3 540.7c-9.8 6.2-19.2 8.2-24.8 8.9-20 2.3-40-6.4-49.8-21.6-19.4-30.4-10.5-70.9 19.9-90.3 30.4-19.5 71-10.6 90.4 19.8 9.4 14.8 12.5 32.3 8.8 49.3-0.6 2.6-3.1 4.2-5.6 3.6-2.5-0.6-4.1-3-3.6-5.6 3.3-14.6 0.6-29.6-7.5-42.2-16.6-26.1-51.4-33.7-77.4-17.1-26.1 16.7-33.7 51.4-17.1 77.5 7.9 12.3 24.3 19.2 40.9 17.3 20.4-2.4 36.9-17.2 45.2-40.6 0.8-2.5 3.5-3.8 5.9-2.9 2.5 0.9 3.8 3.5 2.9 6-7 19.7-17.8 31.2-28.2 37.9z"/>
				</g>
				<g id="&lt;Group&gt;">
					<path id="&lt;Path&gt;" class="s3" d="m1920.4 426.3c-2.2 1.4-5.1 0.8-6.5-1.4l-42.8-66.9c-1.3-2.2-0.7-5.1 1.5-6.5 2.1-1.4 5-0.7 6.4 1.4l42.8 67c1.4 2.2 0.8 5-1.4 6.4z"/>
				</g>
				<g id="&lt;Group&gt;">
					<path id="&lt;Path&gt;" class="s3" d="m1812.6 585.7c-1.4-2.1-0.8-5 1.4-6.4l66.9-42.8c2.2-1.4 5.1-0.8 6.5 1.4 1.4 2.2 0.8 5.1-1.4 6.5l-67 42.8c-2.1 1.3-5 0.7-6.4-1.5z"/>
				</g>
				<g id="&lt;Group&gt;">
					<path id="&lt;Path&gt;" class="s3" d="m2034.1 444.1c-1.4-2.1-0.8-5 1.4-6.4l66.9-42.8c2.2-1.4 5.1-0.8 6.5 1.4 1.4 2.2 0.7 5.1-1.4 6.5l-67 42.8c-2.2 1.4-5 0.7-6.4-1.5z"/>
				</g>
				<g id="&lt;Group&gt;">
					<path id="&lt;Path&gt;" class="s3" d="m1986.9 408.1c-2.5-0.6-4.1-3.1-3.5-5.6l18.1-77.4c0.6-2.5 3.1-4.1 5.6-3.5 2.6 0.6 4.1 3.1 3.5 5.6l-18.1 77.4c-0.6 2.5-3.1 4.1-5.6 3.5z"/>
				</g>
				<g id="&lt;Group&gt;">
					<path id="&lt;Path&gt;" class="s3" d="m1792.1 459.1c0.5-2.5 3-4.1 5.5-3.6l77.9 15.9c2.5 0.5 4.1 3 3.6 5.5-0.5 2.6-3 4.2-5.5 3.7l-77.8-15.9c-2.6-0.6-4.2-3-3.7-5.6z"/>
				</g>
				<g id="&lt;Group&gt;">
					<path id="&lt;Path&gt;" class="s3" d="m1924.4 665.4c-2.6-0.3-4.4-2.7-4-5.2l11-78.7c0.4-2.6 2.8-4.4 5.3-4 2.6 0.4 4.4 2.7 4 5.3l-11.1 78.7c-0.3 2.5-2.7 4.3-5.2 3.9z"/>
				</g>
				<g id="&lt;Group&gt;">
					<path id="&lt;Path&gt;" class="s3" d="m2138.9 523.9c-0.5 2.5-3.1 4.1-5.6 3.5l-77.4-18c-2.5-0.6-4-3.1-3.4-5.6 0.5-2.6 3-4.1 5.6-3.5l77.3 18c2.6 0.6 4.1 3.1 3.5 5.6z"/>
				</g>
				<g id="&lt;Group&gt;">
					<path id="&lt;Path&gt;" class="s3" d="m2046.8 624.1c-2.2 1.4-5 0.8-6.4-1.4l-42.8-67c-1.4-2.1-0.8-5 1.4-6.4 2.2-1.4 5.1-0.8 6.4 1.4l42.8 66.9c1.4 2.2 0.8 5.1-1.4 6.5z"/>
				</g>
			</g>
			<g id="&lt;Group&gt;">
				<path id="&lt;Path&gt;" class="s0" d="m527.5 1075.5c-3.1-1.3-10.8 11.6-12.5 12.2-1.8 0.6 0.6-6-1.5-7.5-2.1-1.5-7.1 14.2-7.1 14.2-3.5 1.8-52.9 32.1-52.9 32.1-20.6 1.1-72 15.8-72 15.8 0 0-19.5 21.8-3.5 31.2 16 9.4 67.9-16.8 83.8-24.3 16-7.4 53.4-44.6 53.4-44.6 18.6-8.4 15.4-27.9 12.3-29.1z"/>
				<path id="&lt;Path&gt;" class="s1" d="m329.2 1030.5c0 0-29.9 3.9-37.7 24.2-7.8 20.3-16.8 160.8 0 179.4 0 0 1.1-17.6 2.6-21.2 0 0 3.3 35.7 20.2 43 16.9 7.2 81.3-106.7 81.3-106.7 0 0 15.8-125.1-66.4-118.7z"/>
				<path id="&lt;Path&gt;" class="s14" d="m385.4 1463.6c-4.4 38.6-7.5 72.1-6.3 81.4l-17.8-2.2h-0.3q0 0-0.1-0.5 0 0 0 0 0-0.1-0.1-0.2c-1.3-5.2-9-36.3-14.5-65.4q-0.5-3-1.1-6c-3-17.2-5-32.9-4.1-41.3 2.8-24.8-22.4-126.9 0.8-135.9 23.2-9 62.5 23.5 62.5 23.5 0 0-11.4 80.7-19 146.6z"/>
				<path id="&lt;Path&gt;" class="s0" d="m398 1355.8c0 0-48.3 67-86.1 122.4q-0.5 0.7-1 1.4c-21.6 31.7-37.8 58-41 66.6l-18.4-2.8c0 0 12.4-49.6 23.4-83q0.2-0.8 0.5-1.6c4.9-14.5 9.8-27.1 14-33.3 14.1-20.7 39.7-122.7 64.4-119.8 24.7 2.9 44.2 50.1 44.2 50.1z"/>
				<path id="&lt;Path&gt;" class="s1" d="m381.6 1060c-0.3-0.5-12.4-19.7-35.1-23.5-18.4-3.1-35.7 9.8-38.5 28.3-2.8 18.5 0.1 42.5 30.3 51.2z"/>
				<g id="&lt;Group&gt;">
					<path id="&lt;Path&gt;" class="s0" d="m376 1142.5l-34.2 20.4-8.6-24.1c0 0 3.9-8.8 5.1-22.8 0.5-5.9 0.5-12.8-0.6-20.3l29.8 12.9c0 0-0.5 2.8-0.7 6.7-0.3 4.3-0.1 10 1.4 15.4 1.4 4.6 3.8 8.9 7.8 11.8z"/>
					<path id="&lt;Path&gt;" class="s5" d="m368.2 1130.7c-16.4 0.6-29.9-14.7-29.9-14.7l28.5-0.7c-0.3 4.3-0.1 10 1.4 15.4z"/>
					<path id="&lt;Path&gt;" class="s0" d="m375.6 1121.1c0 0-32.1 10.7-45-14.6-14-27.3-1.9-48.5 9.1-50.6 21.9-4.2 35.3 3.4 39.8 12.1 4.4 8.7 13.8 47.3-3.9 53.1z"/>
					<path id="&lt;Path&gt;" class="s6" d="m361.7 1107.3c0 0 1.6 3.2 10.1 0.8 0 0 7.1-2 6.1-5.8 0 0-7.6-1.2-16.2 5z"/>
				</g>
				<path id="&lt;Path&gt;" class="s8" d="m419.3 1172.1c0.5-3.2 0.7-6.4 0.7-9.3 0-3.9-0.3-7.5-1-10.7-2.5-13.3-8.8-20.7-8.8-20.7-19.1 3.2-27.6 2.1-36.4 6.4-0.7-0.1-1.7-0.2-2.5-0.3 0.4 5.1-1.1 9.9-9.9 11.6-11.7 2.4-22.4-5.4-28.1-10.6-9.3 2-15.1 3-22.4 6-8 3.4-12.8 11.7-11.6 20.3l2.2 16.3 12.4 50.7c0.9 6.5 4.5 20.2 3.5 26.7-1.5 9.9-5.7 25.3-10 42.8 0 0.2 0 0.2 0 0.2-4.2 17.5-8.5 37.2-10 55.5-2.2 25.7-3.7 45.8-3.2 46.2 9.3 8.9 77.9 27.2 116.5 14 3.9-1.3 2-70.4-1.5-137.5-2-36.8-4.4-73.1-6.7-97.3q0.1-0.1 0.1-0.1c9.2-4.5 16.7-10.2 16.7-10.2z"/>
				<path id="&lt;Path&gt;" class="s9" d="m336.2 1237.7c-1.2 20.7-15.2 44.9-28.8 63.6 4.3-17.5 8.5-32.9 10-42.8 1-6.5-2.6-20.2-3.5-26.7l-12.4-50.7c7.4-8.3 37 16 34.7 56.6z"/>
				<path id="&lt;Path&gt;" class="s1" d="m353.1 1058.9c0 0 3 30.1-25.5 40.8-11.4 4.2-17.3-41.8 6.4-51 23.8-9.2 47.2 1.7 50 17.8 2.8 16.1 0.7 19.4 0.7 19.4 0 0-11.1-30.5-31.6-27z"/>
				<path id="&lt;Path&gt;" class="s11" d="m379.1 1545l-17.9-2.2q-0.1-0.2-0.3-0.5 0 0 0 0 0-0.1-0.1-0.2c-1.3-5.2-9-36.3-14.5-65.4q-0.5-3-1.1-6c4.7 0.3 24.9 1 40.2-7.1-4.4 38.6-7.5 72.1-6.3 81.4z"/>
				<path id="&lt;Path&gt;" class="s1" d="m378.8 1541.4c0 0 4.3 7.9 12.5 9.7 5.2 1.2 9.6 3.9 12.3 7.7 2.3 3.2 0 7.6-3.9 7.6h-41.6c-3.5 0-6.2-3.3-5.9-6.8 0.4-3.1 0.7-6.7 0.9-9.4 0.3-6 6.9-11.4 6.9-11.4 0 0 5.6 3.3 7.8 3.6 4.8 0.9 11-1 11-1z"/>
				<path id="&lt;Path&gt;" class="s0" d="m333.9 1172.1c0 0-0.1-28.5-18.1-23.9-17.9 4.6-33.6 56.5-39.7 73-6.1 16.5-6.4 69.3-6.4 69.3 0 0-7.8 18.8-0.9 22 6.9 3.1 11.2-13.1 12.2-12.7 1 0.4 1.6 5.8 3.8 3 1.8-2.4-3.2-13.5-3.2-13.5 2.7-8.9 16.4-57.8 16.4-57.8 13.8-15.3 35.9-59.4 35.9-59.4z"/>
				<g id="&lt;Group&gt;">
					<g id="&lt;Group&gt;">
						<path id="&lt;Path&gt;" class="s8" d="m315.9 1063c-0.9-4-0.1-5.1 1.2-5.4 1.3-0.4 2.6 0.3 3.5 4.3 1 4.1-0.5 7.9-0.5 7.9 0 0-3.2-2.7-4.2-6.8z"/>
						<path id="&lt;Path&gt;" class="s8" d="m325.3 1063.3c3.3-2.5 4.7-2.1 5.5-1.1 0.8 1.1 0.7 2.5-2.6 5-3.3 2.5-7.5 2.6-7.5 2.6 0 0 1.3-3.9 4.6-6.5z"/>
						<path id="&lt;Path&gt;" class="s8" d="m312.6 1066.4c-4.1-0.7-5.2 0.2-5.4 1.5-0.2 1.3 0.5 2.6 4.6 3.3 4.1 0.7 7.8-1.1 7.8-1.1 0 0-2.9-3-7-3.7z"/>
						<path id="&lt;Path&gt;" class="s8" d="m314.2 1075.7c-2 3.7-1.5 5-0.3 5.6 1.1 0.7 2.5 0.4 4.5-3.3 2-3.6 1.5-7.7 1.5-7.7 0 0-3.7 1.8-5.7 5.4z"/>
						<path id="&lt;Path&gt;" class="s8" d="m327.9 1072.4c3.5 2.3 3.6 3.7 2.9 4.8-0.8 1.1-2.1 1.5-5.6-0.8-3.4-2.3-4.9-6.2-4.9-6.2 0 0 4.2-0.1 7.6 2.2z"/>
					</g>
					<path id="&lt;Path&gt;" class="s3" d="m318.2 1069.8c0-1 0.8-1.8 1.8-1.8 1 0 1.8 0.8 1.8 1.8 0 0.9-0.8 1.7-1.8 1.7-1 0-1.8-0.8-1.8-1.7z"/>
				</g>
				<path id="&lt;Path&gt;" class="s11" d="m311.9 1478.2q-0.5 0.7-1 1.4c-21.6 31.7-37.8 58-41 66.6l-18.4-2.8c0 0 12.4-49.6 23.4-83q0.2-0.8 0.5-1.6c7.3 6.7 20.9 17.3 36.5 19.4z"/>
				<path id="&lt;Path&gt;" class="s1" d="m272.1 1541.3c0 0 3.9 8 12.1 9.8 5.2 1.2 9.6 3.9 12.3 7.7 2.3 3.2 0 7.6-3.9 7.6h-41.6c-3.5 0-6.2-3.3-5.9-6.8 0.4-3.1 0.7-6.7 0.9-9.4 0.3-6 6.8-11.4 6.8-11.4 0 0 5.7 3.3 7.9 3.6 4.8 0.9 11.4-1.1 11.4-1.1z"/>
				<path id="&lt;Path&gt;" class="s9" d="m420 1162.8c0 2.9-0.2 6.1-0.7 9.3 0 0-7.5 5.7-16.7 10.2-1-11 12.4-26 16.4-30.2 0.7 3.2 1 6.8 1 10.7z"/>
				<path id="&lt;Path&gt;" class="s8" d="m326 1195.9c0 0-23-0.2-40.2-19.9 0 0 18-41.2 36.8-31.1 18.7 10.1 16.4 40.7 3.4 51z"/>
			</g>
			<path id="&lt;Path&gt;" class="s3" d="m509 1128.4c-2.9-0.6-4.8-3.6-4.1-6.5l14-64c0.6-3 3.5-4.8 6.5-4.2 3 0.6 4.8 3.6 4.2 6.6l-14 63.9c-0.6 3-3.6 4.8-6.6 4.2z"/>
			<g id="&lt;Group&gt;">
				<path id="&lt;Path&gt;" class="s3" d="m821 1073.6c-2.9-0.6-4.8-3.5-4.2-6.5l14-64c0.7-2.9 3.6-4.8 6.6-4.2 2.9 0.7 4.8 3.6 4.2 6.6l-14 63.9c-0.7 3-3.6 4.9-6.6 4.2z"/>
				<g id="&lt;Group&gt;">
					<path id="&lt;Path&gt;" class="s0" d="m1026.2 1130c0 0 44.9 88.3 49.7 101.9 4.7 13.7 14.5 51.1 14.5 51.1l-13.3 1.8c0 0-18.6-39.5-20-44-1.4-4.4-28.3-31.8-32.9-45.2-4.7-13.4 2-65.6 2-65.6z"/>
					<path id="&lt;Path&gt;" class="s1" d="m1052.5 1542.2c0 0-3.7 7.2-11.9 9-5.2 1.1-9.6 3.8-12.3 7.6-2.4 3.1-0.1 7.6 3.8 7.6h41.6c3.5 0 6.3-3 5.9-6.6-0.3-3-0.6-6.6-0.8-9.4-0.3-6-6.3-10.8-6.3-10.8z"/>
					<path id="&lt;Path&gt;" class="s8" d="m1076.6 1541.5c-18.3 10.2-29.5 4.4-29.5 4.4-0.8-9.5-12.9-58.2-26-109-16-62.2-33.5-127.4-33.5-127.4 0 0 37.1-33 64.1-15 12.5 8.3 16.5 29.8 18.2 53.1 2 27.2 1 56.8 6.7 71 10.6 26.4 0 122.9 0 122.9z"/>
					<path id="&lt;Path&gt;" class="s9" d="m1069.9 1347.6l-48.8 89.3c-16-62.2-33.5-127.4-33.5-127.4 0 0 37.1-33 64.1-15 12.5 8.3 16.5 29.8 18.2 53.1z"/>
					<path id="&lt;Path&gt;" class="s0" d="m961.2 1140.6l31 14.2 6.9-24c0 0-4.4-8.4-6.4-22-0.8-5.7-1.2-12.4-0.7-19.8l-28.3 14.5c0 0 0.7 2.6 1.1 6.4 0.5 4.2 0.7 9.8-0.5 15.2-1 4.5-2.1 9.5-3.1 15.5z"/>
					<path id="&lt;Path&gt;" class="s5" d="m964.3 1125.1c16.1-0.5 28.4-16.3 28.4-16.3l-27.9 1.1c0.5 4.2 0.7 9.8-0.5 15.2z"/>
					<path id="&lt;Path&gt;" class="s0" d="m956.5 1116.1c0 0 32.1 8.5 43.2-17 11.9-27.6-1.2-47.6-12.1-49-21.7-2.7-34.3 5.6-38.1 14.4-3.8 8.7-10.6 47.1 7 51.6z"/>
					<path id="&lt;Path&gt;" class="s2" d="m951.8 1060.5c-8.5 0.7-18.7-8-9-21.3 8.8-12.2 43.5-19.6 61.6-5.5 42.2 32.8 11.7 66.8-7.4 76.5-2.5 1.3-5.4 0.5-7-1.7-3.3-4.5-8.1-12-6.8-15 1.9-4.5 2.2-15.6-3.9-13.2-6 2.4-19-20.4-27.5-19.8z"/>
					<path id="&lt;Path&gt;" class="s1" d="m954.1 1542.2c0 0-3.7 7.2-11.9 9-5.2 1.1-9.6 3.8-12.3 7.6-2.3 3.1-0.1 7.6 3.8 7.6h41.6c3.5 0 6.3-3 5.9-6.6-0.3-3-0.6-6.6-0.7-9.4-0.4-6-6.4-10.8-6.4-10.8z"/>
					<path id="&lt;Path&gt;" class="s8" d="m953.1 1544c0 0 9.9 5.9 26.8 2.3 0 0 28.7-73.3 30.4-107.8q0.1-2 0-3.9c-0.5-32.5 29.4-116.9 21.3-134.3-8-17.3-73.3 7.8-73.3 7.8l-1.3 58.9z"/>
					<path id="&lt;Path&gt;" class="s15" d="m973.5 1320.4c-9.3-0.4-16.2-1.4-18.8-3.2-10.3-7.4-10.3-80.2-15.6-121.4-0.6-4.5-1.2-8.6-1.9-12.2-7.4-36.9 2.9-53.6 19.3-52.8 0 0 43.6-10.8 61.2 1.3 15.4 10.5 33.7 98.7 48.6 174.9 1.5 7.7-60.1 14.5-92.8 13.4z"/>
					<g id="&lt;Group&gt;">
						<path id="&lt;Path&gt;" class="s0" d="m959.9 1152c0 0-70.1-32-75.6-37.7-5.4-5.7-39.7-61-39.7-61l-12.6 5.6c0 0 24.9 71.5 34.8 83.8 9.9 12.4 93.2 52.1 93.2 52.1z"/>
						<path id="&lt;Path&gt;" class="s0" d="m844.6 1053.3c0 0-2-5.6-1.7-11 0.4-5.3-4.6-17.4-6.7-15.9-2.1 1.4 0.3 5.5-2.5 5.8-2.8 0.3-11.4-12.8-14.4-10.5-3 2.4-4 8 0.3 18.2 4.3 10.1 12.4 19 12.4 19z"/>
					</g>
					<path id="&lt;Path&gt;" class="s0" d="m1076.9 1282c0 0 0.6 5.2-0.7 9.6-1.4 4.5 0.4 15.8 2.5 15 2.1-0.8 0.8-4.8 3.2-4.5 2.5 0.3 7.2 13.2 10.2 11.8 3.1-1.4 5-6 3.4-15.5-1.6-9.5-6.7-18.7-6.7-18.7z"/>
					<path id="&lt;Path&gt;" class="s15" d="m962.9 1131.7c0 0-17.2-2.4-24.1-3.1-6.4-0.6-24.6 1.9-24.6 1.9 0 0-0.2 42.9 23.9 62.7l29.8 5.1z"/>
					<path id="&lt;Path&gt;" class="s15" d="m997.3 1126.5c0 0 25.2 0.6 29.9 2 11.2 3.3 20.3 27.4 20.3 27.4 0 0-6.8 20.8-19.1 21.4-12.3 0.7-31.1-50.8-31.1-50.8z"/>
					<path id="&lt;Path&gt;" class="s11" d="m973.5 1320.4c-9.3-0.4-16.2-1.4-18.8-3.2-10.3-7.4-10.3-80.2-15.6-121.4 6.2 15.9 39 102.2 34.4 124.6z"/>
				</g>
			</g>
			<g id="&lt;Group&gt;">
				<path id="&lt;Path&gt;" class="s1" d="m1434.4 1160c-15.1 6.1-18.9-4.4-23.4-7.3-8.7-5.7-9-11.8-6.3-18.1 4.3-10.3-9.4-14.8-5.6-28.7 3.8-13.9 8.2-11.5 9.8-23 1.3-9.3 13.8-13.4 20.5-13.7 8.7-0.4 18.4-8.4 28.5-6.2 10.2 2.2 12.1 6 16.7 6.8 4.7 0.8 14.3-0.5 28.6 13.9 14.1 14 8.6 19.5 10.2 26.6 1.7 7.1 2.6 23.8-3.7 27.3-6.2 3.5-9.5 16.6-16.1 16.9-12.2 0.6-13.7 8.1-21.2 9.4-5.9 1.1-8.5-2.3-17.8 2.4-5 2.6-13.5-9-20.2-6.3z"/>
				<path id="&lt;Path&gt;" class="s16" d="m1396.2 1336c0 0 26.4 187.5 23.3 210.6l16.7-2c0 0 20.9-81.8 18.4-104.7-2.5-22.9 20.7-117.3-0.7-125.6-21.4-8.3-57.7 21.7-57.7 21.7z"/>
				<path id="&lt;Path&gt;" class="s17" d="m1420.2 1336.3c0 0 37.7 187.6 36.1 210.9l16.5-3.8c0 0 16-84.4 12.1-107.1-3.9-22.7 13.4-118.3-8.4-125.3-21.9-6.9-56.3 25.3-56.3 25.3z"/>
				<path id="&lt;Path&gt;" class="s1" d="m1419.7 1543.3c0 0-3.9 7.3-11.5 9-4.7 1.1-8.8 3.6-11.3 7.1-2.1 2.9 0 7 3.6 7l38.4-0.2c3.2 0 5.8-2.9 5.4-6.1-0.3-2.8-0.6-6.2-0.7-8.7-0.4-5.5-6.4-10.5-6.4-10.5 0 0-5.2 3-7.3 3.4-4.4 0.7-10.2-1-10.2-1z"/>
				<path id="&lt;Path&gt;" class="s2" d="m1455.8 1543.3c0 0-3.9 7.3-11.5 9-4.8 1.1-8.8 3.6-11.3 7.1-2.2 2.9-0.1 7 3.6 7l38.3-0.2c3.3 0 5.9-2.9 5.5-6.1-0.3-2.8-0.6-6.2-0.8-8.7-0.3-5.5-6.3-10.5-6.3-10.5 0 0-5.2 3-7.3 3.4-4.4 0.7-10.2-1-10.2-1z"/>
				<path id="&lt;Path&gt;" class="s17" d="m1412.4 1173.6c0 0-25.1 42.3-30.1 76.8 0 0 12.2 16.4 17.1 4.9 5-11.6 40.6-73.4 13-81.7z"/>
				<path id="&lt;Path&gt;" class="s1" d="m1417.2 1098.6c0.3-0.5 11.5-18.2 32.5-21.7 17-2.9 32.9 9.1 35.5 26.1 2.6 17.1-0.1 39.3-28 47.3z"/>
				<path id="&lt;Path&gt;" class="s17" d="m1422.3 1174.9l31.6 18.7 8-22.2c0 0-3.6-8.1-4.7-21.1-0.4-5.4-0.4-11.8 0.5-18.7l-27.5 11.9c0 0 0.5 2.5 0.7 6.2 0.2 4 0.1 9.3-1.4 14.2-1.2 4.3-3.4 8.3-7.2 11z"/>
				<path id="&lt;Path&gt;" class="s3" d="m1495 1373c-3-33.8-7.4-78.2-10.2-96.4-0.9-6-0.9-12.2-0.1-18.2l6.5-47.9 2-15.1c1.1-7.9-3.3-15.6-10.7-18.7-6.8-2.9-11.7-3.5-20.2-5.3-5.3 4.8-15.6 11.6-26.5 9.5-8.1-1.6-9.7-6-9.3-10.7q-3.1 0.3-5.8 0.7c-6.8 0.9-12.7 4.7-16.5 10.2q0-0.1 0-0.1l-0.1 0.3q-0.9 1.3-1.6 2.7l-12 20.5c0 0 1.2 7.2 7.1 10.5-5.9 65-12.8 211.7-7.3 213.6 35.7 12.2 99.1-4.8 107.7-12.9 0.4-0.5-1-19-3-42.7z"/>
				<path id="&lt;Path&gt;" class="s16" d="m1429.5 1163.9c15.2 0.6 27.7-13.6 27.7-13.6l-26.3-0.6c0.2 4 0.1 9.3-1.4 14.2z"/>
				<path id="&lt;Path&gt;" class="s17" d="m1422.7 1155c0 0 29.7 9.9 41.6-13.4 12.9-25.2 1.8-44.9-8.4-46.8-20.2-3.8-32.6 3.2-36.7 11.2-4.1 8-12.9 43.7 3.5 49z"/>
				<path id="&lt;Path&gt;" class="s6" d="m1435.6 1142.3c0 0-1.5 3-9.4 0.7 0 0-6.5-1.8-5.6-5.3 0 0 7.1-1.1 15 4.6z"/>
				<path id="&lt;Path&gt;" class="s4" d="m1495 1373c-1-1.1-61-71.2-63.2-108.5-2.2-37.6 30.1-65 30.1-65 12.9-0.9 22.4 3.3 29.3 11l-6.5 47.9c-0.8 6-0.8 12.2 0.1 18.2 2.8 18.2 7.2 62.6 10.2 96.4z"/>
				<path id="&lt;Path&gt;" class="s1" d="m1443.5 1097.6c0 0-2.8 27.8 23.6 37.7 10.5 3.9 16-38.6-6-47.1-21.9-8.5-43.5 1.6-46.1 16.4-2.6 14.9-0.6 18-0.6 18 0 0 10.2-28.3 29.1-25z"/>
				<path id="&lt;Path&gt;" class="s17" d="m1459.6 1188.6c0 0-12.2 48-12.6 67 0 0-26.6 46.4-28.2 49.7-1.5 3.3 9.6 7.9 9.6 7.9 0 0 33.4-35.6 39.8-50.6 6.4-14.9 29.2-63.5 20.1-78-9.1-14.5-28.7 4-28.7 4z"/>
				<path id="&lt;Path&gt;" class="s17" d="m1382.3 1250.4c0 0-2.4 32.6 20.8 58.3 0 0 6.4-7.6 5.6-10-0.8-2.3-9.9-38.7-16.6-43.9-6.6-5.2-9.8-4.4-9.8-4.4z"/>
				<path id="&lt;Path&gt;" class="s17" d="m1418.8 1305.3c0 0-14.8-0.1-15.7 3.4-0.8 3.5 3.9 14.5 14.7 10.7 10.9-3.9 10.6-6.2 10.6-6.2z"/>
				<path id="&lt;Path&gt;" class="s17" d="m1408.7 1298.7c0 0 11.9 5.5 7.9 11.4-4.1 5.9-12.2 2.4-13.5-1.4-1.2-3.7 5.6-10 5.6-10z"/>
				<path id="&lt;Path&gt;" class="s3" d="m1450.8 1213.9c0 0 15.6 14.5 39.6 12.3 0 0 11.9-42-7.1-47.2-19-5.1-34.7 19.8-32.5 34.9z"/>
			</g>
			<g id="&lt;Group&gt;">
				<path id="&lt;Compound Path&gt;" fill-rule="evenodd" class="s18" d="m831.4 919.1c-2.4 0-4.1-2.5-3.1-4.8 0.2-0.5 3.7-16.7 13.7-28.4 12.6-14.6 28.8-17.7 43.4-16.8 1.1 0.1 2.1-0.4 2.8-1.2 7.7-9.3 31.6-41.1 64.1-45.4 16.7-2.3 34.2 5.9 48.9 16.8 0.6 0.4 1.3 0.7 1.9 0.7 10.2 0.4 52.8-4.2 74.8 20.8 10.9 12.5 14.3 36 11.9 54.9-0.2 1.7-1.7 3-3.4 3zm51.6-43.3c-20.6 0-35.6 19.1-43.1 31.3-1.4 2.3 0.3 5.2 2.9 5.2l237.5-0.4c1.8 0 3.3-1.4 3.4-3.2 0.6-14.2-3.3-26.2-11.7-35.7-22.6-25.8-70.6-26.3-71-26.3-0.8 0-1.5-0.3-2.1-0.7-13.8-10.8-28.6-15.2-44-13.1-35.4 4.7-63.3 41.6-63.5 42-0.8 1-2 1.5-3.3 1.3q-2.6-0.4-5.1-0.4z"/>
			</g>
			<g id="&lt;Group&gt;">
				<path id="&lt;Compound Path&gt;" fill-rule="evenodd" class="s18" d="m2075 755.8c-2.5 0-4.2-2.6-3.2-4.9 0.2-0.5 3.6-18.2 14-30.3 13-15.1 29.9-17.4 45-16.4 1.1 0 2.2-0.4 2.9-1.3 8-9.6 31.4-41.7 64.9-46.3 17.3-2.3 36.7 5.4 52 16.7 0.6 0.5 1.3 0.7 2 0.7 10.5 0.4 57.6-4.1 80.4 21.8 11.2 12.8 11.7 37 9.2 56.5-0.3 1.8-1.7 3.1-3.5 3.1zm53.3-44.7c-21.2 0-36.8 19.7-44.5 32.3-1.5 2.4 0.2 5.4 3 5.4l245.5-0.4c1.9 0 3.4-1.5 3.5-3.3 0.6-14.7-3.4-27.1-12.1-37-23.3-26.7-72.9-27.1-73.4-27.1-0.8 0-1.6-0.3-2.2-0.8-14.2-11.1-29.5-15.7-45.5-13.5-36.5 4.9-65.4 43-65.6 43.4-0.8 1-2.1 1.6-3.4 1.4q-2.7-0.4-5.3-0.4z"/>
			</g>
			<g id="&lt;Group&gt;">
				<path id="&lt;Compound Path&gt;" class="s18" d="m1628.4 427.9c-34.9-39.8-107.4-32.9-123.5-33.4-1.2 0-2.2-0.5-3-1.1-23.5-17.4-53.4-29.2-79.9-25.6q-9.5 10.5-18.2 21.8c7.7-3 15.9-5.3 24.3-6.4 4-0.5 7.8-0.8 11.6-0.8 20.4 0 40 7.2 58.3 21.6 1 0.8 2.1 1.1 3.3 1.1 0.8 0 76.9 0.8 112.8 41.7 13.4 15.2 19.5 34.3 18.6 56.8-0.1 2.9-2.5 5.1-5.3 5.1l-306.8 0.5q-4.2 5.4-8.4 10.8l325-0.6c2.7 0 5-2 5.4-4.6 3.8-30.1 3.1-67.2-14.2-86.9z"/>
			</g>
			<g id="&lt;Group&gt;">
				<path id="&lt;Path&gt;" class="s4" d="m1548.9 1386.4c-0.7-0.9-0.6-2.2 0.3-2.9l24-20c0.9-0.7 2.2-0.6 2.9 0.3 0.8 0.9 0.7 2.2-0.2 2.9l-24.1 20c-0.9 0.7-2.2 0.6-2.9-0.3z"/>
				<path id="&lt;Path&gt;" class="s0" d="m1777 1254.2c0 0 62.4 59.1 56.6 81.3-5.8 22.3-28.1 29-28.1 29z"/>
				<path id="&lt;Path&gt;" class="s3" d="m1801.7 1306.3c-1.1 0.4-2.2 0.9-3.5 1.1-13 2-21.2-53.1-21.2-53.1 0 0 27.6 18.7 32.8 26.2 0 0 1.3 20.2-8.1 25.8z"/>
				<path id="&lt;Path&gt;" class="s4" d="m1801.7 1306.3l-17.2-27.2c10.8-2.5 25.3 1.4 25.3 1.4 0 0 1.3 20.2-8.1 25.8z"/>
				<path id="&lt;Path&gt;" class="s19" d="m1756.6 1413.8c0 0-37.8 52.1-44.2 111.4-1.7 15.5 27.1 41.2 42.8 41.2h102.1l-11.4-19.7c0 0-57.1-27.3-68-26.9 0 0 59.8-50.4 49.5-90.1-5-19.5-70.8-15.9-70.8-15.9z"/>
				<path id="&lt;Path&gt;" class="s20" d="m1847.9 1566.4l61.4-0.2c0 0-4.2-15.1-20.3-12.9-16.1 2.2-21.2-8.7-31.3-9.8-10.2-1.1-11.8 3.2-11.8 3.2z"/>
				<path id="&lt;Path&gt;" class="s21" d="m1816.1 1566.4l61.5-0.2c0 0-4.2-15.1-20.3-12.9-16.1 2.2-21.2-8.7-31.4-9.8-10.1-1.1-11.8 3.2-11.8 3.2z"/>
				<path id="&lt;Path&gt;" class="s0" d="m1711.8 1269.8c0 0-56.7 67.2-72.8 68.9-16 1.7-55.6 22.7-55.6 22.7l3.5 12.5c0 0 48.1-4.3 60.2-7.2 12-2.9 79-38.6 79.9-53.2 0.9-14.7 18.4-39.2-15.2-43.7z"/>
				<path id="&lt;Path&gt;" class="s3" d="m1726.2 1267c0 0-14.6-0.5-27 10.6-12.5 11.1-32.4 31.8-32.4 31.8 0 0 9.6 35.9 49.7 36.3 40 0.4 35.7-72.6 9.7-78.7z"/>
				<g id="&lt;Group&gt;">
					<path id="&lt;Path&gt;" class="s1" d="m1738.8 1170.3c0 0-0.5-7.7-4.9-11.6 0 0 2.6 6.8 1.1 10.8-1.4 4.1 3.8 0.8 3.8 0.8z"/>
					<path id="&lt;Path&gt;" class="s1" d="m1735.8 1166c0 0 5.9-3.2 10.8 0.4 0 0-5.6-1.2-8.7 3.7z"/>
				</g>
				<path id="&lt;Path&gt;" class="s0" d="m1721 1278.9l35.9 1.6-2.7-26.2c0 0-7.6-6.4-15-19-3.1-5.2-6.1-11.6-8.5-19l-21.9 25.3c0 0 1.7 2.3 3.6 5.9 2.2 3.9 4.6 9.3 5.6 14.9 0.8 4.9 1.6 10.2 3 16.5z"/>
				<path id="&lt;Path&gt;" class="s5" d="m1718 1262.4c15.5-6.7 21.2-27.1 21.2-27.1l-26.8 12.2c2.2 3.9 4.6 9.3 5.6 14.9z"/>
				<path id="&lt;Path&gt;" class="s0" d="m1706.8 1256.8c0 0 34.7-4.4 35.4-33.7 0.7-31.6-20-46-31.2-43-22.2 5.9-31.3 19-31.5 29.1-0.3 10 8.2 50.2 27.3 47.6z"/>
				<path id="&lt;Path&gt;" class="s1" d="m1680.2 1204.4c-8 4-17.9 0-13.7-16.9 3.8-15.4 36.3-31.2 56-26.2 54.6 13.7 36.3 56.7 21.4 73.7-1.8 2.2-5 2.7-7.5 1.1-4.9-3.1-12.6-8.5-12.5-12 0.1-5.1-4.1-16-9-11.3-5 4.7-26.7-12.4-34.7-8.4z"/>
				<path id="&lt;Path&gt;" class="s2" d="m1729.1 1413.8c0 0-55.7 64.4-62.1 123.7-1.7 15.6 11.2 28.9 26.8 28.9h128.9c0 0 0.9-6.4-1.3-11.5-1-2.4-7.3-8.2-7.3-8.2 0 0-82.9-26.5-93.7-26 0 0 104.3-52.2 91.9-87.3-6.7-18.9-83.2-19.6-83.2-19.6z"/>
				<path id="&lt;Path&gt;" class="s3" d="m1831.2 1440.7c0 0-31.8 11.9-73.9 2.1-14.7-3.3-30.7-9.4-47.1-19.5 0 0-27.3-124.1-4.3-150.6 0 0 51-29.6 71.1-18.4 0 0 16 22.3 30.6 63.8 10.9 30.8 21.1 72.1 23.6 122.6z"/>
				<path id="&lt;Path&gt;" class="s0" d="m1589.3 1361.4c0 0-17-6.2-23.5-1.4-6.5 4.7-14.1 18.7-11.6 18.7 4 0 12-9 15.6-7.9 3.6 1.1-10.4 6.2-8.2 7.4 2.2 1.3 5.8-1.4 9.5-1.1 3.6 0.4 7.2 0.8 10.9-1.4 3.8-2.1 14.7-2.7 14.7-2.7z"/>
				<path id="&lt;Path&gt;" class="s4" d="m1831.2 1440.7c0 0-31.8 11.9-73.9 2.1 54.4-21.6 50.3-124.7 50.3-124.7 10.9 30.8 21.1 72.1 23.6 122.6z"/>
			</g>
			<g id="&lt;Group&gt;">
				<path id="&lt;Path&gt;" class="s13" d="m797.2 1410.1c0.6-0.8 0.5-1.9-0.3-2.6l-20.9-17.3c-0.7-0.6-1.9-0.5-2.5 0.3-0.6 0.7-0.5 1.9 0.2 2.5l20.9 17.3c0.8 0.6 1.9 0.5 2.6-0.2z"/>
				<path id="&lt;Path&gt;" class="s0" d="m599.1 1295.3c0 0-54.2 51.3-49.2 70.6 5.1 19.3 24.5 25.2 24.5 25.2z"/>
				<path id="&lt;Path&gt;" class="s15" d="m577.6 1340.5c0.9 0.4 1.9 0.8 3.1 1 11.2 1.7 18.4-46.2 18.4-46.2 0 0-24 16.3-28.5 22.8 0 0-1.1 17.6 7 22.4z"/>
				<path id="&lt;Path&gt;" class="s5" d="m655.2 1530.5c1.4 13.6-23.6 35.9-37.2 35.9h-88.7l3.7-6.4 6.3-10.7c0 0 32.5-15.5 49.9-21.2 4-1.4 7.3-2.2 9-2.1 0 0-51.9-43.9-42.9-78.4 4.4-16.8 61.5-13.8 61.5-13.8 0 0 32.8 45.3 38.4 96.7z"/>
				<path id="&lt;Path&gt;" class="s9" d="m533 1560l6.3-10.7c0 0 32.5-15.5 49.9-21.2 3.3 4.6 10.4 11.9 21.2 13 13.8 1.3-57 15.1-77.4 18.9z"/>
				<path id="&lt;Path&gt;" class="s11" d="m537.5 1566.4l-53.3-0.1c0 0 3.6-13.2 17.6-11.3 14 1.9 18.4-7.6 27.2-8.5 8.8-0.9 10.3 2.8 10.3 2.8z"/>
				<path id="&lt;Path&gt;" class="s15" d="m565.1 1566.4l-53.4-0.1c0 0 3.6-13.2 17.6-11.3 14 1.9 18.4-7.6 27.3-8.5 8.8-0.9 10.2 2.8 10.2 2.8z"/>
				<path id="&lt;Path&gt;" class="s0" d="m655.7 1308.8c0 0 49.3 58.4 63.2 59.8 13.9 1.5 48.3 19.8 48.3 19.8l-3.1 10.9c0 0-41.7-3.8-52.2-6.3-10.5-2.6-68.6-33.5-69.4-46.3-0.8-12.7-16-34 13.2-37.9z"/>
				<path id="&lt;Path&gt;" class="s15" d="m643.2 1306.4c0 0 12.6-0.4 23.5 9.2 10.8 9.6 28.1 27.6 28.1 27.6 0 0-8.4 31.2-43.2 31.5-34.8 0.4-31-63-8.4-68.3z"/>
				<path id="&lt;Path&gt;" class="s0" d="m647.7 1316.7l-31.2 1.4 2.4-22.8c0 0 6.6-5.5 13-16.4 2.7-4.6 5.3-10.1 7.4-16.6l19 22c0 0-1.5 2-3.2 5.1-1.8 3.4-3.9 8.1-4.8 13-0.7 4.3-1.4 8.8-2.6 14.3z"/>
				<path id="&lt;Path&gt;" class="s5" d="m650.3 1302.4c-13.4-5.9-18.4-23.5-18.4-23.5l23.2 10.5c-1.8 3.4-3.9 8.1-4.8 13z"/>
				<path id="&lt;Path&gt;" class="s0" d="m660 1297.5c0 0-30.1-3.8-30.7-29.3-0.7-27.4 17.3-39.9 27-37.3 19.4 5.2 27.3 16.5 27.5 25.3 0.2 8.7-7.2 43.6-23.8 41.3z"/>
				<path id="&lt;Path&gt;" class="s0" d="m694.6 1541.3c1.5 13.5-9.7 25.1-23.3 25.1h-112c0 0-0.7-5.6 1.2-10 0.8-2.1 6.3-7.1 6.3-7.1 0 0 45.1-14.4 68.6-20.2 6.1-1.6 10.9-2.5 12.9-2.4 0 0-90.7-45.3-79.9-75.7 5.9-16.5 72.3-17.2 72.3-17.2 0 0 48.3 56 53.9 107.5z"/>
				<path id="&lt;Path&gt;" class="s15" d="m671.7 1478.5c-15.1 15.5-46.6 31.4-59.5 34.3-6.1 1.4-11.9 2.3-17.3 2.9-28 3-48.3-2.9-48.3-2.9-4.8-41.3 3.6-86 12.6-119.5v-0.1c4.9-18.1 10-33.1 13.3-42.4 12.7-36.1 26.6-55.5 26.6-55.5 17.5-9.6 61.7 16 61.7 16 20 23 10.9 167.2 10.9 167.2z"/>
				<path id="&lt;Path&gt;" class="s0" d="m762.1 1388.4c0 0 14.7-5.4 20.4-1.3 5.7 4.1 12.3 16.3 10.1 16.3-3.5 0-10.4-7.8-13.6-6.8-3.1 0.9 9 5.3 7.1 6.4-1.9 1.1-5-1.3-8.2-1-3.2 0.4-6.3 0.7-9.5-1.2-3.2-1.8-12.7-2.3-12.7-2.3z"/>
				<path id="&lt;Path&gt;" class="s9" d="m683.8 1249.7c0 0-18.3 23-34 18 0 0-4.5-7.6-8.2-4.5-3.6 3.1 0 7 0 8.3 0 1.3-9 10.5-10.7 9.1-1.8-1.5-33.2-9-20.5-34.8 12.7-25.9 34.5-33.2 44.7-29.3 10.3 3.9 33.3 26.1 28.7 33.2z"/>
				<path id="&lt;Path&gt;" class="s8" d="m655.5 1566.4h-96.2c0 0-0.7-5.6 1.2-10 0.8-2.1 6.3-7.1 6.3-7.1 0 0 45.1-14.4 68.6-20.2 0 7.5 1.7 25 20.1 37.3z"/>
				<path id="&lt;Path&gt;" class="s9" d="m631.9 1226.2c0 0-3.7-39.6-18.3-38-14.5 1.7-19.4-13.5-28.8-12.7-9.4 0.8-13.7 10-23.4 8.1-9.7-1.9-19.3 6.9-16.2 17.2 3.1 10.4-6.2 14.2-0.6 22.9 5.7 8.8 4.4 14.5 5 24.4 0.7 10 9.4 22 18.1 16 8.7-6 16.9 3.9 26.1-1.8 9.2-5.7 8.1-18.7 16.6-16.5 8.6 2.1 21.5-19.6 21.5-19.6z"/>
				<path id="&lt;Path&gt;" class="s11" d="m631.3 1221.4c0 0-1.3 18.8-20.9 24.4 0 0 13.8 2.4 19.6-5.6 5.8-8 1.3-18.8 1.3-18.8z"/>
				<path id="&lt;Path&gt;" class="s11" d="m594.9 1515.7c-28 3-48.3-2.9-48.3-2.9-4.8-41.3 3.6-86 12.6-119.5-0.2 4.8 4.4 111.2 35.7 122.4z"/>
			</g>
			<g id="&lt;Group&gt;">
				<path id="&lt;Compound Path&gt;" class="s13" d="m532.7 652.3q-6.1 1.1-12.1 2.5c1.2 17.4-0.3 50.8-5.4 63.4-12.9 32.2-27.5 48.2-74.3 79.1l-5 2.4 2.2 5.1c0.4 1 37 85.9-25.2 133.3-62.6 47.6-157.3-3.2-158.2-3.8l-5.1-3.2-3 5.2c-0.5 0.7-42.9 71.8-102.1 84.9-5.7 1.3-11.4 1.9-17.1 2q-2.3 5.9-4.3 11.7c14.9 0.8 40.5-3.5 46.7-6 61.7-24.8 72.5-64.5 83.6-81.8 22 12.7 108.9 57.5 170.1 10.9 60.5-46 35.1-130.8 27.3-152.6 39.3-19.9 69.1-34 81.1-67.8 9.6-27.1 5.3-63.4 0.8-85.3z"/>
			</g>
			<g id="&lt;Group&gt;">
				<path id="&lt;Compound Path&gt;" class="s13" d="m2543.3 1348.7c-14.3-9.7-29.2-21.6-34.8-29.5-20.4-28.4-27-49.9-28.6-101.8-4.1-6.4-8.1-12.9-12.1-19.4-22.3-5.3-93.6-28.1-99.6-98.9-3.1-37.2 15-68.7 36.1-92.4 0-8.3 0.4-16.9 1.1-25.7-32 25.4-65.6 64.9-61.3 116.1 6.7 81.1 98.3 107.8 122.6 113.4-4.8 47-9.1 82 14.6 112.4 16 20.6 43.8 36.1 65.5 45.8-0.8-6.9-2-13.5-3.5-20z"/>
			</g>
			<g id="&lt;Group&gt;">
				<g id="&lt;Group&gt;">
					<path id="&lt;Compound Path&gt;" fill-rule="evenodd" class="s13" d="m2390 1571.4l-7.1 0.2c-0.1-0.5-4.9-51-28-81.1-15.4-20.1-13-35.2-6.2-42 6.7-6.7 17.4-6.5 26.7 0.6 19.4 14.9 15.2 111.4 14.6 122.3zm-31.3-120.4c-1.9 0.3-3.6 1.2-4.9 2.6-5.2 5.1-5 17.1 6.8 32.6 11.5 15 18.6 34.2 23 50.6-0.2-35.9-3.3-75-12.5-82-4.2-3.2-8.7-4.5-12.4-3.8z"/>
				</g>
				<g id="&lt;Group&gt;">
					<path id="&lt;Compound Path&gt;" fill-rule="evenodd" class="s13" d="m2395.3 1488.3c6-4.7 13-5.1 17.5-0.7 4.6 4.3 6.4 14.2-3.4 27.6-14.8 20.1-17.2 53.3-17.2 53.6h-4.7c-0.5-7.2-4.7-70.4 7.8-80.5zm2.9 3.7c-5.9 4.8-7.4 30.4-7 54 2.6-10.8 7.1-23.6 14.4-33.6 7.5-10.3 7.4-18.2 4-21.5-0.9-0.8-2-1.4-3.3-1.6-2.4-0.4-5.4 0.5-8.1 2.7z"/>
				</g>
				<g id="&lt;Group&gt;">
					<path id="&lt;Path&gt;" class="s13" d="m2383.7 1503c-3.2-33.7 29.2-58.2 30.5-59.4l1.8 1.2c-0.3 0.2-26.4 28.2-23.5 57.3z"/>
				</g>
				<path id="&lt;Path&gt;" class="s3" d="m2416 1439.8c0.5 0-2.1-17.8-11.7-14.5-9.6 3.2-3.2 16.1 11.7 14.5z"/>
				<path id="&lt;Path&gt;" class="s3" d="m2418.8 1439.9c0.3 0.5 14.6-10.3 7.2-17.1-7.4-6.9-15.7 4.8-7.2 17.1z"/>
				<path id="&lt;Path&gt;" class="s3" d="m2421.7 1440.4c-0.4 0.4 13.9 11.3 18.5 2.3 4.6-9-8.9-13.8-18.5-2.3z"/>
				<path id="&lt;Path&gt;" class="s3" d="m2420.1 1441.3c-0.5-0.2-8.5 15.8 1.2 18.6 9.7 2.9 11.9-11.3-1.2-18.6z"/>
				<path id="&lt;Path&gt;" class="s3" d="m2417.2 1441.7c0-0.6-17.9-1.8-16.7 8.3 1.2 10 15 6.5 16.7-8.3z"/>
			</g>
			<g id="&lt;Group&gt;">
				<path id="&lt;Compound Path&gt;" fill-rule="evenodd" class="s13" d="m1632.8 1473.7c-27.9 36.4-33.8 97.3-33.8 97.9l-8.6-0.2c-0.1-0.7-0.1-1.8-0.2-3.2h-2.4c-0.1-0.4-3-40.4-20.8-64.7-11.9-16.2-9.7-28.1-4.2-33.4 5.5-5.2 14-4.8 21.2 1 1.2 1 2.3 2.4 3.3 4.1-3.6-30.2-28-56.4-28.3-56.7l2.1-1.4c1.3 1.1 23.3 17.8 32.8 43 2.8-17.2 7.2-31.1 14.1-36.4 11.2-8.5 24.1-8.8 32.2-0.7 8.2 8.2 11.2 26.4-7.4 50.7zm-52.4 1.8c-3.2-2.6-6.7-3.7-9.7-3.2-1.5 0.2-2.8 0.9-3.9 1.9-4.2 4-4.3 13.6 4.8 26 8.8 12.1 14.2 27.4 17.3 40.5 0.5-28.5-1.3-59.4-8.5-65.2zm53.7-46.4c-1.6-1.7-3.6-2.7-5.9-3.1-4.5-0.9-9.9 0.7-15 4.6-11.1 8.5-14.9 55.6-15.1 99 5.3-19.8 13.9-43 27.8-61.2 14.3-18.6 14.4-33.1 8.2-39.3z"/>
				<path id="&lt;Path&gt;" class="s3" d="m1559.1 1412.5c-0.7 0 2.5-21.5 14-17.5 11.6 3.9 3.9 19.4-14 17.5z"/>
				<path id="&lt;Path&gt;" class="s3" d="m1555.6 1412.7c-0.3 0.5-17.7-12.5-8.7-20.8 9-8.3 18.9 5.8 8.7 20.8z"/>
				<path id="&lt;Path&gt;" class="s3" d="m1552.1 1413.2c0.4 0.5-16.8 13.7-22.3 2.8-5.5-10.9 10.8-16.6 22.3-2.8z"/>
				<path id="&lt;Path&gt;" class="s3" d="m1554.1 1414.3c0.5-0.3 10.3 19.1-1.5 22.5-11.7 3.4-14.3-13.7 1.5-22.5z"/>
				<path id="&lt;Path&gt;" class="s3" d="m1557.6 1414.7c-0.1-0.6 21.5-2.1 20.1 10.1-1.4 12.1-18.1 7.9-20.1-10.1z"/>
			</g>
			<path id="&lt;Path&gt;" class="s22" d="m2655.6 1573.3h-2584.3c-1.6 0-3-1.3-3-3v-1c0-1.6 1.4-2.9 3-2.9h2584.3c1.6 0 2.9 1.3 2.9 2.9v1c0 1.7-1.3 3-2.9 3z"/>
		</g>
	</g>
</svg>