<svg version="1.2" xmlns="http://www.w3.org/2000/svg" viewBox="0 0 1000 735" width="1000" height="735">
	<title>218037-P0UUP5-104</title>
	<style>
		tspan { white-space:pre } 
		.s0 { fill: #15803D } 
		.s1 { fill: #d4d4d4 } 
		.s2 { fill: #ad8067 } 
		.s3 { fill: #263137 } 
		.s4 { fill: #c6c6c6 } 
		.s5 { fill: #9e7059 } 
		.s6 { fill: #e29881 } 
		.s7 { fill: #f76011 } 
		.s8 { fill: #efa98e } 
		.s9 { fill: #442017 } 
		.s10 { fill: #f1856b } 
		.s11 { fill: #ffbd54 } 
		.s12 { fill: #ffcb80 } 
		.s13 { fill: #fefbfc } 
		.s14 { fill: none;stroke: #efd5ab;stroke-linecap: round;stroke-linejoin: round;stroke-width: 5 } 
	</style>
	<g id="BACKGROUND">
		<g id="&lt;Group&gt;">
		</g>
	</g>
	<g id="OBJECTS">
		<g id="&lt;Group&gt;">
			<g id="&lt;Group&gt;" style="opacity: .7">
				<g id="&lt;Group&gt;">
					<g id="&lt;Group&gt;">
						<path id="&lt;Path&gt;" class="s0" d="m649.4 567.8c-0.7 0-1.4-0.3-1.9-0.8-0.9-1.1-0.8-2.6 0.2-3.6 39-35.4 65.6-83.5 75.1-135.3 0.2-1.3 1.5-2.2 2.9-2 1.4 0.3 2.3 1.6 2 2.9-9.6 52.9-36.9 102-76.6 138.1-0.5 0.5-1.1 0.7-1.7 0.7z"/>
					</g>
				</g>
				<g id="&lt;Group&gt;">
					<g id="&lt;Group&gt;">
						<g id="&lt;Group&gt;">
							<path id="&lt;Compound Path&gt;" fill-rule="evenodd" class="s0" d="m684.8 629c-8.9 0-17.7-0.7-26.3-1.4-34.4-2.6-69.9-5.4-103.6-16.2-16.4-5.3-29.7-11.7-40.6-19.7-43.7-31.8-57-98.8-29.7-149.4 2.8-5 5.9-10 8.9-14.9 8.1-12.8 15.7-25 17.2-39.1 1.8-16.1-4.9-32-11.3-47.4-7.2-17.2-14.6-34.8-11-53.2 3.4-17.4 15.8-31.4 27.8-44.9 14.3-16.3 27.8-31.6 25.1-51q0-0.2 0-0.4c-0.6-67.5 25.1-93.3 46.8-103.1 25.2-11.3 52.3-4.7 59.8 2 13.2 11.9 21.7 28.7 25.3 49.7 1.7 9.9 1.6 20 1.5 29.8 0 7-0.1 14.2 0.5 21.3 0.8 9.2 4.5 31.8 21.4 41.4 3.5 2 7.3 3.3 11.3 4.6 2.4 0.9 4.9 1.7 7.4 2.8 19.6 8.2 34.9 28.1 40 51.8 4.2 19.5 2 41.7-6.3 65.9l-0.9 2.7c-3.4 9.5-6.8 19.4-4 28.4 1.6 5.2 5.1 9.5 9.4 14.5l2.9 3.5c25.5 29.6 51.8 60.3 53.8 98.9 1.5 26.6-9.6 54.6-31 78.8-21.7 24.4-49.2 39.9-77.4 43.6-5.7 0.7-11.4 1-17 1zm-138.5-437.8c2.9 21.7-12 38.6-26.4 54.9-11.5 13-23.4 26.5-26.6 42.5-3.3 16.9 3.5 33.2 10.7 50.3 6.7 16 13.6 32.6 11.7 49.9-1.7 15.3-9.9 28.5-17.9 41.3-3 4.8-6.1 9.7-8.8 14.6-26.2 48.4-13.5 112.6 28.2 143 10.5 7.6 23.3 13.8 39.3 18.9 33 10.7 68.3 13.4 102.4 16.1 13.9 1 28.2 2.2 42.2 0.3 27.1-3.5 53.5-18.4 74.3-41.9 20.6-23.3 31.2-50 29.9-75.3-2-36.8-27.8-66.8-52.7-95.9l-2.9-3.4c-3.7-4.3-8.3-9.7-10.4-16.3-3.3-10.6 0.6-21.7 4-31.6l1-2.6c8-23.4 10.1-44.6 6.1-63.3-4.7-22.1-18.9-40.6-37-48.2-2.3-1-4.8-1.8-7.1-2.6-4.1-1.4-8.3-2.8-12.1-5-13.4-7.6-22.2-24.1-24-45.4-0.6-7.3-0.5-14.6-0.5-21.8 0.1-9.5 0.2-19.4-1.4-28.9-3.4-19.9-11.4-35.6-23.7-46.8-5.7-5.1-31.1-11.7-54.4-1.1-20.4 9.1-44.4 33.6-43.9 98.3z"/>
						</g>
					</g>
					<g id="&lt;Group&gt;">
						<g id="&lt;Group&gt;">
							<path id="&lt;Path&gt;" class="s0" d="m654.7 623.1c-1.3 0-2.4-1-2.5-2.3-3.6-58.3-13.6-117.3-23.2-174.4-16.4-96.9-33.4-197.1-19.2-295.7 0.2-1.4 1.4-2.4 2.8-2.2 1.4 0.2 2.3 1.5 2.1 2.9-14 97.8 2.9 197.6 19.2 294.1 9.7 57.3 19.7 116.5 23.3 175 0.1 1.4-1 2.5-2.3 2.6q-0.1 0-0.2 0z"/>
						</g>
					</g>
					<g id="&lt;Group&gt;">
						<g id="&lt;Group&gt;">
							<path id="&lt;Path&gt;" class="s0" d="m631.3 448.4q-0.5 0-1.1-0.2c-27.6-13-51.7-32.3-75-50.9l-30.3-24.3c-1.1-0.8-1.3-2.4-0.4-3.5 0.9-1.1 2.4-1.2 3.5-0.4l30.3 24.3c23.1 18.4 46.9 37.5 74.1 50.3 1.2 0.5 1.8 2 1.2 3.3-0.5 0.9-1.4 1.4-2.3 1.4z"/>
						</g>
					</g>
					<g id="&lt;Group&gt;">
						<g id="&lt;Group&gt;">
							<path id="&lt;Path&gt;" class="s0" d="m609.2 284.9c-0.7 0-1.4-0.3-1.9-0.8-0.9-1.1-0.8-2.6 0.2-3.6 21-18.9 35.2-45.8 38.9-73.8 0.2-1.4 1.4-2.4 2.8-2.2 1.4 0.2 2.3 1.5 2.1 2.8-3.8 29.2-18.6 57.3-40.4 77-0.5 0.4-1.1 0.6-1.7 0.6z"/>
						</g>
					</g>
					<g id="&lt;Group&gt;">
						<g id="&lt;Group&gt;">
							<path id="&lt;Path&gt;" class="s0" d="m571.5 150.9c-0.9 0-1.8-0.5-2.3-1.4l-3.7-8.2c-0.6-1.2-0.1-2.7 1.2-3.3 1.2-0.6 2.7 0 3.3 1.2l3.8 8.2c0.5 1.2 0 2.7-1.3 3.3q-0.5 0.2-1 0.2z"/>
						</g>
					</g>
					<g id="&lt;Group&gt;">
						<g id="&lt;Group&gt;">
							<path id="&lt;Path&gt;" class="s0" d="m576.5 153.7c-1.1 0-2.1-0.7-2.4-1.8l-2.6-9.4c-0.3-1.4 0.5-2.7 1.8-3.1 1.3-0.3 2.7 0.4 3.1 1.8l2.5 9.4c0.3 1.3-0.4 2.7-1.8 3q-0.3 0.1-0.6 0.1z"/>
						</g>
					</g>
				</g>
				<g id="&lt;Group&gt;">
					<g id="&lt;Group&gt;">
						<path id="&lt;Path&gt;" class="s0" d="m710.6 320.4q-0.2 0-0.4 0c-1.3-0.2-2.3-1.5-2.1-2.9 0.5-3.1 0.2-6.5-0.7-9.5-0.4-1.4 0.3-2.8 1.6-3.2 1.3-0.4 2.7 0.4 3.1 1.7 1.2 3.8 1.5 7.8 1 11.8-0.2 1.2-1.3 2.1-2.5 2.1z"/>
					</g>
				</g>
				<g id="&lt;Group&gt;">
					<g id="&lt;Group&gt;">
						<path id="&lt;Path&gt;" class="s0" d="m718 325.7c-0.7 0-1.4-0.3-1.9-1-0.9-1-0.7-2.6 0.4-3.5 2-1.6 2.5-5.1 0.9-7.2-0.9-1.1-0.7-2.7 0.4-3.5 1.1-0.9 2.7-0.7 3.5 0.4 3.3 4.3 2.5 10.9-1.7 14.3-0.5 0.3-1 0.5-1.6 0.5z"/>
					</g>
				</g>
			</g>
			<g id="&lt;Group&gt;" style="opacity: .7">
				<g id="&lt;Group&gt;">
					<g id="&lt;Group&gt;">
						<path id="&lt;Compound Path&gt;" fill-rule="evenodd" class="s0" d="m342.5 629.9c-20.7 0-41.1-2.2-59.3-4.1-54.3-3.1-89.4-22.9-104.2-40.4-6.2-7.4-9.1-14.6-8.4-20.9 2.2-19 15.9-32.9 29.1-46.3 10.6-10.7 21.5-21.7 26.5-35.3 9.8-26.5-4.2-53.1-19-81.1-14.7-28-29.8-56.8-19-85.5 9.4-25 34.6-37.8 58.9-50.2 25.2-12.9 49-25.1 56.5-49.6 2-6.7 2.5-13.6 3-20.9 0.3-3.7 0.6-7.5 1.1-11.3 4.3-33.2 27.7-61.4 56.8-68.7 16-3.9 34.3-0.6 49 9 13.2 8.6 21.8 21.1 24.1 35 3.1 18-3.3 36.2-9.5 53.9-7.6 21.6-14.8 42-4.3 60 4.8 8.3 12.5 14.2 20.7 20.3 4.5 3.4 9.1 6.9 13.2 10.8 25.8 24.6 28.9 69 6.8 97-2.6 3.3-5.5 6.4-8.3 9.4-6.4 6.8-12.4 13.2-15 21.4-5.4 16.8 4.8 32.2 15.6 48.5 5.3 8.1 10.9 16.4 14.5 25.1 17.9 42.7-14.9 92.6-55.5 110.6-23.2 10.2-48.6 13.3-73.3 13.3zm35.7-510.9c-4.2 0-8.4 0.5-12.5 1.5-27.2 6.7-49 33.3-53.1 64.4-0.5 3.7-0.7 7.4-1 11.1-0.5 7.2-1.1 14.8-3.2 22-8.1 26.4-34 39.7-59 52.5-23.5 12-47.8 24.4-56.5 47.6-10.1 26.5 3.9 53.1 18.8 81.3 14.6 27.8 29.7 56.6 19.2 85.3-5.4 14.5-16.7 25.9-27.6 37-13.2 13.4-25.7 26-27.7 43.3-0.6 4.9 2 10.9 7.2 17.1 14.1 16.8 48 35.7 100.7 38.7q0.1 0 0.1 0c39.5 4.3 88.6 9.5 130.2-8.8 38.5-17.1 69.7-64 52.9-104.1-3.5-8.2-8.9-16.4-14-24.2-11-16.6-22.4-33.8-16.3-52.8 3-9.3 9.7-16.4 16.1-23.3 2.8-2.9 5.6-6 8.1-9.1 20.5-26 17.6-67.4-6.3-90.3-3.9-3.7-8.4-7.1-12.8-10.4-8.2-6.2-16.7-12.6-22.1-21.8-11.5-20-3.7-42.5 4-64.2 6-17 12.2-34.6 9.3-51.3-2.1-12.6-9.9-23.8-22-31.7-9.8-6.4-21.3-9.8-32.5-9.8z"/>
					</g>
				</g>
				<g id="&lt;Group&gt;">
					<g id="&lt;Group&gt;">
						<path id="&lt;Path&gt;" class="s0" d="m300.7 618.9c-1.3 0-2.4-1.1-2.5-2.4-4.6-94.7 9.9-192 41.8-281.2 3.4-9.4 7-18.9 10.5-28.1 12.5-32.7 25.4-66.6 29-101.7 0.1-1.4 1.4-2.4 2.7-2.2 1.4 0.1 2.4 1.3 2.3 2.7-3.7 35.7-16.7 69.9-29.3 103-3.5 9.1-7.1 18.6-10.5 28-31.7 88.6-46.1 185.2-41.5 279.3 0.1 1.3-1 2.5-2.4 2.6q0 0-0.1 0z"/>
					</g>
				</g>
				<g id="&lt;Group&gt;">
					<g id="&lt;Group&gt;">
						<path id="&lt;Path&gt;" class="s0" d="m334.3 349.4c-0.8 0-1.5-0.3-2-0.9-14.2-17.8-25.3-37.6-33.1-59-0.4-1.3 0.2-2.7 1.5-3.2 1.3-0.5 2.8 0.2 3.2 1.5 7.6 20.8 18.5 40.2 32.3 57.6 0.9 1.1 0.7 2.6-0.4 3.5-0.4 0.4-1 0.5-1.5 0.5z"/>
					</g>
				</g>
				<g id="&lt;Group&gt;">
					<g id="&lt;Group&gt;">
						<path id="&lt;Path&gt;" class="s0" d="m319.4 413.4c-1.3 0-2.4-1-2.5-2.3-0.1-1.4 0.9-2.6 2.3-2.7 24.8-2.2 48.8-10.7 69.5-24.6 1.1-0.7 2.7-0.4 3.4 0.7 0.8 1.1 0.5 2.7-0.7 3.5-21.3 14.4-46.1 23.1-71.8 25.4q-0.1 0-0.2 0z"/>
					</g>
				</g>
				<g id="&lt;Group&gt;">
					<g id="&lt;Group&gt;">
						<path id="&lt;Path&gt;" class="s0" d="m303.2 491.1c-0.6 0-1.2-0.2-1.7-0.7-16.1-15.4-29.7-33.1-40.4-52.7-0.7-1.2-0.2-2.7 1-3.4 1.2-0.7 2.7-0.2 3.4 1 10.4 19.1 23.7 36.5 39.4 51.5 1 1 1.1 2.6 0.1 3.6-0.5 0.5-1.1 0.7-1.8 0.7z"/>
					</g>
				</g>
				<g id="&lt;Group&gt;">
					<g id="&lt;Group&gt;">
						<path id="&lt;Path&gt;" class="s0" d="m300.5 578c-1.2 0-2.2-0.8-2.5-2-0.3-1.3 0.6-2.7 2-2.9 28.2-5.8 53.9-21.1 72.3-43.3 0.9-1.1 2.5-1.3 3.5-0.4 1.1 0.9 1.2 2.5 0.4 3.5-19.1 23.1-45.9 39.1-75.2 45.1q-0.3 0-0.5 0z"/>
					</g>
				</g>
			</g>
			<g id="&lt;Group&gt;">
				<g id="&lt;Group&gt;">
					<g id="&lt;Group&gt;">
						<path id="&lt;Path&gt;" class="s0" d="m434 652.6q64 0 128 0c12.7 0 12.7-18 0-18-42.7 0-85.3-3.8-128 0-12.6 1.2-11.3 18 0 18z"/>
					</g>
				</g>
			</g>
			<g id="&lt;Group&gt;">
				<g id="&lt;Group&gt;">
					<g id="&lt;Group&gt;">
						<g id="&lt;Group&gt;">
							<path id="&lt;Path&gt;" class="s1" d="m320.8 434.1q0 95.3 0 190.7"/>
						</g>
					</g>
					<g id="&lt;Group&gt;">
						<g id="&lt;Group&gt;">
							<path id="&lt;Path&gt;" class="s1" d="m328.8 624.8h-16v-190.7h16z"/>
						</g>
					</g>
				</g>
				<g id="&lt;Group&gt;">
					<g id="&lt;Group&gt;">
						<g id="&lt;Group&gt;">
							<path id="&lt;Path&gt;" class="s1" d="m696.2 434.1q0 95.3 0 190.7"/>
						</g>
					</g>
					<g id="&lt;Group&gt;">
						<g id="&lt;Group&gt;">
							<path id="&lt;Path&gt;" class="s1" d="m704.2 624.8h-16v-190.7h16z"/>
						</g>
					</g>
				</g>
				<g id="&lt;Group&gt;">
					<g id="&lt;Group&gt;">
						<path id="&lt;Path&gt;" class="s2" d="m281 480.3v32h438v-32z"/>
					</g>
				</g>
				<g id="&lt;Group&gt;">
					<g id="&lt;Group&gt;">
						<path id="&lt;Path&gt;" class="s2" d="m281 553.1v21h438v-21z"/>
					</g>
				</g>
				<g id="&lt;Group&gt;">
					<g id="&lt;Group&gt;">
						<path id="&lt;Path&gt;" class="s2" d="m281 447.4v32h438v-32h-306.7l-2.6 2.3-2.1-2.3z"/>
					</g>
				</g>
				<g id="&lt;Group&gt;">
					<g id="&lt;Group&gt;">
						<g id="&lt;Group&gt;">
							<g id="&lt;Group&gt;">
								<path id="&lt;Path&gt;" class="s3" d="m319.5 467.2c4.8 0 4.8-7.5 0-7.5-4.8 0-4.8 7.5 0 7.5z"/>
							</g>
						</g>
					</g>
					<g id="&lt;Group&gt;">
						<g id="&lt;Group&gt;">
							<g id="&lt;Group&gt;">
								<path id="&lt;Path&gt;" class="s3" d="m318.8 500.5c4.8 0 4.9-7.5 0-7.5-4.8 0-4.8 7.5 0 7.5z"/>
							</g>
						</g>
					</g>
				</g>
				<g id="&lt;Group&gt;">
					<g id="&lt;Group&gt;">
						<g id="&lt;Group&gt;">
							<g id="&lt;Group&gt;">
								<path id="&lt;Path&gt;" class="s3" d="m696.8 467.2c4.8 0 4.9-7.5 0-7.5-4.8 0-4.8 7.5 0 7.5z"/>
							</g>
						</g>
					</g>
					<g id="&lt;Group&gt;">
						<g id="&lt;Group&gt;">
							<g id="&lt;Group&gt;">
								<path id="&lt;Path&gt;" class="s3" d="m696.2 500.5c4.8 0 4.8-7.5 0-7.5-4.9 0-4.9 7.5 0 7.5z"/>
							</g>
						</g>
					</g>
				</g>
				<g id="&lt;Group&gt;">
					<g id="&lt;Group&gt;">
						<path id="&lt;Path&gt;" class="s4" d="m337.8 587.6h-34v-12.7h34z"/>
					</g>
				</g>
				<g id="&lt;Group&gt;">
					<g id="&lt;Group&gt;">
						<path id="&lt;Path&gt;" class="s4" d="m713.8 587.6h-34v-12.7h34z"/>
					</g>
				</g>
				<g id="&lt;Group&gt;">
					<g id="&lt;Group&gt;">
						<g id="&lt;Group&gt;">
							<g id="&lt;Group&gt;">
								<path id="&lt;Path&gt;" class="s5" d="m297.5 469.2q1.3-0.2 2.5 0.4c0.7 0.3 1.3-0.7 0.6-1-1.1-0.6-2.2-0.7-3.4-0.6-0.8 0.1-0.5 1.3 0.3 1.2z"/>
							</g>
						</g>
					</g>
					<g id="&lt;Group&gt;">
						<g id="&lt;Group&gt;">
							<g id="&lt;Group&gt;">
								<path id="&lt;Path&gt;" class="s5" d="m314.8 453.8c14.8 0.1 28.6 6 43 8.6 12.6 2.2 25.3 2.9 38 2.4 0.8 0 0.8-1.2 0-1.2-15.1 0.6-30-0.5-44.7-3.8-12.2-2.7-23.7-7.1-36.3-7.2-0.8 0-0.8 1.2 0 1.2z"/>
							</g>
						</g>
					</g>
					<g id="&lt;Group&gt;">
						<g id="&lt;Group&gt;">
							<g id="&lt;Group&gt;">
								<path id="&lt;Path&gt;" class="s5" d="m352.3 472c25.8 5.1 50.8-2.6 76-7 29.7-5.2 59.7-3.4 89.5-1.4 0.8 0.1 0.8-1.1 0-1.2-26.7-1.8-53.7-3.5-80.4 0-28.3 3.7-55.9 14.1-84.8 8.5-0.7-0.2-1 1-0.3 1.1z"/>
							</g>
						</g>
					</g>
					<g id="&lt;Group&gt;">
						<g id="&lt;Group&gt;">
							<g id="&lt;Group&gt;">
								<path id="&lt;Path&gt;" class="s5" d="m438.3 471.7c38.3 1 77.7 8 115.5-1 19.6-4.7 39-17.3 59.8-13.5 9.9 1.9 18.4 7.8 27.9 10.9 8.9 3 18 4.4 27.3 4.7 0.8 0 0.8-1.2 0-1.2-12.3-0.4-24.1-2.9-35.4-7.9-6.5-2.9-12.6-6.5-19.7-7.8-18.6-3.3-36 6.6-53.2 11.7-39.6 11.8-81.7 4-122.2 2.9-0.8 0-0.8 1.2 0 1.2z"/>
							</g>
						</g>
					</g>
					<g id="&lt;Group&gt;">
						<g id="&lt;Group&gt;">
							<g id="&lt;Group&gt;">
								<path id="&lt;Path&gt;" class="s5" d="m413.9 458.6c24.3-1.6 48.7-2.2 73.1-1.5 23.6 0.6 47.7 4.3 71.2 1.8 0.8-0.1 0.8-1.3 0-1.2-23.5 2.5-47.6-1.2-71.2-1.8-24.4-0.7-48.8-0.1-73.1 1.5-0.8 0-0.8 1.2 0 1.2z"/>
							</g>
						</g>
					</g>
					<g id="&lt;Group&gt;">
						<g id="&lt;Group&gt;">
							<g id="&lt;Group&gt;">
								<path id="&lt;Path&gt;" class="s5" d="m652 456.6c4.6 2.6 11.7 6.5 17.1 4.1 2.5-1.1 3.5-4.7 0.4-5.7-0.8-0.3-1.1 0.9-0.4 1.1q0.4 4.1-2.5 3.9-1.2 0.2-2.4 0c-1.4-0.1-2.8-0.4-4.1-0.9-2.6-0.8-5.1-2.1-7.5-3.5-0.6-0.4-1.3 0.7-0.6 1z"/>
							</g>
						</g>
					</g>
					<g id="&lt;Group&gt;">
						<g id="&lt;Group&gt;">
							<g id="&lt;Group&gt;">
								<path id="&lt;Path&gt;" class="s5" d="m606.5 469.3c0.8-3.7 6.5-2.5 8.9-2 1.4 0.4 2.7 0.9 4 1.5 0.3 0.1 5.4 3.3 2 3.7-0.8 0-0.8 1.2 0 1.2 1.4-0.2 2.5-1.2 2.1-2.9-0.4-1.9-3-2.9-4.6-3.6-3.5-1.4-12.3-3.8-13.5 1.8-0.2 0.7 0.9 1 1.1 0.3z"/>
							</g>
						</g>
					</g>
					<g id="&lt;Group&gt;">
						<g id="&lt;Group&gt;">
							<g id="&lt;Group&gt;">
								<path id="&lt;Path&gt;" class="s5" d="m646.6 474.3c9.8 2.2 19.6 3.4 29.6 2.8 10.7-0.5 21-3 31.7-2.2 0.8 0.1 0.8-1.1 0-1.2-9.5-0.7-18.6 1.1-28 2-11.1 0.9-22.1-0.1-33-2.5-0.7-0.2-1 0.9-0.3 1.1z"/>
							</g>
						</g>
					</g>
					<g id="&lt;Group&gt;">
						<g id="&lt;Group&gt;">
							<g id="&lt;Group&gt;">
								<path id="&lt;Path&gt;" class="s5" d="m688.2 450.2c5.2 1.4 10.5 2.9 15.7 4.3 3.5 0.9 6.6 1.5 10.1 0.7 0.8-0.2 0.4-1.4-0.3-1.2-4.6 1.1-9-0.5-13.4-1.7q-5.9-1.6-11.8-3.2c-0.7-0.2-1 0.9-0.3 1.1z"/>
							</g>
						</g>
					</g>
					<g id="&lt;Group&gt;">
						<g id="&lt;Group&gt;">
							<g id="&lt;Group&gt;">
								<path id="&lt;Path&gt;" class="s5" d="m382.4 451.9c3.7 4.8 12.6 9.7 17.5 3.7 0.5-0.6-0.4-1.4-0.9-0.8-4.3 5.3-12.3 0.7-15.5-3.6-0.5-0.6-1.5 0-1.1 0.7z"/>
							</g>
						</g>
					</g>
					<g id="&lt;Group&gt;">
						<g id="&lt;Group&gt;">
							<g id="&lt;Group&gt;">
								<path id="&lt;Path&gt;" class="s5" d="m326.1 470.1c3.2-1.3 6.7-1 9.6 0.8 1.4 0.9 3.4 2.4 2.8 4.1-0.7 1.9-3.9 1.6-5.7 1.5-0.7-0.1-0.7 1.1 0 1.2 1.9 0.1 5.7 0.2 7.1-1.5 1.2-1.5-0.3-3.4-1.4-4.6-3.4-3.5-8.6-4.4-13-2.5-0.7 0.3-0.1 1.4 0.6 1z"/>
							</g>
						</g>
					</g>
					<g id="&lt;Group&gt;">
						<g id="&lt;Group&gt;">
							<g id="&lt;Group&gt;">
								<path id="&lt;Path&gt;" class="s5" d="m289.6 453.5c5.1 2.7 10.6 3.6 16.4 2.7 0.7-0.2 0.4-1.3-0.3-1.2-5.4 0.9-10.7 0-15.5-2.5-0.7-0.3-1.3 0.7-0.6 1z"/>
							</g>
						</g>
					</g>
					<g id="&lt;Group&gt;">
						<g id="&lt;Group&gt;">
							<g id="&lt;Group&gt;">
								<path id="&lt;Path&gt;" class="s5" d="m288.3 500.5c2.1-0.5 4.1 1.9 5.8 2.9 1.3 0.8 2.7 1.4 4.1 1.7 2.1 0.3 4.5-0.2 6-1.7 2.6-2.7 1.1-7.6-2.8-7.6-0.8 0-0.8 1.2 0 1.2q1.2 0.7 2.4 1.4 1.2 1.5 0.1 3c-0.6 1.3-1.4 1.9-2.8 2.3-2.3 0.8-4.9-0.4-6.9-1.6-2-1.4-3.6-3.4-6.2-2.8-0.8 0.2-0.5 1.3 0.3 1.2z"/>
							</g>
						</g>
					</g>
					<g id="&lt;Group&gt;">
						<g id="&lt;Group&gt;">
							<g id="&lt;Group&gt;">
								<path id="&lt;Path&gt;" class="s5" d="m306.4 486.4c2.8-4.9 17 0.4 21.3 1.3 6.9 1.5 13.9 3 20.8 4.3 12.6 2.5 25.3 4.8 38.2 6.3 28.1 3.3 56.5 3.4 84.7 0.6 0.8-0.1 0.8-1.3 0-1.2-33.3 3.3-66.8 2.5-99.9-2.7-15.2-2.4-30.3-5.6-45.3-8.8-4.9-1-17.4-6.6-20.8-0.4-0.4 0.6 0.6 1.2 1 0.6z"/>
							</g>
						</g>
					</g>
					<g id="&lt;Group&gt;">
						<g id="&lt;Group&gt;">
							<g id="&lt;Group&gt;">
								<path id="&lt;Path&gt;" class="s5" d="m333.5 500.7c12.6-2.2 26.2 4.5 38.8 5.7 0.8 0.1 0.8-1.1 0-1.2-12.8-1.3-26.2-7.9-39.2-5.7-0.7 0.1-0.4 1.3 0.4 1.2z"/>
							</g>
						</g>
					</g>
					<g id="&lt;Group&gt;">
						<g id="&lt;Group&gt;">
							<g id="&lt;Group&gt;">
								<path id="&lt;Path&gt;" class="s5" d="m381.2 485.1c15.8 5.6 32.3 8.6 49.1 8.2 18.4-0.4 37.4-8.5 55.5-3.4 0.8 0.2 1.1-1 0.4-1.2-16.3-4.5-32.5 1.8-48.8 3.1-19 1.4-37.9-1.5-55.9-7.8-0.7-0.3-1 0.9-0.3 1.1z"/>
							</g>
						</g>
					</g>
					<g id="&lt;Group&gt;">
						<g id="&lt;Group&gt;">
							<g id="&lt;Group&gt;">
								<path id="&lt;Path&gt;" class="s5" d="m491.2 497c5.1 1.1 10.4 1.8 15.6 0.7 2.7-0.6 9.1-2.3 9.4-5.9 0.3-3.4-5.1-3.5-7.1-3.8-4.3-0.7-9.9-2.2-13.7 0.5-0.6 0.4 0 1.5 0.6 1 3-2 7.1-1.1 10.4-0.7 1.4 0.2 3.4 0.1 4.8 0.7q2.2-0.2 2.3 2 1.8 2.3-1.5 3.1c-6.2 3.5-13.8 2.7-20.5 1.2-0.7-0.1-1 1-0.3 1.2z"/>
							</g>
						</g>
					</g>
					<g id="&lt;Group&gt;">
						<g id="&lt;Group&gt;">
							<g id="&lt;Group&gt;">
								<path id="&lt;Path&gt;" class="s5" d="m511.8 502.1c13.2 0.9 26.1-1.3 39.2-2.5 13.5-1.2 27.1-0.9 40.6 0 24.2 1.7 49.6 7.6 73.5 2.6 0.8-0.2 0.5-1.3-0.3-1.2-25 5.3-51.9-1.3-77-2.8-12.3-0.8-24.6-0.9-36.8 0.2-13.1 1.2-26 3.4-39.2 2.5-0.7-0.1-0.7 1.1 0 1.2z"/>
							</g>
						</g>
					</g>
					<g id="&lt;Group&gt;">
						<g id="&lt;Group&gt;">
							<g id="&lt;Group&gt;">
								<path id="&lt;Path&gt;" class="s5" d="m545.9 485.4q35.3 3.3 70.6 6.5c21.6 2 43.3 4.9 64.9 1.8 0.8-0.1 0.4-1.3-0.3-1.2-22.8 3.3-45.8-0.1-68.5-2.2q-33.4-3-66.7-6.1c-0.8-0.1-0.8 1.1 0 1.2z"/>
							</g>
						</g>
					</g>
					<g id="&lt;Group&gt;">
						<g id="&lt;Group&gt;">
							<g id="&lt;Group&gt;">
								<path id="&lt;Path&gt;" class="s5" d="m685.3 505.2q10 0.1 19.9 1.8c0.8 0.1 1.1-1.1 0.3-1.2q-10-1.7-20.2-1.8c-0.8 0-0.8 1.2 0 1.2z"/>
							</g>
						</g>
					</g>
				</g>
			</g>
			<g id="&lt;Group&gt;">
				<g id="&lt;Group&gt;">
					<g id="&lt;Group&gt;">
						<path id="&lt;Path&gt;" class="s0" d="m804.6 629h-188.1c-1.6 0-2.9-1.1-2.9-2.5 0-1.4 1.3-2.5 2.9-2.5h188.1c1.6 0 2.9 1.1 2.9 2.5 0 1.4-1.3 2.5-2.9 2.5z"/>
					</g>
				</g>
				<g id="&lt;Group&gt;">
					<g id="&lt;Group&gt;">
						<path id="&lt;Path&gt;" class="s0" d="m594.8 629h-346.3c-1.7 0-3.2-1.1-3.2-2.5 0-1.4 1.5-2.5 3.2-2.5h346.3c1.7 0 3.2 1.1 3.2 2.5 0 1.4-1.5 2.5-3.2 2.5z"/>
					</g>
				</g>
				<g id="&lt;Group&gt;">
					<g id="&lt;Group&gt;">
						<path id="&lt;Path&gt;" class="s0" d="m222.3 629h-27.3c-1.4 0-2.5-1.1-2.5-2.5 0-1.4 1.1-2.5 2.5-2.5h27.3c1.4 0 2.5 1.1 2.5 2.5 0 1.4-1.1 2.5-2.5 2.5z"/>
					</g>
				</g>
			</g>
			<g id="&lt;Group&gt;">
				<g id="&lt;Group&gt;">
					<g id="&lt;Group&gt;">
						<path id="&lt;Path&gt;" class="s0" d="m845.3 629h-14.3c-1.3 0-2.5-1.1-2.5-2.5 0-1.4 1.2-2.5 2.5-2.5h14.3c1.4 0 2.5 1.1 2.5 2.5 0 1.4-1.1 2.5-2.5 2.5z"/>
					</g>
				</g>
			</g>
			<g id="&lt;Group&gt;">
				<g id="&lt;Group&gt;">
					<g id="&lt;Group&gt;">
						<g id="&lt;Group&gt;">
							<g id="&lt;Group&gt;">
								<path id="&lt;Path&gt;" class="s3" d="m534.9 507.3q-0.2-0.3-0.4-0.6c-15.4-24-45.5-27.6-68.2-23.9-13.5 2.2-19.9 12.1-22.4 24.8-0.9 0.4-1.7 0.9-2.7 1.6q-0.3 0.2-0.6 0.5c-0.8-4.8-6.9-4.6-6.7 0.7q1.9 53 3.9 106c0.3 7.3-1.2 21.9 5.1 26.7 3.6 2.6 7.4 0.4 9.2-3.8 1.9-4.3 1.2-10.7 1.3-15.2q0.3-12.4 0.6-24.9 0.3-13.2 0.5-26.3c3-20.2 4.5-31.4 18.2-36 7.5-2.6 15.8-0.7 23.6-1.1 9.8-0.4 17.2-0.8 25 7.8 4.7 5.2 4.1 17.9 5.5 29.5q0.8 21.7 1.6 43.3c0.3 7.3-1.2 21.9 5.1 26.7 3.6 2.6 7.4 0.4 9.2-3.8 1.9-4.3 1.2-10.7 1.3-15.2q0.3-12.4 0.6-24.9 0.5-24.9 1-49.9c0.3-12.9 5.9-49.8-10.7-42z"/>
							</g>
						</g>
						<g id="&lt;Group&gt;">
							<g id="&lt;Group&gt;">
								<g id="&lt;Group&gt;">
									<path id="&lt;Path&gt;" class="s6" d="m473.3 381c0.4 10.2-0.2 20.4-1.7 30.4-0.1 1-0.2 1.9 0.1 2.8 0.6 1.4 2.2 2 3.6 2.5 5.7 1.7 11.5 2.7 17.4 3 3.2 0.1 6.7-0.1 8.9-2.3 3.6-3.5 1.7-9.4 0.2-14.2-2.6-8-3.5-16.5-2.6-24.7"/>
								</g>
							</g>
							<g id="&lt;Group&gt;">
								<g id="&lt;Group&gt;">
									<g id="&lt;Group&gt;">
										<path id="&lt;Path&gt;" class="s6" d="m472.3 381c-0.4 6.6-0.6 13.2-1.2 19.8-0.3 4-2.8 10.4-1 14.3 3 6.2 18 6.6 23.8 6.5 6.4-0.1 11.5-2.9 11.7-9.8 0.1-4-1.7-8-2.7-11.8-1.9-7.2-1.7-14.2-1.9-21.5-0.1-2-3.1-2.5-3.5-0.5-1.1 5.8-0.7 11.8 0.3 17.6 1.6 8.9 9 19.7-5.1 22.2-3.7 0.6-10.4-0.6-14-2.1-5.8-2.5-5.1-4.6-4.5-10.3 0.8-8.2 1-16.2 0.1-24.4-0.1-1.3-2-1.4-2 0z"/>
									</g>
								</g>
							</g>
						</g>
						<g id="&lt;Group&gt;">
							<g id="&lt;Group&gt;">
								<path id="&lt;Path&gt;" class="s7" d="m546.8 475.3c-2-17.6-2.5-34-11-49.9-4.3-8.1-14.4-20-26.2-22.7-9.5 7-12.4 7.5-24 7.2q-0.4 0-0.8 0-0.2 0-0.4 0c-9.5-0.2-11.3-1.3-18.7-5.9-19.2 7.8-26.1 19.8-32.9 44.3-2.6 9.2-3.3 18.7-3.7 28.3-0.2 5.4-0.2 10.9-0.1 16.3 0 3.2 1 35.1 2.4 39 3.5 9.7 23.1-10 76.3-10 15.9 0 28.9 4.5 39 5.8 8.9 1.1 2-34.3 0.1-52.4z"/>
							</g>
						</g>
						<g id="&lt;Group&gt;">
							<g id="&lt;Group&gt;">
								<g id="&lt;Group&gt;">
									<path id="&lt;Path&gt;" class="s6" d="m427.8 299.2c-4.7-2.5-13.1-2.4-17.8 0.4-4.6 2.8-7.2 8.7-7.2 13.9-0.1 5.3 2.8 10.4 7.5 12.8 5 2.6 11.7 1.5 14.4-3.8 1.6-3 0.1-6.6-2.7-7.7l0.7-2.8c1.3 0 2.5-0.2 3.5-0.4 5.5-1.5 6.8-9.6 1.6-12.4z"/>
								</g>
							</g>
							<g id="&lt;Group&gt;">
								<g id="&lt;Group&gt;">
									<path id="&lt;Path&gt;" class="s6" d="m572.3 299.6c-4.8-2.8-13-2.9-17.8-0.4-5.2 2.8-3.9 10.9 1.6 12.4 1.2 0.3 2.3 0.4 3.5 0.3l0.7 2.9c-2.8 1.1-4.3 4.7-2.7 7.7 2.7 5.3 9.4 6.3 14.4 3.8 4.7-2.4 7.6-7.5 7.5-12.8 0-5.2-2.5-11.2-7.2-13.9z"/>
								</g>
							</g>
						</g>
						<g id="&lt;Group&gt;">
							<g id="&lt;Group&gt;">
								<path id="&lt;Path&gt;" class="s8" d="m564.5 305.9c-0.5-20.6-7.7-41.9-25.5-53.8-17.3-11.6-40.7-13.9-61-12.8-20.7 1.2-44.6 6.2-51.5 26.8-22.8 68.5 6.2 105 20.9 115 29.7 20.1 80.1 18.7 102.4-10.2 13.2-17.3 15.2-44 14.7-65z"/>
							</g>
						</g>
						<g id="&lt;Group&gt;">
							<g id="&lt;Group&gt;">
								<g id="&lt;Group&gt;">
									<path id="&lt;Path&gt;" class="s9" d="m443.8 308.6c0.4-2.5 1.8-5.6 4.7-6 3.3-0.4 5.9 2.7 5.8 5.8 0 1.1 1.7 1.1 1.7 0 0.1-3.7-2.8-7.3-6.6-7.5-4.1-0.2-6.7 3.7-7.2 7.3-0.2 1 1.4 1.5 1.6 0.4z"/>
								</g>
							</g>
						</g>
						<g id="&lt;Group&gt;">
							<g id="&lt;Group&gt;">
								<g id="&lt;Group&gt;">
									<path id="&lt;Path&gt;" class="s9" d="m441.2 295c1.9-3.8 7.5-7.8 11.8-5.4 2.8 1.6 5.4-2.7 2.6-4.3-6.7-3.7-15.6 0.8-18.7 7.1-1.5 2.9 2.8 5.4 4.3 2.6z"/>
								</g>
							</g>
						</g>
						<g id="&lt;Group&gt;">
							<g id="&lt;Group&gt;">
								<g id="&lt;Group&gt;">
									<path id="&lt;Path&gt;" class="s9" d="m534.6 308.2c-0.5-3.6-3.1-7.5-7.2-7.3-3.8 0.2-6.7 3.8-6.6 7.5 0 1.1 1.7 1.1 1.6 0 0-3 2.6-6.3 5.9-5.8 2.9 0.5 4.3 3.4 4.7 6 0.2 1.1 1.8 0.6 1.6-0.4z"/>
								</g>
							</g>
						</g>
						<g id="&lt;Group&gt;">
							<g id="&lt;Group&gt;">
								<g id="&lt;Group&gt;">
									<path id="&lt;Path&gt;" class="s9" d="m539.9 292.4c-3.1-6.3-12-10.8-18.7-7.1-2.8 1.6-0.2 5.9 2.6 4.3 4.2-2.4 9.9 1.6 11.8 5.4 1.5 2.8 5.8 0.3 4.3-2.6z"/>
								</g>
							</g>
						</g>
						<g id="&lt;Group&gt;">
							<g id="&lt;Group&gt;">
								<path id="&lt;Path&gt;" class="s10" d="m493.6 339.6c-2.7-1.1-5.3-0.7-7.3 0.6-0.3-0.1-0.7 0-1 0.4-0.2 0.4-0.4 0.8-0.7 1.2q-0.9 1.2-1.4 2.8c-0.9 2.1-1.5 4.3-1.8 6.7-0.3 2.6-1 7.2 2 8.4 3.5 1.4 8.2 1.4 11.9 1.3 3.1 0 5-0.2 5.8-3.6 1.2-6.1-1.2-15.2-7.5-17.8z"/>
							</g>
						</g>
						<g id="&lt;Group&gt;">
							<g id="&lt;Group&gt;">
								<path id="&lt;Path&gt;" class="s11" d="m568.3 276.3c-1.8-5.5-5.2-12-9.8-16.8q0.1-0.5 0.2-1 0 0 0 0 0.2-0.4 0.1-0.7c2.4-17.3-13-28.6-29.8-34.5-7.6-6.6-16.4-11.6-22.5-13.5-13.7-4.2-27.1-2.4-40.3 2.8-16 6.4-36.1 17.9-52.1 4.8-1.9-1.5-4.7-0.6-4.8 2-0.4 10.4 2.6 18.7 7.8 25-5.4 0.3-10.9-0.5-16.6-2.6-3.1-1.1-4.9 3.1-3 5.2 6.2 6.9 13.2 12.7 20.9 17.4-7.8 1.9-16.4 2-24.4 1.6-3.8-0.1-5.1 5.3-1.9 7.1 23.5 13.2 50.5 19.8 77.5 19.3-2.6 1.5-5.2 2.8-7.9 4.1-1.2 0.5-1 2.6 0.3 2.8 17.1 2.9 36.7-3.1 52.3-9.9 7.4-3.3 15.6-8.3 22.1-14.6 6 13.4 20.3 24.5 24.1 38.4 0.5 2 3.7 2.7 4.7 0.6 5.6-11.7 7.4-25 3.1-37.5z"/>
							</g>
						</g>
						<g id="&lt;Group&gt;">
							<g id="&lt;Group&gt;">
								<path id="&lt;Path&gt;" class="s10" d="m430.8 319.8c3.9-1.7 10.1-3.9 15.1-3.2 5.6-0.7 13 0.8 15.5 6.5 3.2 7-3.5 12.7-9.8 13.9-7.1 1.3-18-1.3-23.6-6-4.9-4.1-2.1-9 2.8-11.2z"/>
							</g>
						</g>
						<g id="&lt;Group&gt;">
							<g id="&lt;Group&gt;">
								<path id="&lt;Path&gt;" class="s10" d="m553.1 319.8c-3.9-1.7-10.1-3.9-15.1-3.2-5.6-0.7-13 0.8-15.5 6.5-3.2 7 3.5 12.7 9.8 13.9 7.1 1.3 18-1.3 23.6-6 4.9-4.1 2.1-9-2.8-11.2z"/>
							</g>
						</g>
						<g id="&lt;Group&gt;">
							<g id="&lt;Group&gt;">
								<path id="&lt;Path&gt;" class="s12" d="m513.8 231.8c-10.8-3.5-22.5-3.1-33.6-1.3-14.4 2.3-34.1 11.1-47.8 3.7-2.8-1.5-5.2 1.9-3.3 4.2 3.2 3.8 6.6 7 11.1 9.3 2.2 1.2 7.8 1.9 11.2 3.3-7.9 3.4-16 4.1-24.7 2.1-3-0.7-4.6 3.2-2.1 5 5.5 3.7 11.1 6.3 17.1 8-4.5 1.5-9 2.4-14 2.7-3.1 0.3-3.4 4.1-0.7 5.2 17.4 7.1 35.6 7.9 54.1 5.5 14.8-2 38-3.6 48.8-15.3 0.6-0.6 0.7-1.3 0.4-1.9 14.3-10.4-5.6-26.9-16.5-30.5z"/>
							</g>
						</g>
						<g id="&lt;Group&gt;">
							<g id="&lt;Group&gt;">
								<g id="&lt;Group&gt;">
									<g id="&lt;Group&gt;">
										<path id="&lt;Path&gt;" class="s6" d="m446.8 329.4c-3-7.5-11-5.8-17.6-2.1-0.1-0.1-0.3-0.2-0.5-0.3-2.3-0.8-5.2 0.3-7 1.7-2.4 1.8-3.7 4.5-5 7.1-0.3 0.7 0.6 1.2 1 0.6q0.1-0.2 0.3-0.4l2.1-0.2c0.1 0.1 0.2 0.3 0.4 0.2 0.2-0.1 0.5-0.2 0.8-0.4l1.3 12.4q-0.1 0-0.1 0c-0.8 0.2-0.5 1.3 0.3 1.2 7.5-1.1 28.3-8.9 24-19.8z"/>
									</g>
								</g>
								<g id="&lt;Group&gt;">
									<g id="&lt;Group&gt;">
										<path id="&lt;Path&gt;" class="s11" d="m426.9 391.9c-7.3-9.3-11.7-19.7-8-31 1.7-5 6.9-9.7 11.1-12.9-3.6-5.4-7.4-13.8-9.1-20.3-10.3 4.7-19.1 12.9-24.2 23-7.3 14.8-6.5 33.3 2.1 47.4 7.8 12.7 20.8 21.2 34 28.1 4.1 2.2 8.6 4.3 13.3 3.8 7.8-0.9 13.2-10.6 9.8-17.7-11-4.7-21.6-11-29-20.4z"/>
									</g>
								</g>
							</g>
							<g id="&lt;Group&gt;">
								<g id="&lt;Group&gt;">
									<g id="&lt;Group&gt;">
										<path id="&lt;Path&gt;" class="s6" d="m531.4 329.4c2.9-7.5 11-5.8 17.6-2.1 0.1-0.1 0.3-0.2 0.5-0.3 2.2-0.8 5.2 0.3 7 1.7 2.4 1.8 3.7 4.5 5 7.1 0.3 0.7-0.6 1.2-1 0.6q-0.2-0.2-0.3-0.4l-2.2-0.2c0 0.1-0.2 0.3-0.4 0.2-0.1-0.1-0.4-0.2-0.8-0.4l-1.2 12.4q0 0 0.1 0c0.8 0.2 0.4 1.3-0.3 1.2-7.5-1.1-28.4-8.9-24-19.8z"/>
									</g>
								</g>
								<g id="&lt;Group&gt;">
									<g id="&lt;Group&gt;">
										<path id="&lt;Path&gt;" class="s11" d="m551.2 391.9c7.4-9.3 11.8-19.7 8-31-1.6-5-6.8-9.7-11.1-12.9 3.7-5.4 7.5-13.8 9.2-20.3 10.3 4.7 19.1 12.9 24.1 23 7.4 14.8 6.5 33.3-2.1 47.4-7.7 12.7-20.7 21.2-33.9 28.1-4.1 2.2-8.6 4.3-13.3 3.8-7.9-0.9-13.2-10.6-9.8-17.7 11-4.7 21.6-11 28.9-20.4z"/>
									</g>
								</g>
							</g>
						</g>
						<g id="&lt;Group&gt;">
							<g id="&lt;Group&gt;">
								<g id="&lt;Group&gt;">
									<path id="&lt;Path&gt;" class="s11" d="m464 406.4c3.9 6.1 13.5 8.4 20.4 8.5 9.6 0.2 17.2-3.7 25.1-8.8 3.6-2.3 0.3-8.1-3.4-5.7-5.8 3.7-11.3 7.2-18.4 7.8-5.2 0.4-14.9-0.3-18-5.2-2.3-3.6-8-0.3-5.7 3.4z"/>
								</g>
							</g>
						</g>
						<g id="&lt;Group&gt;">
							<g id="&lt;Group&gt;">
								<g id="&lt;Group&gt;">
									<path id="&lt;Path&gt;" class="s11" d="m507.7 406.8c4.3 0 4.3-6.7 0-6.7-4.3 0-4.3 6.7 0 6.7z"/>
								</g>
							</g>
						</g>
						<g id="&lt;Group&gt;">
							<g id="&lt;Group&gt;">
								<g id="&lt;Group&gt;">
									<path id="&lt;Path&gt;" class="s11" d="m433.1 536.7c17.6-0.7 34-11 51.6-13.6 21.4-3.2 39.8 4.4 60.6 6.9 4.3 0.5 4.2-6.2 0-6.7-19.9-2.3-37.1-9.6-57.5-7.3-8.2 0.9-16.3 2.8-24.2 5.2-10.1 3.1-19.8 8.4-30.5 8.9-4.3 0.1-4.3 6.8 0 6.6z"/>
								</g>
							</g>
						</g>
						<g id="&lt;Group&gt;">
							<g id="&lt;Group&gt;">
								<g id="&lt;Group&gt;">
									<path id="&lt;Path&gt;" class="s11" d="m545.9 530.1q0.8 0 1.6 0c1.8 0 3.4-1.6 3.4-3.4-0.1-1.8-1.5-3.3-3.4-3.3q-0.8 0-1.6 0c-1.8 0-3.5 1.5-3.4 3.3 0.1 1.8 1.5 3.4 3.4 3.4z"/>
								</g>
							</g>
						</g>
						<g id="&lt;Group&gt;">
							<g id="&lt;Group&gt;">
								<g id="&lt;Group&gt;">
									<path id="&lt;Path&gt;" class="s11" d="m547.5 524q-0.3 0-0.5 0c-1.8 0-3.4 1.5-3.4 3.3 0.1 1.8 1.5 3.3 3.4 3.3q0.2 0 0.5 0c1.8 0 3.4-1.5 3.4-3.3-0.1-1.8-1.5-3.3-3.4-3.3z"/>
								</g>
							</g>
						</g>
					</g>
				</g>
				<g id="&lt;Group&gt;">
					<g id="&lt;Group&gt;">
						<g id="&lt;Group&gt;">
							<g id="&lt;Group&gt;">
								<g id="&lt;Group&gt;">
									<path id="&lt;Path&gt;" class="s13" d="m435.1 342.1c-5.8 2.5-11.3 5.6-16.6 9"/>
								</g>
							</g>
							<g id="&lt;Group&gt;">
								<g id="&lt;Group&gt;">
									<g id="&lt;Group&gt;">
										<path id="&lt;Path&gt;" class="s13" d="m434.5 340.1c-3.3 0.5-6.3 2.4-9.2 4-2.8 1.6-5.7 3.6-7.9 5.9-1.1 1.1-0.1 3.2 1.5 2.6 3.1-1.1 6.1-2.6 9-4.2 2.9-1.5 6.1-2.7 8.7-4.8 1.8-1.5-0.3-3.8-2.1-3.5z"/>
									</g>
								</g>
							</g>
						</g>
						<g id="&lt;Group&gt;">
							<g id="&lt;Group&gt;">
								<g id="&lt;Group&gt;">
									<path id="&lt;Path&gt;" class="s13" d="m428.6 330.1c-3.2-1.2-6.7-1.5-10-1"/>
								</g>
							</g>
							<g id="&lt;Group&gt;">
								<g id="&lt;Group&gt;">
									<g id="&lt;Group&gt;">
										<path id="&lt;Path&gt;" class="s13" d="m429 328.7c-3.5-1.3-7.2-2-10.8-0.7-1.2 0.4-0.9 2.1 0.4 2.2 3.2 0.3 6.4 0.3 9.6 1.3 1.8 0.5 2.5-2.2 0.8-2.8z"/>
									</g>
								</g>
							</g>
						</g>
						<g id="&lt;Group&gt;">
							<g id="&lt;Group&gt;">
								<g id="&lt;Group&gt;">
									<path id="&lt;Path&gt;" class="s13" d="m410.7 344.4c-6.8 2.6-13.2 6.5-18.7 11.4"/>
								</g>
							</g>
							<g id="&lt;Group&gt;">
								<g id="&lt;Group&gt;">
									<g id="&lt;Group&gt;">
										<path id="&lt;Path&gt;" class="s13" d="m410.4 343.1c-7.1 2.6-14.3 6.1-19.3 11.8-0.9 1 0.3 2.8 1.5 2 6.1-4 11.7-8.3 18.5-11.2 1.5-0.6 0.9-3.2-0.7-2.6z"/>
									</g>
								</g>
							</g>
						</g>
					</g>
					<g id="&lt;Group&gt;">
						<g id="&lt;Group&gt;">
							<g id="&lt;Group&gt;">
								<g id="&lt;Group&gt;">
									<path id="&lt;Path&gt;" class="s13" d="m545.4 342.1c5.7 2.5 11.3 5.6 16.6 9"/>
								</g>
							</g>
							<g id="&lt;Group&gt;">
								<g id="&lt;Group&gt;">
									<g id="&lt;Group&gt;">
										<path id="&lt;Path&gt;" class="s13" d="m543.9 343.6c2.6 2.1 5.7 3.3 8.7 4.8 2.9 1.6 5.9 3.1 9 4.2 1.5 0.6 2.5-1.5 1.5-2.6-2.2-2.3-5.1-4.3-8-5.9-2.8-1.6-5.9-3.5-9.2-4-1.8-0.3-3.8 2-2 3.5z"/>
									</g>
								</g>
							</g>
						</g>
						<g id="&lt;Group&gt;">
							<g id="&lt;Group&gt;">
								<g id="&lt;Group&gt;">
									<path id="&lt;Path&gt;" class="s13" d="m551.9 330.1c3.2-1.2 6.7-1.5 10-1"/>
								</g>
							</g>
							<g id="&lt;Group&gt;">
								<g id="&lt;Group&gt;">
									<g id="&lt;Group&gt;">
										<path id="&lt;Path&gt;" class="s13" d="m552.3 331.5c3.1-1 6.4-1 9.6-1.3 1.3-0.1 1.6-1.8 0.3-2.2-3.5-1.3-7.2-0.6-10.7 0.7-1.7 0.6-1 3.3 0.8 2.8z"/>
									</g>
								</g>
							</g>
						</g>
						<g id="&lt;Group&gt;">
							<g id="&lt;Group&gt;">
								<g id="&lt;Group&gt;">
									<path id="&lt;Path&gt;" class="s13" d="m569.8 344.4c6.8 2.6 13.2 6.5 18.7 11.4"/>
								</g>
							</g>
							<g id="&lt;Group&gt;">
								<g id="&lt;Group&gt;">
									<g id="&lt;Group&gt;">
										<path id="&lt;Path&gt;" class="s13" d="m569.4 345.7c6.8 2.9 12.4 7.2 18.4 11.2 1.3 0.8 2.4-1 1.6-2-5-5.7-12.2-9.2-19.3-11.8-1.7-0.6-2.3 2-0.7 2.6z"/>
									</g>
								</g>
							</g>
						</g>
					</g>
				</g>
			</g>
			<g id="&lt;Group&gt;">
				<g id="&lt;Group&gt;">
					<g id="&lt;Group&gt;">
						<path id="&lt;Path&gt;" class="s0" d="m141.6 397.1c4.1 19 14.9 35 30.8 46 2.4 1.6 4.7-2.3 2.3-3.9-15-10.3-25-25.5-28.7-43.3-0.6-2.8-5-1.6-4.4 1.2z"/>
					</g>
				</g>
			</g>
			<g id="&lt;Group&gt;">
				<g id="&lt;Group&gt;">
					<g id="&lt;Group&gt;">
						<path id="&lt;Path&gt;" class="s0" d="m158.2 386.6c1.8 25.6 14.2 48.4 34.6 63.9 2.3 1.8 4.5-2.1 2.3-3.9-19.1-14.5-30.7-36.2-32.4-60-0.2-2.9-4.7-2.9-4.5 0z"/>
					</g>
				</g>
			</g>
			<g id="&lt;Group&gt;">
				<g id="&lt;Group&gt;">
					<g id="&lt;Group&gt;">
						<path id="&lt;Path&gt;" class="s0" d="m348.1 142q-2.2 3.9-4.3 7.9c-1.4 2.5 2.5 4.8 3.9 2.2q2.1-3.9 4.2-7.8c1.4-2.6-2.5-4.8-3.8-2.3z"/>
					</g>
				</g>
			</g>
			<g id="&lt;Group&gt;">
				<g id="&lt;Group&gt;">
					<g id="&lt;Group&gt;">
						<path id="&lt;Path&gt;" class="s0" d="m350.4 152.5c-0.1 2-1.2 3.7-2.9 4.7-2.5 1.5-0.2 5.4 2.3 3.9 3.1-1.8 5-5 5.1-8.6 0.2-2.9-4.3-2.9-4.5 0z"/>
					</g>
				</g>
			</g>
			<g id="&lt;Group&gt;">
				<g id="&lt;Group&gt;">
					<path id="&lt;Path&gt;" class="s14" d=""/>
				</g>
			</g>
			<g id="&lt;Group&gt;">
				<g id="&lt;Group&gt;">
					<path id="&lt;Path&gt;" class="s0" d="m109.3 624.5q-0.1 0-0.3 0c-1.3-0.1-2.3-1.4-2.2-2.7 1.4-13.9 2.9-29.7 9.9-43.2 7-13.8 19.1-23 31.8-24.6-6.9-12.3-5.3-28.9 4.4-39.7 10.4-11.4 28.9-14.8 43.1-7.9 1 0.5 2.1 1.1 2.7 0.9 0.4-0.1 0.9-1 1.4-1.8l0.3-0.5c4.3-7.1 13.3-10.7 21.3-8.7 1.3 0.3 2.1 1.7 1.8 3-0.3 1.4-1.7 2.2-3 1.8-5.9-1.4-12.7 1.4-15.9 6.5l-0.2 0.5c-0.8 1.3-2 3.2-4.1 3.9-2.5 0.9-4.8-0.2-6.4-1-12.4-6.1-28.3-3.2-37.3 6.7-9 10-9.8 26.6-1.7 37 0.6 0.8 0.7 1.8 0.3 2.6-0.4 0.9-1.4 1.4-2.3 1.4-12.3-0.3-24.8 8.5-31.8 22.1-6.5 12.8-7.9 27.3-9.3 41.4-0.2 1.3-1.2 2.3-2.5 2.3z"/>
				</g>
			</g>
			<g id="&lt;Group&gt;">
				<g id="&lt;Group&gt;">
					<path id="&lt;Path&gt;" class="s0" d="m859 624.5c-1.3 0-2.3-1-2.5-2.3-1.3-13.4-2.8-28.6-9.3-41.4-6.9-13.4-19.1-22.1-31.3-22.1q-0.3 0-0.5 0c-1 0-1.9-0.5-2.3-1.4-0.4-0.8-0.3-1.8 0.3-2.6 8.1-10.4 7.3-27-1.8-37-1.5-1.7-3.2-3.2-5.1-4.5-1.2-0.7-1.5-2.3-0.7-3.4 0.8-1.2 2.3-1.5 3.5-0.7 2.2 1.5 4.3 3.3 6.1 5.2 9.7 10.8 11.3 27.4 4.4 39.7 12.7 1.6 24.8 10.8 31.8 24.6 7 13.5 8.5 29.3 9.9 43.2 0.1 1.3-0.9 2.6-2.2 2.7q-0.2 0-0.3 0z"/>
				</g>
			</g>
		</g>
	</g>
</svg>