<svg version="1.2" xmlns="http://www.w3.org/2000/svg" viewBox="0 0 1500 1000" width="500" height="333">
	<title>6333073</title>
	<style>
		.s0 { fill: #ebebeb } 
		.s1 { fill: #e0e0e0 } 
		.s2 { fill: #fdba74 } 
		.s3 { fill: #263238 } 
		.s4 { fill: #455a64 } 
		.s5 { fill: #000000 } 
		.s6 { fill: #ffffff } 
		.s7 { fill: #ffbf9d } 
		.s8 { fill: #ff9a6c } 
	</style>
	<g id="Background Complete">
		<g id="&lt;Group&gt;">
			<g id="&lt;Group&gt;">
				<path id="&lt;Path&gt;" class="s0" d="m1118.8 181.4c2-40.8 31.7-72.5 66.3-70.7 34.7 1.8 61.2 36.3 59.2 77.1-1.9 40.9-31.6 72.5-66.3 70.8-34.6-1.8-61.1-36.3-59.2-77.2z"/>
			</g>
			<g id="&lt;Group&gt;">
				<path id="&lt;Path&gt;" class="s1" d="m1225.3 186.7c-1.8 37.2-26.6 66.8-57.2 70.4q4.8 1.2 9.9 1.5c34.7 1.7 64.4-29.9 66.3-70.8 2-40.8-24.5-75.3-59.2-77.1q-4.6-0.2-9 0.3c29.6 7.2 50.9 38.9 49.2 75.7z"/>
			</g>
		</g>
		<g id="&lt;Group&gt;">
			<g id="&lt;Group&gt;">
				<path id="&lt;Path&gt;" class="s0" d="m730.8 839c40.7-3.2 74 10.3 74.3 30.2 0.3 19.9-32.4 38.6-73.1 41.8-40.8 3.2-74-10.3-74.4-30.2-0.3-19.9 32.4-38.6 73.2-41.8z"/>
			</g>
			<g id="&lt;Group&gt;">
				<path id="&lt;Path&gt;" class="s1" d="m732 900c-37.2 3-68.1-8-73.5-25q-0.9 2.9-0.9 5.8c0.4 19.9 33.6 33.4 74.4 30.2 40.7-3.2 73.4-21.9 73.1-41.8q-0.1-2.6-0.9-5.1c-5.3 17.6-35.5 33.1-72.2 35.9z"/>
			</g>
		</g>
		<g id="&lt;Group&gt;">
			<g id="&lt;Group&gt;">
				<path id="&lt;Path&gt;" class="s0" d="m211.1 725.7c-20.6-24.2-53.9-29.6-74.4-12-20.5 17.6-20.4 51.4 0.2 75.7 20.6 24.2 53.9 29.6 74.4 12 20.6-17.6 20.5-51.4-0.2-75.7z"/>
			</g>
			<g id="&lt;Group&gt;">
				<path id="&lt;Path&gt;" class="s1" d="m148.1 779.6c18.8 22.1 48.1 28.5 68.7 16.2q-2.4 3-5.5 5.6c-20.5 17.6-53.8 12.2-74.4-12-20.6-24.3-20.7-58.1-0.2-75.7q2.7-2.3 5.7-4.1c-14.8 18.5-12.9 48.2 5.7 70z"/>
			</g>
		</g>
		<g id="&lt;Group&gt;">
			<g id="&lt;Group&gt;">
				<path id="&lt;Path&gt;" class="s0" d="m140.3 509.1c0.5-20.7-10.7-37.9-24.8-38.3-14.2-0.4-26.1 16-26.5 36.8-0.5 20.7 10.7 37.9 24.8 38.3 14.2 0.4 26.1-16.1 26.5-36.8z"/>
			</g>
			<g id="&lt;Group&gt;">
				<path id="&lt;Path&gt;" class="s1" d="m96.8 507.7c-0.4 18.9 8.8 34.9 21.1 37.8q-2 0.5-4.1 0.4c-14.1-0.4-25.3-17.6-24.8-38.3 0.4-20.8 12.3-37.2 26.5-36.8q1.8 0 3.6 0.5c-12.2 2.5-21.9 17.7-22.3 36.4z"/>
			</g>
		</g>
		<g id="&lt;Group&gt;">
			<g id="&lt;Group&gt;">
				<path id="&lt;Path&gt;" class="s0" d="m1319.2 676.8c-10.7 20.3-5.5 44.1 11.8 53.1 17.2 9.1 40 0 50.7-20.3 10.8-20.3 5.5-44.1-11.8-53.1-17.2-9.1-39.9 0-50.7 20.3z"/>
			</g>
			<g id="&lt;Group&gt;">
				<path id="&lt;Path&gt;" class="s1" d="m1372.2 704.7c9.8-18.5 6.3-39.9-7.5-50.4q2.7 0.8 5.2 2.2c17.3 9 22.6 32.8 11.8 53.1-10.7 20.3-33.5 29.4-50.7 20.3q-2.3-1.2-4.3-2.7c16.4 5 35.8-4.2 45.5-22.5z"/>
			</g>
		</g>
		<g id="&lt;Group&gt;">
			<g id="&lt;Group&gt;">
				<path id="&lt;Path&gt;" class="s0" d="m418 183.4c10.2-30.2-2.2-61.6-27.7-70.2-25.6-8.7-54.7 8.7-65 38.8-10.3 30.1 2.1 61.5 27.7 70.2 25.6 8.6 54.7-8.7 65-38.8z"/>
			</g>
			<g id="&lt;Group&gt;">
				<path id="&lt;Path&gt;" class="s1" d="m335.8 154.8c-9.4 27.4 0.1 56 21.2 67.3q-3.8-0.5-7.6-1.8c-25.6-8.6-38-40-27.7-70.1 10.3-30.1 39.4-47.5 64.9-38.9q3.4 1.2 6.5 2.8c-23.5-3.3-48 13.5-57.3 40.7z"/>
			</g>
		</g>
		<g id="&lt;Group&gt;">
			<g id="&lt;Group&gt;">
				<path id="&lt;Path&gt;" class="s1" d="m1039 165.1l8.4 5c1.1 0.6 1 2.2-0.1 2.8l-8.9 4.5q-0.5 0.2-0.7 0.6l-5.2 8.5c-0.7 1.1-2.3 1-2.9-0.1l-4.2-8.8q-0.3-0.4-0.7-0.7l-8.4-5c-1.1-0.6-1-2.2 0.2-2.8l8.9-4.5q0.4-0.2 0.7-0.6l5.2-8.5c0.7-1.1 2.3-1.1 2.9 0.1l4.2 8.8q0.2 0.4 0.6 0.7z"/>
			</g>
		</g>
		<g id="&lt;Group&gt;">
			<g id="&lt;Group&gt;">
				<path id="&lt;Path&gt;" class="s1" d="m225.2 888.8l8.5 5c1 0.7 1 2.3-0.2 2.9l-8.9 4.4q-0.5 0.2-0.7 0.6l-5.2 8.6c-0.7 1.1-2.3 1-2.9-0.1l-4.2-8.8q-0.2-0.5-0.6-0.7l-8.4-5c-1.1-0.7-1-2.3 0.1-2.8l8.9-4.5q0.5-0.2 0.7-0.6l5.2-8.5c0.7-1.1 2.3-1.1 2.9 0l4.2 8.9q0.2 0.4 0.6 0.6z"/>
			</g>
		</g>
		<g id="&lt;Group&gt;">
			<g id="&lt;Group&gt;">
				<path id="&lt;Path&gt;" class="s1" d="m967.5 882.9l8.4 5c1.1 0.6 1 2.2-0.1 2.8l-8.9 4.5q-0.5 0.2-0.7 0.6l-5.2 8.5c-0.7 1.1-2.3 1.1-2.9-0.1l-4.2-8.8q-0.3-0.4-0.7-0.6l-8.4-5c-1.1-0.7-1-2.3 0.2-2.9l8.9-4.4q0.4-0.3 0.7-0.7l5.2-8.5c0.7-1.1 2.3-1 2.9 0.1l4.2 8.8q0.2 0.4 0.6 0.7z"/>
			</g>
		</g>
		<g id="&lt;Group&gt;">
			<g id="&lt;Group&gt;">
				<path id="&lt;Path&gt;" class="s1" d="m1333.8 875.7l8.4 5c1.1 0.6 1 2.2-0.1 2.8l-8.9 4.5q-0.5 0.2-0.7 0.6l-5.2 8.5c-0.7 1.1-2.3 1.1-2.9-0.1l-4.2-8.8q-0.2-0.4-0.6-0.7l-8.4-5c-1.1-0.6-1.1-2.2 0.1-2.8l8.9-4.5q0.5-0.2 0.7-0.6l5.2-8.5c0.7-1.1 2.3-1 2.9 0.1l4.2 8.8q0.2 0.4 0.6 0.7z"/>
			</g>
		</g>
		<g id="&lt;Group&gt;">
			<g id="&lt;Group&gt;">
				<path id="&lt;Path&gt;" class="s1" d="m436.4 261.9l8.4 5c1.1 0.7 1 2.3-0.1 2.9l-9 4.5q-0.4 0.2-0.6 0.6l-5.2 8.5c-0.7 1.1-2.3 1-2.9-0.1l-4.3-8.8q-0.2-0.4-0.6-0.7l-8.4-5c-1.1-0.6-1-2.2 0.2-2.8l8.9-4.5q0.4-0.2 0.7-0.6l5.2-8.5c0.7-1.1 2.3-1.1 2.8 0.1l4.3 8.8q0.2 0.4 0.6 0.6z"/>
			</g>
		</g>
		<g id="&lt;Group&gt;">
			<g id="&lt;Group&gt;">
				<path id="&lt;Path&gt;" class="s1" d="m490.1 93.1l8.4 5c1.1 0.6 1 2.2-0.1 2.8l-9 4.5q-0.4 0.2-0.6 0.6l-5.2 8.5c-0.7 1.1-2.3 1.1-2.9-0.1l-4.3-8.8q-0.2-0.4-0.6-0.7l-8.4-5c-1.1-0.6-1-2.2 0.2-2.8l8.9-4.5q0.4-0.2 0.7-0.6l5.2-8.5c0.7-1.1 2.3-1 2.8 0.1l4.3 8.8q0.2 0.4 0.6 0.7z"/>
			</g>
		</g>
		<g id="&lt;Group&gt;">
			<g id="&lt;Group&gt;">
				<path id="&lt;Path&gt;" class="s1" d="m217.8 166.6l4.2 2.6c0.6 0.3 0.5 1.1-0.1 1.4l-4.5 2.3q-0.2 0.1-0.3 0.3l-2.7 4.3c-0.3 0.6-1.1 0.6-1.4 0l-2.2-4.5q-0.1-0.2-0.3-0.3l-4.3-2.6c-0.5-0.3-0.5-1.1 0.1-1.4l4.6-2.3q0.2-0.1 0.3-0.3l2.6-4.3c0.4-0.6 1.2-0.5 1.5 0l2.2 4.5q0.1 0.2 0.3 0.3z"/>
			</g>
		</g>
		<g id="&lt;Group&gt;">
			<g id="&lt;Group&gt;">
				<path id="&lt;Path&gt;" class="s1" d="m693.4 142l4.2 2.6c0.6 0.3 0.6 1.1 0 1.4l-4.6 2.3q-0.2 0.1-0.3 0.3l-2.7 4.3c-0.3 0.5-1.1 0.5-1.4-0.1l-2.2-4.4q-0.1-0.2-0.3-0.4l-4.2-2.5c-0.6-0.3-0.5-1.1 0-1.4l4.6-2.3q0.2-0.1 0.3-0.3l2.7-4.3c0.3-0.6 1.1-0.6 1.4 0l2.2 4.5q0.1 0.2 0.3 0.3z"/>
			</g>
		</g>
		<g id="&lt;Group&gt;">
			<g id="&lt;Group&gt;">
				<path id="&lt;Path&gt;" class="s1" d="m1089 113.9l4.3 2.5c0.5 0.4 0.5 1.2-0.1 1.5l-4.5 2.2q-0.2 0.2-0.4 0.4l-2.6 4.3c-0.3 0.5-1.2 0.5-1.4-0.1l-2.2-4.4q-0.1-0.2-0.3-0.4l-4.3-2.5c-0.5-0.3-0.5-1.2 0.1-1.5l4.5-2.2q0.2-0.1 0.4-0.3l2.6-4.4c0.4-0.5 1.2-0.5 1.5 0.1l2.1 4.5q0.1 0.2 0.3 0.3z"/>
			</g>
		</g>
		<g id="&lt;Group&gt;">
			<g id="&lt;Group&gt;">
				<path id="&lt;Path&gt;" class="s1" d="m1362.3 127.8l4.2 2.5c0.6 0.4 0.5 1.2-0.1 1.5l-4.5 2.2q-0.2 0.2-0.3 0.4l-2.7 4.3c-0.3 0.5-1.1 0.5-1.4-0.1l-2.2-4.4q-0.1-0.2-0.3-0.4l-4.3-2.5c-0.5-0.3-0.5-1.2 0.1-1.5l4.6-2.2q0.2-0.1 0.3-0.3l2.6-4.4c0.4-0.5 1.2-0.5 1.5 0.1l2.2 4.5q0.1 0.2 0.3 0.3z"/>
			</g>
		</g>
		<g id="&lt;Group&gt;">
			<g id="&lt;Group&gt;">
				<path id="&lt;Path&gt;" class="s1" d="m873.9 925.7l5 2.9c0.6 0.4 0.6 1.3-0.1 1.7l-5.3 2.7q-0.2 0.1-0.4 0.3l-3 5.1c-0.4 0.7-1.4 0.6-1.7 0l-2.6-5.2q-0.1-0.3-0.3-0.4l-5-2.9c-0.7-0.4-0.6-1.4 0-1.7l5.3-2.7q0.3-0.1 0.4-0.4l3-5.1c0.4-0.6 1.4-0.6 1.7 0.1l2.6 5.2q0.1 0.2 0.4 0.4z"/>
			</g>
		</g>
		<g id="&lt;Group&gt;">
			<g id="&lt;Group&gt;">
				<path id="&lt;Path&gt;" class="s1" d="m1396.9 563.1l5 2.9c0.6 0.4 0.6 1.4-0.1 1.7l-5.3 2.7q-0.2 0.1-0.4 0.4l-3 5.1c-0.4 0.6-1.4 0.6-1.7-0.1l-2.6-5.2q-0.1-0.2-0.3-0.4l-5-2.9c-0.7-0.4-0.6-1.3 0-1.7l5.3-2.7q0.3-0.1 0.4-0.3l3-5.1c0.4-0.7 1.4-0.6 1.7 0l2.6 5.2q0.1 0.3 0.4 0.4z"/>
			</g>
		</g>
		<g id="&lt;Group&gt;">
			<g id="&lt;Group&gt;">
				<path id="&lt;Path&gt;" class="s1" d="m106.1 607.6l4 2.4c0.5 0.3 0.5 1.1 0 1.4l-4.3 2.1q-0.2 0.1-0.3 0.3l-2.5 4.1c-0.4 0.5-1.1 0.5-1.4 0l-2-4.3q-0.1-0.2-0.3-0.3l-4.1-2.4c-0.5-0.3-0.4-1.1 0.1-1.3l4.3-2.2q0.2-0.1 0.3-0.3l2.5-4c0.3-0.6 1.1-0.6 1.4 0l2 4.2q0.1 0.2 0.3 0.3z"/>
			</g>
		</g>
		<g id="&lt;Group&gt;">
			<g id="&lt;Group&gt;">
				<path id="&lt;Path&gt;" class="s1" d="m531.4 905l4 2.4c0.5 0.4 0.5 1.1-0.1 1.4l-4.2 2.1q-0.2 0.1-0.4 0.3l-2.5 4.1c-0.3 0.5-1.1 0.5-1.3 0l-2.1-4.2q-0.1-0.2-0.3-0.4l-4-2.4c-0.5-0.3-0.5-1 0.1-1.3l4.3-2.2q0.2-0.1 0.3-0.3l2.5-4c0.3-0.6 1.1-0.5 1.3 0l2.1 4.2q0.1 0.2 0.3 0.3z"/>
			</g>
		</g>
		<g id="&lt;Group&gt;">
			<g id="&lt;Group&gt;">
				<path id="&lt;Path&gt;" class="s1" d="m1298.2 807.2l4 2.4c0.5 0.3 0.5 1.1-0.1 1.4l-4.3 2.1q-0.2 0.1-0.3 0.3l-2.5 4.1c-0.3 0.5-1.1 0.5-1.3-0.1l-2.1-4.2q-0.1-0.2-0.3-0.3l-4-2.4c-0.5-0.3-0.5-1.1 0.1-1.4l4.2-2.1q0.2-0.1 0.4-0.3l2.5-4.1c0.3-0.5 1.1-0.5 1.3 0.1l2.1 4.2q0.1 0.2 0.3 0.3z"/>
			</g>
		</g>
		<g id="&lt;Group&gt;">
			<g id="&lt;Group&gt;">
				<path id="&lt;Path&gt;" class="s1" d="m1213.1 902.2l4 2.4c0.5 0.3 0.5 1.1-0.1 1.4l-4.2 2.1q-0.2 0.1-0.4 0.3l-2.5 4.1c-0.3 0.5-1.1 0.5-1.3-0.1l-2.1-4.2q-0.1-0.2-0.3-0.3l-4-2.4c-0.5-0.3-0.5-1.1 0.1-1.4l4.3-2.1q0.2-0.1 0.3-0.3l2.5-4.1c0.3-0.5 1.1-0.5 1.3 0.1l2.1 4.2q0.1 0.2 0.3 0.3z"/>
			</g>
		</g>
		<g id="&lt;Group&gt;">
			<g id="&lt;Group&gt;">
				<path id="&lt;Path&gt;" class="s1" d="m1299.1 290.3l4.4 2.6c0.5 0.4 0.5 1.2-0.1 1.5l-4.7 2.3q-0.2 0.1-0.3 0.3l-2.7 4.5c-0.4 0.5-1.2 0.5-1.5-0.1l-2.2-4.6q-0.1-0.2-0.3-0.3l-4.4-2.6c-0.5-0.3-0.5-1.2 0.1-1.5l4.6-2.3q0.3-0.1 0.4-0.3l2.7-4.4c0.3-0.6 1.2-0.6 1.5 0l2.2 4.6q0.1 0.2 0.3 0.3z"/>
			</g>
		</g>
	</g>
	<g id="Stars">
		<g id="&lt;Group&gt;">
			<g id="&lt;Group&gt;">
				<g id="&lt;Group&gt;">
					<path id="&lt;Path&gt;" class="s2" d="m1159.5 366.4l2.1 1.3c0.3 0.2 0.3 0.6 0 0.7l-2.1 1q-0.1 0.1-0.2 0.2l-1.2 2c-0.2 0.3-0.6 0.2-0.7 0l-1.1-2.2q-0.1-0.1-0.2-0.2l-2-1.3c-0.3-0.1-0.3-0.5 0-0.7l2.1-1q0.1 0 0.2-0.1l1.2-2.1c0.1-0.2 0.5-0.2 0.7 0.1l1.1 2.2q0 0.1 0.1 0.1z"/>
				</g>
			</g>
			<g id="&lt;Group&gt;">
				<g id="&lt;Group&gt;">
					<path id="&lt;Path&gt;" class="s2" d="m1161.2 668.7l2 1.3c0.3 0.2 0.3 0.6 0 0.7l-2.1 1q-0.1 0.1-0.2 0.2l-1.2 2c-0.1 0.3-0.5 0.3-0.7 0l-1.1-2.2q0-0.1-0.1-0.2l-2.1-1.2c-0.3-0.2-0.3-0.6 0-0.7l2.2-1.1q0.1 0 0.1-0.1l1.2-2c0.2-0.3 0.6-0.3 0.7 0l1.1 2.2q0.1 0.1 0.2 0.1z"/>
				</g>
			</g>
			<g id="&lt;Group&gt;">
				<g id="&lt;Group&gt;">
					<path id="&lt;Path&gt;" class="s2" d="m1244.2 530.2l4 2.4c0.6 0.3 0.5 1.1 0 1.4l-4.3 2.1q-0.2 0.1-0.3 0.3l-2.5 4.1c-0.4 0.5-1.1 0.5-1.4-0.1l-2-4.2q-0.1-0.2-0.3-0.3l-4-2.4c-0.6-0.3-0.5-1.1 0-1.4l4.3-2.1q0.2-0.1 0.3-0.3l2.5-4.1c0.3-0.5 1.1-0.5 1.4 0.1l2 4.2q0.1 0.2 0.3 0.3z"/>
				</g>
			</g>
			<g id="&lt;Group&gt;">
				<g id="&lt;Group&gt;">
					<path id="&lt;Path&gt;" class="s2" d="m1137.2 389.1l4.1 2.5c0.5 0.3 0.5 1-0.1 1.3l-4.1 2q-0.2 0.1-0.3 0.3l-2.4 3.9c-0.3 0.6-1 0.5-1.3 0l-2.2-4.3q-0.1-0.2-0.3-0.3l-4-2.5c-0.5-0.3-0.5-1.1 0-1.4l4.2-2q0.2-0.1 0.3-0.2l2.3-4c0.3-0.5 1.1-0.5 1.4 0.1l2.1 4.2q0.1 0.2 0.3 0.4z"/>
				</g>
			</g>
			<g id="&lt;Group&gt;">
				<g id="&lt;Group&gt;">
					<path id="&lt;Path&gt;" class="s2" d="m187 506.7l3.1 1.9c0.4 0.3 0.4 0.9 0 1.1l-3.2 1.4q-0.2 0.1-0.3 0.3l-1.8 2.9c-0.2 0.4-0.8 0.4-1 0l-1.6-3.3q-0.1-0.1-0.2-0.2l-3.1-2c-0.4-0.2-0.3-0.8 0.1-1l3.1-1.5q0.2-0.1 0.3-0.2l1.8-3c0.2-0.4 0.8-0.3 1 0.1l1.6 3.2q0.1 0.2 0.2 0.3z"/>
				</g>
			</g>
			<g id="&lt;Group&gt;">
				<g id="&lt;Group&gt;">
					<path id="&lt;Path&gt;" class="s2" d="m253.3 575.9l2.9 1.7c0.4 0.2 0.4 0.8 0.1 1l-3 1.5q-0.1 0.1-0.2 0.2l-1.5 2.9c-0.3 0.4-0.8 0.3-1 0l-1.7-3q0-0.2-0.2-0.3l-2.9-1.6c-0.4-0.3-0.4-0.8 0-1l2.9-1.5q0.1-0.1 0.2-0.2l1.6-2.9c0.2-0.4 0.7-0.4 0.9 0l1.7 3q0 0.1 0.2 0.2z"/>
				</g>
			</g>
			<g id="&lt;Group&gt;">
				<g id="&lt;Group&gt;">
					<path id="&lt;Path&gt;" class="s2" d="m341.9 346.6l2.9 1.7c0.4 0.2 0.4 0.8 0.1 1l-3 1.5q-0.1 0.1-0.2 0.2l-1.6 2.9c-0.2 0.4-0.7 0.4-0.9 0l-1.7-3q0-0.2-0.2-0.2l-2.9-1.7c-0.4-0.2-0.4-0.8 0-1l2.9-1.5q0.1-0.1 0.2-0.2l1.6-2.9c0.2-0.4 0.7-0.4 0.9 0l1.7 3q0 0.1 0.2 0.2z"/>
				</g>
			</g>
			<g id="&lt;Group&gt;">
				<g id="&lt;Group&gt;">
					<path id="&lt;Path&gt;" class="s2" d="m571.8 298l2.9 1.7c0.4 0.2 0.4 0.8 0 1l-2.9 1.5q-0.1 0.1-0.2 0.2l-1.6 2.9c-0.2 0.4-0.7 0.4-0.9 0l-1.7-3q-0.1-0.1-0.2-0.2l-3-1.7c-0.3-0.2-0.3-0.8 0-1l3-1.5q0.1-0.1 0.2-0.2l1.5-2.9c0.2-0.4 0.8-0.4 1 0l1.6 3q0.1 0.1 0.3 0.2z"/>
				</g>
			</g>
			<g id="&lt;Group&gt;">
				<g id="&lt;Group&gt;">
					<path id="&lt;Path&gt;" class="s2" d="m231.7 587l5.8 3.4c0.8 0.4 0.8 1.5 0.1 1.9l-5.8 3q-0.3 0.2-0.5 0.5l-3.1 5.7c-0.4 0.7-1.5 0.7-1.9-0.1l-3.2-5.9q-0.2-0.3-0.5-0.4l-5.9-3.4c-0.7-0.4-0.7-1.5 0-1.9l5.8-3q0.3-0.2 0.4-0.4l3.2-5.8c0.4-0.7 1.5-0.7 1.9 0.1l3.2 5.9q0.2 0.3 0.5 0.4z"/>
				</g>
			</g>
			<g id="&lt;Group&gt;">
				<g id="&lt;Group&gt;">
					<path id="&lt;Path&gt;" class="s2" d="m613.2 267.3l5.9 3.4c0.7 0.4 0.8 1.5 0 1.9l-5.8 3q-0.3 0.2-0.4 0.4l-3.1 5.8c-0.4 0.7-1.5 0.7-1.9-0.1l-3.3-5.9q-0.2-0.3-0.4-0.5l-5.9-3.3c-0.8-0.5-0.8-1.5 0-1.9l5.8-3.1q0.2-0.1 0.4-0.4l3.1-5.7c0.4-0.8 1.5-0.7 1.9 0l3.3 6q0.1 0.2 0.4 0.4z"/>
				</g>
			</g>
			<g id="&lt;Group&gt;">
				<g id="&lt;Group&gt;">
					<path id="&lt;Path&gt;" class="s2" d="m529.4 838l5.8 3.4c0.8 0.4 0.8 1.5 0.1 1.9l-5.8 3q-0.3 0.1-0.5 0.4l-3.1 5.7c-0.4 0.8-1.5 0.8-1.9 0l-3.3-5.9q-0.1-0.3-0.4-0.5l-5.9-3.3c-0.7-0.5-0.7-1.6 0-2l5.8-3q0.3-0.1 0.4-0.4l3.2-5.7c0.4-0.8 1.4-0.7 1.9 0l3.2 5.9q0.2 0.3 0.5 0.5z"/>
				</g>
			</g>
			<g id="&lt;Group&gt;">
				<g id="&lt;Group&gt;">
					<path id="&lt;Path&gt;" class="s2" d="m1075.3 733.7l5.9 3.4c0.8 0.4 0.8 1.5 0 1.9l-5.8 3q-0.2 0.2-0.4 0.4l-3.1 5.8c-0.4 0.7-1.5 0.7-1.9-0.1l-3.3-5.9q-0.1-0.3-0.4-0.4l-5.9-3.4c-0.8-0.4-0.8-1.5 0-1.9l5.8-3q0.3-0.2 0.4-0.5l3.1-5.7c0.4-0.7 1.5-0.7 1.9 0.1l3.3 5.9q0.2 0.3 0.4 0.4z"/>
				</g>
			</g>
			<g id="&lt;Group&gt;">
				<g id="&lt;Group&gt;">
					<path id="&lt;Path&gt;" class="s2" d="m994.6 299.4l3.9 2.2c0.5 0.3 0.5 1 0 1.2l-3.8 2q-0.2 0.1-0.3 0.3l-2 3.7c-0.3 0.5-1 0.5-1.3 0l-2.1-3.9q-0.1-0.2-0.3-0.3l-3.8-2.2c-0.5-0.3-0.5-1 0-1.2l3.8-2q0.2-0.1 0.3-0.3l2-3.7c0.3-0.5 1-0.5 1.2 0l2.2 3.9q0.1 0.2 0.2 0.3z"/>
				</g>
			</g>
		</g>
	</g>
	<g id="Portals">
		<g id="&lt;Group&gt;">
			<g id="&lt;Group&gt;">
				<path id="&lt;Path&gt;" class="s3" d="m572.6 207c-23.8 7.7-46.7 4.2-51.1-7.8-4.4-12 11.4-28.1 35.2-35.8 23.9-7.7 46.8-4.2 51.2 7.8 4.4 12-11.4 28-35.3 35.8z"/>
			</g>
			<g id="&lt;Group&gt;">
				<path id="&lt;Path&gt;" class="s4" d="m559.1 170c21.7-7 42.7-4.7 49.5 4.8q-0.1-1.8-0.7-3.6c-4.4-12-27.3-15.5-51.2-7.8-23.8 7.7-39.6 23.8-35.2 35.8q0.6 1.6 1.6 3c-0.5-11.5 14.4-25.2 36-32.2z"/>
			</g>
		</g>
		<g id="&lt;Group&gt;">
			<g id="&lt;Group&gt;">
				<path id="&lt;Path&gt;" class="s3" d="m1096.3 781.8c34.5-32.3 79.4-40.6 100.2-18.4 20.8 22.1 9.6 66.3-24.9 98.6-34.5 32.3-79.4 40.6-100.2 18.4-20.8-22.1-9.7-66.3 24.9-98.6z"/>
			</g>
			<g id="&lt;Group&gt;">
				<path id="&lt;Path&gt;" class="s4" d="m1160.3 849.7c-31.5 29.5-71.5 38.9-94.1 23.6q2.1 3.9 5.2 7.1c20.8 22.2 65.7 13.9 100.2-18.4 34.5-32.3 45.7-76.5 24.9-98.6q-2.8-3-6.1-5.2c13.2 23.6 1 62.4-30.1 91.5z"/>
			</g>
		</g>
		<g id="&lt;Group&gt;">
			<g id="&lt;Group&gt;">
				<path id="&lt;Path&gt;" class="s3" d="m819.6 315.3c-62.6-10.7-108.2-38.5-101.9-62.1 6.3-23.7 62.1-34.2 124.7-23.5 62.6 10.6 108.2 38.5 102 62.1-6.3 23.6-62.2 34.1-124.8 23.5z"/>
			</g>
			<g id="&lt;Group&gt;">
				<path id="&lt;Path&gt;" class="s4" d="m838.7 242.6c57 9.7 100 33.7 102.4 55.8q2.3-3.1 3.3-6.6c6.2-23.6-39.4-51.5-102-62.1-62.6-10.7-118.4-0.2-124.7 23.5q-0.9 3.1-0.5 6.3c14.1-18.9 65-26.5 121.5-16.9z"/>
			</g>
			<g id="&lt;Group&gt;">
				<g id="&lt;Group&gt;">
					<path id="&lt;Path&gt;" class="s4" d="m826.2 268.7c14.3 7.5 23.9 21.7 37.2 30.9 8.8 6.1 19.5 10.3 25.4 19.3-0.6-5.3-4.1-9.6-7.7-13.5-10-10.8-21.3-20.5-33.5-28.8-6.3-4.3-13.3-8.3-20.9-8.3"/>
				</g>
				<g id="&lt;Group&gt;" style="opacity: .2">
					<path id="&lt;Path&gt;" class="s5" d="m826.2 268.7c14.3 7.5 23.9 21.7 37.2 30.9 8.8 6.1 19.5 10.3 25.4 19.3-0.6-5.3-4.1-9.6-7.7-13.5-10-10.8-21.3-20.5-33.5-28.8-6.3-4.3-13.3-8.3-20.9-8.3"/>
				</g>
				<g id="&lt;Group&gt;">
					<path id="&lt;Path&gt;" class="s4" d="m894.4 75.2c-0.3-2.4-0.7-4.8-2.3-6.5-2.1-2.4-5.7-2.7-8.9-2.4-13.7 1-31 21.2-39.4 32.1l1.4 60.1c37.4-19.5 52.4-54.4 49.2-83.3z"/>
				</g>
				<g id="&lt;Group&gt;" style="opacity: .2">
					<path id="&lt;Path&gt;" class="s5" d="m894.4 75.2c-0.3-2.4-0.7-4.8-2.3-6.5-2.1-2.4-5.7-2.7-8.9-2.4-13.7 1-31 21.2-39.4 32.1l1.4 60.1c37.4-19.5 52.4-54.4 49.2-83.3z"/>
				</g>
				<g id="&lt;Group&gt;">
					<path id="&lt;Path&gt;" class="s4" d="m835.3 198.8c7.2-2.4 14.3-4.6 21.4-5.8 7.1-1.1 14.3-4.1 21.3-5.8 9.1-2.1 17.6-6.2 26.3-9.5 8.7-3.4 18-6 27.3-5-6.9-3.5-14.7-4.7-22.4-4.7-7.6 0-15.3 1.2-22.8 2.4-10.6 1.7-21.3 3.4-30.8 8.2-9.5 4.8-18.3 9.7-20.3 20.2z"/>
				</g>
				<g id="&lt;Group&gt;" style="opacity: .2">
					<path id="&lt;Path&gt;" class="s5" d="m835.3 198.8c7.2-2.4 14.3-4.6 21.4-5.8 7.1-1.1 14.3-4.1 21.3-5.8 9.1-2.1 17.6-6.2 26.3-9.5 8.7-3.4 18-6 27.3-5-6.9-3.5-14.7-4.7-22.4-4.7-7.6 0-15.3 1.2-22.8 2.4-10.6 1.7-21.3 3.4-30.8 8.2-9.5 4.8-18.3 9.7-20.3 20.2z"/>
				</g>
				<g id="&lt;Group&gt;">
					<path id="&lt;Path&gt;" class="s4" d="m786.9 200.8c-9.3-13.5-27.7-17.5-43.6-21.4 21.1 18.2 42.9 41.2 59.3 63.9 3.6-11-4.1-25.4-15.7-42.5z"/>
				</g>
				<g id="&lt;Group&gt;" style="opacity: .2">
					<path id="&lt;Path&gt;" class="s5" d="m786.9 200.8c-9.3-13.5-27.7-17.5-43.6-21.4 21.1 18.2 42.9 41.2 59.3 63.9 3.6-11-4.1-25.4-15.7-42.5z"/>
				</g>
				<g id="&lt;Group&gt;">
					<path id="&lt;Path&gt;" class="s4" d="m798.8 284.8c-19-5.5-34.7-27.2-53.5-33.4 21.7-1 48.7 12 53.5 33.4z"/>
				</g>
				<g id="&lt;Group&gt;" style="opacity: .2">
					<path id="&lt;Path&gt;" class="s5" d="m798.8 284.8c-19-5.5-34.7-27.2-53.5-33.4 21.7-1 48.7 12 53.5 33.4z"/>
				</g>
				<g id="&lt;Group&gt;">
					<path id="&lt;Path&gt;" class="s4" d="m817.7 240.9c10.7-0.9 21.4 1.9 31.1 6.2 9.8 4.4 18.7 10.3 27.6 16.2 0.8-6.9-3.2-13.3-7-19.1-2.9-4.4-5.8-8.7-9.5-12.5-3.7-3.7-8.2-6.8-13.2-7.9-6.2-1.4-12.8 0.2-18.1 3.7-5.2 3.5-8.6 7.5-10.9 13.4z"/>
				</g>
				<g id="&lt;Group&gt;">
					<path id="&lt;Path&gt;" class="s4" d="m800.2 311c0 0 9.5-64.5 19.9-100.1 10.5-35.6 20.6-76 20.6-76l4.1 1.1c0 0-22 70.2-30.6 113.9-8.6 43.6-5.8 63.2-5.8 63.2z"/>
				</g>
				<g id="&lt;Group&gt;">
					<path id="&lt;Path&gt;" class="s4" d="m890.6 70.6q0 0.1-0.5 0.7-0.5 0.7-1.3 1.8c-1.2 1.6-2.9 3.8-5 6.7-4.2 5.6-9.7 13.6-15.2 22.8-5.4 9.3-9.8 17.9-12.8 24.3-1.5 3.2-2.7 5.7-3.5 7.5q-0.5 1.3-0.9 2.1-0.3 0.7-0.4 0.7 0 0 0.3-0.7 0.3-0.9 0.8-2.2c0.7-1.8 1.8-4.4 3.2-7.6 2.9-6.4 7.3-15.2 12.7-24.4 5.5-9.2 11.1-17.2 15.4-22.8 2.1-2.8 3.9-5.1 5.1-6.6q0.9-1 1.5-1.7 0.5-0.6 0.6-0.6z"/>
				</g>
				<g id="&lt;Group&gt;">
					<path id="&lt;Path&gt;" class="s4" d="m833.8 167.6c-12.3-13.6-15.8-32.5-10.7-50.1 3.6-12.3 11.4-22.9 19.5-32.8 0.7-0.9 1.5-1.8 2.6-2 1.5-0.3 2.9 0.9 3.9 2.1 8.9 10.1 11.5 24.3 10.8 37.7-0.4 9-2.1 17.9-6.1 25.9-3.9 8-11.9 15.5-20 19.2z"/>
				</g>
				<g id="&lt;Group&gt;">
					<path id="&lt;Path&gt;" class="s3" d="m833.8 167.6q0 0 0.2-0.7 0.3-0.9 0.7-2.1c0.6-1.9 1.4-4.5 2.4-7.8 1.9-6.6 4.2-15.9 5.9-26.2 1.6-10.4 2.6-19.8 3.3-26.7 0.3-3.3 0.6-6.1 0.7-8.1q0.2-1.3 0.3-2.2 0.1-0.7 0.1-0.7 0 0 0 0.7 0 0.9-0.1 2.3c-0.1 1.9-0.3 4.7-0.5 8.1-0.6 6.8-1.5 16.3-3.2 26.7-1.6 10.4-4 19.7-6 26.2-1.1 3.3-2 5.9-2.7 7.7q-0.4 1.3-0.8 2.1-0.3 0.7-0.3 0.7z"/>
				</g>
				<g id="&lt;Group&gt;" style="opacity: .2">
					<path id="&lt;Path&gt;" class="s5" d="m817.7 240.9c10.7-0.9 21.4 1.9 31.1 6.2 9.8 4.4 18.7 10.3 27.6 16.2 0.8-6.9-3.2-13.3-7-19.1-2.9-4.4-5.8-8.7-9.5-12.5-3.7-3.7-8.2-6.8-13.2-7.9-6.2-1.4-12.8 0.2-18.1 3.7-5.2 3.5-8.6 7.5-10.9 13.4z"/>
				</g>
				<g id="&lt;Group&gt;">
					<path id="&lt;Path&gt;" class="s4" d="m864.4 293.4q-0.1 0-0.6-0.4-0.6-0.5-1.4-1.3c-1.2-1.2-3-2.9-5.2-4.9q-1.7-1.5-3.7-3.3-2-1.7-4.4-3.6c-3.1-2.4-6.6-5.1-10.6-7.3-4-2.2-8.2-3.6-12.2-3.6-2-0.1-3.9-0.1-5.6 0.1-1.7 0.2-3.3 0.6-4.8 1-2.8 0.9-5 2.1-6.4 3-1.4 0.8-2.2 1.4-2.2 1.4q0-0.1 0.5-0.5 0.5-0.4 1.5-1.2c1.4-0.9 3.6-2.2 6.5-3.1 1.4-0.5 3.1-0.9 4.8-1.2 1.8-0.2 3.7-0.2 5.7-0.2 4.1 0 8.5 1.5 12.5 3.7 4.1 2.2 7.6 4.9 10.7 7.4q2.4 1.9 4.4 3.7 2 1.8 3.6 3.3c2.2 2.1 3.9 3.9 5.1 5.1q0.8 0.8 1.3 1.4 0.5 0.5 0.5 0.5z"/>
				</g>
				<g id="&lt;Group&gt;">
					<path id="&lt;Path&gt;" class="s4" d="m787.1 271.5c0-0.1 0.4 0.2 1.1 0.6 0.7 0.5 1.6 1.2 2.7 2.2 2.3 2 5.1 5.1 7.4 9 2.4 3.9 3.8 7.8 4.4 10.7 0.4 1.4 0.6 2.6 0.7 3.4 0.1 0.9 0.1 1.3 0.1 1.3-0.2 0.1-0.4-1.8-1.2-4.6-0.8-2.8-2.3-6.6-4.6-10.5-2.3-3.8-5-6.9-7.1-8.9-2.1-2.1-3.6-3.1-3.5-3.2z"/>
				</g>
				<g id="&lt;Group&gt;">
					<path id="&lt;Path&gt;" class="s4" d="m762 194.4q0.1 0 0.8 0.5 0.8 0.6 2.1 1.4 1.3 1 3.2 2.4c1.3 0.9 2.6 2.1 4.1 3.3 6 5 13.8 12.7 20.6 22.6 3.3 5 6.2 9.9 8.5 14.5 2.2 4.7 4 9 5.4 12.7 1.3 3.7 2.3 6.7 2.9 8.8q0.5 1.5 0.8 2.4 0.2 0.8 0.2 0.9-0.1 0-0.4-0.8-0.3-0.9-0.9-2.4c-0.7-2.1-1.7-5.1-3.1-8.7-1.4-3.7-3.2-7.9-5.5-12.6-2.3-4.6-5.2-9.5-8.5-14.4-6.8-9.8-14.4-17.6-20.3-22.6-1.5-1.3-2.8-2.5-4-3.4q-1.9-1.4-3.2-2.4-1.2-1-2-1.6-0.7-0.5-0.7-0.6z"/>
				</g>
				<g id="&lt;Group&gt;">
					<path id="&lt;Path&gt;" class="s4" d="m849.3 237.9c0 0.1-0.6-0.1-1.5-0.6q-0.7-0.3-1.7-0.8c-0.6-0.3-1.4-0.5-2.2-0.8-3.4-1.2-8.5-2.3-13.9-1-2.7 0.5-5.1 1.6-7.1 2.8-2.1 1.2-3.8 2.5-5.2 3.7-2.7 2.4-3.9 4.4-4 4.3 0 0 0.3-0.5 0.8-1.4 0.6-0.8 1.5-2 2.9-3.3 1.3-1.2 3-2.6 5.1-3.9 2.1-1.2 4.6-2.3 7.4-2.9 5.5-1.3 10.8-0.1 14.1 1.2 0.9 0.4 1.7 0.6 2.3 1q0.9 0.5 1.6 0.9c0.9 0.5 1.4 0.8 1.4 0.8z"/>
				</g>
				<g id="&lt;Group&gt;">
					<path id="&lt;Path&gt;" class="s4" d="m887.3 175.3q0 0-0.9 0.2-0.9 0.2-2.4 0.6c-2.1 0.5-5.2 1.2-9 2.3-3.7 1-8.2 2.4-13 4.2-4.8 1.8-10 3.9-15.1 6.9-2.6 1.6-5 3.2-6.9 5.2q-2.8 3.1-5.4 6c-3.4 3.9-6.3 7.5-8.6 10.6-2.2 3.2-3.9 5.9-4.9 7.8-1 2-1.5 3.1-1.6 3q0 0 0.3-0.8 0.3-0.8 1.1-2.3c0.9-1.9 2.5-4.7 4.7-7.9 2.2-3.3 5.1-6.9 8.5-10.8q2.6-2.9 5.4-6.1c2-2 4.4-3.7 7-5.3 5.2-3 10.4-5.2 15.3-7 4.9-1.7 9.3-3 13.1-4 3.8-1 6.9-1.7 9-2.1q1.5-0.3 2.5-0.4 0.9-0.2 0.9-0.1z"/>
				</g>
				<g id="&lt;Group&gt;">
					<path id="&lt;Path&gt;" class="s4" d="m817.2 231c-0.1 0-0.1-0.6-0.1-1.7q0-1.9 0.1-4.7c0-3.9-0.1-9.4-0.8-15.3-0.6-5.9-1.8-11.2-2.7-15.1q-0.6-2.7-1-4.5c-0.3-1.1-0.4-1.7-0.4-1.7 0.1 0 0.3 0.6 0.6 1.6 0.3 1.1 0.8 2.6 1.3 4.5 1 3.8 2.3 9.1 2.9 15.1 0.7 6 0.7 11.5 0.6 15.4-0.1 2-0.2 3.6-0.3 4.7-0.1 1.1-0.2 1.7-0.2 1.7z"/>
				</g>
				<g id="&lt;Group&gt;">
					<path id="&lt;Path&gt;" class="s4" d="m824.7 186.6c1-7.5 0-15.1-2.1-22.3-5.8-19.7-20.9-36.4-39.8-44.4q15.1 36.7 30.3 73.4l3.3 12.7c5.1-5.5 7.3-12 8.3-19.4z"/>
				</g>
				<g id="&lt;Group&gt;" style="opacity: .2">
					<path id="&lt;Path&gt;" class="s5" d="m824.7 186.6c1-7.5 0-15.1-2.1-22.3-5.8-19.7-20.9-36.4-39.8-44.4q15.1 36.7 30.3 73.4l3.3 12.7c5.1-5.5 7.3-12 8.3-19.4z"/>
				</g>
			</g>
		</g>
		<g id="&lt;Group&gt;">
			<g id="&lt;Group&gt;">
				<g id="&lt;Group&gt;">
					<path id="&lt;Path&gt;" class="s3" d="m424.5 778.7c35.2 35.3 45.5 82.3 22.9 105-22.7 22.7-69.6 12.5-104.9-22.8-35.3-35.3-45.5-82.3-22.9-105 22.6-22.7 69.6-12.5 104.9 22.8z"/>
				</g>
				<g id="&lt;Group&gt;">
					<path id="&lt;Path&gt;" class="s4" d="m355.1 848.6c-32.2-32.2-43.5-74.1-28.1-98.4q-4 2.4-7.4 5.7c-22.6 22.7-12.4 69.7 22.9 105 35.3 35.3 82.2 45.5 104.9 22.8q3-3 5.2-6.6c-24.4 14.7-65.7 3.3-97.5-28.5z"/>
				</g>
			</g>
			<g id="&lt;Group&gt;">
				<g id="&lt;Group&gt;">
					<path id="&lt;Path&gt;" class="s4" d="m391.1 805.2l28.5-30.3 3.4 3.4c0 0-24.1 28-24.5 34.7z"/>
				</g>
				<g id="&lt;Group&gt;">
					<g id="&lt;Group&gt;">
						<g id="&lt;Group&gt;">
							<path id="&lt;Path&gt;" class="s2" d="m344.6 787.8l-39 58.2 59.1 59.2 58.8-44.9z"/>
						</g>
					</g>
				</g>
				<g id="&lt;Group&gt;">
					<path id="&lt;Path&gt;" class="s2" d="m365.1 904.8c-5.3 5.3-22.7-3.8-38.9-20.3-16.1-16.5-24.9-34.1-19.6-39.3 5.4-5.3 22.8 3.8 39 20.3 16.1 16.5 24.9 34.1 19.5 39.3z"/>
				</g>
				<g id="&lt;Group&gt;" style="opacity: .3">
					<path id="&lt;Path&gt;" class="s5" d="m365.1 904.8c-5.3 5.3-22.7-3.8-38.9-20.3-16.1-16.5-24.9-34.1-19.6-39.3 5.4-5.3 22.8 3.8 39 20.3 16.1 16.5 24.9 34.1 19.5 39.3z"/>
				</g>
				<g id="&lt;Group&gt;">
					<path id="&lt;Path&gt;" class="s2" d="m425.3 864.8c-4.9 4.4-29.6 0.6-56.6-24.2-26.9-24.8-42.2-43.4-28.5-58 11.3-11.9 33.9-2.8 60.9 22 26.9 24.8 40.2 45.6 24.2 60.2z"/>
				</g>
				<g id="&lt;Group&gt;">
					<g id="&lt;Group&gt;">
						<path id="&lt;Path&gt;" class="s3" d="m364.7 905.2q0-0.1 1-0.9 1-0.8 2.8-2.3c2.6-2 6.2-4.9 10.8-8.6 9.4-7.3 22.7-17.8 38.4-30.1 1.2-1.3 1.2-3.5 0.8-5.5-0.4-2-1.1-3.9-2-5.9-1.8-3.8-4.2-7.6-6.9-11.3-5.3-7.3-11.8-14.3-19-21-7.8-7.3-15.9-13.7-24.3-18.9-4.2-2.5-8.4-4.8-12.7-6.4-2.2-0.7-4.3-1.4-6.5-1.7-2.1-0.2-4.4-0.1-5.8 1.3h0.1c-10.7 15.6-19.5 28.6-25.8 37.8-3.1 4.5-5.6 8.1-7.3 10.6q-1.2 1.8-2 2.8-0.6 0.9-0.7 0.9 0 0 0.6-1 0.7-1 1.9-2.8c1.6-2.6 4-6.2 7-10.8 6.2-9.2 15-22.4 25.5-38.1h0.1c0.8-0.9 1.9-1.4 3.1-1.6 1.1-0.2 2.3-0.1 3.4 0 2.3 0.3 4.5 0.9 6.7 1.7 4.4 1.6 8.7 3.9 12.9 6.5 8.5 5.1 16.7 11.6 24.5 18.9 7.2 6.8 13.7 13.8 19.1 21.3 2.7 3.7 5.1 7.5 7 11.4 0.9 2 1.7 4 2.1 6.2 0.3 2 0.4 4.5-1.1 6.2l-0.1 0.1c-15.8 12.3-29.2 22.6-38.6 29.9-4.7 3.5-8.4 6.4-11 8.4q-1.8 1.4-2.9 2.2-1 0.7-1.1 0.7z"/>
					</g>
				</g>
			</g>
		</g>
	</g>
	<g id="Texts">
		<g id="&lt;Group&gt;">
			<path id="&lt;Compound Path&gt;" class="s3" d="m546 782.4v9.7h-35.6v-44.4h34.8v9.7h-22.4v7.5h19.7v9.4h-19.7v8.1z"/>
			<path id="&lt;Compound Path&gt;" fill-rule="evenodd" class="s3" d="m572.4 780.3h-6.9v11.8h-12.5v-44.4h20.3c12.1 0 19.7 6.3 19.7 16.4 0 6.5-3.2 11.4-8.7 14l9.5 14h-13.4zm0.1-22.7h-6.9v13h6.9c5.2 0 7.8-2.4 7.8-6.5 0-4.1-2.6-6.5-7.8-6.5z"/>
			<path id="&lt;Compound Path&gt;" fill-rule="evenodd" class="s3" d="m619.2 780.3h-6.8v11.8h-12.5v-44.4h20.2c12.1 0 19.7 6.3 19.7 16.4 0 6.5-3.1 11.4-8.6 14l9.5 14h-13.4zm0.1-22.7h-6.9v13h6.9c5.2 0 7.8-2.4 7.8-6.5 0-4.1-2.6-6.5-7.8-6.5z"/>
			<path id="&lt;Compound Path&gt;" fill-rule="evenodd" class="s3" d="m644.5 769.9c0-13.3 10.4-23.1 24.6-23.1 14.2 0 24.7 9.8 24.7 23.1 0 13.3-10.5 23-24.7 23-14.2 0-24.6-9.7-24.6-23zm36.6 0c0-7.7-5.3-12.7-12-12.7-6.7 0-12 5-12 12.7 0 7.6 5.3 12.7 12 12.7 6.7 0 12-5.1 12-12.7z"/>
			<path id="&lt;Compound Path&gt;" fill-rule="evenodd" class="s3" d="m719.7 780.3h-6.8v11.8h-12.6v-44.4h20.3c12.1 0 19.7 6.3 19.7 16.4 0 6.5-3.2 11.4-8.7 14l9.6 14h-13.4zm0.1-22.7h-7v13h7c5.2 0 7.8-2.4 7.8-6.5 0-4.1-2.6-6.5-7.8-6.5z"/>
			<path id="&lt;Compound Path&gt;" fill-rule="evenodd" class="s3" d="m824.1 764.1c0 10.1-7.6 16.4-19.7 16.4h-7.8v11.6h-12.5v-44.4h20.3c12.1 0 19.7 6.3 19.7 16.4zm-12.7 0c0-4.1-2.6-6.5-7.8-6.5h-7v13h7c5.2 0 7.8-2.4 7.8-6.5z"/>
			<path id="&lt;Compound Path&gt;" fill-rule="evenodd" class="s3" d="m857.6 783.4h-18.7l-3.5 8.7h-12.8l19.6-44.4h12.3l19.7 44.4h-13.1zm-3.7-9.3l-5.7-14.2-5.7 14.2z"/>
			<path id="&lt;Compound Path&gt;" class="s3" d="m906.8 768.9h11.1v18.4c-5.2 3.7-12.2 5.6-18.6 5.6-14.2 0-24.5-9.5-24.5-23 0-13.5 10.3-23.1 24.7-23.1 8.3 0 15 2.9 19.4 8.1l-8 7.3c-3-3.4-6.5-5-10.8-5-7.6 0-12.6 5-12.6 12.7 0 7.5 5 12.7 12.5 12.7 2.4 0 4.6-0.5 6.8-1.5z"/>
			<path id="&lt;Compound Path&gt;" class="s3" d="m961.5 782.4v9.7h-35.6v-44.4h34.7v9.7h-22.3v7.5h19.7v9.4h-19.7v8.1z"/>
		</g>
		<g id="&lt;Group&gt;">
			<g id="&lt;Group&gt;">
				<g id="&lt;Group&gt;">
					<path id="&lt;Compound Path&gt;" fill-rule="evenodd" class="s2" d="m543.9 645.4h-107.5v-52.6l102.4-249h61.4v249h26.6v52.6h-26.6v66.8h-56.3zm0-52.6v-143.7h-1l-55.3 143.7z"/>
				</g>
				<g id="&lt;Group&gt;" style="opacity: .3">
					<path id="&lt;Compound Path&gt;" fill-rule="evenodd" class="s5" d="m543.9 645.4h-107.5v-52.6l102.4-249h61.4v249h26.6v52.6h-26.6v66.8h-56.3zm0-52.6v-143.7h-1l-55.3 143.7z"/>
				</g>
				<g id="&lt;Group&gt;">
					<path id="&lt;Compound Path&gt;" fill-rule="evenodd" class="s2" d="m518.3 645.4h-107.5v-52.6l102.3-249h61.5v249h26.6v52.6h-26.6v66.8h-56.3zm0-52.6v-143.7h-1.1l-55.2 143.7z"/>
				</g>
			</g>
			<g id="&lt;Group&gt;">
				<g id="&lt;Group&gt;">
					<path id="&lt;Compound Path&gt;" fill-rule="evenodd" class="s2" d="m671.8 693.3q-22-24.2-22-68.4v-193.7q0-44.2 22-68.5 22-24.2 63.4-24.2 41.5 0 63.5 24.2 22 24.3 22 68.5v193.7q0 44.2-22 68.4-22 24.2-63.5 24.2-41.4 0-63.4-24.2zm92.6-64.7v-201.1q0-36.3-29.2-36.3-29.1 0-29.1 36.3v201.1q0 36.3 29.1 36.3 29.2 0 29.2-36.3z"/>
				</g>
				<g id="&lt;Group&gt;" style="opacity: .3">
					<path id="&lt;Compound Path&gt;" fill-rule="evenodd" class="s5" d="m820.7 431.2v193.7q0 44.2-22 68.4-22 24.2-63.5 24.2-41.4 0-63.4-24.2-22-24.2-22-68.4v-193.7q0-44.2 22-68.5 22-24.2 63.4-24.2 41.5 0 63.5 24.2 22 24.3 22 68.5zm-56.3-3.7q0-36.3-29.2-36.3c-19.4 0-29.1 14.3-29.1 36.3v201.1c0 21.1 9.7 36.3 29.1 36.3q29.2 0 29.2-36.3z"/>
				</g>
				<g id="&lt;Group&gt;">
					<path id="&lt;Compound Path&gt;" fill-rule="evenodd" class="s2" d="m646.2 693.3q-22.1-24.2-22.1-68.4v-193.7q0-44.2 22.1-68.5 22-24.2 63.4-24.2 41.5 0 63.5 24.2 22 24.3 22 68.5v193.7q0 44.2-22 68.4-22 24.2-63.5 24.2-41.4 0-63.4-24.2zm92.6-64.8v-201q0-36.3-29.2-36.3-29.2 0-29.2 36.3v201q0 36.4 29.2 36.4 29.2 0 29.2-36.4z"/>
				</g>
			</g>
			<g id="&lt;Group&gt;">
				<g id="&lt;Group&gt;">
					<path id="&lt;Compound Path&gt;" fill-rule="evenodd" class="s2" d="m946.4 645.4h-107.5v-52.6l102.4-249h61.4v249h26.6v52.6h-26.6v66.8h-56.3zm0-52.6v-143.7h-1l-55.3 143.7z"/>
				</g>
				<g id="&lt;Group&gt;" style="opacity: .3">
					<path id="&lt;Compound Path&gt;" fill-rule="evenodd" class="s5" d="m946.4 645.4h-107.5v-52.6l102.4-249h61.4v249h26.6v52.6h-26.6v66.8h-56.3zm0-52.6v-143.7h-1l-55.3 143.7z"/>
				</g>
				<g id="&lt;Group&gt;">
					<path id="&lt;Compound Path&gt;" fill-rule="evenodd" class="s2" d="m920.8 645.4h-107.5v-52.6l102.4-249h61.4v249h26.6v52.6h-26.6v66.8h-56.3zm0-52.6v-143.7h-1.1l-55.2 143.7z"/>
				</g>
			</g>
		</g>
	</g>
	<g id="Character">
		<g id="&lt;Group&gt;">
			<g id="&lt;Group&gt;">
				<g id="&lt;Group&gt;">
					<path id="&lt;Path&gt;" class="s3" d="m1047.4 513.2c16.7 82.7 51.6 145.5 78 140.1 26.4-5.3 34.3-76.7 17.6-159.4-16.7-82.8-51.6-145.5-78-140.2-26.5 5.3-34.3 76.7-17.6 159.5z"/>
				</g>
				<g id="&lt;Group&gt;">
					<path id="&lt;Path&gt;" class="s4" d="m1128.6 497.1c-15.3-75.4-45.6-134.2-70.9-140 2.2-1.7 4.7-2.9 7.3-3.4 26.4-5.3 61.3 57.4 78 140.2 16.7 82.7 8.8 154.1-17.6 159.4q-3.5 0.7-7.2-0.1c20.5-16.1 25.4-81.5 10.4-156.1z"/>
				</g>
			</g>
			<g id="&lt;Group&gt;">
				<g id="&lt;Group&gt;">
					<g id="&lt;Group&gt;">
						<g id="&lt;Group&gt;">
							<g id="&lt;Group&gt;">
								<g id="&lt;Group&gt;">
									<g id="&lt;Group&gt;">
										<g id="&lt;Group&gt;">
											<g id="&lt;Group&gt;">
												<g id="&lt;Group&gt;">
													<g id="&lt;Group&gt;">
														<g id="&lt;Group&gt;">
															<g id="&lt;Group&gt;">
																<g id="&lt;Group&gt;">
																	<g id="&lt;Group&gt;">
																		<g id="&lt;Group&gt;">
																			<g id="&lt;Group&gt;">
																				<path id="&lt;Path&gt;" class="s3" d="m1392.5 354.5l28.2-41.3c0 0 51.5 14.9 57.5 7.8l-78.1-57.7-46.7 62.5z"/>
																			</g>
																		</g>
																	</g>
																</g>
															</g>
														</g>
													</g>
												</g>
											</g>
										</g>
									</g>
								</g>
							</g>
						</g>
						<g id="&lt;Group&gt;">
							<g id="&lt;Group&gt;">
								<g id="&lt;Group&gt;">
									<g id="&lt;Group&gt;">
										<g id="&lt;Group&gt;">
											<g id="&lt;Group&gt;">
												<g id="&lt;Group&gt;">
													<g id="&lt;Group&gt;">
														<g id="&lt;Group&gt;">
															<g id="&lt;Group&gt;">
																<g id="&lt;Group&gt;">
																	<g id="&lt;Group&gt;">
																		<g id="&lt;Group&gt;">
																			<g id="&lt;Group&gt;">
																				<g id="&lt;Group&gt;">
																					<path id="&lt;Path&gt;" class="s1" d="m1394.1 298.8c-1.2-1.6-1-4 0.5-5.3 1.5-1.3 4-1.1 5.2 0.4 1.2 1.5 1.1 4.5-0.5 5.6-1.6 1.1-4.6 0.7-5.4-1"/>
																				</g>
																			</g>
																		</g>
																	</g>
																</g>
															</g>
														</g>
													</g>
												</g>
											</g>
										</g>
									</g>
								</g>
							</g>
						</g>
						<g id="&lt;Group&gt;">
							<g id="&lt;Group&gt;">
								<g id="&lt;Group&gt;">
									<g id="&lt;Group&gt;">
										<g id="&lt;Group&gt;">
											<g id="&lt;Group&gt;">
												<g id="&lt;Group&gt;">
													<g id="&lt;Group&gt;">
														<g id="&lt;Group&gt;">
															<g id="&lt;Group&gt;">
																<g id="&lt;Group&gt;">
																	<g id="&lt;Group&gt;">
																		<g id="&lt;Group&gt;">
																			<g id="&lt;Group&gt;">
																				<path id="&lt;Path&gt;" class="s4" d="m1400.1 263.3l-4.5 6.5 76.6 52.9c0 0 4.6 1 6-1.7z"/>
																			</g>
																		</g>
																	</g>
																</g>
															</g>
														</g>
													</g>
												</g>
											</g>
										</g>
									</g>
								</g>
							</g>
						</g>
						<g id="&lt;Group&gt;">
							<g id="&lt;Group&gt;">
								<g id="&lt;Group&gt;">
									<g id="&lt;Group&gt;">
										<g id="&lt;Group&gt;">
											<g id="&lt;Group&gt;">
												<g id="&lt;Group&gt;">
													<g id="&lt;Group&gt;">
														<g id="&lt;Group&gt;">
															<g id="&lt;Group&gt;">
																<g id="&lt;Group&gt;">
																	<g id="&lt;Group&gt;">
																		<g id="&lt;Group&gt;">
																			<g id="&lt;Group&gt;">
																				<g id="&lt;Group&gt;">
																					<path id="&lt;Path&gt;" class="s6" d="m1421.7 314.6c0.3-0.4-1.5-2-2.5-4.6-1-2.6-0.7-5-1.2-5.1-0.4-0.2-1.5 2.5-0.3 5.7 1.2 3.1 3.8 4.4 4 4z"/>
																				</g>
																			</g>
																		</g>
																	</g>
																</g>
															</g>
														</g>
													</g>
												</g>
											</g>
										</g>
									</g>
								</g>
							</g>
						</g>
						<g id="&lt;Group&gt;">
							<g id="&lt;Group&gt;">
								<g id="&lt;Group&gt;">
									<g id="&lt;Group&gt;">
										<g id="&lt;Group&gt;">
											<g id="&lt;Group&gt;">
												<g id="&lt;Group&gt;">
													<g id="&lt;Group&gt;">
														<g id="&lt;Group&gt;">
															<g id="&lt;Group&gt;">
																<g id="&lt;Group&gt;">
																	<g id="&lt;Group&gt;">
																		<g id="&lt;Group&gt;">
																			<g id="&lt;Group&gt;">
																				<g id="&lt;Group&gt;">
																					<path id="&lt;Path&gt;" class="s6" d="m1432.4 317.2c0.4-0.3-0.8-2.1-0.9-4.7-0.2-2.6 0.8-4.6 0.4-4.8-0.3-0.3-2.2 1.7-2.1 4.9 0.2 3.2 2.3 5 2.6 4.6z"/>
																				</g>
																			</g>
																		</g>
																	</g>
																</g>
															</g>
														</g>
													</g>
												</g>
											</g>
										</g>
									</g>
								</g>
							</g>
						</g>
						<g id="&lt;Group&gt;">
							<g id="&lt;Group&gt;">
								<g id="&lt;Group&gt;">
									<g id="&lt;Group&gt;">
										<g id="&lt;Group&gt;">
											<g id="&lt;Group&gt;">
												<g id="&lt;Group&gt;">
													<g id="&lt;Group&gt;">
														<g id="&lt;Group&gt;">
															<g id="&lt;Group&gt;">
																<g id="&lt;Group&gt;">
																	<g id="&lt;Group&gt;">
																		<g id="&lt;Group&gt;">
																			<g id="&lt;Group&gt;">
																				<g id="&lt;Group&gt;">
																					<path id="&lt;Path&gt;" class="s6" d="m1444.3 310.9c-0.3-0.4-2.2 1.1-2.8 4-0.6 2.8 0.6 4.9 1 4.7 0.5-0.1 0.1-2.1 0.6-4.4 0.5-2.3 1.6-4 1.2-4.3z"/>
																				</g>
																			</g>
																		</g>
																	</g>
																</g>
															</g>
														</g>
													</g>
												</g>
											</g>
										</g>
									</g>
								</g>
							</g>
						</g>
						<g id="&lt;Group&gt;">
							<g id="&lt;Group&gt;">
								<g id="&lt;Group&gt;">
									<g id="&lt;Group&gt;">
										<g id="&lt;Group&gt;">
											<g id="&lt;Group&gt;">
												<g id="&lt;Group&gt;">
													<g id="&lt;Group&gt;">
														<g id="&lt;Group&gt;">
															<g id="&lt;Group&gt;">
																<g id="&lt;Group&gt;">
																	<g id="&lt;Group&gt;">
																		<g id="&lt;Group&gt;">
																			<g id="&lt;Group&gt;">
																				<g id="&lt;Group&gt;">
																					<path id="&lt;Path&gt;" class="s6" d="m1414.2 323.3c0.1-0.5-2-1.3-4.1-3-2-1.7-3.2-3.7-3.6-3.5-0.5 0.1 0.1 2.7 2.6 4.8 2.4 2 5.1 2.1 5.1 1.7z"/>
																				</g>
																			</g>
																		</g>
																	</g>
																</g>
															</g>
														</g>
													</g>
												</g>
											</g>
										</g>
									</g>
								</g>
							</g>
						</g>
					</g>
					<g id="&lt;Group&gt;">
						<g id="&lt;Group&gt;">
							<g id="&lt;Group&gt;">
								<g id="&lt;Group&gt;">
									<g id="&lt;Group&gt;">
										<g id="&lt;Group&gt;">
											<g id="&lt;Group&gt;">
												<g id="&lt;Group&gt;">
													<g id="&lt;Group&gt;">
														<g id="&lt;Group&gt;">
															<g id="&lt;Group&gt;">
																<g id="&lt;Group&gt;">
																	<g id="&lt;Group&gt;">
																		<g id="&lt;Group&gt;">
																			<path id="&lt;Path&gt;" class="s3" d="m1365.3 522.4l28.6-41.2c0 0 51.3 15.2 57.4 8.1l-77.8-58.1-47.1 62.2z"/>
																		</g>
																	</g>
																</g>
															</g>
														</g>
													</g>
												</g>
											</g>
										</g>
									</g>
								</g>
							</g>
						</g>
					</g>
					<g id="&lt;Group&gt;">
						<g id="&lt;Group&gt;">
							<g id="&lt;Group&gt;">
								<g id="&lt;Group&gt;">
									<g id="&lt;Group&gt;">
										<g id="&lt;Group&gt;">
											<g id="&lt;Group&gt;">
												<g id="&lt;Group&gt;">
													<g id="&lt;Group&gt;">
														<g id="&lt;Group&gt;">
															<g id="&lt;Group&gt;">
																<g id="&lt;Group&gt;">
																	<g id="&lt;Group&gt;">
																		<g id="&lt;Group&gt;">
																			<g id="&lt;Group&gt;">
																				<path id="&lt;Path&gt;" class="s1" d="m1367.3 466.6c-1.2-1.5-1-4 0.5-5.2 1.5-1.3 4-1.1 5.2 0.4 1.3 1.5 1.1 4.5-0.5 5.6-1.7 1.1-4.6 0.7-5.4-1.1"/>
																			</g>
																		</g>
																	</g>
																</g>
															</g>
														</g>
													</g>
												</g>
											</g>
										</g>
									</g>
								</g>
							</g>
						</g>
					</g>
					<g id="&lt;Group&gt;">
						<g id="&lt;Group&gt;">
							<g id="&lt;Group&gt;">
								<g id="&lt;Group&gt;">
									<g id="&lt;Group&gt;">
										<g id="&lt;Group&gt;">
											<g id="&lt;Group&gt;">
												<g id="&lt;Group&gt;">
													<g id="&lt;Group&gt;">
														<g id="&lt;Group&gt;">
															<g id="&lt;Group&gt;">
																<g id="&lt;Group&gt;">
																	<g id="&lt;Group&gt;">
																		<g id="&lt;Group&gt;">
																			<path id="&lt;Path&gt;" class="s4" d="m1373.5 431.2l-4.5 6.4 76.2 53.4c0 0 4.6 1.1 6.1-1.7z"/>
																		</g>
																	</g>
																</g>
															</g>
														</g>
													</g>
												</g>
											</g>
										</g>
									</g>
								</g>
							</g>
						</g>
					</g>
					<g id="&lt;Group&gt;">
						<g id="&lt;Group&gt;">
							<g id="&lt;Group&gt;">
								<g id="&lt;Group&gt;">
									<g id="&lt;Group&gt;">
										<g id="&lt;Group&gt;">
											<g id="&lt;Group&gt;">
												<g id="&lt;Group&gt;">
													<g id="&lt;Group&gt;">
														<g id="&lt;Group&gt;">
															<g id="&lt;Group&gt;">
																<g id="&lt;Group&gt;">
																	<g id="&lt;Group&gt;">
																		<g id="&lt;Group&gt;">
																			<g id="&lt;Group&gt;">
																				<path id="&lt;Path&gt;" class="s6" d="m1394.8 482.6c0.3-0.4-1.5-2-2.4-4.6-1.1-2.6-0.8-5-1.2-5.1-0.5-0.2-1.6 2.5-0.4 5.7 1.2 3.1 3.8 4.4 4 4z"/>
																			</g>
																		</g>
																	</g>
																</g>
															</g>
														</g>
													</g>
												</g>
											</g>
										</g>
									</g>
								</g>
							</g>
						</g>
					</g>
					<g id="&lt;Group&gt;">
						<g id="&lt;Group&gt;">
							<g id="&lt;Group&gt;">
								<g id="&lt;Group&gt;">
									<g id="&lt;Group&gt;">
										<g id="&lt;Group&gt;">
											<g id="&lt;Group&gt;">
												<g id="&lt;Group&gt;">
													<g id="&lt;Group&gt;">
														<g id="&lt;Group&gt;">
															<g id="&lt;Group&gt;">
																<g id="&lt;Group&gt;">
																	<g id="&lt;Group&gt;">
																		<g id="&lt;Group&gt;">
																			<g id="&lt;Group&gt;">
																				<path id="&lt;Path&gt;" class="s6" d="m1405.5 485.3c0.4-0.3-0.8-2.2-0.9-4.7-0.1-2.6 0.8-4.6 0.4-4.9-0.3-0.3-2.2 1.7-2 4.9 0.1 3.2 2.2 5.1 2.5 4.7z"/>
																			</g>
																		</g>
																	</g>
																</g>
															</g>
														</g>
													</g>
												</g>
											</g>
										</g>
									</g>
								</g>
							</g>
						</g>
					</g>
					<g id="&lt;Group&gt;">
						<g id="&lt;Group&gt;">
							<g id="&lt;Group&gt;">
								<g id="&lt;Group&gt;">
									<g id="&lt;Group&gt;">
										<g id="&lt;Group&gt;">
											<g id="&lt;Group&gt;">
												<g id="&lt;Group&gt;">
													<g id="&lt;Group&gt;">
														<g id="&lt;Group&gt;">
															<g id="&lt;Group&gt;">
																<g id="&lt;Group&gt;">
																	<g id="&lt;Group&gt;">
																		<g id="&lt;Group&gt;">
																			<g id="&lt;Group&gt;">
																				<path id="&lt;Path&gt;" class="s6" d="m1417.4 479c-0.2-0.3-2.2 1.2-2.8 4-0.6 2.8 0.6 5 1 4.8 0.4-0.2 0.1-2.2 0.6-4.5 0.5-2.3 1.6-4 1.2-4.3z"/>
																			</g>
																		</g>
																	</g>
																</g>
															</g>
														</g>
													</g>
												</g>
											</g>
										</g>
									</g>
								</g>
							</g>
						</g>
					</g>
					<g id="&lt;Group&gt;">
						<g id="&lt;Group&gt;">
							<g id="&lt;Group&gt;">
								<g id="&lt;Group&gt;">
									<g id="&lt;Group&gt;">
										<g id="&lt;Group&gt;">
											<g id="&lt;Group&gt;">
												<g id="&lt;Group&gt;">
													<g id="&lt;Group&gt;">
														<g id="&lt;Group&gt;">
															<g id="&lt;Group&gt;">
																<g id="&lt;Group&gt;">
																	<g id="&lt;Group&gt;">
																		<g id="&lt;Group&gt;">
																			<g id="&lt;Group&gt;">
																				<path id="&lt;Path&gt;" class="s6" d="m1387.3 491.2c0.1-0.4-2.1-1.2-4.1-3-2.1-1.7-3.2-3.6-3.6-3.5-0.5 0.1 0.1 2.8 2.5 4.8 2.5 2 5.1 2.2 5.2 1.7z"/>
																			</g>
																		</g>
																	</g>
																</g>
															</g>
														</g>
													</g>
												</g>
											</g>
										</g>
									</g>
								</g>
							</g>
						</g>
					</g>
					<g id="&lt;Group&gt;">
						<g id="&lt;Group&gt;">
							<path id="&lt;Path&gt;" class="s3" d="m1070.8 552.2c2.6 0 239.8-68.4 256.3-83.2 16.5-14.8 83.9-132.4 83.9-132.4l-47.9-39-83.2 108.4-146 13.2c0 0-61.6-4.2-72.3 17.8l-1 33z"/>
						</g>
					</g>
					<g id="&lt;Group&gt;">
						<g id="&lt;Group&gt;">
							<path id="&lt;Path&gt;" class="s3" d="m1070.8 552.2c3.5 0.1 109.4 117.9 142.6 124.7 33.2 6.7 49.9-16.2 61.2-30 14.5-17.4 112.8-142.9 112.8-142.9l-49.3-40.8-108.2 115.1-65-89.6-56.7-5.3-34.4 30.5z"/>
						</g>
					</g>
					<g id="&lt;Group&gt;">
						<g id="&lt;Group&gt;">
							<g id="&lt;Group&gt;">
								<path id="&lt;Path&gt;" class="s4" d="m1220.3 589.3q0 0 0.4-0.5 0.4-0.5 1.2-1.4 1.6-1.8 4.6-5.1c4-4.5 9.9-10.9 17-18.8 7.3-7.9 15.9-17.3 25.4-27.7 4.8-5.2 9.8-10.6 15.1-16.3 5.3-5.6 10.7-11.4 16.3-17.3 13.6-14.3 26.4-27.7 37.4-39.3l0.3-0.4 0.4 0.3c14.6 12.2 26.9 22.5 35.5 29.7 4.3 3.6 7.7 6.4 10 8.4q1.7 1.4 2.6 2.3 0.9 0.8 0.9 0.8 0 0-1-0.7-1-0.8-2.7-2.1c-2.4-2-5.8-4.8-10.1-8.3-8.8-7.1-21.1-17.3-35.8-29.3l0.6-0.1c-11 11.7-23.7 25.2-37.3 39.4-5.6 6-11.1 11.7-16.4 17.3-5.2 5.7-10.2 11.1-15.1 16.3-9.6 10.4-18.2 19.7-25.5 27.6-7.3 7.7-13.2 14.1-17.3 18.5q-3.1 3.2-4.8 5-0.7 0.8-1.2 1.3-0.5 0.4-0.5 0.4z"/>
							</g>
						</g>
					</g>
					<g id="&lt;Group&gt;">
						<g id="&lt;Group&gt;">
							<path id="&lt;Path&gt;" class="s4" d="m1219 508.3c0 0.1-1.1 0.5-3.1 1.1-2.2 0.7-5 1.6-8.5 2.7-7.2 2.2-17.1 5.2-27.9 8.7q-4.1 1.4-8 2.7c-2.5 0.8-5 1.6-7.2 2.6-4.4 2.1-7.4 5.6-8.9 9-1.6 3.3-2.1 6.3-2.6 8.4-0.3 2-0.5 3.2-0.6 3.2q0-0.1 0-0.9 0.1-0.8 0.2-2.4c0.3-2.1 0.8-5.1 2.3-8.7 1.5-3.4 4.6-7.2 9.2-9.4 2.3-1.1 4.8-2 7.3-2.8q3.9-1.3 7.9-2.7c10.9-3.5 20.9-6.4 28.1-8.4 3.6-1 6.5-1.8 8.6-2.4 2-0.5 3.1-0.7 3.2-0.7z"/>
						</g>
					</g>
				</g>
				<g id="&lt;Group&gt;">
					<g id="&lt;Group&gt;">
						<path id="&lt;Path&gt;" class="s4" d="m1038.8 450.7q0 0 0.5-0.9 0.3-0.5 0.7-1.1 0.5-0.7 1.1-1.4c1.6-2.1 4.4-4.9 8.3-7.6 7.7-5.5 19.9-10.7 33.9-14.6 13.9-3.8 26.9-5.7 36.4-6.3 4.7-0.3 8.5-0.3 11.2-0.2q2 0.1 3 0.3 1.1 0.1 1.1 0.2c-0.1 0.1-1.5-0.1-4.1-0.1-2.7 0-6.5 0.1-11.2 0.5-9.4 0.8-22.3 2.8-36.2 6.6-13.8 3.9-25.9 8.9-33.7 14.2-3.9 2.6-6.7 5.2-8.4 7.2q-0.6 0.7-1.2 1.4-0.4 0.5-0.7 1-0.6 0.9-0.7 0.8z"/>
					</g>
				</g>
				<g id="&lt;Group&gt;">
					<g id="&lt;Group&gt;">
						<path id="&lt;Path&gt;" class="s4" d="m1137 617.9q0 0-0.8-0.5-0.9-0.7-2.2-1.8c-2.1-1.6-4.9-3.8-8.2-6.4-6.9-5.4-16.7-12.6-27.7-20.4-10.9-7.8-20.3-15.6-26.8-21.5-3.2-3-5.8-5.4-7.6-7.1q-1.2-1.2-2-2-0.7-0.7-0.6-0.8 0 0 0.8 0.6 0.8 0.8 2.1 1.9c1.8 1.6 4.5 4 7.8 6.9 6.6 5.7 16.1 13.3 27 21.2 10.9 7.8 20.6 15 27.4 20.6 3.4 2.8 6.2 5.1 8 6.7q1.3 1.1 2.1 1.9 0.8 0.7 0.7 0.7z"/>
					</g>
				</g>
			</g>
		</g>
		<g id="&lt;Group&gt;">
			<g id="&lt;Group&gt;">
				<g id="&lt;Group&gt;">
					<path id="&lt;Path&gt;" class="s3" d="m404.2 535c-31.2 83.1-77.9 142.5-104.5 132.6-26.5-10-22.8-85.4 8.3-168.6 31.2-83.2 77.9-142.6 104.5-132.6 26.5 9.9 22.8 85.4-8.3 168.6z"/>
				</g>
				<g id="&lt;Group&gt;">
					<path id="&lt;Path&gt;" class="s4" d="m322.5 504.8c28.4-75.8 69.7-131.8 96.9-133.6-2-2.2-4.3-3.8-6.9-4.8-26.6-10-73.3 49.4-104.5 132.6-31.1 83.2-34.8 158.6-8.3 168.6q3.6 1.3 7.5 1c-18.6-20.1-12.8-88.8 15.3-163.8z"/>
				</g>
				<g id="&lt;Group&gt;">
					<g id="&lt;Group&gt;">
						<g id="&lt;Group&gt;">
							<g id="&lt;Group&gt;">
								<path id="&lt;Path&gt;" class="s7" d="m44.6 317.6c0 0-7.1-18.1-10.1-24.6-3.1-6.5-2.4-26.5-0.4-30.1 2-3.6 0.2-6.4 0.2-6.4 0 0-10.5-19.4-5.6-24.2l2.8-0.4c0 0 10.5 20.9 10.9 21.3 0.3 0.4 2.6 0.6 3.3-3.1 0.8-3.6-1-14.4-1-14.4 0 0-4-6.9-4.3-11.6-0.1-1.8 1.5-4.3 2.9-5.4l1.5-1.1c0 0 8.7 15.9 9.2 19.8 0.5 3.9 2.1 12.3 2.1 12.3l1.3-1 0.1-19.5c0 0-4.4-16.4-1.1-20 3.3-3.6 3.7-0.6 3.7-0.6 0 0 6.2 16.8 6.7 21.1 0.2 1.7 0.4 18.4 0.4 18.4l2.7-1.1 0.9-15.6c0 0-3.1-15.5 1.6-17.1l3.8-0.1c0 0 3.6 20.4 4 21.3 0.4 1-2.8 24.3-2.8 24.3l1 2.2 2.7-3.7c0 0 1.2-3.6 6.7-6.6 5.4-3 7.8-0.8 7.8-0.8l-6.8 12.1c0 0-6.3 14.3-8.8 17.5-2.5 3.3-11.2 11-12.6 11.7-1.4 0.8 0.2 7.1 0.2 7.1l2.1 4.4z"/>
							</g>
						</g>
					</g>
					<g id="&lt;Group&gt;">
						<g id="&lt;Group&gt;">
							<g id="&lt;Group&gt;">
								<g id="&lt;Group&gt;">
									<path id="&lt;Path&gt;" class="s8" d="m72 270c0 0.2-2.2 0.2-5.6 1-3.4 0.8-7.9 2.7-11.8 6.2-3.9 3.6-6.2 8-7.2 11.3-1.1 3.3-1.2 5.5-1.4 5.5-0.1 0-0.3-2.2 0.6-5.7 0.9-3.5 3.1-8.2 7.2-11.9 5.6-4.5 10.2-6.2 12.4-6.2 3.6-0.7 5.8-0.3 5.8-0.2z"/>
								</g>
							</g>
						</g>
					</g>
					<g id="&lt;Group&gt;">
						<g id="&lt;Group&gt;">
							<g id="&lt;Group&gt;">
								<g id="&lt;Group&gt;">
									<path id="&lt;Path&gt;" class="s8" d="m72.9 247.7c0 0.4-8.2-1-17.9 1.6-9.7 2.4-16.2 7.5-16.4 7.2-0.1-0.1 1.4-1.5 4.2-3.3 2.8-1.8 7-3.8 11.9-5.1 5-1.2 9.6-1.5 12.9-1.3 3.3 0.2 5.3 0.8 5.3 0.9z"/>
								</g>
							</g>
						</g>
					</g>
					<g id="&lt;Group&gt;">
						<g id="&lt;Group&gt;">
							<path id="&lt;Path&gt;" class="s7" d="m44.6 317.6c0.7 1.7 35.1 105.9 50 117.1 14.9 11.2 113.3 40.1 113.3 40.1l15.4-52.4-96.2-30.2-59.7-100z"/>
						</g>
					</g>
				</g>
				<g id="&lt;Group&gt;">
					<g id="&lt;Group&gt;">
						<path id="&lt;Path&gt;" class="s2" d="m229.7 408l-74.3-12.7-15.9 64.6 85.9 19.7z"/>
					</g>
				</g>
				<g id="&lt;Group&gt;">
					<g id="&lt;Group&gt;">
						<g id="&lt;Group&gt;">
							<g id="&lt;Group&gt;">
								<g id="&lt;Group&gt;">
									<g id="&lt;Group&gt;">
										<g id="&lt;Group&gt;">
											<g id="&lt;Group&gt;">
												<g id="&lt;Group&gt;">
													<g id="&lt;Group&gt;">
														<g id="&lt;Group&gt;">
															<path id="&lt;Path&gt;" class="s7" d="m276.3 413.1l-4.3-113.9c-0.2-28.4-16.9-52-45.2-51l-2.6 0.2c-26.4 2.4-46.4 24.7-46.1 51.1 0.2 24.6 0.9 51.8 2.2 64.9 2.9 27.1 30.4 28.8 30.4 28.8 0 0 8.4 33.7 8.4 33.7l9.6 3.2z"/>
														</g>
													</g>
												</g>
											</g>
										</g>
									</g>
								</g>
							</g>
						</g>
						<g id="&lt;Group&gt;">
							<g id="&lt;Group&gt;">
								<g id="&lt;Group&gt;">
									<g id="&lt;Group&gt;">
										<g id="&lt;Group&gt;">
											<g id="&lt;Group&gt;">
												<g id="&lt;Group&gt;">
													<g id="&lt;Group&gt;">
														<g id="&lt;Group&gt;">
															<g id="&lt;Group&gt;">
																<path id="&lt;Path&gt;" class="s8" d="m210.7 393.2c0 0 17.2-0.6 34.3-13.7 0 0-5 21.8-32.3 21.9z"/>
															</g>
														</g>
													</g>
												</g>
											</g>
										</g>
									</g>
								</g>
							</g>
						</g>
						<g id="&lt;Group&gt;">
							<g id="&lt;Group&gt;">
								<g id="&lt;Group&gt;">
									<g id="&lt;Group&gt;">
										<g id="&lt;Group&gt;">
											<g id="&lt;Group&gt;">
												<g id="&lt;Group&gt;">
													<g id="&lt;Group&gt;">
														<g id="&lt;Group&gt;">
															<g id="&lt;Group&gt;">
																<g id="&lt;Group&gt;">
																	<g id="&lt;Group&gt;">
																		<g id="&lt;Group&gt;">
																			<g id="&lt;Group&gt;">
																				<g id="&lt;Group&gt;">
																					<g id="&lt;Group&gt;">
																						<path id="&lt;Path&gt;" class="s3" d="m191.7 321.6c0.2 2 2 3.6 4.1 3.5 2.2-0.1 3.8-1.8 3.7-3.8-0.1-2.1-1.9-3.7-4.1-3.6-2.1 0.1-3.8 1.8-3.7 3.9z"/>
																					</g>
																				</g>
																			</g>
																		</g>
																	</g>
																</g>
															</g>
														</g>
													</g>
												</g>
											</g>
										</g>
									</g>
								</g>
							</g>
						</g>
						<g id="&lt;Group&gt;">
							<g id="&lt;Group&gt;">
								<g id="&lt;Group&gt;">
									<g id="&lt;Group&gt;">
										<g id="&lt;Group&gt;">
											<g id="&lt;Group&gt;">
												<g id="&lt;Group&gt;">
													<g id="&lt;Group&gt;">
														<g id="&lt;Group&gt;">
															<g id="&lt;Group&gt;">
																<g id="&lt;Group&gt;">
																	<g id="&lt;Group&gt;">
																		<g id="&lt;Group&gt;">
																			<g id="&lt;Group&gt;">
																				<g id="&lt;Group&gt;">
																					<g id="&lt;Group&gt;">
																						<g id="&lt;Group&gt;">
																							<path id="&lt;Path&gt;" class="s3" d="m184.9 311c0.6 0.4 3.3-2 7.5-2.4 4.1-0.4 7.4 1.4 7.8 0.9 0.2-0.3-0.4-1.1-1.8-2-1.4-0.8-3.7-1.6-6.3-1.3-2.6 0.2-4.7 1.4-5.9 2.5-1.2 1.1-1.5 2-1.3 2.3z"/>
																						</g>
																					</g>
																				</g>
																			</g>
																		</g>
																	</g>
																</g>
															</g>
														</g>
													</g>
												</g>
											</g>
										</g>
									</g>
								</g>
							</g>
						</g>
						<g id="&lt;Group&gt;">
							<g id="&lt;Group&gt;">
								<g id="&lt;Group&gt;">
									<g id="&lt;Group&gt;">
										<g id="&lt;Group&gt;">
											<g id="&lt;Group&gt;">
												<g id="&lt;Group&gt;">
													<g id="&lt;Group&gt;">
														<g id="&lt;Group&gt;">
															<g id="&lt;Group&gt;">
																<g id="&lt;Group&gt;">
																	<g id="&lt;Group&gt;">
																		<g id="&lt;Group&gt;">
																			<g id="&lt;Group&gt;">
																				<g id="&lt;Group&gt;">
																					<g id="&lt;Group&gt;">
																						<g id="&lt;Group&gt;">
																							<path id="&lt;Path&gt;" class="s3" d="m224.7 320.8c0.5 0.5 3.2-2 7.4-2.3 4.2-0.5 7.4 1.4 7.8 0.8 0.2-0.2-0.3-1.1-1.8-1.9-1.4-0.9-3.7-1.6-6.3-1.3-2.6 0.2-4.7 1.4-5.8 2.5-1.2 1.1-1.6 2-1.3 2.2z"/>
																						</g>
																					</g>
																				</g>
																			</g>
																		</g>
																	</g>
																</g>
															</g>
														</g>
													</g>
												</g>
											</g>
										</g>
									</g>
								</g>
							</g>
						</g>
						<g id="&lt;Group&gt;">
							<g id="&lt;Group&gt;">
								<g id="&lt;Group&gt;">
									<g id="&lt;Group&gt;">
										<g id="&lt;Group&gt;">
											<g id="&lt;Group&gt;">
												<g id="&lt;Group&gt;">
													<g id="&lt;Group&gt;">
														<g id="&lt;Group&gt;">
															<g id="&lt;Group&gt;">
																<g id="&lt;Group&gt;">
																	<g id="&lt;Group&gt;">
																		<g id="&lt;Group&gt;">
																			<g id="&lt;Group&gt;">
																				<g id="&lt;Group&gt;">
																					<g id="&lt;Group&gt;">
																						<path id="&lt;Path&gt;" class="s3" d="m213.9 341.6c0-0.3-2.7-0.5-6.9-0.6-1.1-0.1-2.1-0.2-2.4-0.9-0.3-0.7 0.1-1.9 0.5-3.2q1.1-4 2.4-8.4c3.3-11.9 5.6-21.7 5.1-21.8-0.5-0.2-3.6 9.4-6.9 21.3q-1.2 4.5-2.3 8.5c-0.2 1.2-0.8 2.7-0.1 4.2 0.3 0.8 1.2 1.3 1.9 1.4 0.7 0.1 1.3 0.1 1.8 0.1 4.2-0.2 6.9-0.4 6.9-0.6z"/>
																					</g>
																				</g>
																			</g>
																		</g>
																	</g>
																</g>
															</g>
														</g>
													</g>
												</g>
											</g>
										</g>
									</g>
								</g>
							</g>
						</g>
						<g id="&lt;Group&gt;">
							<g id="&lt;Group&gt;">
								<g id="&lt;Group&gt;">
									<g id="&lt;Group&gt;">
										<g id="&lt;Group&gt;">
											<g id="&lt;Group&gt;">
												<g id="&lt;Group&gt;">
													<g id="&lt;Group&gt;">
														<g id="&lt;Group&gt;">
															<g id="&lt;Group&gt;">
																<g id="&lt;Group&gt;">
																	<g id="&lt;Group&gt;">
																		<path id="&lt;Path&gt;" class="s3" d="m221.2 309.8c0.7 1.1 4.6-0.4 9.5-1 4.9-0.6 9.1-0.2 9.5-1.3 0.2-0.5-0.8-1.4-2.6-2.1-1.8-0.7-4.5-1.2-7.4-0.8-3 0.4-5.5 1.4-7 2.6-1.6 1.1-2.3 2.2-2 2.6z"/>
																	</g>
																</g>
															</g>
														</g>
													</g>
												</g>
											</g>
										</g>
									</g>
								</g>
							</g>
						</g>
						<g id="&lt;Group&gt;">
							<g id="&lt;Group&gt;">
								<g id="&lt;Group&gt;">
									<g id="&lt;Group&gt;">
										<g id="&lt;Group&gt;">
											<g id="&lt;Group&gt;">
												<g id="&lt;Group&gt;">
													<g id="&lt;Group&gt;">
														<g id="&lt;Group&gt;">
															<g id="&lt;Group&gt;">
																<g id="&lt;Group&gt;">
																	<g id="&lt;Group&gt;">
																		<path id="&lt;Path&gt;" class="s3" d="m183.9 300.4c1 0.9 4.3-0.4 8.4-0.8 4-0.4 7.6 0.1 8.3-1 0.3-0.5-0.3-1.4-1.9-2.1-1.6-0.8-4.1-1.4-6.9-1.1-2.8 0.3-5.2 1.4-6.5 2.4-1.4 1.1-1.8 2.1-1.4 2.6z"/>
																	</g>
																</g>
															</g>
														</g>
													</g>
												</g>
											</g>
										</g>
									</g>
								</g>
							</g>
						</g>
						<g id="&lt;Group&gt;">
							<g id="&lt;Group&gt;">
								<g id="&lt;Group&gt;">
									<g id="&lt;Group&gt;">
										<g id="&lt;Group&gt;">
											<g id="&lt;Group&gt;">
												<g id="&lt;Group&gt;">
													<g id="&lt;Group&gt;">
														<path id="&lt;Path&gt;" class="s7" d="m271.6 319.5c0.4-0.3 18.1-7.3 19.2 11.3 1.1 18.6-17.8 15.9-17.8 15.4-0.1-0.6-1.4-26.7-1.4-26.7z"/>
													</g>
												</g>
											</g>
										</g>
									</g>
								</g>
							</g>
						</g>
						<g id="&lt;Group&gt;">
							<g id="&lt;Group&gt;">
								<g id="&lt;Group&gt;">
									<g id="&lt;Group&gt;">
										<g id="&lt;Group&gt;">
											<g id="&lt;Group&gt;">
												<g id="&lt;Group&gt;">
													<g id="&lt;Group&gt;">
														<g id="&lt;Group&gt;">
															<path id="&lt;Path&gt;" class="s8" d="m278.2 338.8c0.1-0.1 0.4 0.2 0.9 0.4 0.6 0.2 1.5 0.3 2.5-0.1 1.9-0.8 3.3-4 3.2-7.4 0-1.7-0.5-3.3-1.1-4.6-0.7-1.3-1.6-2.2-2.6-2.3-1-0.2-1.7 0.4-1.9 1-0.2 0.5-0.1 0.9-0.2 0.9 0 0.1-0.4-0.3-0.3-1 0.1-0.4 0.3-0.9 0.7-1.3 0.4-0.3 1.1-0.6 1.7-0.5 1.5 0 2.9 1.2 3.6 2.6 0.8 1.5 1.4 3.3 1.4 5.2 0.1 3.7-1.6 7.3-4.2 8.3-1.3 0.4-2.4 0.1-3-0.3-0.6-0.5-0.7-0.9-0.7-0.9z"/>
														</g>
													</g>
												</g>
											</g>
										</g>
									</g>
								</g>
							</g>
						</g>
						<g id="&lt;Group&gt;">
							<g id="&lt;Group&gt;">
								<g id="&lt;Group&gt;">
									<g id="&lt;Group&gt;">
										<g id="&lt;Group&gt;">
											<g id="&lt;Group&gt;">
												<g id="&lt;Group&gt;">
													<g id="&lt;Group&gt;">
														<g id="&lt;Group&gt;">
															<g id="&lt;Group&gt;">
																<path id="&lt;Path&gt;" class="s3" d="m227.1 343.5c-0.6 0-0.4 4.2-4 7.4-3.5 3.3-8 3-8.1 3.6 0 0.3 1.1 0.8 3 0.7 1.9 0 4.6-0.7 6.8-2.7 2.1-1.9 3-4.5 3-6.2 0.1-1.8-0.4-2.9-0.7-2.8z"/>
															</g>
														</g>
													</g>
												</g>
											</g>
										</g>
									</g>
								</g>
							</g>
						</g>
					</g>
					<g id="&lt;Group&gt;">
						<g id="&lt;Group&gt;">
							<g id="&lt;Group&gt;">
								<g id="&lt;Group&gt;">
									<g id="&lt;Group&gt;">
										<g id="&lt;Group&gt;">
											<g id="&lt;Group&gt;">
												<path id="&lt;Path&gt;" class="s3" d="m139.3 276.9c0.2-1.1 0.9-2 1.9-2.7 2-1.4 4.5-1.4 6.9-1.5 5.9-0.5 11.6-2.4 16.7-5.4-1.9-0.8-3.7-1.8-5.2-3.2-3.2-2.8-5.2-7.3-4.1-11.4 0.2-0.7 0.6-1.5 1.4-1.8 1.2-0.5 2.3 0.6 3.2 1.5 2.9 3 5.6 4.1 9.7 3.5 2.5-0.5 5-1.2 6.9-2.6q0.1-0.1 0.2-0.2 1.4-1.6 2.7-3.1 0 0 0 0c6.6-7.4 12.3-12.5 18.3-15.4 8.9-4.2 24-6.7 33.6-4.8 9.6 1.9 18.6 9.1 20.5 18.7 5-4.8 13-5.3 19.6-3.1h0.2c7.3 2.1 11.9 9.4 14.5 16.6q0.2 0.6 0.4 1.2c2.7 3.7 6.2 6.8 10.3 8.9 0.7 0.4 1.5 0.8 1.6 1.6 0.2 0.8-0.4 1.5-1.1 2-1.6 1.3-3.6 2.3-5.6 2.8 0.7 1.7 1.6 3.3 2.7 4.9 0.9 1.3 1.9 2.9 1.3 4.4-0.5 1.1-1.9 1.7-3.1 1.6-1.2-0.2-2.4-0.8-3.4-1.4q1.3 2.9 2.7 5.7c-2.6 0.6-5.3 0.5-7.8-0.1-1.1 7-1.5 19.8-3 24.5-4.9 0.4-6.1 0-8.6 0.9-3.1 1.3-1.6 6.9-5.8 5.6-2.2-0.7-6-8.6-6.9-10.7-5.6-14.2-8.1-29.5-7.3-44.7-3.2-3-7-5.4-11-6.9l0.3 0.2c-7.8-2.1-16.5-4.2-23.5-0.2-5.4 3.1-8.4 9.1-12.3 14-7.4 9.3-16 14.5-27.8 15.8-0.6 8.3-0.1 21.7 0 29.4l-7.5-14.9c-0.6-0.8-1.1-1.7-1.5-2.6l-0.2-0.3c-0.8-1.4-1.5-2.8-2.4-4.2q-0.1 0-0.1 0c-3.9 4-10.4-1.3-7.4-5.9q0.9-1.4 2.2-2.5c-1.8 1.9-4.6 2.9-7.1 2.3-2.5-0.6-4.6-3-4.6-5.6 0.1-1.8 1.2-3.4 2.8-4.2-3.4 0.4-6.8-0.1-9.8-1.6-2-0.9-4-2.6-3.5-5.1z"/>
											</g>
										</g>
									</g>
								</g>
							</g>
						</g>
						<g id="&lt;Group&gt;">
							<g id="&lt;Group&gt;">
								<g id="&lt;Group&gt;">
									<g id="&lt;Group&gt;">
										<g id="&lt;Group&gt;">
											<g id="&lt;Group&gt;">
												<path id="&lt;Path&gt;" class="s4" d="m243.6 252.2c0 0 1.2 0.6 2.9 2.3 1.7 1.7 3.7 4.6 4.8 8.8 0.5 2 0.9 4.3 1.1 6.8 0.1 2.5 0.1 5.2 0.1 8.1 0 2.8 0 5.8 0.3 8.9q0.3 2.3 0.9 4.7c0.5 1.5 1 3.2 2.2 4.4 1 1.1 2.6 1.4 4 1.1 1.3-0.3 2.5-1.1 3.3-2.2 1.6-2.1 1.9-4.8 2.2-7.1l-0.6 0.1c1.1 2 2.2 4 3.7 5.5 1.5 1.6 3.5 2.5 5.5 2.6 0.9 0 1.9-0.2 2.7-0.7 0.9-0.4 1.4-1.2 1.8-2 0.4-0.8 0.6-1.6 0.5-2.4-0.1-0.8-0.5-1.6-1-2.1l-0.3 0.3c2.2 2.3 4.5 3.4 6.1 4 0.8 0.3 1.4 0.5 1.9 0.6q0.6 0.2 0.6 0.1 0 0-0.6-0.2c-0.4-0.1-1.1-0.3-1.8-0.7-1.6-0.6-3.8-1.8-5.9-4.1l-0.3 0.3c1 0.9 1.1 2.6 0.4 4-0.3 0.7-0.9 1.4-1.6 1.8-0.7 0.4-1.6 0.6-2.5 0.6-1.8-0.1-3.7-1-5.1-2.5-1.4-1.4-2.5-3.3-3.5-5.3l-0.5-0.9-0.1 1c-0.3 2.3-0.6 4.8-2.1 6.7-0.7 1-1.8 1.7-3 2-1.2 0.3-2.4 0-3.3-0.9-1.1-1.1-1.6-2.7-2-4.2q-0.7-2.3-0.9-4.6c-0.4-3-0.4-6-0.4-8.8 0-2.9 0-5.6-0.2-8.1-0.2-2.5-0.6-4.9-1.2-7-1.2-4.1-3.2-7.1-5-8.8-1.8-1.6-3.1-2.1-3.1-2.1z"/>
											</g>
										</g>
									</g>
								</g>
							</g>
						</g>
						<g id="&lt;Group&gt;">
							<g id="&lt;Group&gt;">
								<g id="&lt;Group&gt;">
									<g id="&lt;Group&gt;">
										<g id="&lt;Group&gt;">
											<g id="&lt;Group&gt;">
												<path id="&lt;Path&gt;" class="s4" d="m161.1 283.8q0 0.1 0.2 0.2 0.3 0.2 0.7 0.5 0.5 0.3 1.2 0.6c0.5 0.3 1.1 0.6 1.7 0.8 2.6 1.1 6.8 2 11.8 1.4 5-0.6 10.9-2.8 16.1-7.1 5.2-4.2 9.6-10.3 13.1-17.1 1.7-3.5 3.1-6.9 4.7-10.2 1.6-3.2 3.4-6.2 5.6-8.6 2.2-2.5 4.8-4.3 7.5-5.3 1.4-0.5 2.8-0.6 4.2-0.7 1.3 0 2.6 0.2 3.8 0.5 2.4 0.6 4.4 1.8 5.9 3.1 1.5 1.2 2.5 2.6 3.3 3.8 1.4 2.4 1.5 4 1.6 3.9q0.1 0 0-0.2-0.1-0.4-0.2-0.9c-0.2-0.7-0.5-1.7-1.2-3-0.7-1.2-1.8-2.6-3.3-3.9-1.5-1.3-3.5-2.5-6-3.2-1.2-0.4-2.6-0.6-4-0.6-1.3 0.1-2.8 0.2-4.2 0.7-2.9 1-5.6 2.9-7.8 5.4-2.3 2.5-4.1 5.5-5.7 8.8-1.6 3.2-3 6.7-4.8 10.1-3.5 6.8-7.8 12.7-12.9 16.9-5 4.3-10.8 6.5-15.7 7.1-5 0.7-9.1-0.2-11.7-1.1-2.6-1-3.9-1.9-3.9-1.9z"/>
											</g>
										</g>
									</g>
								</g>
							</g>
						</g>
						<g id="&lt;Group&gt;">
							<g id="&lt;Group&gt;">
								<g id="&lt;Group&gt;">
									<g id="&lt;Group&gt;">
										<g id="&lt;Group&gt;">
											<g id="&lt;Group&gt;">
												<path id="&lt;Path&gt;" class="s4" d="m157.9 272c0 0.1 0.3 0.3 1 0.7 0.7 0.3 1.7 0.8 3 1.2 1.3 0.5 2.9 0.9 4.6 1.3 1.8 0.3 3.8 0.4 5.9 0.4 2.1-0.1 4.1-0.4 5.9-0.8 1.8-0.4 3.3-0.9 4.6-1.5 1.3-0.5 2.2-1 2.9-1.4 0.6-0.4 1-0.7 1-0.7-0.1-0.1-1.5 0.7-4.1 1.7-1.2 0.5-2.8 1-4.5 1.3-1.8 0.4-3.7 0.7-5.8 0.7-2 0.1-4-0.1-5.8-0.3-1.7-0.3-3.3-0.7-4.6-1.1-2.6-0.8-4.1-1.6-4.1-1.5z"/>
											</g>
										</g>
									</g>
								</g>
							</g>
						</g>
					</g>
				</g>
				<g id="&lt;Group&gt;">
					<g id="&lt;Group&gt;">
						<g id="&lt;Group&gt;">
							<path id="&lt;Path&gt;" class="s2" d="m360.8 621.7l1.8-9c-22.6-10.1-43.1-24.2-60.6-41.8l-100.1-101.3 2.6-29.1 49.3-46.1c0 0 23.5-15.6 54-3.5 34.6 13.7 49.2 33.1 89.6 80.2 16 18.6 7 3 22.7 13.2 0 0-9.8 53.3-28.4 86.4-13.6 24.2-30.9 51-30.9 51z"/>
						</g>
					</g>
					<g id="&lt;Group&gt;">
						<g id="&lt;Group&gt;">
							<g id="&lt;Group&gt;">
								<path id="&lt;Path&gt;" class="s3" d="m212.3 480.3c-0.1 0.1-1.6-1.8-3.7-5.1-2.1-3.3-4.8-8-7.4-13.3-2.7-5.4-4.7-10.4-6-14.1-1.3-3.7-1.9-6.1-1.8-6.1 0.2-0.1 1.1 2.2 2.5 5.8 1.5 3.6 3.6 8.5 6.2 13.9 2.6 5.3 5.2 10 7.2 13.4 1.9 3.4 3.1 5.5 3 5.5z"/>
							</g>
						</g>
					</g>
				</g>
				<g id="&lt;Group&gt;">
					<g id="&lt;Group&gt;" style="opacity: .3">
						<path id="&lt;Path&gt;" class="s5" d="m386.6 547.2c0 0 2.9-16.4-3.3-32.8-6.3-16.3-22.5-39.3-22.5-39.3l-5.6 5.2z"/>
					</g>
					<g id="&lt;Group&gt;">
						<g id="&lt;Group&gt;">
							<path id="&lt;Path&gt;" class="s7" d="m300 647.8l36-94.3-19-23.8-35.8-44c0 0-25.6-13.3-37.8-32.9-3.9-6.1-4.6-16.4-0.6-24 11.2-21.2 34.4-29.6 57.5-23.2l20.3 13.3c0 0 67.1 105.1 66 125.3-0.8 14.4-57.3 111.2-57.3 111.2z"/>
						</g>
					</g>
					<g id="&lt;Group&gt;">
						<g id="&lt;Group&gt;">
							<path id="&lt;Path&gt;" class="s7" d="m302.5 643.8l-40 3.4c-4.2 0.4-8 2.7-10.3 6.3l-17.9 28.2c0 0 7.2 3.3 11.9-1.9 4.8-5.5 12.3-16.4 12.3-16.4l-3.4 31.4c0 0 9.3 0.9 10.8-6.1 1.8-8 1.9-18.6 1.9-18.6l9.1 29.9c0 0 9.7-3.2 6.6-14.5-2-7.1-4.1-14.5-4.1-14.5l10.9 19.5c0 0 8-0.7 6-8-1.4-4.8-5.7-14.3-5.7-14.3 0 0 23.1 1.7 27.7 0 6.2-2.2 12.6-15.5 12.6-15.5z"/>
						</g>
					</g>
					<g id="&lt;Group&gt;">
						<g id="&lt;Group&gt;">
							<g id="&lt;Group&gt;">
								<path id="&lt;Path&gt;" class="s2" d="m267 400.1c0 0-33.5 18-29.9 43.3 3.7 25.2 32.6 38.4 32.6 38.4l37.5 40.2 59-51.2-53.7-66.7"/>
							</g>
						</g>
						<g id="&lt;Group&gt;">
							<g id="&lt;Group&gt;">
								<g id="&lt;Group&gt;">
									<path id="&lt;Path&gt;" class="s3" d="m312.5 404.1q0.1 0 0.3 0.3 0.3 0.3 0.8 0.9 1 1.2 2.9 3.5c2.6 3.2 6.3 7.7 11.1 13.5 9.4 11.7 22.9 28.3 39 48.2l0.3 0.3-0.4 0.3c-17.2 15-37.3 32.5-58.6 51.1l-0.3 0.2-0.4 0.4-0.4-0.4c-13.2-14.2-25.9-27.8-37.5-40.3l0.2 0.1c-7.2-3.5-13.4-8-18.7-13.1-5.2-5.1-9.4-10.9-11.8-17.1-0.5-1.6-1.1-3.1-1.5-4.7-0.3-1.5-0.7-3.1-0.8-4.6-0.4-3.1-0.2-6.1 0.4-9 1.2-5.6 4-10.4 6.8-14.2 5.9-7.7 12.1-12.3 16.3-15.3 2.1-1.4 3.8-2.5 5-3.2q0.8-0.4 1.4-0.7 0.4-0.2 0.4-0.2 0 0-0.4 0.3-0.5 0.3-1.3 0.8c-1.1 0.7-2.8 1.8-4.9 3.3-4.2 3.1-10.3 7.7-16 15.4-2.8 3.8-5.4 8.5-6.6 14-0.5 2.8-0.7 5.7-0.3 8.7 0.1 1.5 0.6 3 0.9 4.5 0.3 1.6 0.9 3 1.4 4.6 4.9 12.1 16.2 22.6 30.1 29.6l0.1 0.1h0.1c11.6 12.5 24.3 26.1 37.5 40.3l-0.7-0.1 0.3-0.2c21.4-18.6 41.5-36 58.7-51v0.7c-16-20-29.4-36.7-38.8-48.5-4.6-5.8-8.3-10.4-10.8-13.6q-1.8-2.3-2.8-3.6-0.5-0.6-0.7-1-0.3-0.3-0.3-0.3z"/>
								</g>
							</g>
						</g>
					</g>
				</g>
				<g id="&lt;Group&gt;">
					<g id="&lt;Group&gt;">
						<path id="&lt;Path&gt;" class="s8" d="m271.2 651.5c0 0.2-1.3 0.1-3.2 0.7-2 0.5-4.6 1.8-6.6 4.2-1.9 2.3-2.7 5.1-2.9 7.2-0.2 2 0.1 3.3-0.1 3.3-0.1 0-0.6-1.2-0.6-3.4 0-2.1 0.7-5.2 2.8-7.8 2.2-2.6 5.1-3.8 7.2-4.2 2.1-0.4 3.5-0.1 3.4 0z"/>
					</g>
				</g>
				<g id="&lt;Group&gt;">
					<g id="&lt;Group&gt;">
						<path id="&lt;Path&gt;" class="s8" d="m274.9 656.2c0.1 0.1-0.8 0.7-2.1 1.7-0.7 0.5-1.5 1.1-2.3 1.8-0.8 0.7-1.7 1.5-2 2.6-0.8 2.3-0.6 4.7-0.5 6.3 0.2 1.6 0.4 2.6 0.3 2.7-0.1 0-0.7-0.9-1-2.6-0.3-1.7-0.7-4.1 0.2-6.7 0.5-1.4 1.5-2.3 2.4-3 0.9-0.7 1.7-1.3 2.5-1.7 1.5-0.9 2.5-1.2 2.5-1.1z"/>
					</g>
				</g>
				<g id="&lt;Group&gt;">
					<g id="&lt;Group&gt;">
						<path id="&lt;Path&gt;" class="s8" d="m291.7 660c0 0.1-1.2 0.5-3.3 0.7-1.9 0.3-4.9 0.4-6.7 2.8-1.7 2.3-2.1 5.2-1.7 7 0.3 1.9 1 3 0.8 3.1-0.1 0.1-0.9-0.9-1.5-2.9-0.6-2-0.4-5.2 1.6-7.9 1-1.3 2.5-2.1 3.9-2.4 1.3-0.4 2.6-0.4 3.6-0.4 2-0.1 3.2-0.2 3.3 0z"/>
					</g>
				</g>
				<g id="&lt;Group&gt;">
					<g id="&lt;Group&gt;">
						<path id="&lt;Path&gt;" class="s8" d="m322.8 651.5c-0.1 0.3-4.9-1.4-10.8-3.6-2.9-1.1-5.5-2.2-7.4-2.9-1.9-0.8-3-1.4-3-1.4 0.1-0.5 5 1.1 10.8 3.3 5.8 2.3 10.5 4.3 10.4 4.6z"/>
					</g>
				</g>
			</g>
			<g id="&lt;Group&gt;" style="opacity: .3">
				<path id="&lt;Path&gt;" class="s5" d="m412.7 473.4c0 0-7.2 62.8-21.3 88.4-14 25.6-25.6 47.5-25.6 47.5l-1 4.9c0 0 28.6-45.1 33.7-56.3 5.2-11.2 14.6-33.7 19.8-55.6 5.1-21.8 6-25.5 5.8-25.5 0 0-8.2-6-11.4-3.4z"/>
			</g>
		</g>
	</g>
</svg>